<?xml version="1.0" encoding="UTF-8"?>
<svg width="286px" height="57px" viewBox="0 0 286 57" version="1.1" xmlns="http://www.w3.org/2000/svg" xmlns:xlink="http://www.w3.org/1999/xlink">
    <title>编组</title>
    <g id="2023111版本" stroke="none" stroke-width="1" fill="none" fill-rule="evenodd">
        <g id="关机1060-正在更新3" transform="translate(-817.000000, -418.000000)" fill="#FFFFFF">
            <g id="编组" transform="translate(817.000000, 418.000000)">
                <path d="M0,54.1467699 L0,2.85323007 C0,1.27587835 1.28303205,0 2.86588844,0 L82.9324909,0 C84.5126462,0 85.7956782,1.27587835 85.7956782,2.85323007 L85.7956782,25.6467699 C85.7956782,27.2241216 87.0760091,28.5 88.6588655,28.5 L111.537353,28.5 C113.117508,28.5 114.403241,29.7785701 114.403241,31.3532301 L114.403241,54.1467699 C114.403241,55.7214299 113.117508,57 111.537353,57 L2.86588844,57 C1.28303205,57 0,55.7214299 0,54.1467699" id="Fill-1"></path>
                <path d="M286,54.1467699 L286,2.85323007 C286,1.27587835 284.716968,0 283.136813,0 L203.072371,0 C201.489515,0 200.206483,1.27587835 200.206483,2.85323007 L200.206483,25.6494617 C200.206483,27.2268134 198.926152,28.5053835 197.343295,28.5053835 L174.464808,28.5053835 C172.881952,28.5053835 171.59892,29.7812618 171.59892,31.3586135 L171.59892,54.1467699 C171.59892,55.7214299 172.881952,57 174.464808,57 L283.136813,57 C284.716968,57 286,55.7214299 286,54.1467699" id="Fill-2"></path>
                <path d="M100.09973,2.88418493 L102.625277,2.88418493 L102.625277,7.55971383 C102.625277,8.9701785 103.351879,9.51659898 104.553877,9.51659898 C105.988172,9.51659898 106.463569,8.86520117 106.463569,7.48972894 L106.463569,2.88418493 L108.983714,2.88418493 L108.983714,7.95001417 C108.983714,9.5085238 108.421881,11.6296043 104.534969,11.6296043 C101.704195,11.6296043 100.09973,10.4667784 100.09973,8.12228466 L100.09973,2.88418493 Z" id="Fill-3"></path>
                <polygon id="Fill-4" points="111.276155 2.88418493 113.704462 2.88418493 117.685913 8.14112675 117.685913 2.88418493 120.060197 2.88418493 120.060197 11.4331082 117.621086 11.4331082 113.658543 6.18962505 113.658543 11.4331082 111.276155 11.4331082"></polygon>
                <polygon id="Fill-5" points="136.986766 2.88418493 139.415073 2.88418493 143.396524 8.14112675 143.396524 2.88418493 145.77351 2.88418493 145.77351 11.4331082 143.331698 11.4331082 139.369154 6.18962505 139.369154 11.4331082 136.986766 11.4331082"></polygon>
                <polygon id="Fill-6" points="122.404229 11.4339158 124.935179 11.4339158 124.935179 2.88499244 122.404229 2.88499244"></polygon>
                <path d="M131.004326,9.43100208 C129.821235,9.43100208 128.859636,8.48351436 128.859636,7.15918493 C128.859636,5.83216377 129.821235,4.89275123 131.004326,4.89275123 C132.184715,4.89275123 133.146314,5.83216377 133.146314,7.15918493 C133.146314,8.48351436 132.184715,9.43100208 131.004326,9.43100208 M131.004326,2.7043776 C128.119529,2.7043776 126.366502,4.69894692 126.366502,7.1564932 C126.366502,9.61673121 128.443664,11.6113005 131.004326,11.6113005 C133.562286,11.6113005 135.642149,9.61673121 135.642149,7.1564932 C135.642149,4.69894692 133.762169,2.7043776 131.004326,2.7043776" id="Fill-7"></path>
                <polygon id="Fill-8" points="147.324493 2.88418493 155.862734 2.88418493 155.862734 4.69840858 152.86179 4.69840858 152.86179 11.4331082 150.336242 11.4331082 150.336242 4.70917548 147.324493 4.70917548"></polygon>
                <polygon id="Fill-9" points="157.406154 2.88418493 165.228598 2.88418493 165.228598 4.69840858 159.931701 4.69840858 159.931701 6.17616641 164.796419 6.17616641 164.796419 7.89079618 159.931701 7.89079618 159.931701 9.62157631 165.342045 9.62157631 165.342045 11.4331082 157.406154 11.4331082"></polygon>
                <path d="M173.196092,5.94790801 L175.378597,5.94790801 C175.300264,4.32210521 173.884878,2.67476861 171.264791,2.67476861 C168.582579,2.67476861 166.783633,4.39747355 166.783633,7.24262845 C166.783633,10.0877833 169.084987,11.6355261 171.229676,11.6355261 C173.887579,11.6355261 175.305667,10.0743247 175.451527,7.95324424 L173.269022,7.95324424 C173.139368,8.97071685 172.674776,9.75131753 171.299906,9.75131753 C170.016874,9.75131753 169.049872,8.76345391 169.049872,7.28031262 C169.049872,5.58990839 170.011471,4.60204477 171.272894,4.60204477 C172.780119,4.60204477 173.160977,5.63028428 173.196092,5.94790801" id="Fill-10"></path>
                <polygon id="Fill-11" points="177.12109 2.88418493 179.643936 2.88418493 179.643936 6.03619664 183.39309 6.03619664 183.39309 2.88418493 185.918638 2.88418493 185.918638 11.4331082 183.382286 11.4331082 183.382286 7.88541273 179.643936 7.88541273 179.643936 11.4331082 177.12109 11.4331082"></polygon>
            </g>
        </g>
    </g>
</svg>