<?xml version="1.0" encoding="UTF-8"?>
<svg width="286px" height="57px" viewBox="0 0 286 57" version="1.1" xmlns="http://www.w3.org/2000/svg" xmlns:xlink="http://www.w3.org/1999/xlink">
    <title>编组 2</title>
    <defs>
        <path d="M82.9324909,0 C84.5126462,0 85.7956782,1.27587835 85.7956782,2.85323007 L85.7956782,25.6467699 C85.7956782,27.2241216 87.0760091,28.5 88.6588655,28.5 L111.537353,28.5 C113.117508,28.5 114.403241,29.7785701 114.403241,31.3532301 L114.403241,54.1467699 C114.403241,55.7214299 113.117508,57 111.537353,57 L2.86588844,57 C1.28303205,57 0,55.7214299 0,54.1467699 L0,2.85323007 C0,1.27587835 1.28303205,0 2.86588844,0 L82.9324909,0 Z M283.136813,0 C284.716968,0 286,1.27587835 286,2.85323007 L286,54.1467699 C286,55.7214299 284.716968,57 283.136813,57 L174.464808,57 C172.881952,57 171.59892,55.7214299 171.59892,54.1467699 L171.59892,31.3586135 C171.59892,29.7812618 172.881952,28.5053835 174.464808,28.5053835 L197.343295,28.5053835 C198.926152,28.5053835 200.206483,27.2268134 200.206483,25.6494617 L200.206483,2.85323007 C200.206483,1.27587835 201.489515,0 203.072371,0 L283.136813,0 Z" id="path-1"></path>
    </defs>
    <g id="20230320版本" stroke="none" stroke-width="1" fill="none" fill-rule="evenodd">
        <g id="关机1060-正在更新动效" transform="translate(-817.000000, -418.000000)">
            <g id="编组-2" transform="translate(817.000000, 418.000000)">
                <mask id="mask-2" fill="white">
                    <use xlink:href="#path-1"></use>
                </mask>
                <use id="形状" fill="#FFFFFF" xlink:href="#path-1"></use>
            </g>
        </g>
    </g>
</svg>