<?xml version="1.0" encoding="UTF-8"?>
<svg width="232px" height="46px" viewBox="0 0 232 46" version="1.1" xmlns="http://www.w3.org/2000/svg" xmlns:xlink="http://www.w3.org/1999/xlink">
    <title>锁屏水印-企业版-EN</title>
    <defs>
        <linearGradient x1="-1.23547869%" y1="48.0273034%" x2="100%" y2="51.5162215%" id="linearGradient-1">
            <stop stop-color="#FFFFFF" stop-opacity="0.25" offset="0%"></stop>
            <stop stop-color="#FFFFFF" stop-opacity="0.35" offset="15.8878787%"></stop>
            <stop stop-color="#FFFFFF" stop-opacity="0.151570353" offset="35.1027096%"></stop>
            <stop stop-color="#FFFFFF" stop-opacity="0.4" offset="53.8811523%"></stop>
            <stop stop-color="#FFFFFF" stop-opacity="0.15" offset="70.9665078%"></stop>
            <stop stop-color="#FFFFFF" stop-opacity="0.3" offset="83.5911059%"></stop>
            <stop stop-color="#FFFFFF" stop-opacity="0.14" offset="100%"></stop>
        </linearGradient>
        <path d="M47.3361667,8 C48.1428194,8 48.7977938,8.64913109 48.7977938,9.45164337 L48.7977938,21.0483566 C48.7977938,21.8508689 49.4513893,22.5 50.2594209,22.5 L61.9386487,22.5 C62.7453014,22.5 63.4016547,23.1505006 63.4016547,23.9516434 L63.4016547,35.5483566 C63.4016547,36.3494994 62.7453014,37 61.9386487,37 L6.46300599,37 C5.65497441,37 5,36.3494994 5,35.5483566 L5,9.45164337 C5,8.64913109 5.65497441,8 6.46300599,8 L47.3361667,8 Z M57.3891275,9.46739233 L57.3891275,11.8461702 C57.3891275,12.563775 57.7600499,12.8417784 58.3736575,12.8417784 C59.1058499,12.8417784 59.3485352,12.5103655 59.3485352,11.8105638 L59.3485352,9.46739233 L60.6350428,9.46739233 L60.6350428,12.044744 C60.6350428,12.83767 60.3482329,13.9168162 58.3640052,13.9168162 C56.9189248,13.9168162 56.0998621,13.3252031 56.0998621,12.1323904 L56.0998621,9.46739233 L57.3891275,9.46739233 Z M63.0449349,9.46739233 L65.0774239,12.1419768 L65.0774239,9.46739233 L66.2894713,9.46739233 L66.2894713,13.8168445 L65.0443305,13.8168445 L63.0214937,11.1491075 L63.0214937,13.8168445 L61.8053097,13.8168445 L61.8053097,9.46739233 L63.0449349,9.46739233 Z M149.538373,8 C150.345026,8 151,8.64913109 151,9.45164337 L151,9.45164337 L151,35.5483566 C151,36.3494994 150.345026,37 149.538373,37 L149.538373,37 L94.0624544,37 C93.2544228,37 92.5994484,36.3494994 92.5994484,35.5483566 L92.5994484,35.5483566 L92.5994484,23.9543823 C92.5994484,23.15187 93.2544228,22.5027389 94.0624544,22.5027389 L94.0624544,22.5027389 L105.741682,22.5027389 C106.549714,22.5027389 107.203309,21.8522384 107.203309,21.0497261 L107.203309,21.0497261 L107.203309,9.45164337 C107.203309,8.64913109 107.858284,8 108.666315,8 L108.666315,8 Z M92.4288793,9.36084719 C93.766406,9.36084719 94.4889462,10.1989658 94.5289341,11.0261286 L94.5289341,11.0261286 L93.4147882,11.0261286 C93.3968625,10.8645306 93.2024386,10.3413912 92.433016,10.3413912 C91.7890727,10.3413912 91.2981867,10.8439885 91.2981867,11.7040187 C91.2981867,12.4585994 91.7918305,12.9611966 92.4468049,12.9611966 C93.1486617,12.9611966 93.3858314,12.5640489 93.4520183,12.0463874 L93.4520183,12.0463874 L94.5661642,12.0463874 C94.491704,13.1255336 93.7677849,13.9198291 92.4109537,13.9198291 C91.3161123,13.9198291 90.141295,13.132381 90.141295,11.6848461 C90.141295,10.2373111 91.0596381,9.36084719 92.4288793,9.36084719 Z M96.7063448,9.46739233 L96.7063448,11.0710474 L98.620249,11.0710474 L98.620249,9.46739233 L99.9095144,9.46739233 L99.9095144,13.8168445 L98.6147334,13.8168445 L98.6147334,12.0118767 L96.7063448,12.0118767 L96.7063448,13.8168445 L95.4184583,13.8168445 L95.4184583,9.46739233 L96.7063448,9.46739233 Z M74.9303073,9.46739233 L76.1699326,9.46739233 L78.2024216,12.1419768 L78.2024216,9.46739233 L79.4158478,9.46739233 L79.4158478,13.8168445 L78.1693281,13.8168445 L76.1464914,11.1491075 L76.1464914,13.8168445 L74.9303073,13.8168445 L74.9303073,9.46739233 Z M67.4860751,13.8172554 L68.7780983,13.8172554 L68.7780983,9.46780317 L67.4860751,9.46780317 L67.4860751,13.8172554 Z M71.876334,12.7982291 C71.2723787,12.7982291 70.7814926,12.316174 70.7814926,11.6423923 C70.7814926,10.9672412 71.2723787,10.4892945 71.876334,10.4892945 C72.4789105,10.4892945 72.9697966,10.9672412 72.9697966,11.6423923 C72.9697966,12.316174 72.4789105,12.7982291 71.876334,12.7982291 M71.876334,9.37591141 C70.4036758,9.37591141 69.5087739,10.3906923 69.5087739,11.6410229 C69.5087739,12.8927229 70.569143,13.9075038 71.876334,13.9075038 C73.1821462,13.9075038 74.2438941,12.8927229 74.2438941,11.6410229 C74.2438941,10.3906923 73.2841843,9.37591141 71.876334,9.37591141 M80.2076085,9.46739233 L84.5662908,9.46739233 L84.5662908,10.3904184 L83.0343401,10.3904184 L83.0343401,13.8168445 L81.7450747,13.8168445 L81.7450747,10.3958963 L80.2076085,10.3958963 L80.2076085,9.46739233 Z M85.3541905,9.46739233 L89.347466,9.46739233 L89.347466,10.3904184 L86.6434559,10.3904184 L86.6434559,11.1422601 L89.1268431,11.1422601 L89.1268431,12.0146156 L86.6434559,12.0146156 L86.6434559,12.8951879 L89.4053796,12.8951879 L89.4053796,13.8168445 L85.3541905,13.8168445 L85.3541905,9.46739233 Z" id="path-2"></path>
        <filter x="-7.2%" y="-32.9%" width="114.4%" height="172.7%" filterUnits="objectBoundingBox" id="filter-3">
            <feMorphology radius="1.04285714" operator="dilate" in="SourceAlpha" result="shadowSpreadOuter1"></feMorphology>
            <feOffset dx="0" dy="1" in="shadowSpreadOuter1" result="shadowOffsetOuter1"></feOffset>
            <feGaussianBlur stdDeviation="3" in="shadowOffsetOuter1" result="shadowBlurOuter1"></feGaussianBlur>
            <feComposite in="shadowBlurOuter1" in2="SourceAlpha" operator="out" result="shadowBlurOuter1"></feComposite>
            <feColorMatrix values="0 0 0 0 0   0 0 0 0 0   0 0 0 0 0  0 0 0 0.2 0" type="matrix" in="shadowBlurOuter1"></feColorMatrix>
        </filter>
        <linearGradient x1="-1.23547869%" y1="43.9481645%" x2="100%" y2="54.6514621%" id="linearGradient-4">
            <stop stop-color="#FFFFFF" stop-opacity="0.25" offset="0%"></stop>
            <stop stop-color="#FFFFFF" stop-opacity="0.35" offset="15.8878787%"></stop>
            <stop stop-color="#FFFFFF" stop-opacity="0.23958561" offset="35.1027096%"></stop>
            <stop stop-color="#FFFFFF" stop-opacity="0.4" offset="53.8811523%"></stop>
            <stop stop-color="#FFFFFF" stop-opacity="0.27107975" offset="70.9665078%"></stop>
            <stop stop-color="#FFFFFF" stop-opacity="0.3" offset="83.5911059%"></stop>
            <stop stop-color="#FFFFFF" stop-opacity="0.144360522" offset="100%"></stop>
        </linearGradient>
        <path d="M160.5672,20 L160.5672,19.1376 L158.9216,19.1376 C158.6048,19.1376 158.1912,19.164 157.8656,19.1992 C159.212,17.7912 160.2592,16.6296 160.2592,15.4768 C160.2592,14.3328 159.4936,13.576 158.3056,13.576 C157.4608,13.576 156.8888,13.9456 156.3344,14.544 L156.9064,15.1072 C157.2496,14.7112 157.672,14.3856 158.1824,14.3856 C158.9128,14.3856 159.2824,14.8432 159.2824,15.5296 C159.2824,16.5152 158.1912,17.6416 156.3872,19.4104 L156.3872,20 L160.5672,20 Z M163.524,20.1144 C164.8176,20.1144 165.6184,18.944 165.6184,16.8232 C165.6184,14.7112 164.8176,13.576 163.524,13.576 C162.2392,13.576 161.4296,14.7024 161.4296,16.8232 C161.4296,18.944 162.2392,20.1144 163.524,20.1144 Z M163.524,19.3136 C162.864,19.3136 162.3976,18.636 162.3976,16.8232 C162.3976,15.0104 162.864,14.3768 163.524,14.3768 C164.184,14.3768 164.6504,15.0104 164.6504,16.8232 C164.6504,18.636 164.184,19.3136 163.524,19.3136 Z M169.8864,20 L169.8864,17.5448 L170.8632,17.5448 C172.2712,17.5448 173.3008,16.8936 173.3008,15.4768 C173.3008,14.016 172.2712,13.5144 170.828,13.5144 L168.8656,13.5144 L168.8656,20 L169.8864,20 Z M170.7664,16.7264 L169.8864,16.7264 L169.8864,14.3416 L170.7312,14.3416 C171.7608,14.3416 172.2976,14.6232 172.2976,15.4768 C172.2976,16.3304 171.8048,16.7264 170.7664,16.7264 Z M175.4832,20 L175.4832,16.9816 C175.7824,16.216 176.2576,15.9432 176.6536,15.9432 C176.8472,15.9432 176.9704,15.9696 177.1376,16.0224 L177.3224,15.1424 C177.1728,15.072 177.0144,15.0368 176.7768,15.0368 C176.2576,15.0368 175.7472,15.4064 175.404,16.0312 L175.3776,16.0312 L175.2984,15.16 L174.4712,15.16 L174.4712,20 L175.4832,20 Z M180.0064,20.1144 C181.2032,20.1144 182.2856,19.1904 182.2856,17.58 C182.2856,15.9696 181.2032,15.0368 180.0064,15.0368 C178.8096,15.0368 177.7272,15.9696 177.7272,17.58 C177.7272,19.1904 178.8096,20.1144 180.0064,20.1144 Z M180.0064,19.2872 C179.2496,19.2872 178.7744,18.6096 178.7744,17.58 C178.7744,16.5592 179.2496,15.8728 180.0064,15.8728 C180.772,15.8728 181.2472,16.5592 181.2472,17.58 C181.2472,18.6096 180.772,19.2872 180.0064,19.2872 Z M184.6528,20 L184.6528,15.9696 L185.6296,15.9696 L185.6296,15.16 L184.6528,15.16 L184.6528,14.544 C184.6528,13.9544 184.864,13.6728 185.2952,13.6728 C185.4624,13.6728 185.6472,13.7168 185.8232,13.796 L186.0256,13.0304 C185.8056,12.9424 185.4976,12.872 185.172,12.872 C184.0896,12.872 183.6408,13.5584 183.6408,14.5528 L183.6408,15.16 L182.9808,15.2128 L182.9808,15.9696 L183.6408,15.9696 L183.6408,20 L184.6528,20 Z M188.5248,20.1144 C189.1584,20.1144 189.7128,19.9032 190.1616,19.604 L189.8096,18.9616 C189.4576,19.1904 189.088,19.3224 188.6568,19.3224 C187.8208,19.3224 187.24,18.768 187.1608,17.844 L190.3024,17.844 C190.3288,17.7208 190.3552,17.5272 190.3552,17.3248 C190.3552,15.9608 189.66,15.0368 188.3752,15.0368 C187.2488,15.0368 186.1664,16.0136 186.1664,17.58 C186.1664,19.1816 187.2136,20.1144 188.5248,20.1144 Z M189.4752,17.14 L187.152,17.14 C187.2488,16.2952 187.7856,15.8288 188.3928,15.8288 C189.0968,15.8288 189.4752,16.3128 189.4752,17.14 Z M192.7928,20.1144 C193.9896,20.1144 194.632,19.4544 194.632,18.6448 C194.632,17.7296 193.884,17.4304 193.2064,17.1752 C192.6784,16.9816 192.2032,16.8232 192.2032,16.4096 C192.2032,16.0752 192.4496,15.8112 192.9864,15.8112 C193.3824,15.8112 193.7256,15.9872 194.06,16.2336 L194.5352,15.6088 C194.148,15.3008 193.6112,15.0368 192.9688,15.0368 C191.8952,15.0368 191.244,15.644 191.244,16.4536 C191.244,17.272 191.9568,17.6152 192.608,17.8616 C193.1272,18.064 193.6728,18.2576 193.6728,18.6976 C193.6728,19.0672 193.4,19.3488 192.8192,19.3488 C192.3,19.3488 191.8776,19.1288 191.4464,18.7944 L190.9712,19.4456 C191.4464,19.8328 192.124,20.1144 192.7928,20.1144 Z M197.0168,20.1144 C198.2136,20.1144 198.856,19.4544 198.856,18.6448 C198.856,17.7296 198.108,17.4304 197.4304,17.1752 C196.9024,16.9816 196.4272,16.8232 196.4272,16.4096 C196.4272,16.0752 196.6736,15.8112 197.2104,15.8112 C197.6064,15.8112 197.9496,15.9872 198.284,16.2336 L198.7592,15.6088 C198.372,15.3008 197.8352,15.0368 197.1928,15.0368 C196.1192,15.0368 195.468,15.644 195.468,16.4536 C195.468,17.272 196.1808,17.6152 196.832,17.8616 C197.3512,18.064 197.8968,18.2576 197.8968,18.6976 C197.8968,19.0672 197.624,19.3488 197.0432,19.3488 C196.524,19.3488 196.1016,19.1288 195.6704,18.7944 L195.1952,19.4456 C195.6704,19.8328 196.348,20.1144 197.0168,20.1144 Z M200.4312,14.2536 C200.8008,14.2536 201.0648,14.016 201.0648,13.6464 C201.0648,13.2856 200.8008,13.048 200.4312,13.048 C200.0616,13.048 199.8064,13.2856 199.8064,13.6464 C199.8064,14.016 200.0616,14.2536 200.4312,14.2536 Z M200.9416,20 L200.9416,15.16 L199.9296,15.16 L199.9296,20 L200.9416,20 Z M204.3912,20.1144 C205.588,20.1144 206.6704,19.1904 206.6704,17.58 C206.6704,15.9696 205.588,15.0368 204.3912,15.0368 C203.1944,15.0368 202.112,15.9696 202.112,17.58 C202.112,19.1904 203.1944,20.1144 204.3912,20.1144 Z M204.3912,19.2872 C203.6344,19.2872 203.1592,18.6096 203.1592,17.58 C203.1592,16.5592 203.6344,15.8728 204.3912,15.8728 C205.1568,15.8728 205.632,16.5592 205.632,17.58 C205.632,18.6096 205.1568,19.2872 204.3912,19.2872 Z M208.8704,20 L208.8704,16.568 C209.2928,16.1368 209.6008,15.908 210.0496,15.908 C210.6216,15.908 210.868,16.2424 210.868,17.0784 L210.868,20 L211.88,20 L211.88,16.9552 C211.88,15.7232 211.4224,15.0368 210.3928,15.0368 C209.7328,15.0368 209.24,15.3976 208.7912,15.8288 L208.7648,15.8288 L208.6856,15.16 L207.8584,15.16 L207.8584,20 L208.8704,20 Z M214.4936,20.1144 C215.0744,20.1144 215.5936,19.824 216.0336,19.4456 L216.0688,19.4456 L216.148,20 L216.9752,20 L216.9752,17.0872 C216.9752,15.8024 216.4208,15.0368 215.2152,15.0368 C214.4408,15.0368 213.7632,15.3536 213.2616,15.6704 L213.64,16.3568 C214.0536,16.0928 214.5288,15.864 215.0392,15.864 C215.752,15.864 215.9544,16.3568 215.9632,16.92 C213.948,17.14 213.068,17.6768 213.068,18.7152 C213.068,19.5688 213.6576,20.1144 214.4936,20.1144 Z M214.8016,19.3136 C214.3704,19.3136 214.0448,19.12 214.0448,18.6448 C214.0448,18.0992 214.5288,17.7296 215.9632,17.5624 L215.9632,18.7504 C215.5672,19.1112 215.224,19.3136 214.8016,19.3136 Z M219.4128,20.1144 C219.668,20.1144 219.8352,20.0792 219.9584,20.0352 L219.8264,19.2696 C219.7384,19.2872 219.7032,19.2872 219.6592,19.2872 C219.536,19.2872 219.4216,19.1904 219.4216,18.9176 L219.4216,12.9864 L218.4096,12.9864 L218.4096,18.8648 C218.4096,19.648 218.6824,20.1144 219.4128,20.1144 Z M157.917,33 L157.917,30.147 L160.365,30.147 L160.365,29.274 L157.917,29.274 L157.917,27.249 L160.797,27.249 L160.797,26.367 L156.873,26.367 L156.873,33 L157.917,33 Z M163.904,33.117 C165.128,33.117 166.235,32.172 166.235,30.525 C166.235,28.878 165.128,27.924 163.904,27.924 C162.68,27.924 161.573,28.878 161.573,30.525 C161.573,32.172 162.68,33.117 163.904,33.117 Z M163.904,32.271 C163.13,32.271 162.644,31.578 162.644,30.525 C162.644,29.481 163.13,28.779 163.904,28.779 C164.687,28.779 165.173,29.481 165.173,30.525 C165.173,31.578 164.687,32.271 163.904,32.271 Z M168.685,33 L168.685,29.913 C168.991,29.13 169.477,28.851 169.882,28.851 C170.08,28.851 170.206,28.878 170.377,28.932 L170.566,28.032 C170.413,27.96 170.251,27.924 170.008,27.924 C169.477,27.924 168.955,28.302 168.604,28.941 L168.577,28.941 L168.496,28.05 L167.65,28.05 L167.65,33 L168.685,33 Z M177.86,33 L177.86,32.118 L174.89,32.118 L174.89,29.976 L177.32,29.976 L177.32,29.094 L174.89,29.094 L174.89,27.249 L177.761,27.249 L177.761,26.367 L173.846,26.367 L173.846,33 L177.86,33 Z M180.391,33 L180.391,29.49 C180.823,29.049 181.138,28.815 181.597,28.815 C182.182,28.815 182.434,29.157 182.434,30.012 L182.434,33 L183.469,33 L183.469,29.886 C183.469,28.626 183.001,27.924 181.948,27.924 C181.273,27.924 180.769,28.293 180.31,28.734 L180.283,28.734 L180.202,28.05 L179.356,28.05 L179.356,33 L180.391,33 Z M186.837,33.117 C187.197,33.117 187.53,33.027 187.809,32.937 L187.62,32.172 C187.476,32.235 187.26,32.289 187.089,32.289 C186.576,32.289 186.369,31.983 186.369,31.389 L186.369,28.878 L187.656,28.878 L187.656,28.05 L186.369,28.05 L186.369,26.682 L185.505,26.682 L185.388,28.05 L184.614,28.104 L184.614,28.878 L185.334,28.878 L185.334,31.38 C185.334,32.424 185.721,33.117 186.837,33.117 Z M190.844,33.117 C191.492,33.117 192.059,32.901 192.518,32.595 L192.158,31.938 C191.798,32.172 191.42,32.307 190.979,32.307 C190.124,32.307 189.53,31.74 189.449,30.795 L192.662,30.795 C192.689,30.669 192.716,30.471 192.716,30.264 C192.716,28.869 192.005,27.924 190.691,27.924 C189.539,27.924 188.432,28.923 188.432,30.525 C188.432,32.163 189.503,33.117 190.844,33.117 Z M191.816,30.075 L189.44,30.075 C189.539,29.211 190.088,28.734 190.709,28.734 C191.429,28.734 191.816,29.229 191.816,30.075 Z M195.103,33 L195.103,29.913 C195.409,29.13 195.895,28.851 196.3,28.851 C196.498,28.851 196.624,28.878 196.795,28.932 L196.984,28.032 C196.831,27.96 196.669,27.924 196.426,27.924 C195.895,27.924 195.373,28.302 195.022,28.941 L194.995,28.941 L194.914,28.05 L194.068,28.05 L194.068,33 L195.103,33 Z M198.984,35.007 L198.984,33.405 L198.948,32.559 C199.371,32.919 199.812,33.117 200.253,33.117 C201.369,33.117 202.386,32.145 202.386,30.444 C202.386,28.923 201.684,27.924 200.433,27.924 C199.875,27.924 199.335,28.23 198.903,28.59 L198.876,28.59 L198.795,28.05 L197.949,28.05 L197.949,35.007 L198.984,35.007 Z M200.055,32.262 C199.749,32.262 199.371,32.145 198.984,31.812 L198.984,29.391 C199.398,28.986 199.767,28.788 200.154,28.788 C200.982,28.788 201.315,29.427 201.315,30.462 C201.315,31.623 200.775,32.262 200.055,32.262 Z M204.854,33 L204.854,29.913 C205.16,29.13 205.646,28.851 206.051,28.851 C206.249,28.851 206.375,28.878 206.546,28.932 L206.735,28.032 C206.582,27.96 206.42,27.924 206.177,27.924 C205.646,27.924 205.124,28.302 204.773,28.941 L204.746,28.941 L204.665,28.05 L203.819,28.05 L203.819,33 L204.854,33 Z M208.213,27.123 C208.591,27.123 208.861,26.88 208.861,26.502 C208.861,26.133 208.591,25.89 208.213,25.89 C207.835,25.89 207.574,26.133 207.574,26.502 C207.574,26.88 207.835,27.123 208.213,27.123 Z M208.735,33 L208.735,28.05 L207.7,28.05 L207.7,33 L208.735,33 Z M211.824,33.117 C213.048,33.117 213.705,32.442 213.705,31.614 C213.705,30.7330588 213.027353,30.4101799 212.369871,30.157645 L212.247,30.111 C211.707,29.913 211.221,29.751 211.221,29.328 C211.221,28.986 211.473,28.716 212.022,28.716 C212.427,28.716 212.778,28.896 213.12,29.148 L213.606,28.509 C213.21,28.194 212.661,27.924 212.004,27.924 C210.906,27.924 210.24,28.545 210.24,29.373 C210.24,30.21 210.969,30.561 211.635,30.813 C212.166,31.02 212.724,31.218 212.724,31.668 C212.724,32.046 212.445,32.334 211.851,32.334 C211.32,32.334 210.888,32.109 210.447,31.767 L209.961,32.433 C210.447,32.829 211.14,33.117 211.824,33.117 Z M217.064,33.117 C217.712,33.117 218.279,32.901 218.738,32.595 L218.378,31.938 C218.018,32.172 217.64,32.307 217.199,32.307 C216.344,32.307 215.75,31.74 215.669,30.795 L218.882,30.795 C218.909,30.669 218.936,30.471 218.936,30.264 C218.936,28.869 218.225,27.924 216.911,27.924 C215.759,27.924 214.652,28.923 214.652,30.525 C214.652,32.163 215.723,33.117 217.064,33.117 Z M218.036,30.075 L215.66,30.075 C215.759,29.211 216.308,28.734 216.929,28.734 C217.649,28.734 218.036,29.229 218.036,30.075 Z" id="path-5"></path>
        <filter x="-10.0%" y="-22.7%" width="120.1%" height="154.5%" filterUnits="objectBoundingBox" id="filter-6">
            <feMorphology radius="1.02857143" operator="dilate" in="SourceAlpha" result="shadowSpreadOuter1"></feMorphology>
            <feOffset dx="0" dy="1" in="shadowSpreadOuter1" result="shadowOffsetOuter1"></feOffset>
            <feGaussianBlur stdDeviation="1.5" in="shadowOffsetOuter1" result="shadowBlurOuter1"></feGaussianBlur>
            <feComposite in="shadowBlurOuter1" in2="SourceAlpha" operator="out" result="shadowBlurOuter1"></feComposite>
            <feColorMatrix values="0 0 0 0 0   0 0 0 0 0   0 0 0 0 0  0 0 0 0.2 0" type="matrix" in="shadowBlurOuter1"></feColorMatrix>
        </filter>
    </defs>
    <g id="锁屏水印-企业版-EN" stroke="none" stroke-width="1" fill="none" fill-rule="evenodd">
        <g id="编组-3">
            <rect id="矩形" x="0" y="0" width="232" height="46"></rect>
            <g id="形状结合" fill-rule="nonzero">
                <use fill="black" fill-opacity="1" filter="url(#filter-3)" xlink:href="#path-2"></use>
                <path stroke-opacity="0.05" stroke="#000000" stroke-width="1.04285714" d="M47.3361667,7.47857143 C47.8831848,7.47857143 48.3785913,7.69903633 48.7372538,8.05524896 C49.0969221,8.4124605 49.3192223,8.90606663 49.3192223,9.45164337 L49.3192223,9.45164337 L49.3192223,21.0483566 C49.3192223,21.3050747 49.4239032,21.5371763 49.5930354,21.7051534 C49.7634648,21.8744186 49.999124,21.9785714 50.2594209,21.9785714 L50.2594209,21.9785714 L61.9386487,21.9785714 C62.4853778,21.9785714 62.9810794,22.1992072 63.3400993,22.5554387 C63.7004362,22.912977 63.9230832,23.4068456 63.9230832,23.9516434 L63.9230832,23.9516434 L63.9230832,35.5483566 C63.9230832,36.0931544 63.7004362,36.587023 63.3400993,36.9445613 C62.9810794,37.3007928 62.4853778,37.5214286 61.9386487,37.5214286 L61.9386487,37.5214286 L6.46300599,37.5214286 C5.91556072,37.5214286 5.42011127,37.3008454 5.06137755,36.9448979 C4.7010354,36.5873544 4.47857143,36.0933715 4.47857143,35.5483566 L4.47857143,35.5483566 L4.47857143,9.45164337 C4.47857143,8.90591357 4.7009839,8.41218318 5.06103843,8.05492506 C5.41977763,7.69897205 5.91534304,7.47857143 6.46300599,7.47857143 L6.46300599,7.47857143 Z M149.538373,7.47857143 C150.050777,7.47857143 150.517886,7.67205256 150.869752,7.98928338 C151.232318,8.31616032 151.472298,8.77446595 151.514726,9.28853199 L151.514726,9.28853199 L151.521429,35.5483566 C151.521429,36.0588865 151.326187,36.5245911 151.00552,36.8753688 C150.677251,37.2344625 150.217354,37.4726719 149.701938,37.514775 L149.701938,37.514775 L94.0624544,37.5214286 C93.5496335,37.5214286 93.0824476,37.3278308 92.7305122,37.0107862 C92.367345,36.6836234 92.1271878,36.224979 92.08473,35.7113703 L92.08473,35.7113703 L92.0780199,23.9543823 C92.0780199,23.443033 92.2733296,22.9773825 92.5940847,22.62681 C92.9224129,22.2679604 93.3824916,22.0300328 93.898608,21.9879607 L93.898608,21.9879607 L105.741682,21.9813104 C105.985407,21.9813104 106.207489,21.8897411 106.374632,21.738896 C106.537056,21.5923102 106.647803,21.3898579 106.675213,21.1617722 L106.675213,21.1617722 L106.681881,9.45164337 C106.681881,8.9402941 106.877191,8.47464352 107.197946,8.12407106 C107.526298,7.76519553 107.986419,7.52725948 108.502581,7.4852126 L108.502581,7.4852126 Z M92.4288793,8.83941861 C93.153336,8.83941861 93.7259149,9.04940877 94.1469475,9.36004802 C94.8361899,9.86857325 95.1326023,10.6557616 95.0334225,11.3688084 L95.0334225,11.3688084 L92.9541136,11.602653 L92.8965383,11.0836166 C91.8807531,11.2064079 91.8196152,11.4316365 91.8196152,11.7040187 C91.8196152,11.9281414 91.8815267,12.121335 92.0039864,12.2553687 L92.0039864,12.2553687 L95.073715,11.4770903 C95.1760475,12.4459423 94.8899244,13.2797048 94.2704208,13.8182155 C93.831753,14.1995325 93.2159186,14.4412576 92.4109537,14.4412576 C91.6922655,14.4412576 90.9467407,14.1619175 90.4088926,13.6322866 C89.9386634,13.1692415 89.6198665,12.5167686 89.6198665,11.6848461 C89.6198665,10.8084814 89.9097299,10.1122236 90.3881064,9.62623216 C90.8787261,9.12780256 91.5789147,8.83941861 92.4288793,8.83941861 Z M57.9105561,8.94596376 L57.9105561,11.8461702 L58.8271066,8.94596376 L61.1564714,8.94596376 L61.1564714,12.044744 C61.1564714,12.6440746 61.0045812,13.3525445 60.4018511,13.8493898 C59.9968988,14.1832019 59.3683102,14.4382448 58.3640052,14.4382448 C57.4863175,14.4382448 56.8133763,14.2331418 56.3539808,13.8710812 C55.8610616,13.4825997 55.5784335,12.9111351 55.5784335,12.1323904 L55.5784335,12.1323904 L55.5784335,8.94596376 L57.9105561,8.94596376 Z M71.876334,8.85448284 C72.7169203,8.85448284 73.4220712,9.15881919 73.9251608,9.6401392 C74.4552493,10.1472898 74.7653227,10.8555516 74.7653227,11.6410229 C74.7653227,12.4131234 74.4399225,13.1133664 73.910792,13.6199065 C73.3897477,14.1187057 72.6705998,14.4289323 71.876334,14.4289323 C71.0814311,14.4289323 70.3624905,14.1187891 69.8416982,13.6202312 C69.312555,13.1136789 68.9873453,12.4133184 68.9873453,11.6410229 C68.9873453,10.8470836 69.2863391,10.13409 69.8167175,9.62666211 C70.3091737,9.15551536 71.0069137,8.85448284 71.876334,8.85448284 Z M72.2796147,11.1807717 C72.1770891,11.0726545 72.0336796,11.0107231 71.4717635,11.1808514 C71.3631848,11.2952076 71.3029212,11.4572452 71.3029212,11.6423923 C71.3029212,11.8279039 71.3637818,11.9907536 71.4728342,12.1058815 C71.5754192,12.2141817 71.7187484,12.2768006 71.876334,12.2768006 C72.0333536,12.2768006 72.1762305,12.2141118 72.2785451,12.1059608 C72.3874941,11.9907971 72.448368,11.8279317 72.448368,11.6423923 C72.448368,11.4572171 72.3880908,11.2951638 72.2796147,11.1807717 Z M69.2995268,8.9463746 L69.2995268,14.338684 L66.9646465,14.338684 L66.9646465,8.9463746 L69.2995268,8.9463746 Z M63.3035918,8.94596376 L64.5559954,10.5940214 L64.5559954,8.94596376 L66.8108999,8.94596376 L66.8108999,14.3382731 L64.7853298,14.3382731 L63.5429223,12.6997738 L63.5429223,14.3382731 L61.2838811,14.3382731 L61.2838811,8.94596376 L63.3035918,8.94596376 Z M97.2277734,8.94596376 L97.2277734,10.5496188 L98.0988204,10.5496188 L98.0988204,8.94596376 L100.430943,8.94596376 L100.430943,14.3382731 L98.0933048,14.3382731 L98.0933048,12.5333052 L97.2277734,12.5333052 L97.2277734,14.3382731 L94.8970297,14.3382731 L94.8970297,8.94596376 L97.2277734,8.94596376 Z M76.4285894,8.94596376 L77.680993,10.5940214 L77.680993,8.94596376 L79.9372764,8.94596376 L79.9372764,14.3382731 L77.9103274,14.3382731 L76.6679199,12.6997738 L76.6679199,14.3382731 L74.4088788,14.3382731 L74.4088788,8.94596376 L76.4285894,8.94596376 Z M85.0877193,8.94596376 L85.0877193,10.911847 L83.5557687,10.911847 L83.5557687,14.3382731 L81.2236461,14.3382731 L81.2236461,10.9173249 L79.6861799,10.9173249 L79.6861799,8.94596376 L85.0877193,8.94596376 Z M89.8688946,8.94596376 L89.8688946,10.911847 L89.648,10.911 L89.648,12.337 L89.9268081,12.3737594 L89.9268081,14.3382731 L84.8327619,14.3382731 L84.8327619,8.94596376 L89.8688946,8.94596376 Z" fill="url(#linearGradient-1)" fill-rule="evenodd"></path>
            </g>
            <g id="形状结合" fill-rule="nonzero">
                <use fill="black" fill-opacity="1" filter="url(#filter-6)" xlink:href="#path-5"></use>
                <path stroke-opacity="0.05" stroke="#000000" stroke-width="1.02857143" d="M200.433,27.4097143 C201.227351,27.4097143 201.844525,27.7298131 202.270233,28.2791142 C202.669908,28.7948244 202.900286,29.5357658 202.900286,30.444 C202.900286,31.3929089 202.618603,32.142119 202.19622,32.6714338 C201.693945,33.300868 200.988757,33.6312857 200.253,33.6312857 C200.008802,33.6312857 199.762948,33.586113 199.518525,33.4962437 L199.498,33.488 L199.498286,35.5212857 L197.434714,35.5212857 L197.434714,27.5357143 L199.237896,27.5357143 L199.266,27.725 L199.453177,27.6350044 C199.706174,27.5232191 199.968265,27.4461046 200.233539,27.4197302 L200.433,27.4097143 Z M200.154,29.3022857 C199.928468,29.3022857 199.722325,29.4193826 199.498286,29.6149062 L199.498286,29.6149062 L199.498286,31.5577162 L199.617542,31.6281891 C199.774591,31.7106374 199.923121,31.7477143 200.055,31.7477143 C200.258065,31.7477143 200.431194,31.6496101 200.553791,31.4744724 C200.718672,31.2389274 200.800714,30.8938373 200.800714,30.462 C200.800714,30.0573344 200.756209,29.721835 200.154,29.3022857 Z M216.911,27.4097143 C217.727748,27.4097143 218.352108,27.7103486 218.783217,28.2085193 C219.2093,28.7008814 219.450286,29.4068509 219.450286,30.264 C219.450286,30.5130447 219.417349,30.7511882 219.38487,30.9027578 L219.38487,30.9027578 L216.333888,31.3092857 C216.675816,31.7081588 216.91855,31.7927143 217.199,31.7927143 C217.718714,31.7927143 218.11983,31.5370957 218.538344,31.1603913 L218.538344,31.1603913 L219.401855,32.7362991 C218.812277,33.2403104 218.011341,33.6312857 217.064,33.6312857 C216.220919,33.6312857 215.469885,33.3146887 214.937507,32.7425809 C214.449333,32.2179759 214.137714,31.4706948 214.137714,30.525 C214.137714,29.6188759 214.443966,28.8796557 214.903166,28.3509354 C215.431327,27.7428136 216.165232,27.4097143 216.911,27.4097143 Z M190.691,27.4097143 C191.507748,27.4097143 192.132108,27.7103486 192.563217,28.2085193 C192.9893,28.7008814 193.230286,29.4068509 193.230286,30.264 C193.230286,30.5130447 193.197349,30.7511882 193.16487,30.9027578 L193.16487,30.9027578 L190.113888,31.3092857 C190.455816,31.7081588 190.69855,31.7927143 190.979,31.7927143 C191.498714,31.7927143 191.89983,31.5370957 192.318344,31.1603913 L192.318344,31.1603913 L193.181855,32.7362991 C192.592277,33.2403104 191.791341,33.6312857 190.844,33.6312857 C190.000919,33.6312857 189.249885,33.3146887 188.717507,32.7425809 C188.229333,32.2179759 187.917714,31.4706948 187.917714,30.525 C187.917714,29.6188759 188.223966,28.8796557 188.683166,28.3509354 C189.211327,27.7428136 189.945232,27.4097143 190.691,27.4097143 Z M186.883286,26.1677143 L186.883286,27.5357143 L188.170286,27.5357143 L188.170286,29.3922857 L186.883286,29.3922857 L186.883286,31.389 L187.972916,31.4562484 L188.421422,33.2716314 C188.041958,33.3978906 187.47487,33.6312857 186.837,33.6312857 C186.115221,33.6312857 185.635805,33.3923294 185.316253,33.0230265 C184.984205,32.6392824 184.819714,32.079426 184.819714,31.38 L184.819714,31.38 L184.819714,29.3922857 L184.099714,29.3922857 L184.099714,27.6243446 L184.913095,27.5675971 L185.032822,26.1677143 L186.883286,26.1677143 Z M212.004,27.4097143 C213.023287,27.4097143 213.829542,27.9445556 214.297056,28.4499322 L214.297056,28.4499322 L213.219798,29.8663274 C212.823244,29.5852922 212.478718,29.2302857 212.022,29.2302857 L212.051,29.232 L212.05796,29.2522799 C212.130077,29.4516292 212.213104,29.5375483 212.323537,29.5891334 L212.372592,29.6093698 C212.954991,29.8314804 213.419895,30.052431 213.735892,30.3781805 C214.031081,30.6824803 214.219286,31.0714811 214.219286,31.614 C214.219286,32.2038437 213.973947,32.7358247 213.504425,33.1109927 C213.113496,33.4233621 212.553778,33.6312857 211.824,33.6312857 C210.835945,33.6312857 209.829295,33.1240582 209.282373,32.490514 L209.282373,32.490514 L210.351546,31.025351 C210.859457,31.44532 211.272736,31.8197143 211.851,31.8197143 C211.969801,31.5022699 211.742858,31.4066278 211.516044,31.3185262 C210.99137,31.1192156 210.527638,30.8975758 210.206655,30.5662385 C209.915878,30.2660817 209.725714,29.8828943 209.725714,29.373 C209.725714,28.7895087 209.967731,28.2820833 210.403444,27.9241759 C210.78406,27.6115276 211.324917,27.4097143 212.004,27.4097143 Z M163.904,27.4097143 C164.690455,27.4097143 165.43685,27.731575 165.970274,28.326785 C166.439591,28.8504628 166.749286,29.5910694 166.749286,30.525 C166.749286,31.4588838 166.439684,32.1970603 165.970731,32.7185217 C165.437436,33.3115289 164.690924,33.6312857 163.904,33.6312857 C163.117076,33.6312857 162.370564,33.3115289 161.837269,32.7185217 C161.368316,32.1970603 161.058714,31.4588838 161.058714,30.525 C161.058714,29.5910694 161.368409,28.8504628 161.837726,28.326785 C162.37115,27.731575 163.117545,27.4097143 163.904,27.4097143 Z M163.904,29.2932857 C163.693594,29.2932857 163.523982,29.3906997 163.405212,29.5552812 C163.236529,29.7890275 163.158286,30.1278758 163.158286,30.525 C163.158286,30.9247267 163.235737,31.2632312 163.4038,31.4961186 C163.522755,31.660956 163.693198,31.7567143 163.904,31.7567143 C164.118385,31.7567143 164.291779,31.6616062 164.412345,31.4957214 C164.581429,31.2630815 164.658714,30.9245987 164.658714,30.525 C164.658714,30.1280028 164.580633,29.789176 164.410925,29.5556769 C164.290543,29.3900441 164.117978,29.2932857 163.904,29.2932857 Z M196.426,27.4097143 C196.95371,27.4097143 197.203114,27.5466154 197.564285,27.7711358 L197.564285,27.7711358 L197.183105,29.5862789 C196.647096,29.447036 196.575266,29.3652857 196.3,29.3652857 C195.826397,29.6296898 195.713462,29.7937356 195.617286,30.0146589 L195.617286,30.0146589 L195.617286,33.5142857 L193.553714,33.5142857 L193.553714,27.5357143 L195.383653,27.5357143 L195.402,27.743 L195.420698,27.73069 C195.696571,27.5483081 195.989214,27.442762 196.280534,27.416328 Z M181.948,27.4097143 C182.657906,27.4097143 183.158277,27.6635775 183.495702,28.0988366 C183.809318,28.5033825 183.983286,29.0993283 183.983286,29.886 L183.983286,29.886 L183.983286,33.5142857 L181.919714,33.5142857 L181.919714,30.012 C181.919714,29.7319343 181.90691,29.521286 181.81562,29.3907315 C181.321883,29.3292857 181.133004,29.4763391 180.905286,29.7013631 L180.905286,29.7013631 L180.905286,33.5142857 L178.841714,33.5142857 L178.841714,27.5357143 L180.658977,27.5357143 L180.687,27.778 L180.698377,27.771751 C181.018294,27.5812768 181.362336,27.4513436 181.750279,27.4181071 Z M178.275286,25.8527143 L178.275286,27.7632857 L175.404286,27.7632857 L175.404286,28.5797143 L177.834286,28.5797143 L177.834286,30.4902857 L175.404286,30.4902857 L175.404286,31.6037143 L178.374286,31.6037143 L178.374286,33.5142857 L173.331714,33.5142857 L173.331714,25.8527143 L178.275286,25.8527143 Z M209.249286,27.5357143 L209.249286,33.5142857 L207.185714,33.5142857 L207.185714,27.5357143 L209.249286,27.5357143 Z M170.008,27.4097143 C170.53571,27.4097143 170.785114,27.5466154 171.146285,27.7711358 L171.146285,27.7711358 L170.765105,29.5862789 C170.229096,29.447036 170.157266,29.3652857 169.882,29.3652857 C169.408397,29.6296898 169.295462,29.7937356 169.199286,30.0146589 L169.199286,30.0146589 L169.199286,33.5142857 L167.135714,33.5142857 L167.135714,27.5357143 L168.965653,27.5357143 L168.984,27.743 L169.002698,27.73069 C169.278571,27.5483081 169.571214,27.442762 169.862534,27.416328 Z M161.311286,25.8527143 L161.311286,27.7632857 L158.431286,27.7632857 L158.431286,28.7597143 L160.879286,28.7597143 L160.879286,30.6612857 L158.431286,30.6612857 L158.431286,33.5142857 L156.358714,33.5142857 L156.358714,25.8527143 L161.311286,25.8527143 Z M206.177,27.4097143 C206.70471,27.4097143 206.954114,27.5466154 207.315285,27.7711358 L207.315285,27.7711358 L206.934105,29.5862789 C206.398096,29.447036 206.326266,29.3652857 206.051,29.3652857 C205.577397,29.6296898 205.464462,29.7937356 205.368286,30.0146589 L205.368286,30.0146589 L205.368286,33.5142857 L203.304714,33.5142857 L203.304714,27.5357143 L205.134653,27.5357143 L205.153,27.743 L205.171698,27.73069 C205.447571,27.5483081 205.740214,27.442762 206.031534,27.416328 Z M207.394421,25.6877399 C208.694471,25.2834497 208.864274,25.525428 209.034705,25.6863912 C209.243403,25.8834944 209.375286,26.1612923 209.375286,26.502 C209.375286,26.846978 209.24387,27.1250266 209.038232,27.3220966 C208.836137,27.5157709 208.552396,27.6372857 208.213,27.6372857 C207.871617,27.6372857 207.590609,27.5148012 207.390924,27.3207412 C207.188889,27.1243977 207.059714,26.8471846 207.059714,26.502 C207.059714,26.1610631 207.189377,25.8841193 207.394421,25.6877399 Z M197.1928,14.5225143 C198.197851,14.5225143 198.991938,15.0522046 199.449786,15.5503508 L199.449786,15.5503508 L198.384531,16.9509629 C197.994274,16.6788375 197.658249,16.3254857 197.2104,16.3254857 L197.255,16.329 L197.284774,16.4036437 C197.346581,16.5434882 197.417529,16.6111097 197.507875,16.6536636 L197.554712,16.6730698 C198.083601,16.8715537 198.561697,17.0788051 198.890142,17.4173873 C199.17696,17.7130574 199.370286,18.1000371 199.370286,18.6448 C199.370286,19.2250636 199.128905,19.7483861 198.667017,20.1174546 C198.283115,20.4242086 197.73354,20.6286857 197.0168,20.6286857 C196.043736,20.6286857 195.05224,20.1273307 194.517105,19.5023855 L194.517105,19.5023855 L195.574813,18.0529332 C196.073819,18.4639372 196.476855,18.8345143 197.0432,18.8345143 C197.152242,18.5452153 196.931884,18.4521302 196.711629,18.3665759 C196.196861,18.1710285 195.742081,17.9533258 195.427187,17.628274 C195.140935,17.3327871 194.953714,16.9555659 194.953714,16.4536 C194.953714,15.879505 195.191871,15.3802763 195.620558,15.0281409 C195.99444,14.7210233 196.525657,14.5225143 197.1928,14.5225143 Z M204.3912,14.5225143 C205.163424,14.5225143 205.896301,14.8385721 206.420068,15.4230069 C206.880583,15.9368644 207.184686,16.6635208 207.184686,17.58 C207.184686,18.4964478 206.880667,19.2207288 206.420501,19.7324188 C205.896865,20.3146864 205.163881,20.6286857 204.3912,20.6286857 C203.618519,20.6286857 202.885535,20.3146864 202.361899,19.7324188 C201.901733,19.2207288 201.597714,18.4964478 201.597714,17.58 C201.597714,16.6635208 201.901817,15.9368644 202.362332,15.4230069 C202.886099,14.8385721 203.618976,14.5225143 204.3912,14.5225143 Z M204.3912,16.3870857 C204.189336,16.3870857 204.026687,16.4806521 203.912763,16.6385183 C203.748992,16.8654582 203.673486,17.194554 203.673486,17.58 C203.673486,17.9679729 203.748212,18.2967421 203.911383,18.5228504 C204.02549,18.6809707 204.188958,18.7729143 204.3912,18.7729143 C204.596935,18.7729143 204.76331,18.6816123 204.879004,18.5224307 C205.04316,18.2965709 205.117714,17.9678319 205.117714,17.58 C205.117714,17.1946939 205.042376,16.8656282 204.877615,16.6389365 C204.762103,16.4800051 204.596547,16.3870857 204.3912,16.3870857 Z M192.9688,14.5225143 C193.973851,14.5225143 194.767938,15.0522046 195.225786,15.5503508 L195.225786,15.5503508 L194.160531,16.9509629 C193.770274,16.6788375 193.434249,16.3254857 192.9864,16.3254857 L193.031,16.329 L193.060774,16.4036437 C193.122581,16.5434882 193.193529,16.6111097 193.283875,16.6536636 L193.330712,16.6730698 C193.859601,16.8715537 194.337697,17.0788051 194.666142,17.4173873 C194.95296,17.7130574 195.146286,18.1000371 195.146286,18.6448 C195.146286,19.2250636 194.904905,19.7483861 194.443017,20.1174546 C194.059115,20.4242086 193.50954,20.6286857 192.7928,20.6286857 C191.819736,20.6286857 190.82824,20.1273307 190.293105,19.5023855 L190.293105,19.5023855 L191.350813,18.0529332 C191.849819,18.4639372 192.252855,18.8345143 192.8192,18.8345143 C192.928242,18.5452153 192.707884,18.4521302 192.487629,18.3665759 C191.972861,18.1710285 191.518081,17.9533258 191.203187,17.628274 C190.916935,17.3327871 190.729714,16.9555659 190.729714,16.4536 C190.729714,15.879505 190.967871,15.3802763 191.396558,15.0281409 C191.77044,14.7210233 192.301657,14.5225143 192.9688,14.5225143 Z M163.524,13.0617143 C164.361253,13.0617143 165.03881,13.4313998 165.502423,14.1501948 C165.896633,14.761386 166.132686,15.6550024 166.132686,16.8232 C166.132686,17.9961723 165.896715,18.9015457 165.501626,19.5224007 C165.03754,20.251678 164.359311,20.6286857 163.524,20.6286857 C162.693165,20.6286857 162.013509,20.2513447 161.547803,19.5195194 C161.152713,18.8986653 160.915314,17.9942406 160.915314,16.8232 C160.915314,15.6533432 161.152483,14.7613516 161.545889,14.1514066 C162.011094,13.4301429 162.690293,13.0617143 163.524,13.0617143 Z M163.714314,14.9462843 C163.657905,14.9053681 163.592877,14.8910857 163.333686,14.9462843 C163.258136,15.0010847 163.199599,15.0895655 163.146731,15.2043876 C162.989181,15.5465664 162.911886,16.0722046 162.911886,16.8232 C162.911886,17.580676 162.991142,18.1181018 163.150605,18.470665 C163.205287,18.5915627 163.265882,18.6851739 163.343843,18.743599 C163.397315,18.7836721 163.458634,18.7993143 163.524,18.7993143 C163.589366,18.7993143 163.650685,18.7836721 163.704157,18.743599 C163.782118,18.6851739 163.842713,18.5915627 163.897395,18.470665 C164.056858,18.1181018 164.136114,17.580676 164.136114,16.8232 C164.136114,16.0722046 164.058819,15.5465664 163.901269,15.2043876 C163.848401,15.0895655 163.789864,15.0010847 163.714314,14.9462843 Z M215.2152,14.5225143 C215.988663,14.5225143 216.542551,14.7845723 216.918025,15.2219991 C217.249963,15.6087066 217.447296,16.1555818 217.483443,16.8502041 L217.489486,17.0872 L217.489486,20.5142857 L215.701962,20.5142857 L215.673,20.319 L215.487056,20.4090601 C215.234493,20.5196783 214.972185,20.5938678 214.699792,20.6191188 L214.4936,20.6286857 C213.920708,20.6286857 213.439847,20.4286239 213.099626,20.0947028 C212.762588,19.7639065 212.553714,19.2946347 212.553714,18.7152 C212.553714,18.01138 212.845294,17.4726801 213.485856,17.0754925 C213.912764,16.8107839 214.52484,16.6121341 215.349015,16.4824516 C214.487767,16.3857261 213.960465,16.765675 213.550394,17.0322261 L213.457745,17.0914564 L212.586533,15.511118 C213.166601,15.0789986 214.106718,14.5225143 215.2152,14.5225143 Z M215.448914,18.1933754 C215.135289,18.3060831 214.833615,18.5211676 214.8016,18.7993143 C215.04282,18.7993143 215.239324,18.6887502 215.448914,18.1933754 Z M180.0064,14.5225143 C180.778624,14.5225143 181.511501,14.8385721 182.035268,15.4230069 C182.495783,15.9368644 182.799886,16.6635208 182.799886,17.58 C182.799886,18.4964478 182.495867,19.2207288 182.035701,19.7324188 C181.512065,20.3146864 180.779081,20.6286857 180.0064,20.6286857 C179.233719,20.6286857 178.500735,20.3146864 177.977099,19.7324188 C177.516933,19.2207288 177.212914,18.4964478 177.212914,17.58 C177.212914,16.6635208 177.517017,15.9368644 177.977532,15.4230069 C178.501299,14.8385721 179.234176,14.5225143 180.0064,14.5225143 Z M180.0064,16.3870857 C179.804536,16.3870857 179.641887,16.4806521 179.527963,16.6385183 C179.364192,16.8654582 179.288686,17.194554 179.288686,17.58 C179.288686,17.9679729 179.363412,18.2967421 179.526583,18.5228504 C179.64069,18.6809707 179.804158,18.7729143 180.0064,18.7729143 C180.212135,18.7729143 180.37851,18.6816123 180.494204,18.5224307 C180.65836,18.2965709 180.732914,17.9678319 180.732914,17.58 C180.732914,17.1946939 180.657576,16.8656282 180.492815,16.6389365 C180.377303,16.4800051 180.211747,16.3870857 180.0064,16.3870857 Z M219.935886,12.4721143 L219.935886,18.8004944 L220.630505,20.2466687 C220.429308,20.3942883 220.266482,20.471271 220.131373,20.5195244 C219.969115,20.5774738 219.749677,20.6286857 219.4128,20.6286857 C218.863689,20.6286857 218.499399,20.4339125 218.254459,20.1288113 C218.022973,19.8404688 217.895314,19.4181575 217.895314,18.8648 L217.895314,18.8648 L217.895314,12.4721143 L219.935886,12.4721143 Z M188.3752,14.5225143 C189.177657,14.5225143 189.790935,14.8181183 190.214454,15.3075181 C190.632618,15.7907302 190.869486,16.4834788 190.869486,17.3248 C190.869486,17.5692447 190.837149,17.8029882 190.80527,17.9517578 L190.80527,17.9517578 L187.83018,18.3582857 C188.15126,18.7267457 188.385905,18.8081143 188.6568,18.8081143 C189.166509,18.8081143 189.558603,18.5545746 189.969472,18.18313 L189.969472,18.18313 L190.825183,19.7448019 C190.246162,20.242142 189.457851,20.6286857 188.5248,20.6286857 C187.697094,20.6286857 186.959838,20.317732 186.437196,19.7560868 C185.958156,19.2412979 185.652114,18.508075 185.652114,17.58 C185.652114,16.6908438 185.952778,15.9655474 186.403356,15.4467539 C186.92205,14.8495326 187.64283,14.5225143 188.3752,14.5225143 Z M185.172,12.3577143 C185.570646,12.3577143 185.947374,12.4452069 186.216601,12.5528977 L186.216601,12.5528977 L186.165357,14.5139288 L185.612155,14.2649882 L186.143886,14.6457143 L186.143886,16.4838857 L185.167086,16.4838857 L185.167086,20.5142857 L183.126514,20.5142857 L183.126514,16.4838857 L182.466514,16.4838857 L182.466514,14.7380141 L183.126514,14.6852141 C183.126514,13.8825893 183.307976,13.3344123 183.653877,12.9547163 C183.984779,12.5914842 184.473167,12.3577143 185.172,12.3577143 Z M210.3928,14.5225143 C211.091225,14.5225143 211.583245,14.7726224 211.915141,15.2007492 C212.223017,15.5978902 212.394286,16.1827909 212.394286,16.9552 L212.394286,16.9552 L212.394286,20.5142857 L210.353714,20.5142857 L210.353714,17.0784 C210.353714,16.8077827 210.342294,16.6037636 210.253995,16.4774866 C209.784847,16.4222857 209.602935,16.5637191 209.384686,16.77931 L209.384686,16.77931 L209.384686,20.5142857 L207.344114,20.5142857 L207.344114,14.6457143 L209.142577,14.6457143 L209.169,14.875 L209.325312,14.7892014 C209.594048,14.6508559 209.881462,14.5578869 210.198752,14.5307401 Z M176.7768,14.5225143 C177.298893,14.5225143 177.544091,14.6589296 177.902654,14.8816844 L177.902654,14.8816844 L177.543498,16.5919509 C177.013126,16.5135753 176.623682,16.4717583 176.349638,16.6306455 C176.193287,16.7212958 176.087339,16.8762295 175.997486,17.0830403 L175.997486,17.0830403 L175.997486,20.5142857 L173.956914,20.5142857 L173.956914,14.6457143 L175.768053,14.6457143 L175.786,14.839 C176.059896,14.6584546 176.347577,14.5549258 176.633859,14.5290004 Z M170.828,13.0001143 C171.731927,13.0001143 172.485155,13.1921064 173.001981,13.602257 C173.50003,13.9975056 173.815086,14.5924551 173.815086,15.4768 C173.815086,16.3362453 173.500726,16.9626259 172.996796,17.390148 C172.527138,17.7885942 171.87138,18.0154339 171.098507,18.0533845 L170.8632,18.0590857 L170.400686,20.5142857 L168.351314,20.5142857 L168.351314,13.0001143 L170.828,13.0001143 Z M170.400686,14.8558857 L170.400686,16.2121143 L170.7664,16.2121143 L170.917786,16.2093788 C171.210458,16.1980562 171.441739,16.1493413 171.597609,16.0221368 C171.743261,15.9032711 171.783314,15.711479 171.783314,15.4768 C171.783314,15.2761531 171.752741,15.1164827 171.624668,15.0236657 C171.42823,14.8813037 171.120341,14.8558857 170.400686,14.8558857 L170.400686,14.8558857 Z M158.3056,13.0617143 C159.052113,13.0617143 159.658276,13.3121029 160.083901,13.7262245 C160.516547,14.1471778 160.773486,14.7463225 160.773486,15.4768 C160.773486,16.4121333 160.176544,17.3706238 159.255824,18.4421287 L159.097,18.623 L161.081486,18.6233143 L161.081486,20.5142857 L155.872914,20.5142857 L155.872914,19.1946788 C157.59032,17.5043142 158.768114,16.4679102 158.768114,15.5296 C158.768114,15.3326105 158.733055,15.1576767 158.621486,15.0416448 C157.615468,14.8998857 157.251244,15.5420343 156.936161,15.8582396 L156.936161,15.8582396 L155.629977,14.5721515 C156.398485,13.6320999 157.139685,13.0617143 158.3056,13.0617143 Z M201.455886,14.6457143 L201.455886,20.5142857 L199.415314,20.5142857 L199.415314,14.6457143 L201.455886,14.6457143 Z M199.622906,12.8419808 C200.908436,12.4414497 201.074614,12.6820556 201.242492,12.8406071 C201.448678,13.0353381 201.579086,13.3097585 201.579086,13.6464 C201.579086,13.9872227 201.449138,14.2618501 201.246001,14.4565235 C201.046461,14.6477498 200.766351,14.7678857 200.4312,14.7678857 C200.094047,14.7678857 199.816609,14.6467706 199.619427,14.4551428 C199.41986,14.261197 199.292114,13.9874146 199.292114,13.6464 C199.292114,13.3095436 199.420341,13.0359869 199.622906,12.8419808 Z" fill="url(#linearGradient-4)" fill-rule="evenodd"></path>
            </g>
        </g>
    </g>
</svg>