<?xml version="1.0" encoding="UTF-8"?>
<svg width="232px" height="46px" viewBox="0 0 232 46" version="1.1" xmlns="http://www.w3.org/2000/svg" xmlns:xlink="http://www.w3.org/1999/xlink">
    <title>锁屏水印-企业版</title>
    <defs>
        <path d="M43.3790238,1.04285714 C44.1856765,1.04285714 44.8406509,1.69198823 44.8406509,2.49450051 L44.8406509,14.0912138 C44.8406509,14.8937261 45.4942464,15.5428571 46.302278,15.5428571 L57.9815058,15.5428571 C58.7881585,15.5428571 59.4445118,16.1933577 59.4445118,16.9945005 L59.4445118,28.5912138 C59.4445118,29.3923566 58.7881585,30.0428571 57.9815058,30.0428571 L2.50586313,30.0428571 C1.69783155,30.0428571 1.04285714,29.3923566 1.04285714,28.5912138 L1.04285714,2.49450051 C1.04285714,1.69198823 1.69783155,1.04285714 2.50586313,1.04285714 L43.3790238,1.04285714 Z M53.4319847,2.51024947 L53.4319847,4.88902734 C53.4319847,5.60663217 53.802907,5.88463557 54.4165146,5.88463557 C55.1487071,5.88463557 55.3913923,5.55322265 55.3913923,4.85342099 L55.3913923,2.51024947 L56.6778999,2.51024947 L56.6778999,5.08760119 C56.6778999,5.88052715 56.3910901,6.95967335 54.4068624,6.95967335 C52.961782,6.95967335 52.1427193,6.3680602 52.1427193,5.17524758 L52.1427193,2.51024947 L53.4319847,2.51024947 Z M59.0877921,2.51024947 L61.1202811,5.18483391 L61.1202811,2.51024947 L62.3323284,2.51024947 L62.3323284,6.85970168 L61.0871876,6.85970168 L59.0643509,4.19196462 L59.0643509,6.85970168 L57.8481668,6.85970168 L57.8481668,2.51024947 L59.0877921,2.51024947 Z M145.58123,1.04285714 C146.387883,1.04285714 147.042857,1.69198823 147.042857,2.49450051 L147.042857,2.49450051 L147.042857,28.5912138 C147.042857,29.3923566 146.387883,30.0428571 145.58123,30.0428571 L145.58123,30.0428571 L90.1053116,30.0428571 C89.29728,30.0428571 88.6423056,29.3923566 88.6423056,28.5912138 L88.6423056,28.5912138 L88.6423056,16.9972395 C88.6423056,16.1947272 89.29728,15.5455961 90.1053116,15.5455961 L90.1053116,15.5455961 L101.784539,15.5455961 C102.592571,15.5455961 103.246166,14.8950955 103.246166,14.0925832 L103.246166,14.0925832 L103.246166,2.49450051 C103.246166,1.69198823 103.901141,1.04285714 104.709172,1.04285714 L104.709172,1.04285714 Z M88.4717365,2.40370433 C89.8092631,2.40370433 90.5318033,3.24182295 90.5717912,4.06898578 L90.5717912,4.06898578 L89.4576453,4.06898578 C89.4397197,3.90738774 89.2452957,3.38424834 88.4758731,3.38424834 C87.8319299,3.38424834 87.3410438,3.88684562 87.3410438,4.74687584 C87.3410438,5.5014565 87.8346877,6.00405378 88.4896621,6.00405378 C89.1915189,6.00405378 89.4286885,5.60690607 89.4948754,5.08924456 L89.4948754,5.08924456 L90.6090214,5.08924456 C90.5345611,6.16839077 89.810642,6.96268619 88.4538108,6.96268619 C87.3589694,6.96268619 86.1841522,6.17523814 86.1841522,4.72770319 C86.1841522,3.28016825 87.1024952,2.40370433 88.4717365,2.40370433 Z M92.7492019,2.51024947 L92.7492019,4.11390456 L94.6631061,4.11390456 L94.6631061,2.51024947 L95.9523715,2.51024947 L95.9523715,6.85970168 L94.6575905,6.85970168 L94.6575905,5.0547338 L92.7492019,5.0547338 L92.7492019,6.85970168 L91.4613154,6.85970168 L91.4613154,2.51024947 L92.7492019,2.51024947 Z M70.9731645,2.51024947 L72.2127897,2.51024947 L74.2452787,5.18483391 L74.2452787,2.51024947 L75.458705,2.51024947 L75.458705,6.85970168 L74.2121853,6.85970168 L72.1893485,4.19196462 L72.1893485,6.85970168 L70.9731645,6.85970168 L70.9731645,2.51024947 Z M63.5289322,6.86011253 L64.8209554,6.86011253 L64.8209554,2.51066032 L63.5289322,2.51066032 L63.5289322,6.86011253 Z M67.9191912,5.84108627 C67.3152358,5.84108627 66.8243497,5.35903111 66.8243497,4.68524947 C66.8243497,4.01009836 67.3152358,3.53215163 67.9191912,3.53215163 C68.5217676,3.53215163 69.0126537,4.01009836 69.0126537,4.68524947 C69.0126537,5.35903111 68.5217676,5.84108627 67.9191912,5.84108627 M67.9191912,2.41876855 C66.4465329,2.41876855 65.5516311,3.43354944 65.5516311,4.68388 C65.5516311,5.93558004 66.6120002,6.95036092 67.9191912,6.95036092 C69.2250033,6.95036092 70.2867513,5.93558004 70.2867513,4.68388 C70.2867513,3.43354944 69.3270414,2.41876855 67.9191912,2.41876855 M76.2504656,2.51024947 L80.6091479,2.51024947 L80.6091479,3.43327554 L79.0771973,3.43327554 L79.0771973,6.85970168 L77.7879318,6.85970168 L77.7879318,3.43875344 L76.2504656,3.43875344 L76.2504656,2.51024947 Z M81.3970477,2.51024947 L85.3903232,2.51024947 L85.3903232,3.43327554 L82.6863131,3.43327554 L82.6863131,4.18511725 L85.1697002,4.18511725 L85.1697002,5.05747275 L82.6863131,5.05747275 L82.6863131,5.93804509 L85.4482367,5.93804509 L85.4482367,6.85970168 L81.3970477,6.85970168 L81.3970477,2.51024947 Z" id="path-1"></path>
        <filter x="-4.5%" y="-19.0%" width="108.9%" height="144.8%" filterUnits="objectBoundingBox" id="filter-2">
            <feOffset dx="0" dy="1" in="SourceAlpha" result="shadowOffsetOuter1"></feOffset>
            <feGaussianBlur stdDeviation="2" in="shadowOffsetOuter1" result="shadowBlurOuter1"></feGaussianBlur>
            <feComposite in="shadowBlurOuter1" in2="SourceAlpha" operator="out" result="shadowBlurOuter1"></feComposite>
            <feColorMatrix values="0 0 0 0 0   0 0 0 0 0   0 0 0 0 0  0 0 0 0.2 0" type="matrix" in="shadowBlurOuter1"></feColorMatrix>
        </filter>
        <linearGradient x1="-1.23547869%" y1="48.0273034%" x2="100%" y2="51.5162215%" id="linearGradient-3">
            <stop stop-color="#FFFFFF" stop-opacity="0.25" offset="0%"></stop>
            <stop stop-color="#FFFFFF" stop-opacity="0.35" offset="15.8878787%"></stop>
            <stop stop-color="#FFFFFF" stop-opacity="0.151570353" offset="35.1027096%"></stop>
            <stop stop-color="#FFFFFF" stop-opacity="0.4" offset="53.8811523%"></stop>
            <stop stop-color="#FFFFFF" stop-opacity="0.15" offset="70.9665078%"></stop>
            <stop stop-color="#FFFFFF" stop-opacity="0.3" offset="83.5911059%"></stop>
            <stop stop-color="#FFFFFF" stop-opacity="0.14" offset="100%"></stop>
        </linearGradient>
        <path d="M157.732857,24.5728571 L160.402857,24.5728571 L160.402857,23.5028571 L157.732857,23.5028571 L157.732857,21.4428571 L156.472857,21.4428571 L156.472857,26.5728571 L155.072857,26.5728571 L155.072857,23.0828571 L153.892857,23.0828571 L153.892857,26.5728571 L152.812857,26.5728571 L152.812857,27.6428571 L161.312857,27.6428571 L161.312857,26.5728571 L157.732857,26.5728571 L157.732857,24.5728571 Z M156.872857,18.4828571 C155.872857,19.9828571 154.042857,21.1728571 152.252857,21.8728571 C152.552857,22.1428571 152.892857,22.5728571 153.062857,22.8828571 C154.512857,22.2228571 155.932857,21.2828571 157.042857,20.1028571 C158.402857,21.5528571 159.722857,22.2828571 161.102857,22.8828571 C161.242857,22.5228571 161.562857,22.1028571 161.852857,21.8528571 C160.432857,21.3528571 159.042857,20.6728571 157.732857,19.2928571 C157.802857,19.2028571 157.872857,19.1028571 157.942857,19.0128571 L156.872857,18.4828571 Z M165.092857,24.3628571 C164.842857,23.4128571 164.262857,21.8428571 163.792857,20.6728571 L162.702857,20.9928571 C163.162857,22.2228571 163.692857,23.8228571 163.902857,24.7828571 L165.092857,24.3628571 Z M168.932857,26.2628571 L168.932857,24.3828571 L169.842857,24.8428571 C170.362857,23.8828571 170.992857,22.4728571 171.432857,21.2128571 L170.362857,20.7028571 C170.032857,21.8428571 169.432857,23.2628571 168.932857,24.2128571 L168.932857,18.7028571 L167.702857,18.7028571 L167.702857,26.2628571 L166.392857,26.2628571 L166.392857,18.7028571 L165.162857,18.7028571 L165.162857,26.2628571 L162.582857,26.2628571 L162.582857,27.4528571 L171.522857,27.4528571 L171.522857,26.2628571 L168.932857,26.2628571 Z M180.642857,18.6328571 C179.412857,18.9128571 177.392857,19.1328571 175.642857,19.2228571 C175.752857,19.4628571 175.892857,19.8528571 175.912857,20.1128571 C177.702857,20.0328571 179.832857,19.8428571 181.342857,19.5028571 L180.642857,18.6328571 Z M179.202857,21.3028571 C179.132857,20.9628571 178.962857,20.4228571 178.792857,20.0028571 L177.872857,20.2128571 C178.022857,20.6428571 178.172857,21.2128571 178.232857,21.5628571 L179.202857,21.3028571 Z M176.592857,22.6328571 L180.492857,22.6328571 L180.492857,23.2928571 L181.592857,23.2928571 L181.592857,21.6628571 L180.552857,21.6628571 C180.822857,21.2228571 181.092857,20.7028571 181.362857,20.1928571 L180.262857,19.8728571 C180.092857,20.4128571 179.772857,21.1428571 179.482857,21.6628571 L176.682857,21.6628571 L177.432857,21.3928571 C177.332857,21.0528571 177.082857,20.5328571 176.862857,20.1328571 L175.962857,20.4328571 C176.162857,20.8128571 176.372857,21.3128571 176.462857,21.6628571 L175.542857,21.6628571 L175.542857,23.2828571 L176.592857,23.2828571 L176.592857,22.6328571 Z M175.372857,22.7828571 L174.572857,23.0128571 L174.572857,21.5628571 L175.432857,21.5628571 L175.432857,20.4628571 L174.572857,20.4628571 L174.572857,18.5828571 L173.472857,18.5828571 L173.472857,20.4628571 L172.402857,20.4628571 L172.402857,21.5628571 L173.472857,21.5628571 L173.472857,23.3028571 C173.022857,23.4228571 172.622857,23.5228571 172.282857,23.6028571 L172.542857,24.7328571 L173.472857,24.4728571 L173.472857,26.6528571 C173.472857,26.7828571 173.432857,26.8228571 173.312857,26.8228571 C173.192857,26.8328571 172.852857,26.8328571 172.482857,26.8128571 C172.632857,27.1328571 172.762857,27.6228571 172.792857,27.9128571 C173.432857,27.9228571 173.872857,27.8828571 174.162857,27.6928571 C174.472857,27.5028571 174.572857,27.2028571 174.572857,26.6528571 L174.572857,24.1528571 C174.892857,24.0628571 175.212857,23.9628571 175.532857,23.8628571 L175.372857,22.7828571 Z M179.552857,24.4528571 C179.272857,24.9328571 178.892857,25.3228571 178.422857,25.6628571 C177.992857,25.3228571 177.632857,24.9228571 177.372857,24.4528571 L179.552857,24.4528571 Z M180.332857,23.4428571 L180.142857,23.4828571 L176.062857,23.4828571 L176.062857,24.4528571 L176.862857,24.4528571 L176.312857,24.6128571 C176.612857,25.2328571 176.992857,25.7728571 177.452857,26.2128571 C176.772857,26.5228571 176.002857,26.7328571 175.152857,26.8628571 C175.352857,27.1028571 175.582857,27.6028571 175.672857,27.9028571 C176.672857,27.7028571 177.592857,27.3928571 178.382857,26.9428571 C179.092857,27.4028571 179.942857,27.7228571 180.942857,27.9228571 C181.082857,27.6028571 181.402857,27.1228571 181.652857,26.8928571 C180.792857,26.7728571 180.042857,26.5528571 179.392857,26.2428571 C180.122857,25.6128571 180.692857,24.7828571 181.032857,23.7128571 L180.332857,23.4428571 Z M186.802857,23.7028571 C186.572857,23.4628571 185.522857,22.4528571 185.132857,22.1328571 L185.132857,21.6428571 L186.292857,21.6428571 L186.292857,20.5428571 L185.132857,20.5428571 L185.132857,18.5728571 L183.962857,18.5728571 L183.962857,20.5428571 L182.472857,20.5428571 L182.472857,21.6428571 L183.742857,21.6428571 C183.432857,22.8728571 182.822857,24.2728571 182.162857,25.0628571 C182.372857,25.3828571 182.692857,25.9428571 182.822857,26.2928571 C183.252857,25.7228571 183.642857,24.8728571 183.962857,23.9428571 L183.962857,27.9128571 L185.132857,27.9128571 L185.132857,23.4428571 C185.502857,23.9128571 185.902857,24.4428571 186.122857,24.7928571 L186.802857,23.7028571 Z M190.172857,20.5628571 C189.902857,21.9528571 189.462857,23.1528571 188.842857,24.1428571 C188.332857,23.1828571 187.982857,22.0228571 187.712857,20.5628571 L190.172857,20.5628571 Z M190.702857,19.3628571 L190.512857,19.4128571 L186.392857,19.4128571 L186.392857,20.5628571 L186.902857,20.5628571 L186.602857,20.6228571 C186.932857,22.5328571 187.372857,23.9928571 188.082857,25.1828571 C187.422857,25.9428571 186.622857,26.5228571 185.732857,26.9028571 C185.992857,27.1228571 186.312857,27.5828571 186.482857,27.8928571 C187.362857,27.4528571 188.132857,26.8928571 188.792857,26.1728571 C189.352857,26.8328571 190.032857,27.4128571 190.882857,27.9628571 C191.052857,27.6128571 191.422857,27.1828571 191.732857,26.9528571 C190.832857,26.4428571 190.132857,25.8828571 189.572857,25.2028571 C190.532857,23.8128571 191.162857,21.9728571 191.462857,19.6028571 L190.702857,19.3628571 Z M152.451357,14.0428571 L157.163357,14.0428571 L157.163357,12.8648571 L155.643357,12.8648571 C155.310857,12.8648571 154.845357,12.9028571 154.493857,12.9408571 C155.776357,11.6868571 156.830857,10.3188571 156.830857,9.04585714 C156.830857,7.73485714 155.947357,6.87985714 154.617357,6.87985714 C153.657857,6.87985714 153.030857,7.25035714 152.384857,7.94385714 L153.144857,8.70385714 C153.505857,8.31435714 153.923857,7.98185714 154.436857,7.98185714 C155.111357,7.98185714 155.491357,8.40935714 155.491357,9.12185714 C155.491357,10.2048571 154.360857,11.5253571 152.451357,13.2353571 L152.451357,14.0428571 Z M160.440857,14.1758571 C161.875357,14.1758571 162.815857,12.9218571 162.815857,10.4993571 C162.815857,8.07685714 161.875357,6.87985714 160.440857,6.87985714 C159.006357,6.87985714 158.056357,8.06735714 158.056357,10.4993571 C158.056357,12.9218571 159.006357,14.1758571 160.440857,14.1758571 Z M160.440857,13.0833571 C159.832857,13.0833571 159.376857,12.4753571 159.376857,10.4993571 C159.376857,8.53285714 159.832857,7.96285714 160.440857,7.96285714 C161.048857,7.96285714 161.495357,8.53285714 161.495357,10.4993571 C161.495357,12.4753571 161.048857,13.0833571 160.440857,13.0833571 Z M172.173357,9.83435714 L172.173357,8.75135714 L167.489857,8.75135714 L167.708357,7.94385714 L171.498857,7.94385714 L171.498857,6.87035714 L167.974357,6.87035714 C168.050357,6.57585714 168.126357,6.29085714 168.192857,6.00585714 L166.995857,6.00585714 C166.929357,6.29085714 166.862857,6.56635714 166.796357,6.87035714 L164.525857,6.87035714 L164.525857,7.94385714 L166.511357,7.94385714 C166.444857,8.21935714 166.368857,8.47585714 166.292857,8.75135714 L163.737357,8.75135714 L163.737357,9.83435714 L165.979357,9.83435714 C165.770357,10.5183571 165.561357,11.1643571 165.371357,11.6868571 L169.579857,11.6868571 C169.171357,12.0953571 168.724857,12.5323571 168.278357,12.9503571 C167.556357,12.7128571 166.815357,12.5038571 166.188357,12.3518571 L165.589857,13.2068571 C167.090857,13.6058571 169.133357,14.3658571 170.121357,14.9358571 L170.776857,13.9478571 C170.434857,13.7673571 169.969357,13.5678571 169.456357,13.3683571 C170.254357,12.5893571 171.080857,11.7628571 171.726857,11.0788571 L170.852857,10.5753571 L170.672357,10.6323571 L166.957857,10.6323571 C167.024357,10.3758571 167.109857,10.1098571 167.185857,9.83435714 L172.173357,9.83435714 Z M175.631357,11.4968571 C175.393857,10.5943571 174.842857,9.10285714 174.396357,7.99135714 L173.360857,8.29535714 C173.797857,9.46385714 174.301357,10.9838571 174.500857,11.8958571 L175.631357,11.4968571 Z M179.279357,13.3018571 L179.279357,11.5158571 L180.143857,11.9528571 C180.637857,11.0408571 181.236357,9.70135714 181.654357,8.50435714 L180.637857,8.01985714 C180.324357,9.10285714 179.754357,10.4518571 179.279357,11.3543571 L179.279357,6.11985714 L178.110857,6.11985714 L178.110857,13.3018571 L176.866357,13.3018571 L176.866357,6.11985714 L175.697857,6.11985714 L175.697857,13.3018571 L173.246857,13.3018571 L173.246857,14.4323571 L181.739857,14.4323571 L181.739857,13.3018571 L179.279357,13.3018571 Z M184.133857,10.5468571 C184.143357,10.3283571 184.143357,10.1098571 184.143357,9.91035714 L184.143357,9.49235714 L186.461357,9.49235714 L186.461357,8.49485714 L185.805857,8.49485714 L185.805857,5.99635714 L184.789357,5.99635714 L184.789357,8.49485714 L184.143357,8.49485714 L184.143357,6.24335714 L183.107857,6.24335714 L183.107857,9.91035714 C183.107857,11.2498571 183.041357,13.0643571 182.490357,14.2138571 C182.718357,14.3658571 183.098357,14.6983571 183.278857,14.9168571 C183.801357,14.0238571 184.019857,12.7793571 184.095857,11.5443571 L184.960357,11.5443571 L184.960357,14.8408571 L185.986357,14.8408571 L185.986357,10.5468571 L184.133857,10.5468571 Z M187.344857,13.9098571 C187.724857,12.7318571 187.819857,11.3068571 187.838857,10.1098571 C188.076357,11.0598571 188.370857,11.9338571 188.769857,12.6938571 C188.361357,13.2068571 187.895857,13.6248571 187.344857,13.9098571 Z M190.033357,9.63485714 C189.881357,10.4043571 189.653357,11.1073571 189.358857,11.7153571 C189.045357,11.0788571 188.788857,10.3758571 188.608357,9.63485714 L190.033357,9.63485714 Z M190.527357,8.57085714 L190.346857,8.60885714 L187.838857,8.60885714 L187.838857,7.47835714 C189.045357,7.40235714 190.327857,7.25985714 191.353857,7.03185714 L190.726857,6.04385714 C189.691357,6.28135714 188.152357,6.47135714 186.765357,6.56635714 L186.765357,9.74885714 C186.765357,11.0978571 186.679857,13.0833571 185.986357,14.3373571 C186.252357,14.4703571 186.679857,14.7743571 186.879357,14.9643571 C187.050357,14.6888571 187.183357,14.3943571 187.297357,14.0618571 C187.506357,14.2993571 187.753357,14.6603571 187.886357,14.9073571 C188.456357,14.5843571 188.959857,14.1758571 189.377857,13.6818571 C189.748357,14.1663571 190.185357,14.5843571 190.679357,14.9073571 C190.859857,14.6128571 191.192357,14.2043571 191.439357,14.0048571 C190.897857,13.7103571 190.422857,13.2828571 190.023857,12.7698571 C190.622357,11.7343571 191.021357,10.4043571 191.201857,8.74185714 L190.527357,8.57085714 Z" id="path-4"></path>
        <filter x="-12.7%" y="-18.2%" width="125.3%" height="145.5%" filterUnits="objectBoundingBox" id="filter-5">
            <feOffset dx="0" dy="1" in="SourceAlpha" result="shadowOffsetOuter1"></feOffset>
            <feGaussianBlur stdDeviation="1.5" in="shadowOffsetOuter1" result="shadowBlurOuter1"></feGaussianBlur>
            <feComposite in="shadowBlurOuter1" in2="SourceAlpha" operator="out" result="shadowBlurOuter1"></feComposite>
            <feColorMatrix values="0 0 0 0 0   0 0 0 0 0   0 0 0 0 0  0 0 0 0.3 0" type="matrix" in="shadowBlurOuter1"></feColorMatrix>
        </filter>
        <linearGradient x1="-1.23547869%" y1="34.5211944%" x2="100%" y2="61.8970644%" id="linearGradient-6">
            <stop stop-color="#FFFFFF" stop-opacity="0.25" offset="0%"></stop>
            <stop stop-color="#FFFFFF" stop-opacity="0.35" offset="15.8878787%"></stop>
            <stop stop-color="#FFFFFF" stop-opacity="0.23958561" offset="35.1027096%"></stop>
            <stop stop-color="#FFFFFF" stop-opacity="0.4" offset="53.8811523%"></stop>
            <stop stop-color="#FFFFFF" stop-opacity="0.27107975" offset="70.9665078%"></stop>
            <stop stop-color="#FFFFFF" stop-opacity="0.3" offset="83.5911059%"></stop>
            <stop stop-color="#FFFFFF" stop-opacity="0.144360522" offset="100%"></stop>
        </linearGradient>
    </defs>
    <g id="锁屏水印-企业版" stroke="none" stroke-width="1" fill="none" fill-rule="evenodd">
        <g id="编组-2">
            <rect id="矩形" x="0" y="0" width="232" height="46"></rect>
            <g id="编组" transform="translate(3.957143, 6.957143)">
                <g id="logo">
                    <path d="M43.3790238,0 C44.7051086,0 45.7932433,1.02735133 45.8781723,2.33025657 L45.8835081,2.49450051 L45.8835081,14.0912138 C45.8835081,14.2880468 46.0252241,14.453399 46.2171947,14.4916615 L46.302278,14.5 L57.9815058,14.5 C59.307241,14.5 60.3969681,15.5282767 60.4820251,16.8303676 L60.487369,16.9945005 L60.487369,28.5912138 C60.487369,29.9148127 59.4506712,30.9960334 58.1459379,31.0804133 L57.9815058,31.0857143 L2.50586313,31.0857143 C1.1791167,31.0857143 0.0903199553,30.0577317 0.0053390097,28.755382 L0,28.5912138 L0,2.49450051 C0,1.1695873 1.03542653,0.0895757833 2.34127851,0.00529472298 L2.50586313,0 L43.3790238,0 Z M145.58123,0 C146.816737,0 147.857236,0.895186354 148.055999,2.13375026 L148.077825,2.30472189 L148.085714,2.49450051 L148.085714,28.5912138 C148.085714,29.8247059 147.182881,30.859255 145.942356,31.0562835 L145.771153,31.0778998 L145.58123,31.0857143 L90.1053116,31.0857143 C88.8691598,31.0857143 87.828117,30.1900093 87.6291876,28.9517776 L87.6073413,28.7808566 L87.5994484,28.5912138 L87.5994484,16.9972395 C87.5994484,15.7624072 88.5024299,14.7287647 89.7439885,14.5321017 L89.9153375,14.5105316 L90.1053116,14.5027389 L101.784539,14.5027389 C101.975234,14.5027389 102.136144,14.3781521 102.184314,14.2416691 L102.197813,14.1827766 L102.203309,14.0925832 L102.203309,2.49450051 C102.203309,1.25966821 103.106291,0.226025765 104.347849,0.0293627221 L104.519198,0.00779263297 L104.709172,0 L145.58123,0 Z M43.3790238,1.04285714 L2.50586313,1.04285714 C1.74536282,1.04285714 1.12044256,1.617866 1.04955402,2.3545738 L1.04285714,2.49450051 L1.04285714,28.5912138 C1.04285714,29.3452305 1.62304208,29.9658064 2.36496031,30.0362063 L2.50586313,30.0428571 L57.9815058,30.0428571 L58.1221931,30.0362063 C58.8167984,29.9702064 59.3712129,29.4206534 59.4378015,28.7309264 L59.4445118,28.5912138 L59.4445118,16.9945005 C59.4445118,16.2404838 58.8631054,15.6199079 58.1221931,15.549508 L57.9815058,15.5428571 L46.302278,15.5428571 C45.5417777,15.5428571 44.9180789,14.9678483 44.847334,14.2311405 L44.8406509,14.0912138 L44.8406509,2.49450051 C44.8406509,1.73919484 44.260466,1.11975624 43.5196973,1.04949462 L43.3790238,1.04285714 Z M145.58123,1.04285714 L104.709172,1.04285714 L104.56827,1.04949462 C103.872721,1.11536489 103.319321,1.66391024 103.252863,2.3545738 L103.246166,2.49450051 L103.246166,14.0925832 L103.239483,14.2325236 C103.17316,14.923321 102.620842,15.4729409 101.925428,15.538945 L101.784539,15.5455961 L90.1053116,15.5455961 L89.9644088,15.5522336 C89.2688604,15.6181038 88.7154605,16.1666492 88.6490025,16.8573127 L88.6423056,16.9972395 L88.6423056,28.5912138 L88.6490025,28.7309264 C88.7154605,29.4206534 89.2688604,29.9702064 89.9644088,30.0362063 L90.1053116,30.0428571 L145.58123,30.0428571 L145.721904,30.0362063 C146.416374,29.9702064 146.969707,29.4206534 147.036161,28.7309264 L147.042857,28.5912138 L147.042857,2.49450051 L147.036161,2.3545738 C146.969707,1.66391024 146.416374,1.11536489 145.721904,1.04949462 L145.58123,1.04285714 Z M88.4717365,1.36084719 C89.2241112,1.36084719 89.8930443,1.5691937 90.418995,1.93066312 L90.4184583,1.46739233 L96.9952287,1.46739233 L96.9952287,7.90255883 L90.4184583,7.90255883 L90.4194767,7.43775463 C90.0019627,7.72774416 89.491872,7.91651568 88.909406,7.98091858 L88.6554055,8.00083792 L88.4538108,8.00554334 C87.7295756,8.00554334 87.0467027,7.78347095 86.4912686,7.3899112 L86.4910939,7.90255883 L80.3541905,7.90255883 L80.3538571,4.47585714 L80.1198571,4.47585714 L80.1200544,7.90255883 L76.7450747,7.90255883 L76.7448571,4.48085714 L76.5008571,4.48085714 L76.5015621,7.90255883 L75.2878571,7.90185714 L75.0008571,7.90185714 L73.6941839,7.90255883 L73.2318571,7.29285714 L73.2322057,7.90255883 L69.9303073,7.90255883 L69.9305289,7.35612986 C69.365236,7.75718061 68.6690145,7.99321806 67.9191912,7.99321806 C67.1490547,7.99321806 66.4357389,7.74454254 65.8626871,7.32394905 L65.8638125,7.90296967 L62.1628571,7.90185714 L61.8758571,7.90185714 L60.5691863,7.90255883 L60.1068571,7.29285714 L60.107208,7.90255883 L56.8053097,7.90255883 L56.8064607,7.28441974 C56.2627223,7.73955452 55.4692445,8.00253049 54.4068624,8.00253049 C52.4820388,8.00253049 51.1943709,7.06317984 51.1048498,5.36683615 L51.0998621,5.17524758 L51.0998621,1.46739233 L58.0208571,1.46685714 L58.3068571,1.46685714 L59.6051058,1.46739233 L60.0768571,2.08785714 L60.0774239,1.46739233 L65.8638125,1.46780317 L65.8628397,1.99466407 C66.4212069,1.60263504 67.1244832,1.37591141 67.9191912,1.37591141 C68.6838328,1.37591141 69.3742097,1.59893464 69.9305926,1.98283134 L69.9303073,1.46739233 L71.1458571,1.46685714 L71.4318571,1.46685714 L72.7301035,1.46739233 L73.2018571,2.08785714 L73.2024216,1.46739233 L86.4331803,1.46739233 L86.4331759,1.98142557 C86.9809814,1.58361821 87.6773688,1.36084719 88.4717365,1.36084719 Z M88.4717365,2.40370433 C87.1024952,2.40370433 86.1841522,3.28016825 86.1841522,4.72770319 C86.1841522,5.14990089 86.2840932,5.51594535 86.4528415,5.82267652 L86.500877,5.9053979 C86.8915209,6.54362547 87.5891237,6.90447146 88.2811117,6.95620973 L88.4538108,6.96268619 L88.6433366,6.95733783 C89.5409619,6.90576433 90.134836,6.48508973 90.4194679,5.86437694 L90.4456066,5.80474306 C90.5139617,5.64141754 90.5617326,5.46514091 90.5888251,5.27881405 L90.6090214,5.08924456 L89.4948754,5.08924456 L89.4792713,5.19108805 C89.3950006,5.65809399 89.1447284,6.00405378 88.4896621,6.00405378 C87.8346877,6.00405378 87.3410438,5.5014565 87.3410438,4.74687584 C87.3410438,3.88684562 87.8319299,3.38424834 88.4758731,3.38424834 C89.1940009,3.38424834 89.4112409,3.83996089 89.4515888,4.03210775 L89.4576453,4.06898578 L90.5717912,4.06898578 L90.5606824,3.94493532 C90.4580118,3.16010639 89.7423868,2.40370433 88.4717365,2.40370433 Z M53.4319847,2.51024947 L52.1427193,2.51024947 L52.1427193,5.17524758 C52.1427193,6.31384145 52.889014,6.90464819 54.2137043,6.95600543 L54.4068624,6.95967335 L54.6130272,6.95560616 C56.2728889,6.88854499 56.6278087,6.00511579 56.6725901,5.26821617 L56.6778999,5.08760119 L56.6778999,2.51024947 L55.3913923,2.51024947 L55.3913923,4.85342099 C55.3913923,5.55322265 55.1487071,5.88463557 54.4165146,5.88463557 C53.8438142,5.88463557 53.4825196,5.64246372 53.4368923,5.02673483 L53.4319847,4.88902734 L53.4319847,2.51024947 Z M67.9191912,2.41876855 C66.9809654,2.41876855 66.2772464,2.8306603 65.8900458,3.45294031 C65.6694885,3.80740361 65.5516311,4.230131 65.5516311,4.68388 C65.5516311,5.88342587 66.525477,6.86538453 67.7571367,6.94513187 L67.9191912,6.95036092 L68.0810874,6.94513187 C68.8616161,6.89454879 69.5393749,6.48098265 69.930709,5.87914407 L69.9631199,5.82779729 C70.1687793,5.49202234 70.2867513,5.10111334 70.2867513,4.68388 C70.2867513,3.43354944 69.3270414,2.41876855 67.9191912,2.41876855 Z M64.8209554,2.51066032 L63.5289322,2.51066032 L63.5289322,6.86011253 L64.8209554,6.86011253 L64.8209554,2.51066032 Z M85.3903232,2.51024947 L81.3970477,2.51024947 L81.3970477,6.85970168 L85.4482367,6.85970168 L85.4482367,5.93804509 L82.6863131,5.93804509 L82.6863131,5.05747275 L85.1697002,5.05747275 L85.1697002,4.18511725 L82.6863131,4.18511725 L82.6863131,3.43327554 L85.3903232,3.43327554 L85.3903232,2.51024947 Z M92.7492019,2.51024947 L91.4613154,2.51024947 L91.4613154,6.85970168 L92.7492019,6.85970168 L92.7492019,5.0547338 L94.6575905,5.0547338 L94.6575905,6.85970168 L95.9523715,6.85970168 L95.9523715,2.51024947 L94.6631061,2.51024947 L94.6631061,4.11390456 L92.7492019,4.11390456 L92.7492019,2.51024947 Z M80.6091479,2.51024947 L76.2504656,2.51024947 L76.2504656,3.43875344 L77.7879318,3.43875344 L77.7879318,6.85970168 L79.0771973,6.85970168 L79.0771973,3.43327554 L80.6091479,3.43327554 L80.6091479,2.51024947 Z M72.2127897,2.51024947 L70.9731645,2.51024947 L70.9731645,6.85970168 L72.1893485,6.85970168 L72.1893485,4.19196462 L74.2121853,6.85970168 L75.458705,6.85970168 L75.458705,2.51024947 L74.2452787,2.51024947 L74.2452787,5.18483391 L72.2127897,2.51024947 Z M59.0877921,2.51024947 L57.8481668,2.51024947 L57.8481668,6.85970168 L59.0643509,6.85970168 L59.0643509,4.19196462 L61.0871876,6.85970168 L62.3323284,6.85970168 L62.3323284,2.51024947 L61.1202811,2.51024947 L61.1202811,5.18483391 L59.0877921,2.51024947 Z M67.9191912,3.53215163 C68.6122259,3.53215163 69.0185017,4.13357305 69.0185017,4.74108627 C69.0185017,5.34859949 68.526015,5.84108627 67.9185017,5.84108627 C67.3109885,5.84108627 66.8185017,5.34859949 66.8185017,4.74108627 C66.8185017,4.13357305 67.2261564,3.53215163 67.9191912,3.53215163 Z" id="形状结合" fill-opacity="0.05" fill="#000000"></path>
                    <g id="形状结合" fill-rule="nonzero">
                        <use fill="black" fill-opacity="1" filter="url(#filter-2)" xlink:href="#path-1"></use>
                        <use fill-opacity="0" fill="#FFFFFF" xlink:href="#path-1"></use>
                    </g>
                    <path d="M43.3790238,1.04285714 C44.1856765,1.04285714 44.8406509,1.69198823 44.8406509,2.49450051 L44.8406509,14.0912138 C44.8406509,14.8937261 45.4942464,15.5428571 46.302278,15.5428571 L57.9815058,15.5428571 C58.7881585,15.5428571 59.4445118,16.1933577 59.4445118,16.9945005 L59.4445118,28.5912138 C59.4445118,29.3923566 58.7881585,30.0428571 57.9815058,30.0428571 L2.50586313,30.0428571 C1.69783155,30.0428571 1.04285714,29.3923566 1.04285714,28.5912138 L1.04285714,2.49450051 C1.04285714,1.69198823 1.69783155,1.04285714 2.50586313,1.04285714 L43.3790238,1.04285714 Z M53.4319847,2.51024947 L53.4319847,4.88902734 C53.4319847,5.60663217 53.802907,5.88463557 54.4165146,5.88463557 C55.1487071,5.88463557 55.3913923,5.55322265 55.3913923,4.85342099 L55.3913923,2.51024947 L56.6778999,2.51024947 L56.6778999,5.08760119 C56.6778999,5.88052715 56.3910901,6.95967335 54.4068624,6.95967335 C52.961782,6.95967335 52.1427193,6.3680602 52.1427193,5.17524758 L52.1427193,2.51024947 L53.4319847,2.51024947 Z M59.0877921,2.51024947 L61.1202811,5.18483391 L61.1202811,2.51024947 L62.3323284,2.51024947 L62.3323284,6.85970168 L61.0871876,6.85970168 L59.0643509,4.19196462 L59.0643509,6.85970168 L57.8481668,6.85970168 L57.8481668,2.51024947 L59.0877921,2.51024947 Z M145.58123,1.04285714 C146.387883,1.04285714 147.042857,1.69198823 147.042857,2.49450051 L147.042857,2.49450051 L147.042857,28.5912138 C147.042857,29.3923566 146.387883,30.0428571 145.58123,30.0428571 L145.58123,30.0428571 L90.1053116,30.0428571 C89.29728,30.0428571 88.6423056,29.3923566 88.6423056,28.5912138 L88.6423056,28.5912138 L88.6423056,16.9972395 C88.6423056,16.1947272 89.29728,15.5455961 90.1053116,15.5455961 L90.1053116,15.5455961 L101.784539,15.5455961 C102.592571,15.5455961 103.246166,14.8950955 103.246166,14.0925832 L103.246166,14.0925832 L103.246166,2.49450051 C103.246166,1.69198823 103.901141,1.04285714 104.709172,1.04285714 L104.709172,1.04285714 Z M88.4717365,2.40370433 C89.8092631,2.40370433 90.5318033,3.24182295 90.5717912,4.06898578 L90.5717912,4.06898578 L89.4576453,4.06898578 C89.4397197,3.90738774 89.2452957,3.38424834 88.4758731,3.38424834 C87.8319299,3.38424834 87.3410438,3.88684562 87.3410438,4.74687584 C87.3410438,5.5014565 87.8346877,6.00405378 88.4896621,6.00405378 C89.1915189,6.00405378 89.4286885,5.60690607 89.4948754,5.08924456 L89.4948754,5.08924456 L90.6090214,5.08924456 C90.5345611,6.16839077 89.810642,6.96268619 88.4538108,6.96268619 C87.3589694,6.96268619 86.1841522,6.17523814 86.1841522,4.72770319 C86.1841522,3.28016825 87.1024952,2.40370433 88.4717365,2.40370433 Z M92.7492019,2.51024947 L92.7492019,4.11390456 L94.6631061,4.11390456 L94.6631061,2.51024947 L95.9523715,2.51024947 L95.9523715,6.85970168 L94.6575905,6.85970168 L94.6575905,5.0547338 L92.7492019,5.0547338 L92.7492019,6.85970168 L91.4613154,6.85970168 L91.4613154,2.51024947 L92.7492019,2.51024947 Z M70.9731645,2.51024947 L72.2127897,2.51024947 L74.2452787,5.18483391 L74.2452787,2.51024947 L75.458705,2.51024947 L75.458705,6.85970168 L74.2121853,6.85970168 L72.1893485,4.19196462 L72.1893485,6.85970168 L70.9731645,6.85970168 L70.9731645,2.51024947 Z M63.5289322,6.86011253 L64.8209554,6.86011253 L64.8209554,2.51066032 L63.5289322,2.51066032 L63.5289322,6.86011253 Z M67.9191912,5.84108627 C67.3152358,5.84108627 66.8243497,5.35903111 66.8243497,4.68524947 C66.8243497,4.01009836 67.3152358,3.53215163 67.9191912,3.53215163 C68.5217676,3.53215163 69.0126537,4.01009836 69.0126537,4.68524947 C69.0126537,5.35903111 68.5217676,5.84108627 67.9191912,5.84108627 M67.9191912,2.41876855 C66.4465329,2.41876855 65.5516311,3.43354944 65.5516311,4.68388 C65.5516311,5.93558004 66.6120002,6.95036092 67.9191912,6.95036092 C69.2250033,6.95036092 70.2867513,5.93558004 70.2867513,4.68388 C70.2867513,3.43354944 69.3270414,2.41876855 67.9191912,2.41876855 M76.2504656,2.51024947 L80.6091479,2.51024947 L80.6091479,3.43327554 L79.0771973,3.43327554 L79.0771973,6.85970168 L77.7879318,6.85970168 L77.7879318,3.43875344 L76.2504656,3.43875344 L76.2504656,2.51024947 Z M81.3970477,2.51024947 L85.3903232,2.51024947 L85.3903232,3.43327554 L82.6863131,3.43327554 L82.6863131,4.18511725 L85.1697002,4.18511725 L85.1697002,5.05747275 L82.6863131,5.05747275 L82.6863131,5.93804509 L85.4482367,5.93804509 L85.4482367,6.85970168 L81.3970477,6.85970168 L81.3970477,2.51024947 Z" id="形状结合" fill="url(#linearGradient-3)" fill-rule="nonzero"></path>
                </g>
                <path d="M156.518806,17.1596498 L159.508004,18.6402804 L159.102857,19.1798571 L159.159777,19.2302804 C159.835069,19.8022307 160.56989,20.2318286 161.45779,20.6012516 L161.352109,20.3174264 L164.133857,19.5008571 L164.134286,17.6742857 L169.961429,17.6742857 L169.960857,19.3718571 L171.373857,20.0448571 L171.374286,19.4342857 L172.443857,19.4338571 L172.444286,17.5542857 L175.601429,17.5542857 L175.600989,18.1950781 L176.323231,18.1513333 L177.045084,18.0952866 C177.164622,18.0849984 177.28359,18.0742562 177.401712,18.0630892 L178.098067,17.9912251 C178.211695,17.9784763 178.323923,17.9653614 178.434473,17.9519096 L179.075436,17.8673905 C179.486374,17.8086617 179.861622,17.7454797 180.183462,17.6797186 L180.414552,17.6299435 L181.041294,17.4872704 L182.659857,19.4988571 L182.710857,19.5138571 L182.933857,19.5138571 L182.934286,17.5442857 L186.161429,17.5442857 L186.160857,18.3838571 L190.379857,18.3838571 L190.72885,18.2924263 L192.591074,18.8804972 L192.483286,19.7320253 C192.245317,21.611979 191.804634,23.2073878 191.148129,24.5406586 L190.979499,24.8685281 L190.863857,25.0728571 L190.952727,25.1559704 C191.168986,25.3482982 191.407615,25.5316925 191.672829,25.7093531 L191.947062,25.8852209 L192.239956,26.0579772 L193.615011,26.837175 L192.345728,27.7789008 C192.189371,27.8949081 191.984246,28.1255976 191.86687,28.3091 L191.808066,28.4122441 L191.300137,29.4579787 L190.324084,28.826415 C189.856402,28.5237968 189.433882,28.211055 189.050102,27.8818267 L188.761857,27.6238571 L188.49451,27.8416039 C188.210205,28.0625144 187.910558,28.266932 187.595075,28.4557475 L187.274295,28.6393952 L186.942848,28.8128394 L186.057139,29.2556941 L185.884857,28.9408571 L182.934286,28.9414286 L182.933857,27.8528571 L182.512702,28.4119064 L182.264656,27.7411951 C182.159217,27.8676954 182.027296,28.0629437 181.940606,28.2231578 L181.88519,28.3351279 L181.553239,29.0938746 L180.741138,28.9314544 C179.98652,28.7805309 179.305118,28.5663456 178.692196,28.2832118 L178.391419,28.1358728 L178.351857,28.1148571 L178.215781,28.180484 C177.747216,28.3925789 177.243358,28.5706586 176.705856,28.7165441 L176.296447,28.8199503 L175.874577,28.9114544 L174.956652,29.0950394 L174.781857,28.5158571 L174.726541,28.5532172 C174.273154,28.8502643 173.777587,28.9407772 172.996942,28.9428436 L172.776788,28.941303 L171.863712,28.9270362 L171.816857,28.4808571 L162.340857,28.4808571 L162.341429,28.6714286 L151.784286,28.6714286 L151.784286,25.5442857 L152.863857,25.5438571 L152.863857,24.1028571 L152.620045,24.2145232 L152.160993,23.3774278 C152.063125,23.1989625 151.859512,22.9346843 151.673377,22.7426645 L151.564779,22.6373883 L150.325586,21.5221147 L151.878248,20.9149285 C153.554129,20.2595562 155.033096,19.2408239 155.868122,18.1229976 L156.017034,17.9123084 L156.518806,17.1596498 Z M190.702857,19.3628571 L190.512857,19.4128571 L186.392857,19.4128571 L186.392857,20.5628571 L186.902857,20.5628571 L186.602857,20.6228571 L186.675313,21.0253207 C186.898083,22.2124417 187.171035,23.2189067 187.536676,24.0925364 L187.659354,24.3730036 C187.789022,24.6567318 187.929654,24.9260801 188.082857,25.1828571 C187.422857,25.9428571 186.622857,26.5228571 185.732857,26.9028571 C185.955714,27.0914286 186.222653,27.4563265 186.401429,27.7519534 L186.482857,27.8928571 L186.807701,27.722154 C187.553638,27.3103571 188.215357,26.8028571 188.792857,26.1728571 C189.282857,26.7503571 189.864732,27.2666071 190.571978,27.7551032 L190.882857,27.9628571 L190.955474,27.828404 C191.14442,27.5084821 191.461607,27.1541071 191.732857,26.9528571 C190.832857,26.4428571 190.132857,25.8828571 189.572857,25.2028571 C190.472857,23.8997321 191.082818,22.2010993 191.40274,20.0410407 L191.462857,19.6028571 L190.702857,19.3628571 Z M180.332857,23.4428571 L180.142857,23.4828571 L176.062857,23.4828571 L176.062857,24.4528571 L176.862857,24.4528571 L176.312857,24.6128571 L176.446327,24.8736152 C176.584694,25.1293586 176.737755,25.3698834 176.90551,25.5936152 L176.988015,25.6999381 C177.132794,25.8839455 177.287667,26.0548493 177.452857,26.2128571 C177.005722,26.4166983 176.519672,26.577302 175.997553,26.7003544 L175.59957,26.7867424 L175.152857,26.8628571 C175.249024,26.9782578 175.352128,27.1537714 175.443268,27.3382593 L175.526628,27.5168107 C175.567883,27.6104203 175.604523,27.702129 175.634098,27.7853099 L175.672857,27.9028571 L176.044009,27.8226423 C176.778424,27.6516657 177.464322,27.4167048 178.080611,27.1051032 L178.382857,26.9428571 L178.483953,27.0068267 C179.086986,27.3794558 179.787689,27.6553957 180.591861,27.8462419 L180.942857,27.9228571 L181.013149,27.7771137 C181.172857,27.4708163 181.438571,27.09 181.652857,26.8928571 C180.792857,26.7728571 180.042857,26.5528571 179.392857,26.2428571 C179.942004,25.7689363 180.400608,25.1818377 180.738872,24.4645339 L180.825013,24.2729323 L180.93448,23.998755 L181.032857,23.7128571 L180.332857,23.4428571 Z M174.572857,18.5828571 L173.472857,18.5828571 L173.472857,20.4628571 L172.402857,20.4628571 L172.402857,21.5628571 L173.472857,21.5628571 L173.472857,23.3028571 L172.957497,23.4372571 L172.493977,23.5524571 L172.282857,23.6028571 L172.542857,24.7328571 L173.472857,24.4728571 L173.472857,26.6528571 L173.469339,26.7105886 C173.459709,26.7781812 173.429339,26.8094775 173.366376,26.8192923 L173.257916,26.8261189 L172.991607,26.8291071 L172.751763,26.8242634 L172.482857,26.8128571 C172.632857,27.1328571 172.762857,27.6228571 172.792857,27.9128571 L172.998852,27.9142015 L173.190443,27.911019 C173.621005,27.897672 173.937302,27.8406349 174.162857,27.6928571 C174.242805,27.6438571 174.308785,27.5875411 174.362685,27.5215076 L174.388127,27.4883771 C174.504467,27.3272171 174.557087,27.1113371 174.569747,26.8104971 L174.572857,26.6528571 L174.572857,24.1528571 L175.052857,24.0116071 L175.532857,23.8628571 L175.372857,22.7828571 L174.572857,23.0128571 L174.572857,21.5628571 L175.432857,21.5628571 L175.432857,20.4628571 L174.572857,20.4628571 L174.572857,18.5828571 Z M185.132857,18.5728571 L183.962857,18.5728571 L183.962857,20.5428571 L182.472857,20.5428571 L182.472857,21.6428571 L183.742857,21.6428571 L183.666107,21.929366 C183.525179,22.4266569 183.339923,22.9413148 183.126022,23.4244076 L182.977053,23.7459992 L182.912468,23.8767241 C182.6811,24.3360945 182.425951,24.7479415 182.162857,25.0628571 C182.372857,25.3828571 182.692857,25.9428571 182.822857,26.2928571 L182.894148,26.1952988 L182.996604,26.0443403 C183.312831,25.5587263 183.603886,24.9288427 183.856826,24.2409623 L183.962857,23.9428571 L183.962857,27.9128571 L185.132857,27.9128571 L185.132857,23.4428571 L185.564554,24.0026634 L185.817948,24.3461703 C185.897273,24.4563397 185.970428,24.5610012 186.03433,24.6566297 L186.122857,24.7928571 L186.802857,23.7028571 L186.515601,23.4167746 L186.041093,22.9604166 L185.696695,22.6368175 L185.379705,22.3469122 C185.331532,22.3037445 185.286281,22.2637372 185.244843,22.2277686 L185.132857,22.1328571 L185.132857,21.6428571 L186.292857,21.6428571 L186.292857,20.5428571 L185.132857,20.5428571 L185.132857,18.5728571 Z M157.732857,21.4428571 L156.472857,21.4428571 L156.472857,26.5728571 L155.072857,26.5728571 L155.072857,23.0828571 L153.892857,23.0828571 L153.892857,26.5728571 L152.812857,26.5728571 L152.812857,27.6428571 L161.312857,27.6428571 L161.312857,26.5728571 L157.732857,26.5728571 L157.732857,24.5728571 L160.402857,24.5728571 L160.402857,23.5028571 L157.732857,23.5028571 L157.732857,21.4428571 Z M166.392857,18.7028571 L165.162857,18.7028571 L165.162857,26.2628571 L162.582857,26.2628571 L162.582857,27.4528571 L171.522857,27.4528571 L171.522857,26.2628571 L168.932857,26.2628571 L168.932857,24.3828571 L169.842857,24.8428571 L170.001857,24.5419571 C170.280689,24.0018827 170.580929,23.3574395 170.861047,22.691691 L170.993657,22.3711571 C171.099057,22.1119571 171.200457,21.8515571 171.295457,21.5947571 L171.432857,21.2128571 L170.362857,20.7028571 L170.256127,21.0525071 C169.951887,22.0033071 169.498527,23.0853071 169.085487,23.9145071 L168.932857,24.2128571 L168.932857,18.7028571 L167.702857,18.7028571 L167.702857,26.2628571 L166.392857,26.2628571 L166.392857,18.7028571 Z M162.283664,22.8943151 L162.25141,22.9343904 C162.188222,23.0196779 162.132828,23.1067265 162.094199,23.1831863 L162.061491,23.255659 L161.673767,24.2526631 L161.430857,24.1468571 L161.430857,25.5438571 L161.553857,25.5428571 L161.554286,25.2342857 L162.948857,25.2338571 L162.898046,25.0026596 L162.807252,24.6261943 C162.789525,24.5578286 162.77056,24.4868291 162.750447,24.4134609 L162.616699,23.94695 L162.459675,23.4363241 L162.283664,22.8943151 Z M171.348827,24.1297205 C171.197451,24.4544215 171.044706,24.765805 170.895338,25.0534298 L170.798857,25.2338571 L171.601857,25.2338571 L171.348827,24.1297205 Z M163.792857,20.6728571 L162.702857,20.9928571 L162.81909,21.307481 L163.054888,21.9689509 L163.219504,22.4501798 L163.429945,23.0934911 C163.497231,23.3052323 163.561143,23.5129486 163.620142,23.7126536 L163.780858,24.2837485 C163.804674,24.3735966 163.826877,24.4604452 163.847274,24.543796 L163.902857,24.7828571 L165.092857,24.3628571 L165.023737,24.1130308 C164.777708,23.2605308 164.336928,22.0528319 163.939427,21.041728 L163.792857,20.6728571 Z M190.172857,20.5628571 C189.902857,21.9528571 189.462857,23.1528571 188.842857,24.1428571 C188.332857,23.1828571 187.982857,22.0228571 187.712857,20.5628571 L190.172857,20.5628571 Z M180.262857,19.8728571 C180.117143,20.3357143 179.861224,20.9381633 179.608455,21.428309 L179.482857,21.6628571 L176.682857,21.6628571 L177.169204,21.4913975 L177.432857,21.3928571 L177.381341,21.2369971 C177.285901,20.9727872 177.132021,20.6440921 176.977738,20.3476397 L176.862857,20.1328571 L175.962857,20.4328571 L176.063089,20.6316071 C176.196237,20.9066071 176.3242,21.2149405 176.408459,21.4766071 L176.462857,21.6628571 L175.542857,21.6628571 L175.542857,23.2828571 L176.592857,23.2828571 L176.592857,22.6328571 L180.492857,22.6328571 L180.492857,23.2928571 L181.592857,23.2928571 L181.592857,21.6628571 L180.552857,21.6628571 L180.755357,21.3192634 L180.867026,21.1200247 L181.362857,20.1928571 L180.262857,19.8728571 Z M156.872857,18.4828571 C155.872857,19.9828571 154.042857,21.1728571 152.252857,21.8728571 C152.552857,22.1428571 152.892857,22.5728571 153.062857,22.8828571 C153.629764,22.6248168 154.192085,22.3239763 154.733087,21.9827261 L155.09272,21.7477038 L155.514153,21.4499636 C156.064038,21.0445238 156.580357,20.5945238 157.042857,20.1028571 C157.14423,20.2109383 157.24538,20.3150192 157.34635,20.415344 L157.584961,20.6458557 C157.945257,20.9841194 158.303657,21.2767771 158.662057,21.5350171 L158.84493,21.6638456 C159.59049,22.1772886 160.337445,22.550069 161.102857,22.8828571 C161.156732,22.7443214 161.237263,22.5969005 161.332482,22.4537013 C161.4847,22.224782 161.674455,22.0066518 161.852857,21.8528571 C160.527524,21.3861905 159.228324,20.7627238 157.995909,19.5596779 L157.732857,19.2928571 L157.942857,19.0128571 L156.872857,18.4828571 Z M178.792857,20.0028571 L177.872857,20.2128571 L177.93688,20.4046647 C178.042711,20.7351312 178.141983,21.1107872 178.201895,21.4004373 L178.232857,21.5628571 L179.202857,21.3028571 L179.159987,21.117672 C179.09295,20.8524868 178.988876,20.5221164 178.877394,20.2213757 L178.792857,20.0028571 Z M180.642857,18.6328571 L180.43854,18.6773298 L179.993007,18.7629173 C179.914977,18.7767873 179.835169,18.7904528 179.753746,18.8039031 L179.419825,18.8565306 L178.844673,18.9369875 L178.709563,18.9542857 C177.73102,19.077551 176.642857,19.1714286 175.642857,19.2228571 C175.752857,19.4628571 175.892857,19.8528571 175.912857,20.1128571 C177.55369,20.0395238 179.480218,19.8737599 180.952996,19.5847553 L181.342857,19.5028571 L180.642857,18.6328571 Z M191.205678,4.87875719 L193.007528,7.71803686 L192.124857,7.91385714 L192.320878,7.96444126 L192.224419,8.85287818 C192.092591,10.067088 191.848207,11.1397419 191.488262,12.0748887 L191.34786,12.419131 L191.261857,12.6068571 L191.357302,12.6968062 C191.438736,12.7684159 191.52188,12.8349568 191.606543,12.8962608 L191.734654,12.9842679 L191.93078,13.1012737 L193.283918,13.8371909 L192.085647,14.8050252 C191.972599,14.8963328 191.77346,15.1279087 191.63265,15.3291267 L191.556318,15.4448495 L191.002886,16.3478184 L190.116472,15.7682402 C189.949102,15.6588058 189.786805,15.5402272 189.629937,15.4130533 L189.398752,15.2159145 L189.334857,15.1558571 L189.22106,15.250251 C189.105871,15.3401461 188.987295,15.4264722 188.865451,15.5091764 L188.68025,15.6305099 L188.393456,15.8022371 L187.479028,16.3204131 L187.371857,16.1208571 L187.086105,16.5816683 L186.337857,15.8688571 L185.793857,15.8688571 L185.599288,15.9707548 L185.631857,15.8688571 L183.931786,15.8694286 L183.930857,15.8378571 L183.423298,16.7067193 L182.485868,15.5719352 C182.460773,15.5415573 182.425198,15.5037849 182.383404,15.4623878 L178.278857,15.4608571 L178.250786,15.5170794 L178.249857,15.4608571 L172.218286,15.4609286 L172.217857,13.6348571 L170.444276,16.3096288 L169.607357,15.8267909 C168.79588,15.3586314 167.043154,14.6849691 165.608033,14.2784988 L163.903173,13.8227896 L164.677857,12.7148571 L163.902866,12.7154286 L164.454541,11.1966591 L164.568857,10.8628571 L163.837433,10.8644805 C163.734696,13.5084309 162.504774,15.2044286 160.440857,15.2044286 C159.516454,15.2044286 158.757751,14.8639554 158.192403,14.2507479 L158.191929,15.0714286 L151.422786,15.0714286 L151.422786,12.7757413 L151.765177,12.4691224 L152.211185,12.062737 C152.281939,11.9970581 152.350913,11.9323998 152.418122,11.8687538 L152.800328,11.4989591 L153.140939,11.1530628 C153.194283,11.097383 153.245925,11.0426824 153.295881,10.9889528 L153.575505,10.6781614 C154.138058,10.0297402 154.420923,9.54262926 154.458462,9.19869359 L154.462786,9.12185714 C154.462786,9.07330654 154.467156,9.04340293 154.471546,9.02545421 L154.480423,9.00078056 L154.463314,9.00768354 L154.436857,9.01042857 C154.349136,9.01042857 154.206876,9.09139377 153.994566,9.30381195 L153.899243,9.40304366 L153.173001,10.1866204 L150.955571,7.96919113 L151.632229,7.2427791 C152.509854,6.30062345 153.405553,5.85128571 154.617357,5.85128571 C156.007533,5.85128571 157.102127,6.55728456 157.587179,7.6756658 C158.150019,6.51627543 159.127062,5.85128571 160.440857,5.85128571 C161.769326,5.85128571 162.751038,6.5343586 163.310078,7.72129655 L163.496857,7.72185714 L163.497286,5.84178571 L165.976857,5.84085714 L166.179657,4.97728571 L169.489057,4.97728571 L169.286857,5.84085714 L172.527429,5.84178571 L172.526857,7.46785714 L174.668857,6.83885714 L174.669286,5.09128571 L180.307929,5.09128571 L180.307857,6.72285714 L182.078857,7.56685714 L182.079286,5.21478571 L183.759857,5.21385714 L183.760786,4.96778571 L186.834429,4.96778571 L186.834019,5.53038802 L186.883046,5.52679431 L187.735197,5.45330253 L188.08541,5.41704738 L188.765511,5.33595306 L189.404967,5.24501702 C189.711824,5.19740928 189.997343,5.14683253 190.252379,5.09436918 L190.496917,5.04131707 L191.205678,4.87875719 Z M190.726857,6.04385714 C189.785494,6.25976623 188.428014,6.43641913 187.146906,6.53812837 L186.765357,6.56635714 L186.764062,10.0267385 L186.750917,10.6236931 C186.706837,11.8627971 186.541157,13.3341571 185.986357,14.3373571 C186.252357,14.4703571 186.679857,14.7743571 186.879357,14.9643571 C187.050357,14.6888571 187.183357,14.3943571 187.297357,14.0618571 C187.464557,14.2518571 187.656077,14.5208971 187.794093,14.7473771 L187.886357,14.9073571 L188.126516,14.7636939 C188.504079,14.5254571 188.849097,14.247018 189.155443,13.9283763 L189.377857,13.6818571 L189.491318,13.8255827 C189.767525,14.1645069 190.077691,14.4674984 190.418273,14.7239297 L190.679357,14.9073571 L190.765328,14.775105 C190.953112,14.5004082 191.227643,14.1758571 191.439357,14.0048571 C190.897857,13.7103571 190.422857,13.2828571 190.023857,12.7698571 C190.491504,11.9607536 190.83735,10.9718485 191.052331,9.78501407 L191.103104,9.48569374 L191.156333,9.11962592 L191.201857,8.74185714 L190.527357,8.57085714 L190.346857,8.60885714 L187.838857,8.60885714 L187.838857,7.47835714 L188.294208,7.44670285 C189.209436,7.37701144 190.144036,7.26857785 190.957733,7.11338644 L191.353857,7.03185714 L190.726857,6.04385714 Z M168.192857,6.00585714 L166.995857,6.00585714 L166.862857,6.57444974 L166.796357,6.87035714 L164.525857,6.87035714 L164.525857,7.94385714 L166.511357,7.94385714 L166.40567,8.34760714 L166.292857,8.75135714 L163.737357,8.75135714 L163.737357,9.83435714 L165.979357,9.83435714 L165.771061,10.5025238 L165.566987,11.1263571 L165.371357,11.6868571 L169.579857,11.6868571 L169.160098,12.1030979 C168.87369,12.3845794 168.576024,12.6716905 168.278357,12.9503571 C167.700757,12.7603571 167.110997,12.5885971 166.577173,12.4496691 L166.188357,12.3518571 L165.589857,13.2068571 L165.896804,13.2913072 C167.261057,13.6786768 168.955479,14.3121111 169.925067,14.8273831 L170.121357,14.9358571 L170.776857,13.9478571 L170.595917,13.8561118 C170.40539,13.762959 170.187153,13.6658479 169.950709,13.5671534 L169.456357,13.3683571 L170.142462,12.6934417 L170.813278,12.0218499 L171.439558,11.3801706 L171.726857,11.0788571 L170.852857,10.5753571 L170.672357,10.6323571 L166.957857,10.6323571 L167.029635,10.3726905 L167.185857,9.83435714 L172.173357,9.83435714 L172.173357,8.75135714 L167.489857,8.75135714 L167.708357,7.94385714 L171.498857,7.94385714 L171.498857,6.87035714 L167.974357,6.87035714 L168.08717,6.43454464 L168.192857,6.00585714 Z M185.805857,5.99635714 L184.789357,5.99635714 L184.789357,8.49485714 L184.143357,8.49485714 L184.143357,6.24335714 L183.107857,6.24335714 L183.107857,9.91035714 L183.106687,10.2042478 C183.095885,11.5056786 183.002,13.1464643 182.490357,14.2138571 C182.685786,14.3441429 182.992888,14.6070408 183.19031,14.8170933 L183.278857,14.9168571 L183.403242,14.6864931 C183.79343,13.9035051 183.985868,12.9017529 184.071241,11.8839436 L184.095857,11.5443571 L184.960357,11.5443571 L184.960357,14.8408571 L185.986357,14.8408571 L185.986357,10.5468571 L184.133857,10.5468571 L184.140542,10.3290608 L184.143005,10.1154868 L184.143357,9.49235714 L186.461357,9.49235714 L186.461357,8.49485714 L185.805857,8.49485714 L185.805857,5.99635714 Z M176.866357,6.11985714 L175.697857,6.11985714 L175.697857,13.3018571 L173.246857,13.3018571 L173.246857,14.4323571 L181.739857,14.4323571 L181.739857,13.3018571 L179.279357,13.3018571 L179.279357,11.5158571 L180.143857,11.9528571 L180.294907,11.6670021 C180.698147,10.8859596 181.148518,9.87514925 181.506835,8.91294361 L181.654357,8.50435714 L180.637857,8.01985714 L180.536464,8.35202464 C180.247436,9.25528464 179.816744,10.2831846 179.424356,11.0709246 L179.279357,11.3543571 L179.279357,6.11985714 L178.110857,6.11985714 L178.110857,13.3018571 L176.866357,13.3018571 L176.866357,6.11985714 Z M160.440857,6.87985714 C159.006357,6.87985714 158.056357,8.06735714 158.056357,10.4993571 C158.056357,10.8951068 158.081711,11.2596718 158.130388,11.5926792 L158.174232,11.8521635 L158.215863,12.0481345 C158.52684,13.3838715 159.27288,14.1019779 160.279738,14.1704492 L160.440857,14.1758571 L160.587473,14.1713874 C161.939101,14.087985 162.815857,12.8383227 162.815857,10.4993571 C162.815857,8.07685714 161.875357,6.87985714 160.440857,6.87985714 Z M154.617357,6.87985714 C153.731665,6.87985714 153.129286,7.19554945 152.533757,7.78957403 L152.384857,7.94385714 L153.144857,8.70385714 L153.254905,8.58899264 C153.553129,8.28871664 153.890265,8.04255264 154.285769,7.99155664 L154.436857,7.98185714 L154.567805,7.98751492 C155.160335,8.04012381 155.491357,8.45685714 155.491357,9.12185714 C155.491357,9.97923214 154.782832,10.985457 153.540184,12.2159489 L153.130217,12.6120681 C153.058998,12.6793597 152.986351,12.7472946 152.9123,12.8158838 L152.451357,13.2353571 L152.451357,14.0428571 L157.163357,14.0428571 L157.163357,12.8648571 L155.643357,12.8648571 L155.429873,12.8691131 C155.279545,12.8745851 155.115841,12.8849211 154.954569,12.8976891 L154.493857,12.9408571 C155.776357,11.6868571 156.830857,10.3188571 156.830857,9.04585714 C156.830857,7.73485714 155.947357,6.87985714 154.617357,6.87985714 Z M173.200115,11.0177103 L172.26476,12.0057812 L171.805947,12.479484 L171.253857,13.0368571 L172.217857,13.5458571 L172.218286,12.2732857 L173.530857,12.2728571 L173.496046,12.1156596 C173.47058,11.999247 173.438799,11.8687039 173.401564,11.7265962 L173.274365,11.2681451 C173.250726,11.1868096 173.225941,11.1032244 173.200115,11.0177103 Z M160.430857,7.96285714 C161.281959,7.96285714 161.495357,9.14714527 161.495357,10.5278571 C161.495357,11.908569 161.247154,13.0833571 160.436107,13.0833571 C159.625061,13.0833571 159.376857,11.923569 159.376857,10.5428571 C159.376857,9.16214527 159.579756,7.96285714 160.430857,7.96285714 Z M187.838857,10.1098571 C188.076357,11.0598571 188.370857,11.9338571 188.769857,12.6938571 L188.722756,12.7522735 L188.436137,12.1698312 C188.257661,11.8074711 188.097466,11.4290335 187.957347,11.0387911 L187.824586,10.6457572 L187.830983,10.4645201 C187.834451,10.3444397 187.837012,10.2260738 187.838857,10.1098571 Z M182.077345,10.2628129 L181.973797,10.508974 C181.733719,11.0679606 181.478544,11.6136664 181.231585,12.0948035 L181.136857,12.2728571 L181.953887,12.2750355 C182.016364,11.8082207 182.053567,11.2727952 182.069726,10.6685312 L182.077345,10.2628129 Z M174.396357,7.99135714 L173.360857,8.29535714 L173.471278,8.59424979 L173.695287,9.22264621 L173.914941,9.86964678 C173.98629,10.0854529 174.055198,10.2999176 174.11995,10.5085988 L174.300021,11.1128493 C174.354745,11.3055212 174.403598,11.4879674 174.444863,11.6557457 L174.500857,11.8958571 L175.631357,11.4968571 L175.559126,11.2368455 C175.412133,10.7309957 175.194867,10.097376 174.961177,9.46081901 L174.676311,8.70353008 C174.628669,8.57974338 174.581231,8.45783651 174.534428,8.33880813 L174.396357,7.99135714 Z M190.033357,9.63485714 C189.889071,10.3653067 189.676302,11.0358344 189.403178,11.6220628 C189.401965,11.6203522 189.4021,11.6206755 189.402235,11.6209988 L189.358857,11.7153571 L189.358857,11.7153571 C189.045357,11.0788571 188.788857,10.3758571 188.608357,9.63485714 L190.033357,9.63485714 Z" id="底" fill-opacity="0.05" fill="#000000"></path>
                <g id="投影" fill-rule="nonzero">
                    <use fill="black" fill-opacity="1" filter="url(#filter-5)" xlink:href="#path-4"></use>
                    <use fill-opacity="0" fill="#FFFFFF" xlink:href="#path-4"></use>
                </g>
                <path d="M157.732857,24.5728571 L160.402857,24.5728571 L160.402857,23.5028571 L157.732857,23.5028571 L157.732857,21.4428571 L156.472857,21.4428571 L156.472857,26.5728571 L155.072857,26.5728571 L155.072857,23.0828571 L153.892857,23.0828571 L153.892857,26.5728571 L152.812857,26.5728571 L152.812857,27.6428571 L161.312857,27.6428571 L161.312857,26.5728571 L157.732857,26.5728571 L157.732857,24.5728571 Z M156.872857,18.4828571 C155.872857,19.9828571 154.042857,21.1728571 152.252857,21.8728571 C152.552857,22.1428571 152.892857,22.5728571 153.062857,22.8828571 C154.512857,22.2228571 155.932857,21.2828571 157.042857,20.1028571 C158.402857,21.5528571 159.722857,22.2828571 161.102857,22.8828571 C161.242857,22.5228571 161.562857,22.1028571 161.852857,21.8528571 C160.432857,21.3528571 159.042857,20.6728571 157.732857,19.2928571 C157.802857,19.2028571 157.872857,19.1028571 157.942857,19.0128571 L156.872857,18.4828571 Z M165.092857,24.3628571 C164.842857,23.4128571 164.262857,21.8428571 163.792857,20.6728571 L162.702857,20.9928571 C163.162857,22.2228571 163.692857,23.8228571 163.902857,24.7828571 L165.092857,24.3628571 Z M168.932857,26.2628571 L168.932857,24.3828571 L169.842857,24.8428571 C170.362857,23.8828571 170.992857,22.4728571 171.432857,21.2128571 L170.362857,20.7028571 C170.032857,21.8428571 169.432857,23.2628571 168.932857,24.2128571 L168.932857,18.7028571 L167.702857,18.7028571 L167.702857,26.2628571 L166.392857,26.2628571 L166.392857,18.7028571 L165.162857,18.7028571 L165.162857,26.2628571 L162.582857,26.2628571 L162.582857,27.4528571 L171.522857,27.4528571 L171.522857,26.2628571 L168.932857,26.2628571 Z M180.642857,18.6328571 C179.412857,18.9128571 177.392857,19.1328571 175.642857,19.2228571 C175.752857,19.4628571 175.892857,19.8528571 175.912857,20.1128571 C177.702857,20.0328571 179.832857,19.8428571 181.342857,19.5028571 L180.642857,18.6328571 Z M179.202857,21.3028571 C179.132857,20.9628571 178.962857,20.4228571 178.792857,20.0028571 L177.872857,20.2128571 C178.022857,20.6428571 178.172857,21.2128571 178.232857,21.5628571 L179.202857,21.3028571 Z M176.592857,22.6328571 L180.492857,22.6328571 L180.492857,23.2928571 L181.592857,23.2928571 L181.592857,21.6628571 L180.552857,21.6628571 C180.822857,21.2228571 181.092857,20.7028571 181.362857,20.1928571 L180.262857,19.8728571 C180.092857,20.4128571 179.772857,21.1428571 179.482857,21.6628571 L176.682857,21.6628571 L177.432857,21.3928571 C177.332857,21.0528571 177.082857,20.5328571 176.862857,20.1328571 L175.962857,20.4328571 C176.162857,20.8128571 176.372857,21.3128571 176.462857,21.6628571 L175.542857,21.6628571 L175.542857,23.2828571 L176.592857,23.2828571 L176.592857,22.6328571 Z M175.372857,22.7828571 L174.572857,23.0128571 L174.572857,21.5628571 L175.432857,21.5628571 L175.432857,20.4628571 L174.572857,20.4628571 L174.572857,18.5828571 L173.472857,18.5828571 L173.472857,20.4628571 L172.402857,20.4628571 L172.402857,21.5628571 L173.472857,21.5628571 L173.472857,23.3028571 C173.022857,23.4228571 172.622857,23.5228571 172.282857,23.6028571 L172.542857,24.7328571 L173.472857,24.4728571 L173.472857,26.6528571 C173.472857,26.7828571 173.432857,26.8228571 173.312857,26.8228571 C173.192857,26.8328571 172.852857,26.8328571 172.482857,26.8128571 C172.632857,27.1328571 172.762857,27.6228571 172.792857,27.9128571 C173.432857,27.9228571 173.872857,27.8828571 174.162857,27.6928571 C174.472857,27.5028571 174.572857,27.2028571 174.572857,26.6528571 L174.572857,24.1528571 C174.892857,24.0628571 175.212857,23.9628571 175.532857,23.8628571 L175.372857,22.7828571 Z M179.552857,24.4528571 C179.272857,24.9328571 178.892857,25.3228571 178.422857,25.6628571 C177.992857,25.3228571 177.632857,24.9228571 177.372857,24.4528571 L179.552857,24.4528571 Z M180.332857,23.4428571 L180.142857,23.4828571 L176.062857,23.4828571 L176.062857,24.4528571 L176.862857,24.4528571 L176.312857,24.6128571 C176.612857,25.2328571 176.992857,25.7728571 177.452857,26.2128571 C176.772857,26.5228571 176.002857,26.7328571 175.152857,26.8628571 C175.352857,27.1028571 175.582857,27.6028571 175.672857,27.9028571 C176.672857,27.7028571 177.592857,27.3928571 178.382857,26.9428571 C179.092857,27.4028571 179.942857,27.7228571 180.942857,27.9228571 C181.082857,27.6028571 181.402857,27.1228571 181.652857,26.8928571 C180.792857,26.7728571 180.042857,26.5528571 179.392857,26.2428571 C180.122857,25.6128571 180.692857,24.7828571 181.032857,23.7128571 L180.332857,23.4428571 Z M186.802857,23.7028571 C186.572857,23.4628571 185.522857,22.4528571 185.132857,22.1328571 L185.132857,21.6428571 L186.292857,21.6428571 L186.292857,20.5428571 L185.132857,20.5428571 L185.132857,18.5728571 L183.962857,18.5728571 L183.962857,20.5428571 L182.472857,20.5428571 L182.472857,21.6428571 L183.742857,21.6428571 C183.432857,22.8728571 182.822857,24.2728571 182.162857,25.0628571 C182.372857,25.3828571 182.692857,25.9428571 182.822857,26.2928571 C183.252857,25.7228571 183.642857,24.8728571 183.962857,23.9428571 L183.962857,27.9128571 L185.132857,27.9128571 L185.132857,23.4428571 C185.502857,23.9128571 185.902857,24.4428571 186.122857,24.7928571 L186.802857,23.7028571 Z M190.172857,20.5628571 C189.902857,21.9528571 189.462857,23.1528571 188.842857,24.1428571 C188.332857,23.1828571 187.982857,22.0228571 187.712857,20.5628571 L190.172857,20.5628571 Z M190.702857,19.3628571 L190.512857,19.4128571 L186.392857,19.4128571 L186.392857,20.5628571 L186.902857,20.5628571 L186.602857,20.6228571 C186.932857,22.5328571 187.372857,23.9928571 188.082857,25.1828571 C187.422857,25.9428571 186.622857,26.5228571 185.732857,26.9028571 C185.992857,27.1228571 186.312857,27.5828571 186.482857,27.8928571 C187.362857,27.4528571 188.132857,26.8928571 188.792857,26.1728571 C189.352857,26.8328571 190.032857,27.4128571 190.882857,27.9628571 C191.052857,27.6128571 191.422857,27.1828571 191.732857,26.9528571 C190.832857,26.4428571 190.132857,25.8828571 189.572857,25.2028571 C190.532857,23.8128571 191.162857,21.9728571 191.462857,19.6028571 L190.702857,19.3628571 Z M152.451357,14.0428571 L157.163357,14.0428571 L157.163357,12.8648571 L155.643357,12.8648571 C155.310857,12.8648571 154.845357,12.9028571 154.493857,12.9408571 C155.776357,11.6868571 156.830857,10.3188571 156.830857,9.04585714 C156.830857,7.73485714 155.947357,6.87985714 154.617357,6.87985714 C153.657857,6.87985714 153.030857,7.25035714 152.384857,7.94385714 L153.144857,8.70385714 C153.505857,8.31435714 153.923857,7.98185714 154.436857,7.98185714 C155.111357,7.98185714 155.491357,8.40935714 155.491357,9.12185714 C155.491357,10.2048571 154.360857,11.5253571 152.451357,13.2353571 L152.451357,14.0428571 Z M160.440857,14.1758571 C161.875357,14.1758571 162.815857,12.9218571 162.815857,10.4993571 C162.815857,8.07685714 161.875357,6.87985714 160.440857,6.87985714 C159.006357,6.87985714 158.056357,8.06735714 158.056357,10.4993571 C158.056357,12.9218571 159.006357,14.1758571 160.440857,14.1758571 Z M160.440857,13.0833571 C159.832857,13.0833571 159.376857,12.4753571 159.376857,10.4993571 C159.376857,8.53285714 159.832857,7.96285714 160.440857,7.96285714 C161.048857,7.96285714 161.495357,8.53285714 161.495357,10.4993571 C161.495357,12.4753571 161.048857,13.0833571 160.440857,13.0833571 Z M172.173357,9.83435714 L172.173357,8.75135714 L167.489857,8.75135714 L167.708357,7.94385714 L171.498857,7.94385714 L171.498857,6.87035714 L167.974357,6.87035714 C168.050357,6.57585714 168.126357,6.29085714 168.192857,6.00585714 L166.995857,6.00585714 C166.929357,6.29085714 166.862857,6.56635714 166.796357,6.87035714 L164.525857,6.87035714 L164.525857,7.94385714 L166.511357,7.94385714 C166.444857,8.21935714 166.368857,8.47585714 166.292857,8.75135714 L163.737357,8.75135714 L163.737357,9.83435714 L165.979357,9.83435714 C165.770357,10.5183571 165.561357,11.1643571 165.371357,11.6868571 L169.579857,11.6868571 C169.171357,12.0953571 168.724857,12.5323571 168.278357,12.9503571 C167.556357,12.7128571 166.815357,12.5038571 166.188357,12.3518571 L165.589857,13.2068571 C167.090857,13.6058571 169.133357,14.3658571 170.121357,14.9358571 L170.776857,13.9478571 C170.434857,13.7673571 169.969357,13.5678571 169.456357,13.3683571 C170.254357,12.5893571 171.080857,11.7628571 171.726857,11.0788571 L170.852857,10.5753571 L170.672357,10.6323571 L166.957857,10.6323571 C167.024357,10.3758571 167.109857,10.1098571 167.185857,9.83435714 L172.173357,9.83435714 Z M175.631357,11.4968571 C175.393857,10.5943571 174.842857,9.10285714 174.396357,7.99135714 L173.360857,8.29535714 C173.797857,9.46385714 174.301357,10.9838571 174.500857,11.8958571 L175.631357,11.4968571 Z M179.279357,13.3018571 L179.279357,11.5158571 L180.143857,11.9528571 C180.637857,11.0408571 181.236357,9.70135714 181.654357,8.50435714 L180.637857,8.01985714 C180.324357,9.10285714 179.754357,10.4518571 179.279357,11.3543571 L179.279357,6.11985714 L178.110857,6.11985714 L178.110857,13.3018571 L176.866357,13.3018571 L176.866357,6.11985714 L175.697857,6.11985714 L175.697857,13.3018571 L173.246857,13.3018571 L173.246857,14.4323571 L181.739857,14.4323571 L181.739857,13.3018571 L179.279357,13.3018571 Z M184.133857,10.5468571 C184.143357,10.3283571 184.143357,10.1098571 184.143357,9.91035714 L184.143357,9.49235714 L186.461357,9.49235714 L186.461357,8.49485714 L185.805857,8.49485714 L185.805857,5.99635714 L184.789357,5.99635714 L184.789357,8.49485714 L184.143357,8.49485714 L184.143357,6.24335714 L183.107857,6.24335714 L183.107857,9.91035714 C183.107857,11.2498571 183.041357,13.0643571 182.490357,14.2138571 C182.718357,14.3658571 183.098357,14.6983571 183.278857,14.9168571 C183.801357,14.0238571 184.019857,12.7793571 184.095857,11.5443571 L184.960357,11.5443571 L184.960357,14.8408571 L185.986357,14.8408571 L185.986357,10.5468571 L184.133857,10.5468571 Z M187.344857,13.9098571 C187.724857,12.7318571 187.819857,11.3068571 187.838857,10.1098571 C188.076357,11.0598571 188.370857,11.9338571 188.769857,12.6938571 C188.361357,13.2068571 187.895857,13.6248571 187.344857,13.9098571 Z M190.033357,9.63485714 C189.881357,10.4043571 189.653357,11.1073571 189.358857,11.7153571 C189.045357,11.0788571 188.788857,10.3758571 188.608357,9.63485714 L190.033357,9.63485714 Z M190.527357,8.57085714 L190.346857,8.60885714 L187.838857,8.60885714 L187.838857,7.47835714 C189.045357,7.40235714 190.327857,7.25985714 191.353857,7.03185714 L190.726857,6.04385714 C189.691357,6.28135714 188.152357,6.47135714 186.765357,6.56635714 L186.765357,9.74885714 C186.765357,11.0978571 186.679857,13.0833571 185.986357,14.3373571 C186.252357,14.4703571 186.679857,14.7743571 186.879357,14.9643571 C187.050357,14.6888571 187.183357,14.3943571 187.297357,14.0618571 C187.506357,14.2993571 187.753357,14.6603571 187.886357,14.9073571 C188.456357,14.5843571 188.959857,14.1758571 189.377857,13.6818571 C189.748357,14.1663571 190.185357,14.5843571 190.679357,14.9073571 C190.859857,14.6128571 191.192357,14.2043571 191.439357,14.0048571 C190.897857,13.7103571 190.422857,13.2828571 190.023857,12.7698571 C190.622357,11.7343571 191.021357,10.4043571 191.201857,8.74185714 L190.527357,8.57085714 Z" id="颜色" fill="url(#linearGradient-6)" fill-rule="nonzero"></path>
            </g>
        </g>
    </g>
</svg>