<?xml version="1.0" encoding="UTF-8"?>
<svg width="232px" height="46px" viewBox="0 0 232 46" version="1.1" xmlns="http://www.w3.org/2000/svg" xmlns:xlink="http://www.w3.org/1999/xlink">
    <title>锁屏水印-企业版-EN</title>
    <defs>
        <path d="M43.3790238,1.04285714 C44.1856765,1.04285714 44.8406509,1.69198823 44.8406509,2.49450051 L44.8406509,14.0912138 C44.8406509,14.8937261 45.4942464,15.5428571 46.302278,15.5428571 L57.9815058,15.5428571 C58.7881585,15.5428571 59.4445118,16.1933577 59.4445118,16.9945005 L59.4445118,28.5912138 C59.4445118,29.3923566 58.7881585,30.0428571 57.9815058,30.0428571 L2.50586313,30.0428571 C1.69783155,30.0428571 1.04285714,29.3923566 1.04285714,28.5912138 L1.04285714,2.49450051 C1.04285714,1.69198823 1.69783155,1.04285714 2.50586313,1.04285714 L43.3790238,1.04285714 Z M53.4319847,2.51024947 L53.4319847,4.88902734 C53.4319847,5.60663217 53.802907,5.88463557 54.4165146,5.88463557 C55.1487071,5.88463557 55.3913923,5.55322265 55.3913923,4.85342099 L55.3913923,2.51024947 L56.6778999,2.51024947 L56.6778999,5.08760119 C56.6778999,5.88052715 56.3910901,6.95967335 54.4068624,6.95967335 C52.961782,6.95967335 52.1427193,6.3680602 52.1427193,5.17524758 L52.1427193,2.51024947 L53.4319847,2.51024947 Z M59.0877921,2.51024947 L61.1202811,5.18483391 L61.1202811,2.51024947 L62.3323284,2.51024947 L62.3323284,6.85970168 L61.0871876,6.85970168 L59.0643509,4.19196462 L59.0643509,6.85970168 L57.8481668,6.85970168 L57.8481668,2.51024947 L59.0877921,2.51024947 Z M145.58123,1.04285714 C146.387883,1.04285714 147.042857,1.69198823 147.042857,2.49450051 L147.042857,2.49450051 L147.042857,28.5912138 C147.042857,29.3923566 146.387883,30.0428571 145.58123,30.0428571 L145.58123,30.0428571 L90.1053116,30.0428571 C89.29728,30.0428571 88.6423056,29.3923566 88.6423056,28.5912138 L88.6423056,28.5912138 L88.6423056,16.9972395 C88.6423056,16.1947272 89.29728,15.5455961 90.1053116,15.5455961 L90.1053116,15.5455961 L101.784539,15.5455961 C102.592571,15.5455961 103.246166,14.8950955 103.246166,14.0925832 L103.246166,14.0925832 L103.246166,2.49450051 C103.246166,1.69198823 103.901141,1.04285714 104.709172,1.04285714 L104.709172,1.04285714 Z M88.4717365,2.40370433 C89.8092631,2.40370433 90.5318033,3.24182295 90.5717912,4.06898578 L90.5717912,4.06898578 L89.4576453,4.06898578 C89.4397197,3.90738774 89.2452957,3.38424834 88.4758731,3.38424834 C87.8319299,3.38424834 87.3410438,3.88684562 87.3410438,4.74687584 C87.3410438,5.5014565 87.8346877,6.00405378 88.4896621,6.00405378 C89.1915189,6.00405378 89.4286885,5.60690607 89.4948754,5.08924456 L89.4948754,5.08924456 L90.6090214,5.08924456 C90.5345611,6.16839077 89.810642,6.96268619 88.4538108,6.96268619 C87.3589694,6.96268619 86.1841522,6.17523814 86.1841522,4.72770319 C86.1841522,3.28016825 87.1024952,2.40370433 88.4717365,2.40370433 Z M92.7492019,2.51024947 L92.7492019,4.11390456 L94.6631061,4.11390456 L94.6631061,2.51024947 L95.9523715,2.51024947 L95.9523715,6.85970168 L94.6575905,6.85970168 L94.6575905,5.0547338 L92.7492019,5.0547338 L92.7492019,6.85970168 L91.4613154,6.85970168 L91.4613154,2.51024947 L92.7492019,2.51024947 Z M70.9731645,2.51024947 L72.2127897,2.51024947 L74.2452787,5.18483391 L74.2452787,2.51024947 L75.458705,2.51024947 L75.458705,6.85970168 L74.2121853,6.85970168 L72.1893485,4.19196462 L72.1893485,6.85970168 L70.9731645,6.85970168 L70.9731645,2.51024947 Z M63.5289322,6.86011253 L64.8209554,6.86011253 L64.8209554,2.51066032 L63.5289322,2.51066032 L63.5289322,6.86011253 Z M67.9191912,5.84108627 C67.3152358,5.84108627 66.8243497,5.35903111 66.8243497,4.68524947 C66.8243497,4.01009836 67.3152358,3.53215163 67.9191912,3.53215163 C68.5217676,3.53215163 69.0126537,4.01009836 69.0126537,4.68524947 C69.0126537,5.35903111 68.5217676,5.84108627 67.9191912,5.84108627 M67.9191912,2.41876855 C66.4465329,2.41876855 65.5516311,3.43354944 65.5516311,4.68388 C65.5516311,5.93558004 66.6120002,6.95036092 67.9191912,6.95036092 C69.2250033,6.95036092 70.2867513,5.93558004 70.2867513,4.68388 C70.2867513,3.43354944 69.3270414,2.41876855 67.9191912,2.41876855 M76.2504656,2.51024947 L80.6091479,2.51024947 L80.6091479,3.43327554 L79.0771973,3.43327554 L79.0771973,6.85970168 L77.7879318,6.85970168 L77.7879318,3.43875344 L76.2504656,3.43875344 L76.2504656,2.51024947 Z M81.3970477,2.51024947 L85.3903232,2.51024947 L85.3903232,3.43327554 L82.6863131,3.43327554 L82.6863131,4.18511725 L85.1697002,4.18511725 L85.1697002,5.05747275 L82.6863131,5.05747275 L82.6863131,5.93804509 L85.4482367,5.93804509 L85.4482367,6.85970168 L81.3970477,6.85970168 L81.3970477,2.51024947 Z" id="path-1"></path>
        <filter x="-4.5%" y="-19.0%" width="108.9%" height="144.8%" filterUnits="objectBoundingBox" id="filter-2">
            <feOffset dx="0" dy="1" in="SourceAlpha" result="shadowOffsetOuter1"></feOffset>
            <feGaussianBlur stdDeviation="2" in="shadowOffsetOuter1" result="shadowBlurOuter1"></feGaussianBlur>
            <feComposite in="shadowBlurOuter1" in2="SourceAlpha" operator="out" result="shadowBlurOuter1"></feComposite>
            <feColorMatrix values="0 0 0 0 0   0 0 0 0 0   0 0 0 0 0  0 0 0 0.2 0" type="matrix" in="shadowBlurOuter1"></feColorMatrix>
        </filter>
        <linearGradient x1="-1.23547869%" y1="48.0273034%" x2="100%" y2="51.5162215%" id="linearGradient-3">
            <stop stop-color="#FFFFFF" stop-opacity="0.25" offset="0%"></stop>
            <stop stop-color="#FFFFFF" stop-opacity="0.35" offset="15.8878787%"></stop>
            <stop stop-color="#FFFFFF" stop-opacity="0.151570353" offset="35.1027096%"></stop>
            <stop stop-color="#FFFFFF" stop-opacity="0.4" offset="53.8811523%"></stop>
            <stop stop-color="#FFFFFF" stop-opacity="0.15" offset="70.9665078%"></stop>
            <stop stop-color="#FFFFFF" stop-opacity="0.3" offset="83.5911059%"></stop>
            <stop stop-color="#FFFFFF" stop-opacity="0.14" offset="100%"></stop>
        </linearGradient>
        <path d="M1.49088568,8.17417143 L5.85568568,8.17417143 L5.85568568,7.08297143 L4.43008568,7.08297143 C4.12208568,7.08297143 3.69088568,7.11817143 3.36528568,7.15337143 C4.52688568,5.93897143 5.54768568,4.79497143 5.54768568,3.68617143 C5.54768568,2.48937143 4.72928568,1.70617143 3.49728568,1.70617143 C2.60848568,1.70617143 2.02768568,2.05817143 1.42928568,2.70057143 L2.13328568,3.40457143 C2.46768568,3.04377143 2.85488568,2.72697143 3.33008568,2.72697143 C3.95488568,2.72697143 4.30688568,3.11417143 4.30688568,3.75657143 C4.30688568,4.69817143 3.18928568,5.80697143 1.49088568,7.42617143 L1.49088568,8.17417143 Z M8.79168568,8.29737143 C10.1292857,8.29737143 10.9916857,7.12697143 10.9916857,4.97097143 C10.9916857,2.83257143 10.1292857,1.70617143 8.79168568,1.70617143 C7.45408568,1.70617143 6.58288568,2.82377143 6.58288568,4.97097143 C6.58288568,7.12697143 7.45408568,8.29737143 8.79168568,8.29737143 Z M8.79168568,7.28537143 C8.22848568,7.28537143 7.80608568,6.73977143 7.80608568,4.97097143 C7.80608568,3.21097143 8.22848568,2.71817143 8.79168568,2.71817143 C9.35488568,2.71817143 9.76848568,3.21097143 9.76848568,4.97097143 C9.76848568,6.73977143 9.35488568,7.28537143 8.79168568,7.28537143 Z M13.9772857,8.17417143 L15.2796857,8.17417143 L15.2796857,5.85977143 L16.1508857,5.85977143 C17.5500857,5.85977143 18.6676857,5.19097143 18.6676857,3.70377143 C18.6676857,2.16377143 17.5588857,1.65337143 16.1156857,1.65337143 L13.9772857,1.65337143 L13.9772857,8.17417143 Z M15.2796857,4.83017143 L15.2796857,2.69177143 L16.0188857,2.69177143 C16.9164857,2.69177143 17.3916857,2.94697143 17.3916857,3.70377143 C17.3916857,4.45177143 16.9604857,4.83017143 16.0628857,4.83017143 L15.2796857,4.83017143 Z M19.6412857,8.17417143 L20.9348857,8.17417143 L20.9348857,5.23497143 C21.2076857,4.52217143 21.6740857,4.26697143 22.0612857,4.26697143 C22.2636857,4.26697143 22.4044857,4.29337143 22.5804857,4.34617143 L22.8004857,3.22857143 C22.6508857,3.16697143 22.4924857,3.12297143 22.2196857,3.12297143 C21.7092857,3.12297143 21.1812857,3.47497143 20.8204857,4.11737143 L20.7940857,4.11737143 L20.6972857,3.24617143 L19.6412857,3.24617143 L19.6412857,8.17417143 Z M25.3316857,8.29737143 C26.5636857,8.29737143 27.6988857,7.34697143 27.6988857,5.71017143 C27.6988857,4.07337143 26.5636857,3.12297143 25.3316857,3.12297143 C24.0996857,3.12297143 22.9644857,4.07337143 22.9644857,5.71017143 C22.9644857,7.34697143 24.0996857,8.29737143 25.3316857,8.29737143 Z M25.3316857,7.24137143 C24.6628857,7.24137143 24.2844857,6.64297143 24.2844857,5.71017143 C24.2844857,4.78617143 24.6628857,4.17897143 25.3316857,4.17897143 C26.0004857,4.17897143 26.3788857,4.78617143 26.3788857,5.71017143 C26.3788857,6.64297143 26.0004857,7.24137143 25.3316857,7.24137143 Z M33.6940857,3.12297143 C35.0492857,3.12297143 35.7532857,4.11737143 35.7532857,5.47257143 C35.7532857,5.71897143 35.7268857,5.95657143 35.6916857,6.07097143 L35.6916857,6.07097143 L32.6556857,6.07097143 C32.7612857,6.88057143 33.2892857,7.30297143 34.0196857,7.30297143 C34.4244857,7.30297143 34.7764857,7.17977143 35.1284857,6.95977143 L35.1284857,6.95977143 L35.5684857,7.75177143 C35.0844857,8.08617143 34.4596857,8.29737143 33.8524857,8.29737143 C32.4708857,8.29737143 31.3972857,7.33817143 31.3972857,5.71017143 C31.3972857,4.11737143 32.5236857,3.12297143 33.6940857,3.12297143 Z M30.5732857,1.02857143 C30.9516857,1.02857143 31.2860857,1.11657143 31.5060857,1.19577143 L31.5060857,1.19577143 L31.2684857,2.15497143 C31.1012857,2.08457143 30.9076857,2.04937143 30.7492857,2.04937143 C30.3620857,2.04937143 30.1508857,2.27817143 30.1508857,2.82377143 L30.1508857,2.82377143 L30.1508857,3.24617143 L31.0748857,3.24617143 L31.0748857,4.26697143 L30.1508857,4.26697143 L30.1508857,8.17417143 L28.8572857,8.17417143 L28.8572857,4.26697143 L28.1972857,4.26697143 L28.1972857,3.30777143 L28.8572857,3.25497143 L28.8572857,2.85017143 C28.8572857,1.82057143 29.3324857,1.02857143 30.5732857,1.02857143 Z M33.7116857,4.12617143 C33.1924857,4.12617143 32.7348857,4.49577143 32.6380857,5.20857143 L32.6380857,5.20857143 L34.6444857,5.20857143 C34.6444857,4.54857143 34.3452857,4.12617143 33.7116857,4.12617143 Z M38.1260857,8.29737143 C39.4108857,8.29737143 40.0884857,7.60217143 40.0884857,6.73977143 C40.0884857,5.82457143 39.3668857,5.49897143 38.7156857,5.25257143 C38.1964857,5.05897143 37.7388857,4.92697143 37.7388857,4.56617143 C37.7388857,4.28457143 37.9500857,4.09097143 38.3988857,4.09097143 C38.7596857,4.09097143 39.1028857,4.25817143 39.4548857,4.51337143 L40.0356857,3.73017143 C39.6308857,3.42217143 39.0764857,3.12297143 38.3636857,3.12297143 C37.2372857,3.12297143 36.5244857,3.74777143 36.5244857,4.62777143 C36.5244857,5.45497143 37.2196857,5.83337143 37.8444857,6.07097143 C38.3636857,6.27337143 38.8740857,6.44057143 38.8740857,6.81017143 C38.8740857,7.11817143 38.6540857,7.32937143 38.1612857,7.32937143 C37.7036857,7.32937143 37.2812857,7.13577143 36.8412857,6.79257143 L36.2516857,7.60217143 C36.7444857,8.00697143 37.4660857,8.29737143 38.1260857,8.29737143 Z M42.3820857,8.29737143 C43.6668857,8.29737143 44.3444857,7.60217143 44.3444857,6.73977143 C44.3444857,5.82457143 43.6228857,5.49897143 42.9716857,5.25257143 C42.4524857,5.05897143 41.9948857,4.92697143 41.9948857,4.56617143 C41.9948857,4.28457143 42.2060857,4.09097143 42.6548857,4.09097143 C43.0156857,4.09097143 43.3588857,4.25817143 43.7108857,4.51337143 L44.2916857,3.73017143 C43.8868857,3.42217143 43.3324857,3.12297143 42.6196857,3.12297143 C41.4932857,3.12297143 40.7804857,3.74777143 40.7804857,4.62777143 C40.7804857,5.45497143 41.4756857,5.83337143 42.1004857,6.07097143 C42.6196857,6.27337143 43.1300857,6.44057143 43.1300857,6.81017143 C43.1300857,7.11817143 42.9100857,7.32937143 42.4172857,7.32937143 C41.9596857,7.32937143 41.5372857,7.13577143 41.0972857,6.79257143 L40.5076857,7.60217143 C41.0004857,8.00697143 41.7220857,8.29737143 42.3820857,8.29737143 Z M45.2300857,8.17417143 L46.5236857,8.17417143 L46.5236857,3.24617143 L45.2300857,3.24617143 L45.2300857,8.17417143 Z M45.8812857,2.45417143 C46.3212857,2.45417143 46.6292857,2.17257143 46.6292857,1.74137143 C46.6292857,1.31897143 46.3212857,1.03737143 45.8812857,1.03737143 C45.4324857,1.03737143 45.1244857,1.31897143 45.1244857,1.74137143 C45.1244857,2.17257143 45.4324857,2.45417143 45.8812857,2.45417143 Z M49.8644857,8.29737143 C51.0964857,8.29737143 52.2316857,7.34697143 52.2316857,5.71017143 C52.2316857,4.07337143 51.0964857,3.12297143 49.8644857,3.12297143 C48.6324857,3.12297143 47.4972857,4.07337143 47.4972857,5.71017143 C47.4972857,7.34697143 48.6324857,8.29737143 49.8644857,8.29737143 Z M49.8644857,7.24137143 C49.1956857,7.24137143 48.8172857,6.64297143 48.8172857,5.71017143 C48.8172857,4.78617143 49.1956857,4.17897143 49.8644857,4.17897143 C50.5332857,4.17897143 50.9116857,4.78617143 50.9116857,5.71017143 C50.9116857,6.64297143 50.5332857,7.24137143 49.8644857,7.24137143 Z M53.2140857,8.17417143 L54.5076857,8.17417143 L54.5076857,4.78617143 C54.8684857,4.42537143 55.1236857,4.23177143 55.5284857,4.23177143 C56.0124857,4.23177143 56.2236857,4.49577143 56.2236857,5.26137143 L56.2236857,8.17417143 L57.5172857,8.17417143 L57.5172857,5.10297143 C57.5172857,3.86217143 57.0596857,3.12297143 55.9948857,3.12297143 C55.3260857,3.12297143 54.8244857,3.47497143 54.3932857,3.89737143 L54.3668857,3.89737143 L54.2700857,3.24617143 L53.2140857,3.24617143 L53.2140857,8.17417143 Z M59.9692857,8.29737143 C60.5324857,8.29737143 61.0252857,8.01577143 61.4564857,7.64617143 L61.4916857,7.64617143 L61.5796857,8.17417143 L62.6356857,8.17417143 L62.6356857,5.29657143 C62.6356857,3.87097143 61.9932857,3.12297143 60.7436857,3.12297143 C59.9692857,3.12297143 59.2652857,3.41337143 58.6844857,3.77417143 L59.1508857,4.62777143 C59.6084857,4.36377143 60.0484857,4.16137143 60.5060857,4.16137143 C61.1132857,4.16137143 61.3244857,4.53097143 61.3508857,5.01497143 C59.3620857,5.22617143 58.5084857,5.78057143 58.5084857,6.83657143 C58.5084857,7.67257143 59.0892857,8.29737143 59.9692857,8.29737143 Z M60.3916857,7.28537143 C60.0132857,7.28537143 59.7404857,7.11817143 59.7404857,6.73097143 C59.7404857,6.29097143 60.1452857,5.95657143 61.3508857,5.80697143 L61.3508857,6.80137143 C61.0340857,7.10937143 60.7612857,7.28537143 60.3916857,7.28537143 Z M65.0700857,8.29737143 C65.3780857,8.29737143 65.5892857,8.24457143 65.7388857,8.18297143 L65.5804857,7.22377143 C65.4924857,7.24137143 65.4572857,7.24137143 65.4044857,7.24137143 C65.2812857,7.24137143 65.1492857,7.14457143 65.1492857,6.84537143 L65.1492857,1.15177143 L63.8556857,1.15177143 L63.8556857,6.79257143 C63.8556857,7.70777143 64.1724857,8.29737143 65.0700857,8.29737143 Z M1.93148568,21.1741714 L3.26348568,21.1741714 L3.26348568,18.4741714 L5.63048568,18.4741714 L5.63048568,17.3581714 L3.26348568,17.3581714 L3.26348568,15.6211714 L6.03548568,15.6211714 L6.03548568,14.5051714 L1.93148568,14.5051714 L1.93148568,21.1741714 Z M9.12348568,21.3001714 C10.3834857,21.3001714 11.5444857,20.3281714 11.5444857,18.6541714 C11.5444857,16.9801714 10.3834857,16.0081714 9.12348568,16.0081714 C7.86348568,16.0081714 6.70248568,16.9801714 6.70248568,18.6541714 C6.70248568,20.3281714 7.86348568,21.3001714 9.12348568,21.3001714 Z M9.12348568,20.2201714 C8.43948568,20.2201714 8.05248568,19.6081714 8.05248568,18.6541714 C8.05248568,17.7091714 8.43948568,17.0881714 9.12348568,17.0881714 C9.80748568,17.0881714 10.1944857,17.7091714 10.1944857,18.6541714 C10.1944857,19.6081714 9.80748568,20.2201714 9.12348568,20.2201714 Z M12.7514857,21.1741714 L14.0744857,21.1741714 L14.0744857,18.1681714 C14.3534857,17.4391714 14.8304857,17.1781714 15.2264857,17.1781714 C15.4334857,17.1781714 15.5774857,17.2051714 15.7574857,17.2591714 L15.9824857,16.1161714 C15.8294857,16.0531714 15.6674857,16.0081714 15.3884857,16.0081714 C14.8664857,16.0081714 14.3264857,16.3681714 13.9574857,17.0251714 L13.9304857,17.0251714 L13.8314857,16.1341714 L12.7514857,16.1341714 L12.7514857,21.1741714 Z M19.0264857,21.1741714 L23.2114857,21.1741714 L23.2114857,20.0581714 L20.3584857,20.0581714 L20.3584857,18.2761714 L22.6984857,18.2761714 L22.6984857,17.1601714 L20.3584857,17.1601714 L20.3584857,15.6211714 L23.1124857,15.6211714 L23.1124857,14.5051714 L19.0264857,14.5051714 L19.0264857,21.1741714 Z M24.5534857,21.1741714 L25.8764857,21.1741714 L25.8764857,17.7091714 C26.2454857,17.3401714 26.5064857,17.1421714 26.9204857,17.1421714 C27.4154857,17.1421714 27.6314857,17.4121714 27.6314857,18.1951714 L27.6314857,21.1741714 L28.9544857,21.1741714 L28.9544857,18.0331714 C28.9544857,16.7641714 28.4864857,16.0081714 27.3974857,16.0081714 C26.7134857,16.0081714 26.2004857,16.3681714 25.7594857,16.8001714 L25.7324857,16.8001714 L25.6334857,16.1341714 L24.5534857,16.1341714 L24.5534857,21.1741714 Z M32.2674857,21.3001714 C32.7084857,21.3001714 33.0594857,21.2011714 33.3294857,21.1111714 L33.1134857,20.1481714 C32.9784857,20.2021714 32.7804857,20.2561714 32.6184857,20.2561714 C32.1684857,20.2561714 31.9344857,19.9861714 31.9344857,19.4101714 L31.9344857,17.1781714 L33.1764857,17.1781714 L33.1764857,16.1341714 L31.9344857,16.1341714 L31.9344857,14.7751714 L30.8364857,14.7751714 L30.6834857,16.1341714 L29.9004857,16.1971714 L29.9004857,17.1781714 L30.6114857,17.1781714 L30.6114857,19.4101714 C30.6114857,20.5351714 31.0704857,21.3001714 32.2674857,21.3001714 Z M36.3274857,21.3001714 C36.9484857,21.3001714 37.5874857,21.0841714 38.0824857,20.7421714 L37.6324857,19.9321714 C37.2724857,20.1571714 36.9124857,20.2831714 36.4984857,20.2831714 C35.7514857,20.2831714 35.2114857,19.8511714 35.1034857,19.0231714 L38.2084857,19.0231714 C38.2444857,18.9061714 38.2714857,18.6631714 38.2714857,18.4111714 C38.2714857,17.0251714 37.5514857,16.0081714 36.1654857,16.0081714 C34.9684857,16.0081714 33.8164857,17.0251714 33.8164857,18.6541714 C33.8164857,20.3191714 34.9144857,21.3001714 36.3274857,21.3001714 Z M35.0854857,18.1411714 C35.1844857,17.4121714 35.6524857,17.0341714 36.1834857,17.0341714 C36.8314857,17.0341714 37.1374857,17.4661714 37.1374857,18.1411714 L35.0854857,18.1411714 Z M39.4604857,21.1741714 L40.7834857,21.1741714 L40.7834857,18.1681714 C41.0624857,17.4391714 41.5394857,17.1781714 41.9354857,17.1781714 C42.1424857,17.1781714 42.2864857,17.2051714 42.4664857,17.2591714 L42.6914857,16.1161714 C42.5384857,16.0531714 42.3764857,16.0081714 42.0974857,16.0081714 C41.5754857,16.0081714 41.0354857,16.3681714 40.6664857,17.0251714 L40.6394857,17.0251714 L40.5404857,16.1341714 L39.4604857,16.1341714 L39.4604857,21.1741714 Z M43.4844857,23.1091714 L44.8074857,23.1091714 L44.8074857,21.5791714 L44.7624857,20.7511714 C45.1494857,21.1021714 45.5724857,21.3001714 46.0134857,21.3001714 C47.1204857,21.3001714 48.1554857,20.3011714 48.1554857,18.5731714 C48.1554857,17.0251714 47.4174857,16.0081714 46.1754857,16.0081714 C45.6354857,16.0081714 45.1134857,16.2961714 44.6904857,16.6561714 L44.6634857,16.6561714 L44.5644857,16.1341714 L43.4844857,16.1341714 L43.4844857,23.1091714 Z M45.7164857,20.2111714 C45.4464857,20.2111714 45.1224857,20.1121714 44.8074857,19.8331714 L44.8074857,17.6191714 C45.1494857,17.2681714 45.4554857,17.0971714 45.7974857,17.0971714 C46.4904857,17.0971714 46.7964857,17.6281714 46.7964857,18.5911714 C46.7964857,19.6891714 46.3284857,20.2111714 45.7164857,20.2111714 Z M49.3804857,21.1741714 L50.7034857,21.1741714 L50.7034857,18.1681714 C50.9824857,17.4391714 51.4594857,17.1781714 51.8554857,17.1781714 C52.0624857,17.1781714 52.2064857,17.2051714 52.3864857,17.2591714 L52.6114857,16.1161714 C52.4584857,16.0531714 52.2964857,16.0081714 52.0174857,16.0081714 C51.4954857,16.0081714 50.9554857,16.3681714 50.5864857,17.0251714 L50.5594857,17.0251714 L50.4604857,16.1341714 L49.3804857,16.1341714 L49.3804857,21.1741714 Z M53.4044857,21.1741714 L54.7274857,21.1741714 L54.7274857,16.1341714 L53.4044857,16.1341714 L53.4044857,21.1741714 Z M54.0704857,15.3241714 C54.5204857,15.3241714 54.8354857,15.0361714 54.8354857,14.5951714 C54.8354857,14.1631714 54.5204857,13.8751714 54.0704857,13.8751714 C53.6114857,13.8751714 53.2964857,14.1631714 53.2964857,14.5951714 C53.2964857,15.0361714 53.6114857,15.3241714 54.0704857,15.3241714 Z M57.6804857,21.3001714 C58.9944857,21.3001714 59.6874857,20.5891714 59.6874857,19.7071714 C59.6874857,18.7711714 58.9494857,18.4381714 58.2834857,18.1861714 C57.7524857,17.9881714 57.2844857,17.8531714 57.2844857,17.4841714 C57.2844857,17.1961714 57.5004857,16.9981714 57.9594857,16.9981714 C58.3284857,16.9981714 58.6794857,17.1691714 59.0394857,17.4301714 L59.6334857,16.6291714 C59.2194857,16.3141714 58.6524857,16.0081714 57.9234857,16.0081714 C56.7714857,16.0081714 56.0424857,16.6471714 56.0424857,17.5471714 C56.0424857,18.3931714 56.7534857,18.7801714 57.3924857,19.0231714 C57.9234857,19.2301714 58.4454857,19.4011714 58.4454857,19.7791714 C58.4454857,20.0941714 58.2204857,20.3101714 57.7164857,20.3101714 C57.2484857,20.3101714 56.8164857,20.1121714 56.3664857,19.7611714 L55.7634857,20.5891714 C56.2674857,21.0031714 57.0054857,21.3001714 57.6804857,21.3001714 Z M62.9914857,21.3001714 C63.6124857,21.3001714 64.2514857,21.0841714 64.7464857,20.7421714 L64.2964857,19.9321714 C63.9364857,20.1571714 63.5764857,20.2831714 63.1624857,20.2831714 C62.4154857,20.2831714 61.8754857,19.8511714 61.7674857,19.0231714 L64.8724857,19.0231714 C64.9084857,18.9061714 64.9354857,18.6631714 64.9354857,18.4111714 C64.9354857,17.0251714 64.2154857,16.0081714 62.8294857,16.0081714 C61.6324857,16.0081714 60.4804857,17.0251714 60.4804857,18.6541714 C60.4804857,20.3191714 61.5784857,21.3001714 62.9914857,21.3001714 Z M61.7494857,18.1411714 C61.8484857,17.4121714 62.3164857,17.0341714 62.8474857,17.0341714 C63.4954857,17.0341714 63.8014857,17.4661714 63.8014857,18.1411714 L61.7494857,18.1411714 Z" id="path-4"></path>
        <filter x="-7.8%" y="-18.1%" width="115.5%" height="145.3%" filterUnits="objectBoundingBox" id="filter-5">
            <feOffset dx="0" dy="1" in="SourceAlpha" result="shadowOffsetOuter1"></feOffset>
            <feGaussianBlur stdDeviation="1.5" in="shadowOffsetOuter1" result="shadowBlurOuter1"></feGaussianBlur>
            <feComposite in="shadowBlurOuter1" in2="SourceAlpha" operator="out" result="shadowBlurOuter1"></feComposite>
            <feColorMatrix values="0 0 0 0 0   0 0 0 0 0   0 0 0 0 0  0 0 0 0.3 0" type="matrix" in="shadowBlurOuter1"></feColorMatrix>
        </filter>
        <linearGradient x1="-1.23547869%" y1="44.1055929%" x2="100%" y2="54.530462%" id="linearGradient-6">
            <stop stop-color="#FFFFFF" stop-opacity="0.25" offset="0%"></stop>
            <stop stop-color="#FFFFFF" stop-opacity="0.35" offset="15.8878787%"></stop>
            <stop stop-color="#FFFFFF" stop-opacity="0.23958561" offset="35.1027096%"></stop>
            <stop stop-color="#FFFFFF" stop-opacity="0.4" offset="53.8811523%"></stop>
            <stop stop-color="#FFFFFF" stop-opacity="0.27107975" offset="70.9665078%"></stop>
            <stop stop-color="#FFFFFF" stop-opacity="0.3" offset="83.5911059%"></stop>
            <stop stop-color="#FFFFFF" stop-opacity="0.144360522" offset="100%"></stop>
        </linearGradient>
    </defs>
    <g id="锁屏水印-企业版-EN" stroke="none" stroke-width="1" fill="none" fill-rule="evenodd">
        <g id="编组-3">
            <rect id="矩形" x="0" y="0" width="232" height="46"></rect>
            <g id="logo" transform="translate(3.957143, 6.957143)">
                <path d="M43.3790238,0 C44.7051086,0 45.7932433,1.02735133 45.8781723,2.33025657 L45.8835081,2.49450051 L45.8835081,14.0912138 C45.8835081,14.2880468 46.0252241,14.453399 46.2171947,14.4916615 L46.302278,14.5 L57.9815058,14.5 C59.307241,14.5 60.3969681,15.5282767 60.4820251,16.8303676 L60.487369,16.9945005 L60.487369,28.5912138 C60.487369,29.9148127 59.4506712,30.9960334 58.1459379,31.0804133 L57.9815058,31.0857143 L2.50586313,31.0857143 C1.1791167,31.0857143 0.0903199553,30.0577317 0.0053390097,28.755382 L0,28.5912138 L0,2.49450051 C0,1.1695873 1.03542653,0.0895757833 2.34127851,0.00529472298 L2.50586313,0 L43.3790238,0 Z M145.58123,0 C146.816737,0 147.857236,0.895186354 148.055999,2.13375026 L148.077825,2.30472189 L148.085714,2.49450051 L148.085714,28.5912138 C148.085714,29.8247059 147.182881,30.859255 145.942356,31.0562835 L145.771153,31.0778998 L145.58123,31.0857143 L90.1053116,31.0857143 C88.8691598,31.0857143 87.828117,30.1900093 87.6291876,28.9517776 L87.6073413,28.7808566 L87.5994484,28.5912138 L87.5994484,16.9972395 C87.5994484,15.7624072 88.5024299,14.7287647 89.7439885,14.5321017 L89.9153375,14.5105316 L90.1053116,14.5027389 L101.784539,14.5027389 C101.975234,14.5027389 102.136144,14.3781521 102.184314,14.2416691 L102.197813,14.1827766 L102.203309,14.0925832 L102.203309,2.49450051 C102.203309,1.25966821 103.106291,0.226025765 104.347849,0.0293627221 L104.519198,0.00779263297 L104.709172,0 L145.58123,0 Z M43.3790238,1.04285714 L2.50586313,1.04285714 C1.74536282,1.04285714 1.12044256,1.617866 1.04955402,2.3545738 L1.04285714,2.49450051 L1.04285714,28.5912138 C1.04285714,29.3452305 1.62304208,29.9658064 2.36496031,30.0362063 L2.50586313,30.0428571 L57.9815058,30.0428571 L58.1221931,30.0362063 C58.8167984,29.9702064 59.3712129,29.4206534 59.4378015,28.7309264 L59.4445118,28.5912138 L59.4445118,16.9945005 C59.4445118,16.2404838 58.8631054,15.6199079 58.1221931,15.549508 L57.9815058,15.5428571 L46.302278,15.5428571 C45.5417777,15.5428571 44.9180789,14.9678483 44.847334,14.2311405 L44.8406509,14.0912138 L44.8406509,2.49450051 C44.8406509,1.73919484 44.260466,1.11975624 43.5196973,1.04949462 L43.3790238,1.04285714 Z M145.58123,1.04285714 L104.709172,1.04285714 L104.56827,1.04949462 C103.872721,1.11536489 103.319321,1.66391024 103.252863,2.3545738 L103.246166,2.49450051 L103.246166,14.0925832 L103.239483,14.2325236 C103.17316,14.923321 102.620842,15.4729409 101.925428,15.538945 L101.784539,15.5455961 L90.1053116,15.5455961 L89.9644088,15.5522336 C89.2688604,15.6181038 88.7154605,16.1666492 88.6490025,16.8573127 L88.6423056,16.9972395 L88.6423056,28.5912138 L88.6490025,28.7309264 C88.7154605,29.4206534 89.2688604,29.9702064 89.9644088,30.0362063 L90.1053116,30.0428571 L145.58123,30.0428571 L145.721904,30.0362063 C146.416374,29.9702064 146.969707,29.4206534 147.036161,28.7309264 L147.042857,28.5912138 L147.042857,2.49450051 L147.036161,2.3545738 C146.969707,1.66391024 146.416374,1.11536489 145.721904,1.04949462 L145.58123,1.04285714 Z M88.4717365,1.36084719 C89.2241112,1.36084719 89.8930443,1.5691937 90.418995,1.93066312 L90.4184583,1.46739233 L96.9952287,1.46739233 L96.9952287,7.90255883 L90.4184583,7.90255883 L90.4194767,7.43775463 C90.0019627,7.72774416 89.491872,7.91651568 88.909406,7.98091858 L88.6554055,8.00083792 L88.4538108,8.00554334 C87.7295756,8.00554334 87.0467027,7.78347095 86.4912686,7.3899112 L86.4910939,7.90255883 L80.3541905,7.90255883 L80.3538571,4.47585714 L80.1198571,4.47585714 L80.1200544,7.90255883 L76.7450747,7.90255883 L76.7448571,4.48085714 L76.5008571,4.48085714 L76.5015621,7.90255883 L75.2878571,7.90185714 L75.0008571,7.90185714 L73.6941839,7.90255883 L73.2318571,7.29285714 L73.2322057,7.90255883 L69.9303073,7.90255883 L69.9305289,7.35612986 C69.365236,7.75718061 68.6690145,7.99321806 67.9191912,7.99321806 C67.1490547,7.99321806 66.4357389,7.74454254 65.8626871,7.32394905 L65.8638125,7.90296967 L62.1628571,7.90185714 L61.8758571,7.90185714 L60.5691863,7.90255883 L60.1068571,7.29285714 L60.107208,7.90255883 L56.8053097,7.90255883 L56.8064607,7.28441974 C56.2627223,7.73955452 55.4692445,8.00253049 54.4068624,8.00253049 C52.4820388,8.00253049 51.1943709,7.06317984 51.1048498,5.36683615 L51.0998621,5.17524758 L51.0998621,1.46739233 L58.0208571,1.46685714 L58.3068571,1.46685714 L59.6051058,1.46739233 L60.0768571,2.08785714 L60.0774239,1.46739233 L65.8638125,1.46780317 L65.8628397,1.99466407 C66.4212069,1.60263504 67.1244832,1.37591141 67.9191912,1.37591141 C68.6838328,1.37591141 69.3742097,1.59893464 69.9305926,1.98283134 L69.9303073,1.46739233 L71.1458571,1.46685714 L71.4318571,1.46685714 L72.7301035,1.46739233 L73.2018571,2.08785714 L73.2024216,1.46739233 L86.4331803,1.46739233 L86.4331759,1.98142557 C86.9809814,1.58361821 87.6773688,1.36084719 88.4717365,1.36084719 Z M88.4717365,2.40370433 C87.1024952,2.40370433 86.1841522,3.28016825 86.1841522,4.72770319 C86.1841522,5.14990089 86.2840932,5.51594535 86.4528415,5.82267652 L86.500877,5.9053979 C86.8915209,6.54362547 87.5891237,6.90447146 88.2811117,6.95620973 L88.4538108,6.96268619 L88.6433366,6.95733783 C89.5409619,6.90576433 90.134836,6.48508973 90.4194679,5.86437694 L90.4456066,5.80474306 C90.5139617,5.64141754 90.5617326,5.46514091 90.5888251,5.27881405 L90.6090214,5.08924456 L89.4948754,5.08924456 L89.4792713,5.19108805 C89.3950006,5.65809399 89.1447284,6.00405378 88.4896621,6.00405378 C87.8346877,6.00405378 87.3410438,5.5014565 87.3410438,4.74687584 C87.3410438,3.88684562 87.8319299,3.38424834 88.4758731,3.38424834 C89.1940009,3.38424834 89.4112409,3.83996089 89.4515888,4.03210775 L89.4576453,4.06898578 L90.5717912,4.06898578 L90.5606824,3.94493532 C90.4580118,3.16010639 89.7423868,2.40370433 88.4717365,2.40370433 Z M53.4319847,2.51024947 L52.1427193,2.51024947 L52.1427193,5.17524758 C52.1427193,6.31384145 52.889014,6.90464819 54.2137043,6.95600543 L54.4068624,6.95967335 L54.6130272,6.95560616 C56.2728889,6.88854499 56.6278087,6.00511579 56.6725901,5.26821617 L56.6778999,5.08760119 L56.6778999,2.51024947 L55.3913923,2.51024947 L55.3913923,4.85342099 C55.3913923,5.55322265 55.1487071,5.88463557 54.4165146,5.88463557 C53.8438142,5.88463557 53.4825196,5.64246372 53.4368923,5.02673483 L53.4319847,4.88902734 L53.4319847,2.51024947 Z M67.9191912,2.41876855 C66.9809654,2.41876855 66.2772464,2.8306603 65.8900458,3.45294031 C65.6694885,3.80740361 65.5516311,4.230131 65.5516311,4.68388 C65.5516311,5.88342587 66.525477,6.86538453 67.7571367,6.94513187 L67.9191912,6.95036092 L68.0810874,6.94513187 C68.8616161,6.89454879 69.5393749,6.48098265 69.930709,5.87914407 L69.9631199,5.82779729 C70.1687793,5.49202234 70.2867513,5.10111334 70.2867513,4.68388 C70.2867513,3.43354944 69.3270414,2.41876855 67.9191912,2.41876855 Z M64.8209554,2.51066032 L63.5289322,2.51066032 L63.5289322,6.86011253 L64.8209554,6.86011253 L64.8209554,2.51066032 Z M85.3903232,2.51024947 L81.3970477,2.51024947 L81.3970477,6.85970168 L85.4482367,6.85970168 L85.4482367,5.93804509 L82.6863131,5.93804509 L82.6863131,5.05747275 L85.1697002,5.05747275 L85.1697002,4.18511725 L82.6863131,4.18511725 L82.6863131,3.43327554 L85.3903232,3.43327554 L85.3903232,2.51024947 Z M92.7492019,2.51024947 L91.4613154,2.51024947 L91.4613154,6.85970168 L92.7492019,6.85970168 L92.7492019,5.0547338 L94.6575905,5.0547338 L94.6575905,6.85970168 L95.9523715,6.85970168 L95.9523715,2.51024947 L94.6631061,2.51024947 L94.6631061,4.11390456 L92.7492019,4.11390456 L92.7492019,2.51024947 Z M80.6091479,2.51024947 L76.2504656,2.51024947 L76.2504656,3.43875344 L77.7879318,3.43875344 L77.7879318,6.85970168 L79.0771973,6.85970168 L79.0771973,3.43327554 L80.6091479,3.43327554 L80.6091479,2.51024947 Z M72.2127897,2.51024947 L70.9731645,2.51024947 L70.9731645,6.85970168 L72.1893485,6.85970168 L72.1893485,4.19196462 L74.2121853,6.85970168 L75.458705,6.85970168 L75.458705,2.51024947 L74.2452787,2.51024947 L74.2452787,5.18483391 L72.2127897,2.51024947 Z M59.0877921,2.51024947 L57.8481668,2.51024947 L57.8481668,6.85970168 L59.0643509,6.85970168 L59.0643509,4.19196462 L61.0871876,6.85970168 L62.3323284,6.85970168 L62.3323284,2.51024947 L61.1202811,2.51024947 L61.1202811,5.18483391 L59.0877921,2.51024947 Z M67.9191912,3.53215163 C68.6122259,3.53215163 69.0185017,4.13357305 69.0185017,4.74108627 C69.0185017,5.34859949 68.526015,5.84108627 67.9185017,5.84108627 C67.3109885,5.84108627 66.8185017,5.34859949 66.8185017,4.74108627 C66.8185017,4.13357305 67.2261564,3.53215163 67.9191912,3.53215163 Z" id="形状结合" fill-opacity="0.05" fill="#000000"></path>
                <g id="形状结合" fill-rule="nonzero">
                    <use fill="black" fill-opacity="1" filter="url(#filter-2)" xlink:href="#path-1"></use>
                    <use fill-opacity="0" fill="#FFFFFF" xlink:href="#path-1"></use>
                </g>
                <path d="M43.3790238,1.04285714 C44.1856765,1.04285714 44.8406509,1.69198823 44.8406509,2.49450051 L44.8406509,14.0912138 C44.8406509,14.8937261 45.4942464,15.5428571 46.302278,15.5428571 L57.9815058,15.5428571 C58.7881585,15.5428571 59.4445118,16.1933577 59.4445118,16.9945005 L59.4445118,28.5912138 C59.4445118,29.3923566 58.7881585,30.0428571 57.9815058,30.0428571 L2.50586313,30.0428571 C1.69783155,30.0428571 1.04285714,29.3923566 1.04285714,28.5912138 L1.04285714,2.49450051 C1.04285714,1.69198823 1.69783155,1.04285714 2.50586313,1.04285714 L43.3790238,1.04285714 Z M53.4319847,2.51024947 L53.4319847,4.88902734 C53.4319847,5.60663217 53.802907,5.88463557 54.4165146,5.88463557 C55.1487071,5.88463557 55.3913923,5.55322265 55.3913923,4.85342099 L55.3913923,2.51024947 L56.6778999,2.51024947 L56.6778999,5.08760119 C56.6778999,5.88052715 56.3910901,6.95967335 54.4068624,6.95967335 C52.961782,6.95967335 52.1427193,6.3680602 52.1427193,5.17524758 L52.1427193,2.51024947 L53.4319847,2.51024947 Z M59.0877921,2.51024947 L61.1202811,5.18483391 L61.1202811,2.51024947 L62.3323284,2.51024947 L62.3323284,6.85970168 L61.0871876,6.85970168 L59.0643509,4.19196462 L59.0643509,6.85970168 L57.8481668,6.85970168 L57.8481668,2.51024947 L59.0877921,2.51024947 Z M145.58123,1.04285714 C146.387883,1.04285714 147.042857,1.69198823 147.042857,2.49450051 L147.042857,2.49450051 L147.042857,28.5912138 C147.042857,29.3923566 146.387883,30.0428571 145.58123,30.0428571 L145.58123,30.0428571 L90.1053116,30.0428571 C89.29728,30.0428571 88.6423056,29.3923566 88.6423056,28.5912138 L88.6423056,28.5912138 L88.6423056,16.9972395 C88.6423056,16.1947272 89.29728,15.5455961 90.1053116,15.5455961 L90.1053116,15.5455961 L101.784539,15.5455961 C102.592571,15.5455961 103.246166,14.8950955 103.246166,14.0925832 L103.246166,14.0925832 L103.246166,2.49450051 C103.246166,1.69198823 103.901141,1.04285714 104.709172,1.04285714 L104.709172,1.04285714 Z M88.4717365,2.40370433 C89.8092631,2.40370433 90.5318033,3.24182295 90.5717912,4.06898578 L90.5717912,4.06898578 L89.4576453,4.06898578 C89.4397197,3.90738774 89.2452957,3.38424834 88.4758731,3.38424834 C87.8319299,3.38424834 87.3410438,3.88684562 87.3410438,4.74687584 C87.3410438,5.5014565 87.8346877,6.00405378 88.4896621,6.00405378 C89.1915189,6.00405378 89.4286885,5.60690607 89.4948754,5.08924456 L89.4948754,5.08924456 L90.6090214,5.08924456 C90.5345611,6.16839077 89.810642,6.96268619 88.4538108,6.96268619 C87.3589694,6.96268619 86.1841522,6.17523814 86.1841522,4.72770319 C86.1841522,3.28016825 87.1024952,2.40370433 88.4717365,2.40370433 Z M92.7492019,2.51024947 L92.7492019,4.11390456 L94.6631061,4.11390456 L94.6631061,2.51024947 L95.9523715,2.51024947 L95.9523715,6.85970168 L94.6575905,6.85970168 L94.6575905,5.0547338 L92.7492019,5.0547338 L92.7492019,6.85970168 L91.4613154,6.85970168 L91.4613154,2.51024947 L92.7492019,2.51024947 Z M70.9731645,2.51024947 L72.2127897,2.51024947 L74.2452787,5.18483391 L74.2452787,2.51024947 L75.458705,2.51024947 L75.458705,6.85970168 L74.2121853,6.85970168 L72.1893485,4.19196462 L72.1893485,6.85970168 L70.9731645,6.85970168 L70.9731645,2.51024947 Z M63.5289322,6.86011253 L64.8209554,6.86011253 L64.8209554,2.51066032 L63.5289322,2.51066032 L63.5289322,6.86011253 Z M67.9191912,5.84108627 C67.3152358,5.84108627 66.8243497,5.35903111 66.8243497,4.68524947 C66.8243497,4.01009836 67.3152358,3.53215163 67.9191912,3.53215163 C68.5217676,3.53215163 69.0126537,4.01009836 69.0126537,4.68524947 C69.0126537,5.35903111 68.5217676,5.84108627 67.9191912,5.84108627 M67.9191912,2.41876855 C66.4465329,2.41876855 65.5516311,3.43354944 65.5516311,4.68388 C65.5516311,5.93558004 66.6120002,6.95036092 67.9191912,6.95036092 C69.2250033,6.95036092 70.2867513,5.93558004 70.2867513,4.68388 C70.2867513,3.43354944 69.3270414,2.41876855 67.9191912,2.41876855 M76.2504656,2.51024947 L80.6091479,2.51024947 L80.6091479,3.43327554 L79.0771973,3.43327554 L79.0771973,6.85970168 L77.7879318,6.85970168 L77.7879318,3.43875344 L76.2504656,3.43875344 L76.2504656,2.51024947 Z M81.3970477,2.51024947 L85.3903232,2.51024947 L85.3903232,3.43327554 L82.6863131,3.43327554 L82.6863131,4.18511725 L85.1697002,4.18511725 L85.1697002,5.05747275 L82.6863131,5.05747275 L82.6863131,5.93804509 L85.4482367,5.93804509 L85.4482367,6.85970168 L81.3970477,6.85970168 L81.3970477,2.51024947 Z" id="形状结合" fill="url(#linearGradient-3)" fill-rule="nonzero"></path>
            </g>
            <g id="编组" transform="translate(154.887514, 11.825829)" fill-rule="nonzero">
                <path d="M54.0704857,12.8466 C55.0765115,12.8466 55.8640571,13.5816426 55.8640571,14.5951714 C55.8640571,14.8181828 55.8264947,15.0277604 55.7572319,15.2191031 L55.7550421,15.7715771 C56.278597,15.2707404 57.0422167,14.9796 57.9234857,14.9796 C58.7301403,14.9796 59.4315255,15.2352896 60.0674536,15.6736797 L60.2563081,15.8106048 L60.4857347,15.9849615 C61.0930628,15.3561844 61.9191508,14.9796 62.8294857,14.9796 C64.7713507,14.9796 65.9640571,16.4230027 65.9640571,18.4111714 C65.9640571,18.6822386 65.9412137,18.9534641 65.894807,19.172237 L65.8555727,19.3256597 L65.6321625,20.0517429 L65.5394857,20.0511714 L66.098663,21.0581325 L65.3311585,21.5884083 C64.6544736,22.0559361 63.8106759,22.3287429 62.9914857,22.3287429 C61.877541,22.3287429 60.9261121,21.881706 60.291113,21.1232965 C59.7806513,21.8717138 58.8418902,22.3287429 57.6804857,22.3287429 C57.0335587,22.3287429 56.3496022,22.1377914 55.7552716,21.8155234 L55.7560571,22.2027429 L52.3759143,22.2027429 L52.3754857,18.3291714 L52.0909279,18.2443642 C52.0228375,18.2239371 51.98075,18.2140255 51.9336861,18.2096875 L51.8554857,18.2067429 C51.8462493,18.2067429 51.8170412,18.2263362 51.7724482,18.3013349 L51.7314857,18.3771714 L51.7320571,22.2027429 L48.3519143,22.2027429 L48.3527276,21.1654093 C47.822563,21.8393267 47.0744485,22.2647616 46.2139974,22.3220997 L46.0134857,22.3287429 L45.8354857,22.3201714 L45.8360571,24.1377429 L42.4559143,24.1377429 L42.4554857,18.3291714 L42.1709279,18.2443642 C42.1028375,18.2239371 42.06075,18.2140255 42.0136861,18.2096875 L41.9354857,18.2067429 C41.9262493,18.2067429 41.8970412,18.2263362 41.8524482,18.3013349 L41.8114857,18.3771714 L41.8120571,22.2027429 L38.4319143,22.2027429 L38.4327052,21.7386945 C37.8009305,22.1138649 37.054517,22.3287429 36.3274857,22.3287429 C35.6215766,22.3287429 34.9809303,22.1492225 34.444715,21.8247058 L33.6547485,22.08696 C33.1827482,22.2442934 32.7684181,22.3287429 32.2674857,22.3287429 C31.1843971,22.3287429 30.4127616,21.8771863 29.9824858,21.1190353 L29.9830571,22.2027429 L17.9979143,22.2027429 L17.9979143,13.4766 L24.1410571,13.4766 L24.1404857,15.1051714 L26.5204631,15.1056 L26.5204857,15.1121714 L26.5980019,15.0877481 C26.7238225,15.0520951 26.8529245,15.025058 26.9859558,15.0069343 L27.1885307,14.9864707 L27.3974857,14.9796 C27.9886927,14.9796 28.4815235,15.1270211 28.872857,15.3966253 L28.8719143,15.2480346 L29.7554857,15.1761714 L29.9172157,13.7466 L32.9630571,13.7466 L32.9624857,15.1051714 L34.2050571,15.1056 L34.2042021,15.644357 C34.7570726,15.2226901 35.4340879,14.9796 36.1654857,14.9796 C37.1199437,14.9796 37.8934139,15.3283089 38.4332274,15.9190187 L38.4319143,15.1056 L41.3604857,15.1051714 L41.4110292,15.0877861 C41.5215085,15.0523806 41.6342654,15.0253341 41.7488311,15.007139 L41.9219777,14.9865463 L42.0974857,14.9796 C42.4052754,14.9796 42.6561947,15.0179231 42.900418,15.0975565 L42.9214857,15.1051714 L45.3624857,15.1051714 L45.5537743,15.0528382 L45.7585513,15.0125279 L45.9658382,14.9879264 L46.1754857,14.9796 C47.0917709,14.9796 47.8339994,15.3435814 48.3519866,15.9613458 L48.3519143,15.1056 L51.2804857,15.1051714 L51.3310292,15.0877861 C51.4415085,15.0523806 51.5542654,15.0253341 51.6688311,15.007139 L51.8419777,14.9865463 L52.0174857,14.9796 C52.1218339,14.9796 52.2196456,14.9840048 52.3128758,14.9929307 C52.2824586,14.8677612 52.2679143,14.7341174 52.2679143,14.5951714 C52.2679143,13.5783734 53.0584909,12.8466 54.0704857,12.8466 Z M46.1754857,16.0081714 C46.0301143,16.0081714 45.8860473,16.0290434 45.7448652,16.0665731 C45.425485,16.1514724 45.1208678,16.3216177 44.8493082,16.5282232 L44.6904857,16.6561714 L44.6634857,16.6561714 L44.5644857,16.1341714 L43.4844857,16.1341714 L43.4844857,23.1091714 L44.8074857,23.1091714 L44.8074857,21.5791714 L44.7624857,20.7511714 L44.909263,20.8755367 C45.2060521,21.1095718 45.5218255,21.2543804 45.8489896,21.2909781 L46.0134857,21.3001714 L46.1459184,21.2953935 C47.2016297,21.219085 48.1554857,20.2320514 48.1554857,18.5731714 C48.1554857,17.0251714 47.4174857,16.0081714 46.1754857,16.0081714 Z M7.06405711,13.4766 L7.06334689,15.6662192 C7.6351495,15.2287615 8.34605621,14.9796 9.12348568,14.9796 C10.1699271,14.9796 11.0958433,15.4310283 11.7242287,16.1854516 L11.7229143,15.1056 L14.6514857,15.1051714 L14.7020292,15.0877861 C14.8125085,15.0523806 14.9252654,15.0253341 15.0398311,15.007139 L15.2129777,14.9865463 L15.3884857,14.9796 C15.6962754,14.9796 15.9471947,15.0179231 16.191418,15.0975565 L16.3741141,15.165074 L17.1547453,15.4865104 L16.5477381,18.5701072 L15.4619279,18.2443642 C15.3597923,18.2137235 15.3161632,18.2067429 15.2264857,18.2067429 C15.2172493,18.2067429 15.1880412,18.2263362 15.1434482,18.3013349 L15.1024857,18.3771714 L15.1030571,22.2027429 L11.7229143,22.2027429 L11.7242287,21.1228912 C11.0958433,21.8773145 10.1699271,22.3287429 9.12348568,22.3287429 C7.46022191,22.3287429 6.10144635,21.1882798 5.75792296,19.5033865 L4.29148568,19.5021714 L4.29205711,22.2027429 L0.902914253,22.2027429 L0.902914253,13.4766 L7.06405711,13.4766 Z M31.9344857,14.7751714 L30.8364857,14.7751714 L30.6834857,16.1341714 L29.9004857,16.1971714 L29.9004857,17.1781714 L30.6114857,17.1781714 L30.6114857,19.4101714 L30.6146383,19.568393 C30.6547617,20.5543988 31.0814954,21.2299236 32.101476,21.2950111 L32.2674857,21.3001714 L32.4805273,21.2924214 C32.754694,21.2724214 32.9895273,21.2164214 33.187694,21.1564214 L33.3294857,21.1111714 L33.1134857,20.1481714 L33.0019701,20.1878277 C32.9218138,20.2131402 32.8320951,20.2350777 32.7451888,20.2468902 L32.6184857,20.2561714 C32.2059857,20.2561714 31.9749857,20.0292964 31.9393503,19.5478173 L31.9344857,19.4101714 L31.9344857,17.1781714 L33.1764857,17.1781714 L33.1764857,16.1341714 L31.9344857,16.1341714 L31.9344857,14.7751714 Z M36.1654857,16.0081714 C35.0695657,16.0081714 34.0113666,16.8606635 33.8404634,18.2548276 L33.8225634,18.451135 L33.8173038,18.7325271 C33.8498805,20.2852107 34.8516341,21.2230828 36.1621153,21.2956283 L36.3274857,21.3001714 L36.5349301,21.2922949 C37.0194857,21.2558257 37.5040412,21.0947393 37.9123746,20.8513813 L38.0824857,20.7421714 L37.6324857,19.9321714 L37.4780425,20.0224601 C37.1685265,20.1906 36.8533428,20.2831714 36.4984857,20.2831714 C35.8012857,20.2831714 35.2844057,19.9068514 35.130779,19.1834808 L35.1034857,19.0231714 L38.2084857,19.0231714 L38.2256523,18.9547131 C38.2527357,18.8249214 38.2714857,18.6211714 38.2714857,18.4111714 C38.2714857,17.3313852 37.8344855,16.4755615 36.986019,16.1501075 L36.8027357,16.0899214 C36.6089857,16.0364214 36.3964857,16.0081714 36.1654857,16.0081714 Z M9.12348568,16.0081714 C7.86348568,16.0081714 6.70248568,16.9801714 6.70248568,18.6541714 C6.70248568,20.2612114 7.77246328,21.2212882 8.97282885,21.2955231 L9.12348568,21.3001714 L9.27414251,21.2955231 C10.4745081,21.2212882 11.5444857,20.2612114 11.5444857,18.6541714 C11.5444857,16.9801714 10.3834857,16.0081714 9.12348568,16.0081714 Z M57.9234857,16.0081714 C56.7714857,16.0081714 56.0424857,16.6471714 56.0424857,17.5471714 C56.0424857,18.3402964 56.667388,18.7300035 57.2720206,18.9758445 L57.7810326,19.1754683 C58.1518607,19.3286089 58.4454857,19.4956714 58.4454857,19.7791714 C58.4454857,20.0941714 58.2204857,20.3101714 57.7164857,20.3101714 C57.3069857,20.3101714 56.9250482,20.1585777 56.5344974,19.8855367 L56.3664857,19.7611714 L55.7634857,20.5891714 L55.9214087,20.7096814 C56.3596727,21.0207214 56.9286887,21.2453614 57.4763927,21.2914414 L57.6804857,21.3001714 L57.8729192,21.2949064 C58.8075368,21.2428264 59.3939329,20.8094088 59.6021359,20.2194421 L59.6457709,20.0710131 C59.673512,19.9542114 59.6874857,19.8324154 59.6874857,19.7071714 C59.6874857,18.9363479 59.1869736,18.5744794 58.6383491,18.3300194 L58.4015976,18.2315891 C58.3620878,18.2160988 58.3226622,18.200995 58.2834857,18.1861714 L57.9033763,18.0448433 C57.5477357,17.9060464 57.2844857,17.7609214 57.2844857,17.4841714 C57.2844857,17.1961714 57.5004857,16.9981714 57.9594857,16.9981714 C58.2757714,16.9981714 58.5788326,17.1238041 58.8856723,17.3240606 L59.0394857,17.4301714 L59.6334857,16.6291714 L59.5046867,16.5352384 C59.1044657,16.2560314 58.5795857,16.0081714 57.9234857,16.0081714 Z M62.8294857,16.0081714 C61.6324857,16.0081714 60.4804857,17.0251714 60.4804857,18.6541714 C60.4804857,19.109158 60.5624776,19.5130676 60.7104837,19.8598398 C61.0800946,20.7247832 61.859278,21.2338742 62.801039,21.2941319 L62.9914857,21.3001714 L63.1989301,21.2922949 C63.6834857,21.2558257 64.1680412,21.0947393 64.5763746,20.8513813 L64.7464857,20.7421714 L64.2964857,19.9321714 L64.1420425,20.0224601 C63.8325265,20.1906 63.5173428,20.2831714 63.1624857,20.2831714 C62.5150857,20.2831714 62.0231657,19.9586914 61.8331923,19.3331661 L61.7924857,19.1691714 L61.7674857,19.0231714 L64.8724857,19.0231714 L64.8896523,18.9547131 C64.9167357,18.8249214 64.9354857,18.6211714 64.9354857,18.4111714 C64.9354857,17.3313852 64.4984855,16.4755615 63.650019,16.1501075 L63.4667357,16.0899214 C63.2729857,16.0364214 63.0604857,16.0081714 62.8294857,16.0081714 Z M23.1124857,14.5051714 L19.0264857,14.5051714 L19.0264857,21.1741714 L23.2114857,21.1741714 L23.2114857,20.0581714 L20.3584857,20.0581714 L20.3584857,18.2761714 L22.6984857,18.2761714 L22.6984857,17.1601714 L20.3584857,17.1601714 L20.3584857,15.6211714 L23.1124857,15.6211714 L23.1124857,14.5051714 Z M27.3974857,16.0081714 C26.7756675,16.0081714 26.2951716,16.3056921 25.8816179,16.6843547 L25.7594857,16.8001714 L25.7324857,16.8001714 L25.6334857,16.1341714 L24.5534857,16.1341714 L24.5534857,21.1741714 L25.8764857,21.1741714 L25.8764857,17.7091714 L25.9958437,17.5925418 C26.3053746,17.2986159 26.5524857,17.1421714 26.9204857,17.1421714 C27.3824857,17.1421714 27.6014457,17.3773714 27.628587,18.0453394 L27.6314857,18.1951714 L27.6314857,21.1741714 L28.9544857,21.1741714 L28.9544857,18.0331714 L28.9512855,17.8554017 C28.9085061,16.6938857 28.4346285,16.0081714 27.3974857,16.0081714 Z M42.0974857,16.0081714 C41.6189857,16.0081714 41.1253607,16.3106714 40.7621888,16.8671454 L40.6664857,17.0251714 L40.6394857,17.0251714 L40.5404857,16.1341714 L39.4604857,16.1341714 L39.4604857,21.1741714 L40.7834857,21.1741714 L40.7834857,18.1681714 L40.8512581,18.0081541 C41.135391,17.400562 41.5699472,17.1781714 41.9354857,17.1781714 C42.0907357,17.1781714 42.2105482,17.1933589 42.3366888,17.2237339 L42.4664857,17.2591714 L42.6914857,16.1161714 L42.6137357,16.0862964 C42.5872357,16.0769214 42.5599857,16.0681714 42.5314857,16.0601714 L42.4564729,16.0416193 C42.3587171,16.0206321 42.2443003,16.0081714 42.0974857,16.0081714 Z M52.0174857,16.0081714 C51.5389857,16.0081714 51.0453607,16.3106714 50.6821888,16.8671454 L50.5864857,17.0251714 L50.5594857,17.0251714 L50.4604857,16.1341714 L49.3804857,16.1341714 L49.3804857,21.1741714 L50.7034857,21.1741714 L50.7034857,18.1681714 L50.7712581,18.0081541 C51.055391,17.400562 51.4899472,17.1781714 51.8554857,17.1781714 C52.0107357,17.1781714 52.1305482,17.1933589 52.2566888,17.2237339 L52.3864857,17.2591714 L52.6114857,16.1161714 L52.4514857,16.0601714 L52.3763105,16.0415845 C52.2785904,16.0206183 52.164219,16.0081714 52.0174857,16.0081714 Z M54.7274857,16.1341714 L53.4044857,16.1341714 L53.4044857,21.1741714 L54.7274857,21.1741714 L54.7274857,16.1341714 Z M6.03548568,14.5051714 L1.93148568,14.5051714 L1.93148568,21.1741714 L3.26348568,21.1741714 L3.26348568,18.4741714 L5.63048568,18.4741714 L5.63048568,17.3581714 L3.26348568,17.3581714 L3.26348568,15.6211714 L6.03548568,15.6211714 L6.03548568,14.5051714 Z M15.3884857,16.0081714 C14.9099857,16.0081714 14.4163607,16.3106714 14.0531888,16.8671454 L13.9574857,17.0251714 L13.9304857,17.0251714 L13.8314857,16.1341714 L12.7514857,16.1341714 L12.7514857,21.1741714 L14.0744857,21.1741714 L14.0744857,18.1681714 L14.1422581,18.0081541 C14.426391,17.400562 14.8609472,17.1781714 15.2264857,17.1781714 C15.3817357,17.1781714 15.5015482,17.1933589 15.6276888,17.2237339 L15.7574857,17.2591714 L15.9824857,16.1161714 L15.9047357,16.0862964 C15.7722357,16.0394214 15.6209857,16.0081714 15.3884857,16.0081714 Z M9.12348568,17.0881714 C9.80748568,17.0881714 10.1944857,17.7091714 10.1944857,18.6541714 C10.1944857,19.6081714 9.80748568,20.2201714 9.12348568,20.2201714 C8.43948568,20.2201714 8.05248568,19.6081714 8.05248568,18.6541714 C8.05248568,17.7091714 8.43948568,17.0881714 9.12348568,17.0881714 Z M45.7974857,17.0971714 C46.4904857,17.0971714 46.7964857,17.6281714 46.7964857,18.5911714 C46.7964857,19.6891714 46.3284857,20.2111714 45.7164857,20.2111714 C45.4464857,20.2111714 45.1224857,20.1121714 44.8074857,19.8331714 L44.8074857,17.6191714 C45.1494857,17.2681714 45.4554857,17.0971714 45.7974857,17.0971714 Z M36.1834857,17.0341714 C36.8314857,17.0341714 37.1374857,17.4661714 37.1374857,18.1411714 L35.0854857,18.1411714 C35.1844857,17.4121714 35.6524857,17.0341714 36.1834857,17.0341714 Z M62.8474857,17.0341714 C63.4954857,17.0341714 63.8014857,17.4661714 63.8014857,18.1411714 L61.7494857,18.1411714 C61.8484857,17.4121714 62.3164857,17.0341714 62.8474857,17.0341714 Z M54.0704857,13.8751714 C53.6114857,13.8751714 53.2964857,14.1631714 53.2964857,14.5951714 C53.2964857,14.8043222 53.3673377,14.9790591 53.4908003,15.104981 C53.6276619,15.2445689 53.8291732,15.3241714 54.0704857,15.3241714 C54.2954857,15.3241714 54.4867357,15.2521714 54.6217357,15.1250464 L54.6477916,15.099089 C54.7668136,14.9736326 54.8354857,14.8010795 54.8354857,14.5951714 C54.8354857,14.1631714 54.5204857,13.8751714 54.0704857,13.8751714 Z M8.79168568,0.6776 C10.8314062,0.6776 12.0202571,2.3823029 12.0202571,4.97097143 C12.0202571,7.58193128 10.8325545,9.32594286 8.79168568,9.32594286 C8.03306459,9.32594286 7.39118244,9.08476412 6.88404566,8.6477688 L6.88425711,9.20274286 L0.462314253,9.20274286 L0.462314253,6.98566995 L1.36369289,6.1203244 L1.85718602,5.63148301 L2.26710035,5.20942143 L2.4966501,4.96229987 L2.693113,4.74058764 L2.85811279,4.5425765 L2.99327318,4.36655821 C3.0134035,4.33895967 3.03235817,4.31220632 3.05017101,4.28626257 L3.14361676,4.14003063 C3.22390185,4.00294453 3.26551678,3.89244183 3.27576829,3.80083549 L3.27648568,3.77017143 L3.23058721,3.79579327 C3.18132772,3.82650035 3.12173216,3.8730097 3.04952353,3.94023986 L2.97302619,4.01455913 L2.88767113,4.10375794 L2.16142927,4.88733468 L0,2.72590541 L0.67665778,1.99949338 C1.50707343,1.10801776 2.35384301,0.6776 3.49728568,0.6776 C4.71390764,0.6776 5.6962633,1.24654356 6.2026753,2.16503525 C6.75189852,1.22220463 7.63628162,0.6776 8.79168568,0.6776 Z M30.5732857,0 C30.8856493,0 31.189365,0.0413853293 31.4891067,0.117229292 L31.713241,0.180465028 L32.7327453,0.521577379 L32.2575666,2.4376665 C32.6923479,2.21655332 33.1795326,2.0944 33.6940857,2.0944 C34.6842661,2.0944 35.4768601,2.47572768 36.0110243,3.1149726 C36.5177214,2.47525348 37.3643067,2.0944 38.3636857,2.0944 C39.157478,2.0944 39.8475364,2.3459543 40.4728255,2.77698376 L40.5391311,2.82359777 C41.0530491,2.36147708 41.7827934,2.0944 42.6196857,2.0944 C43.1969892,2.0944 43.7194252,2.22745351 44.2019823,2.46583363 L44.2005306,2.35605933 C44.132681,2.167566 44.0959143,1.96115302 44.0959143,1.74137143 C44.0959143,0.734133724 44.8795337,0.0088 45.8812857,0.0088 C46.8772401,0.0088 47.6578571,0.737375891 47.6578571,1.74137143 C47.6578571,1.96109451 47.6210166,2.16767704 47.5530674,2.35642753 L47.5513035,3.01555415 C48.1540984,2.43405928 48.9639782,2.0944 49.8644857,2.0944 C50.7695158,2.0944 51.5830056,2.43747961 52.1867345,3.0243338 L52.1855143,2.2176 L55.1534857,2.21717143 L55.2072154,2.20087328 C55.3311486,2.16577787 55.4583303,2.13915955 55.5893967,2.12131508 L55.7889892,2.10116587 L55.9948857,2.0944 C56.8783023,2.0944 57.539243,2.42845501 57.9667592,3.00903973 L58.1417258,2.90046043 C58.9635038,2.38996196 59.8308539,2.0944 60.7436857,2.0944 C61.625932,2.0944 62.3310491,2.37535347 62.8272725,2.88277695 L62.8271143,0.1232 L66.1778571,0.1232 L66.1774857,6.05517143 L66.4219756,6.00653229 L66.8870095,8.82257078 L66.1305141,9.1340689 C65.8255866,9.25962727 65.4765572,9.32594286 65.0700857,9.32594286 C64.4885802,9.32594286 64.0194239,9.16931877 63.6634583,8.88896272 L63.6642571,9.20274286 L60.7884857,9.20217143 L60.5985427,9.25435207 L60.3930652,9.2938616 L60.1834074,9.31785676 L59.9692857,9.32594286 C59.4280097,9.32594286 58.9414342,9.17363545 58.5450993,8.90819002 L58.5458571,9.20274286 L52.1855143,9.20274286 L52.1867345,8.39600905 C51.5830056,8.98286325 50.7695158,9.32594286 49.8644857,9.32594286 C48.9639782,9.32594286 48.1540984,8.98628357 47.5513035,8.4047887 L47.5522571,9.20274286 L44.2015143,9.20274286 L44.2020424,8.84925869 C43.7101771,9.1542465 43.0876577,9.32594286 42.3820857,9.32594286 C41.6436662,9.32594286 40.8567747,9.07329103 40.2152204,8.65938517 C39.6903619,9.08191855 38.9672432,9.32594286 38.1260857,9.32594286 C37.4068316,9.32594286 36.6415891,9.08623581 36.0094647,8.69128604 C35.3715742,9.09402282 34.6017202,9.32594286 33.8524857,9.32594286 C32.7462838,9.32594286 31.8026717,8.87762948 31.1776421,8.11867776 L31.1794571,9.20274286 L27.8287143,9.20274286 L27.8300338,8.21116233 C27.2133198,8.91019148 26.327968,9.32594286 25.3316857,9.32594286 C23.6398347,9.32594286 22.2678808,8.1270149 21.9881325,6.3778957 L21.961,6.183 L21.9634571,9.20274286 L18.6127143,9.20274286 L18.6137853,6.11810953 C18.0459256,6.57457942 17.286927,6.83766052 16.4155811,6.88172097 L16.3074857,6.88517143 L16.3082571,9.20274286 L12.9487143,9.20274286 L12.9487143,0.6248 L16.1156857,0.6248 C17.6572319,0.6248 18.8369087,1.14900019 19.3753801,2.21712402 L21.4944857,2.21717143 L21.5420793,2.20106359 C21.651103,2.16615952 21.7623896,2.13949362 21.8754778,2.12155374 L22.0464035,2.10124942 L22.2196857,2.0944 C22.5230518,2.0944 22.7707681,2.13225394 23.0118145,2.21084623 L23.1921141,2.27747396 L23.7252063,2.49660483 C24.2013486,2.23737341 24.7474431,2.0944 25.3316857,2.0944 C26.0128739,2.0944 26.6422035,2.28875829 27.1692658,2.6351317 L27.1687143,2.35819954 L27.8654857,2.30217143 L27.8929431,2.1411311 C28.1160225,0.968074433 28.9138342,0.155399202 30.1866141,0.0199966669 L30.3810809,0.00480544326 L30.5732857,0 Z M42.6196857,3.12297143 C42.1179257,3.12297143 41.6982362,3.24695034 41.387064,3.46223868 C40.9996864,3.7302507 40.7804857,4.13977143 40.7804857,4.62777143 C40.7804857,5.40327143 41.3915013,5.7843183 41.9826976,6.02469623 L42.4803982,6.21988393 C42.8429857,6.36962143 43.1300857,6.53297143 43.1300857,6.81017143 C43.1300857,7.11817143 42.9100857,7.32937143 42.4172857,7.32937143 C42.0168857,7.32937143 41.6434357,7.18114643 41.2615638,6.91417299 L41.0972857,6.79257143 L40.5076857,7.60217143 L40.6620993,7.72000343 C41.0906241,8.02413143 41.6469953,8.24377943 42.1825281,8.28883543 L42.3820857,8.29737143 L42.5702429,8.29222343 C43.3885896,8.24662243 43.9338989,7.90201794 44.1851262,7.41624519 C44.2908431,7.21183096 44.3444857,6.98241943 44.3444857,6.73977143 C44.3444857,5.93897143 43.7920107,5.58958393 43.2176388,5.3496808 L42.9716857,5.25257143 L42.6000232,5.11438393 C42.2522857,4.97867143 41.9948857,4.83677143 41.9948857,4.56617143 C41.9948857,4.31273143 42.1659577,4.13057143 42.5273473,4.09667383 L42.6548857,4.09097143 L42.8085137,4.10097726 C43.063021,4.13394519 43.3104729,4.24644665 43.5604903,4.40961866 L43.7108857,4.51337143 L44.2916857,3.73017143 L44.1657489,3.63832583 C43.8179025,3.39565703 43.3737489,3.17720583 42.8287825,3.13165703 L42.6196857,3.12297143 Z M60.7436857,3.12297143 C60.0553301,3.12297143 59.4225993,3.35242328 58.8825762,3.65681395 L58.6844857,3.77417143 L59.1508857,4.62777143 L59.3217294,4.53193393 C59.7187607,4.31633393 60.1056857,4.16137143 60.5060857,4.16137143 C60.994245,4.16137143 61.2264545,4.40025788 61.3124588,4.7454227 C61.3334315,4.82959332 61.34571,4.92008389 61.3508857,5.01497143 C60.273619,5.12937143 59.5294232,5.34446726 59.0735445,5.68543289 L59.0060028,5.73861605 C58.6668255,6.01999272 58.5084857,6.38175955 58.5084857,6.83657143 C58.5084857,6.93492437 58.5165244,7.03035413 58.5321434,7.12218722 L58.5463643,7.19541012 C58.6790467,7.80184374 59.1514147,8.23619868 59.8224931,8.29141741 L59.9692857,8.29737143 L60.0848435,8.29172836 C60.5363519,8.26195908 60.9407472,8.05329174 61.303536,7.77123735 L61.4564857,7.64617143 L61.4916857,7.64617143 L61.5796857,8.17417143 L62.6356857,8.17417143 L62.6356857,5.29657143 L62.6317072,5.10637804 C62.5760311,3.80451688 61.9364857,3.12297143 60.7436857,3.12297143 Z M25.3316857,3.12297143 C24.1982457,3.12297143 23.1467372,3.92738999 22.9857499,5.33065348 L22.9684857,5.53617143 L22.9644857,5.71017143 C22.9644857,7.28149943 24.010686,8.22024119 25.1843768,8.2928264 L25.3316857,8.29737143 L25.4789946,8.2928264 C26.6526854,8.22024119 27.6988857,7.28149943 27.6988857,5.71017143 C27.6988857,5.01734887 27.4954977,4.44750507 27.1674707,4.02066089 C26.7205306,3.43908157 26.0422063,3.12297143 25.3316857,3.12297143 Z M65.1492857,1.15177143 L63.8556857,1.15177143 L63.8556857,6.79257143 L63.859028,6.95064365 C63.892852,7.7265988 64.1874432,8.23488167 64.9262992,8.29199468 L65.0700857,8.29737143 L65.216182,8.29317513 C65.4006561,8.28225661 65.5447153,8.25113069 65.6587894,8.21283439 L65.7388857,8.18297143 L65.5804857,7.22377143 L65.4792857,7.23917143 L65.4044857,7.24137143 C65.2966857,7.24137143 65.1821482,7.16725893 65.1551982,6.94829018 L65.1492857,6.84537143 L65.1492857,1.15177143 Z M33.6940857,3.12297143 C32.5236857,3.12297143 31.3972857,4.11737143 31.3972857,5.71017143 C31.3972857,5.84041143 31.4041567,5.96637111 31.4175068,6.08790178 L31.4375145,6.23733305 C31.6346517,7.48102191 32.5355648,8.22429514 33.6791807,8.29226292 L33.8524857,8.29737143 L34.0553202,8.28966992 C34.5291079,8.25401121 35.0028956,8.09650449 35.4021548,7.85855442 L35.5684857,7.75177143 L35.1284857,6.95977143 L34.9774746,7.04805364 C34.6748367,7.21245714 34.3666571,7.30297143 34.0196857,7.30297143 C33.3616586,7.30297143 32.8679085,6.96013272 32.6993039,6.3001943 L32.6823725,6.22771833 L32.6556857,6.07097143 L35.6916857,6.07097143 L35.7116089,5.98846263 C35.7260195,5.91444468 35.7377636,5.81871475 35.7450694,5.71279129 L35.7502585,5.61844023 L35.7532857,5.47257143 C35.7532857,4.11737143 35.0492857,3.12297143 33.6940857,3.12297143 Z M49.8644857,3.12297143 C48.7926457,3.12297143 47.7940736,3.84232919 47.552559,5.10719992 C47.5164706,5.29620359 47.4972857,5.49738743 47.4972857,5.71017143 C47.4972857,5.84111543 47.504551,5.96766647 47.5185499,6.08968938 L47.550829,6.30400449 C47.7773473,7.51102109 48.6918932,8.22371981 49.7039611,8.29197214 L49.8644857,8.29737143 L50.0117946,8.2928264 C51.1854854,8.22024119 52.2316857,7.28149943 52.2316857,5.71017143 C52.2316857,4.07337143 51.0964857,3.12297143 49.8644857,3.12297143 Z M38.3636857,3.12297143 C37.4744225,3.12297143 36.8429433,3.51238971 36.6164706,4.10936303 L36.5951788,4.16974548 C36.5486735,4.31222074 36.5244857,4.46566617 36.5244857,4.62777143 C36.5244857,4.93958705 36.6232692,5.18763104 36.7798287,5.3884007 L36.8173599,5.43436335 C37.0405231,5.69563813 37.3631908,5.87307841 37.6844441,6.00728372 L38.2243982,6.21988393 C38.5869857,6.36962143 38.8740857,6.53297143 38.8740857,6.81017143 C38.8740857,7.11817143 38.6540857,7.32937143 38.1612857,7.32937143 C37.7608857,7.32937143 37.3874357,7.18114643 37.0055638,6.91417299 L36.8412857,6.79257143 L36.2516857,7.60217143 L36.4060993,7.72000343 C36.5132305,7.79603543 36.6283521,7.86678743 36.7491409,7.93085143 L36.9159454,8.01338069 C37.2346087,8.16007121 37.5830822,8.25949332 37.9232712,8.28855929 L38.1260857,8.29737143 L38.3142429,8.29222343 C38.7416142,8.26840888 39.0945196,8.1630465 39.3699614,7.99861691 C39.8445497,7.71445943 40.0884857,7.25721143 40.0884857,6.73977143 C40.0884857,6.64052375 40.0799996,6.54820978 40.0640376,6.46217862 C39.9609283,5.90644735 39.5458672,5.61287923 39.0911026,5.40602524 L38.840748,5.300741 L38.3440232,5.11438393 C37.9962857,4.97867143 37.7388857,4.83677143 37.7388857,4.56617143 C37.7388857,4.31273143 37.9099577,4.13057143 38.2713473,4.09667383 L38.3988857,4.09097143 L38.5525137,4.10097726 C38.807021,4.13394519 39.0544729,4.24644665 39.3044903,4.40961866 L39.4548857,4.51337143 L40.0356857,3.73017143 L39.9097489,3.63832583 C39.5184217,3.36532343 39.0052057,3.12297143 38.3636857,3.12297143 Z M8.79168568,1.70617143 C8.4449005,1.70617143 8.12946456,1.78129132 7.85243199,1.92999759 L7.82440793,1.9450559 C7.04984868,2.37882044 6.58288568,3.39896325 6.58288568,4.97097143 C6.58288568,5.36393695 6.61182773,5.72415995 6.66726074,6.05052146 C6.9159602,7.51473797 7.6978847,8.29737143 8.79168568,8.29737143 C9.13847087,8.29737143 9.45331531,8.21870257 9.72947159,8.06458521 L9.82039364,8.00973308 C10.5548829,7.54055754 10.9916857,6.50536606 10.9916857,4.97097143 C10.9916857,3.4286197 10.543046,2.41273294 9.79105091,1.96623604 L9.72947159,1.93131203 C9.45331531,1.78188281 9.13847087,1.70617143 8.79168568,1.70617143 Z M46.5236857,3.24617143 L45.2300857,3.24617143 L45.2300857,8.17417143 L46.5236857,8.17417143 L46.5236857,3.24617143 Z M16.1156857,1.65337143 L13.9772857,1.65337143 L13.9772857,8.17417143 L15.2796857,8.17417143 L15.2796857,5.85977143 L16.1508857,5.85977143 L16.3173845,5.85655161 C17.4393678,5.81270835 18.3516881,5.31978792 18.6004658,4.29656978 C18.6444433,4.11569122 18.6676857,3.91824132 18.6676857,3.70377143 C18.6676857,3.50387739 18.6490042,3.32133045 18.6133348,3.15499514 C18.3861607,2.09562593 17.4699124,1.69384282 16.3021033,1.65631293 L16.1156857,1.65337143 Z M22.2196857,3.12297143 C21.751819,3.12297143 21.2691635,3.41874921 20.9140621,3.96285708 L20.8204857,4.11737143 L20.7940857,4.11737143 L20.6972857,3.24617143 L19.6412857,3.24617143 L19.6412857,8.17417143 L20.9348857,8.17417143 L20.9348857,5.23497143 L21.001152,5.07851007 C21.2789709,4.48441995 21.7038703,4.26697143 22.0612857,4.26697143 C22.109035,4.26697143 22.1533559,4.26844075 22.1955193,4.27137939 C22.2893636,4.27834075 22.3705116,4.2916612 22.4532943,4.31150135 L22.5804857,4.34617143 L22.8004857,3.22857143 L22.7088249,3.19393463 C22.5829497,3.15113143 22.4379257,3.12297143 22.2196857,3.12297143 Z M3.49728568,1.70617143 C2.67685491,1.70617143 2.11886201,2.00610042 1.56721376,2.55750834 L1.42928568,2.70057143 L2.13328568,3.40457143 L2.24675619,3.2863086 C2.55481655,2.97728254 2.90768568,2.72697143 3.33008568,2.72697143 C3.95488568,2.72697143 4.30688568,3.11417143 4.30688568,3.75657143 C4.30688568,4.37065839 3.83153596,5.05586065 3.0297393,5.90737837 L2.69196309,6.25708127 L2.12464191,6.81786049 L1.49088568,7.42617143 L1.49088568,8.17417143 L5.85568568,8.17417143 L5.85568568,7.08297143 L4.43008568,7.08297143 L4.17956068,7.08902143 C3.91308568,7.10057143 3.60948568,7.12697143 3.36528568,7.15337143 L3.74606373,6.75113055 C4.74112766,5.68518377 5.54768568,4.67177143 5.54768568,3.68617143 C5.54768568,2.48937143 4.72928568,1.70617143 3.49728568,1.70617143 Z M30.5732857,1.02857143 C29.3915714,1.02857143 28.9042789,1.74693878 28.8605497,2.7047619 L28.8572857,2.85017143 L28.8572857,3.25497143 L28.1972857,3.30777143 L28.1972857,4.26697143 L28.8572857,4.26697143 L28.8572857,8.17417143 L30.1508857,8.17417143 L30.1508857,4.26697143 L31.0748857,4.26697143 L31.0748857,3.24617143 L30.1508857,3.24617143 L30.1508857,2.82377143 L30.1552653,2.6939205 C30.1841036,2.28685634 30.3546935,2.09042292 30.6472695,2.05520688 L30.7492857,2.04937143 L30.8737232,2.05597143 C30.9597982,2.06477143 31.0508232,2.08237143 31.1390982,2.10877143 L31.2684857,2.15497143 L31.5060857,1.19577143 L31.3868783,1.15588624 C31.1733968,1.08968254 30.888619,1.02857143 30.5732857,1.02857143 Z M55.9948857,3.12297143 C55.3868857,3.12297143 54.9170675,3.41388052 54.5127039,3.78412845 L54.3932857,3.89737143 L54.3668857,3.89737143 L54.2700857,3.24617143 L53.2140857,3.24617143 L53.2140857,8.17417143 L54.5076857,8.17417143 L54.5076857,4.78617143 L54.6385341,4.65876049 C54.897612,4.41484194 55.1134884,4.27086735 55.4006957,4.23868493 L55.5284857,4.23177143 L55.6216666,4.23536183 C56.009847,4.2667837 56.1962088,4.5083965 56.2208514,5.11486903 L56.2236857,5.26137143 L56.2236857,8.17417143 L57.5172857,8.17417143 L57.5172857,5.10297143 L57.513835,4.92064313 C57.4700077,3.79009943 57.0064457,3.12297143 55.9948857,3.12297143 Z M61.3508857,5.80697143 L61.3508857,6.80137143 C61.0340857,7.10937143 60.7612857,7.28537143 60.3916857,7.28537143 C60.0132857,7.28537143 59.7404857,7.11817143 59.7404857,6.73097143 C59.7404857,6.29097143 60.1452857,5.95657143 61.3508857,5.80697143 Z M8.79168568,2.71817143 C9.35488568,2.71817143 9.76848568,3.21097143 9.76848568,4.97097143 C9.76848568,6.73977143 9.35488568,7.28537143 8.79168568,7.28537143 C8.22848568,7.28537143 7.80608568,6.73977143 7.80608568,4.97097143 C7.80608568,3.21097143 8.22848568,2.71817143 8.79168568,2.71817143 Z M25.3316857,4.17897143 C26.0004857,4.17897143 26.3788857,4.78617143 26.3788857,5.71017143 C26.3788857,6.64297143 26.0004857,7.24137143 25.3316857,7.24137143 C24.6628857,7.24137143 24.2844857,6.64297143 24.2844857,5.71017143 C24.2844857,4.78617143 24.6628857,4.17897143 25.3316857,4.17897143 Z M49.8644857,4.17897143 C50.5332857,4.17897143 50.9116857,4.78617143 50.9116857,5.71017143 C50.9116857,6.64297143 50.5332857,7.24137143 49.8644857,7.24137143 C49.1956857,7.24137143 48.8172857,6.64297143 48.8172857,5.71017143 C48.8172857,4.78617143 49.1956857,4.17897143 49.8644857,4.17897143 Z M33.7116857,4.12617143 C34.3452857,4.12617143 34.6444857,4.54857143 34.6444857,5.20857143 L32.6380857,5.20857143 C32.7348857,4.49577143 33.1924857,4.12617143 33.7116857,4.12617143 Z M16.0188857,2.69177143 C16.9164857,2.69177143 17.3916857,2.94697143 17.3916857,3.70377143 C17.3916857,4.45177143 16.9604857,4.83017143 16.0628857,4.83017143 L15.2796857,4.83017143 L15.2796857,2.69177143 L16.0188857,2.69177143 Z M45.8812857,1.03737143 C45.4324857,1.03737143 45.1244857,1.31897143 45.1244857,1.74137143 C45.1244857,2.17257143 45.4324857,2.45417143 45.8812857,2.45417143 C46.3212857,2.45417143 46.6292857,2.17257143 46.6292857,1.74137143 C46.6292857,1.31897143 46.3212857,1.03737143 45.8812857,1.03737143 Z" id="底" fill-opacity="0.05" fill="#000000"></path>
                <g id="投影">
                    <use fill="black" fill-opacity="1" filter="url(#filter-5)" xlink:href="#path-4"></use>
                    <use fill-opacity="0" fill="#FFFFFF" xlink:href="#path-4"></use>
                </g>
                <path d="M1.49088568,8.17417143 L5.85568568,8.17417143 L5.85568568,7.08297143 L4.43008568,7.08297143 C4.12208568,7.08297143 3.69088568,7.11817143 3.36528568,7.15337143 C4.52688568,5.93897143 5.54768568,4.79497143 5.54768568,3.68617143 C5.54768568,2.48937143 4.72928568,1.70617143 3.49728568,1.70617143 C2.60848568,1.70617143 2.02768568,2.05817143 1.42928568,2.70057143 L2.13328568,3.40457143 C2.46768568,3.04377143 2.85488568,2.72697143 3.33008568,2.72697143 C3.95488568,2.72697143 4.30688568,3.11417143 4.30688568,3.75657143 C4.30688568,4.69817143 3.18928568,5.80697143 1.49088568,7.42617143 L1.49088568,8.17417143 Z M8.79168568,8.29737143 C10.1292857,8.29737143 10.9916857,7.12697143 10.9916857,4.97097143 C10.9916857,2.83257143 10.1292857,1.70617143 8.79168568,1.70617143 C7.45408568,1.70617143 6.58288568,2.82377143 6.58288568,4.97097143 C6.58288568,7.12697143 7.45408568,8.29737143 8.79168568,8.29737143 Z M8.79168568,7.28537143 C8.22848568,7.28537143 7.80608568,6.73977143 7.80608568,4.97097143 C7.80608568,3.21097143 8.22848568,2.71817143 8.79168568,2.71817143 C9.35488568,2.71817143 9.76848568,3.21097143 9.76848568,4.97097143 C9.76848568,6.73977143 9.35488568,7.28537143 8.79168568,7.28537143 Z M13.9772857,8.17417143 L15.2796857,8.17417143 L15.2796857,5.85977143 L16.1508857,5.85977143 C17.5500857,5.85977143 18.6676857,5.19097143 18.6676857,3.70377143 C18.6676857,2.16377143 17.5588857,1.65337143 16.1156857,1.65337143 L13.9772857,1.65337143 L13.9772857,8.17417143 Z M15.2796857,4.83017143 L15.2796857,2.69177143 L16.0188857,2.69177143 C16.9164857,2.69177143 17.3916857,2.94697143 17.3916857,3.70377143 C17.3916857,4.45177143 16.9604857,4.83017143 16.0628857,4.83017143 L15.2796857,4.83017143 Z M19.6412857,8.17417143 L20.9348857,8.17417143 L20.9348857,5.23497143 C21.2076857,4.52217143 21.6740857,4.26697143 22.0612857,4.26697143 C22.2636857,4.26697143 22.4044857,4.29337143 22.5804857,4.34617143 L22.8004857,3.22857143 C22.6508857,3.16697143 22.4924857,3.12297143 22.2196857,3.12297143 C21.7092857,3.12297143 21.1812857,3.47497143 20.8204857,4.11737143 L20.7940857,4.11737143 L20.6972857,3.24617143 L19.6412857,3.24617143 L19.6412857,8.17417143 Z M25.3316857,8.29737143 C26.5636857,8.29737143 27.6988857,7.34697143 27.6988857,5.71017143 C27.6988857,4.07337143 26.5636857,3.12297143 25.3316857,3.12297143 C24.0996857,3.12297143 22.9644857,4.07337143 22.9644857,5.71017143 C22.9644857,7.34697143 24.0996857,8.29737143 25.3316857,8.29737143 Z M25.3316857,7.24137143 C24.6628857,7.24137143 24.2844857,6.64297143 24.2844857,5.71017143 C24.2844857,4.78617143 24.6628857,4.17897143 25.3316857,4.17897143 C26.0004857,4.17897143 26.3788857,4.78617143 26.3788857,5.71017143 C26.3788857,6.64297143 26.0004857,7.24137143 25.3316857,7.24137143 Z M33.6940857,3.12297143 C35.0492857,3.12297143 35.7532857,4.11737143 35.7532857,5.47257143 C35.7532857,5.71897143 35.7268857,5.95657143 35.6916857,6.07097143 L35.6916857,6.07097143 L32.6556857,6.07097143 C32.7612857,6.88057143 33.2892857,7.30297143 34.0196857,7.30297143 C34.4244857,7.30297143 34.7764857,7.17977143 35.1284857,6.95977143 L35.1284857,6.95977143 L35.5684857,7.75177143 C35.0844857,8.08617143 34.4596857,8.29737143 33.8524857,8.29737143 C32.4708857,8.29737143 31.3972857,7.33817143 31.3972857,5.71017143 C31.3972857,4.11737143 32.5236857,3.12297143 33.6940857,3.12297143 Z M30.5732857,1.02857143 C30.9516857,1.02857143 31.2860857,1.11657143 31.5060857,1.19577143 L31.5060857,1.19577143 L31.2684857,2.15497143 C31.1012857,2.08457143 30.9076857,2.04937143 30.7492857,2.04937143 C30.3620857,2.04937143 30.1508857,2.27817143 30.1508857,2.82377143 L30.1508857,2.82377143 L30.1508857,3.24617143 L31.0748857,3.24617143 L31.0748857,4.26697143 L30.1508857,4.26697143 L30.1508857,8.17417143 L28.8572857,8.17417143 L28.8572857,4.26697143 L28.1972857,4.26697143 L28.1972857,3.30777143 L28.8572857,3.25497143 L28.8572857,2.85017143 C28.8572857,1.82057143 29.3324857,1.02857143 30.5732857,1.02857143 Z M33.7116857,4.12617143 C33.1924857,4.12617143 32.7348857,4.49577143 32.6380857,5.20857143 L32.6380857,5.20857143 L34.6444857,5.20857143 C34.6444857,4.54857143 34.3452857,4.12617143 33.7116857,4.12617143 Z M38.1260857,8.29737143 C39.4108857,8.29737143 40.0884857,7.60217143 40.0884857,6.73977143 C40.0884857,5.82457143 39.3668857,5.49897143 38.7156857,5.25257143 C38.1964857,5.05897143 37.7388857,4.92697143 37.7388857,4.56617143 C37.7388857,4.28457143 37.9500857,4.09097143 38.3988857,4.09097143 C38.7596857,4.09097143 39.1028857,4.25817143 39.4548857,4.51337143 L40.0356857,3.73017143 C39.6308857,3.42217143 39.0764857,3.12297143 38.3636857,3.12297143 C37.2372857,3.12297143 36.5244857,3.74777143 36.5244857,4.62777143 C36.5244857,5.45497143 37.2196857,5.83337143 37.8444857,6.07097143 C38.3636857,6.27337143 38.8740857,6.44057143 38.8740857,6.81017143 C38.8740857,7.11817143 38.6540857,7.32937143 38.1612857,7.32937143 C37.7036857,7.32937143 37.2812857,7.13577143 36.8412857,6.79257143 L36.2516857,7.60217143 C36.7444857,8.00697143 37.4660857,8.29737143 38.1260857,8.29737143 Z M42.3820857,8.29737143 C43.6668857,8.29737143 44.3444857,7.60217143 44.3444857,6.73977143 C44.3444857,5.82457143 43.6228857,5.49897143 42.9716857,5.25257143 C42.4524857,5.05897143 41.9948857,4.92697143 41.9948857,4.56617143 C41.9948857,4.28457143 42.2060857,4.09097143 42.6548857,4.09097143 C43.0156857,4.09097143 43.3588857,4.25817143 43.7108857,4.51337143 L44.2916857,3.73017143 C43.8868857,3.42217143 43.3324857,3.12297143 42.6196857,3.12297143 C41.4932857,3.12297143 40.7804857,3.74777143 40.7804857,4.62777143 C40.7804857,5.45497143 41.4756857,5.83337143 42.1004857,6.07097143 C42.6196857,6.27337143 43.1300857,6.44057143 43.1300857,6.81017143 C43.1300857,7.11817143 42.9100857,7.32937143 42.4172857,7.32937143 C41.9596857,7.32937143 41.5372857,7.13577143 41.0972857,6.79257143 L40.5076857,7.60217143 C41.0004857,8.00697143 41.7220857,8.29737143 42.3820857,8.29737143 Z M45.2300857,8.17417143 L46.5236857,8.17417143 L46.5236857,3.24617143 L45.2300857,3.24617143 L45.2300857,8.17417143 Z M45.8812857,2.45417143 C46.3212857,2.45417143 46.6292857,2.17257143 46.6292857,1.74137143 C46.6292857,1.31897143 46.3212857,1.03737143 45.8812857,1.03737143 C45.4324857,1.03737143 45.1244857,1.31897143 45.1244857,1.74137143 C45.1244857,2.17257143 45.4324857,2.45417143 45.8812857,2.45417143 Z M49.8644857,8.29737143 C51.0964857,8.29737143 52.2316857,7.34697143 52.2316857,5.71017143 C52.2316857,4.07337143 51.0964857,3.12297143 49.8644857,3.12297143 C48.6324857,3.12297143 47.4972857,4.07337143 47.4972857,5.71017143 C47.4972857,7.34697143 48.6324857,8.29737143 49.8644857,8.29737143 Z M49.8644857,7.24137143 C49.1956857,7.24137143 48.8172857,6.64297143 48.8172857,5.71017143 C48.8172857,4.78617143 49.1956857,4.17897143 49.8644857,4.17897143 C50.5332857,4.17897143 50.9116857,4.78617143 50.9116857,5.71017143 C50.9116857,6.64297143 50.5332857,7.24137143 49.8644857,7.24137143 Z M53.2140857,8.17417143 L54.5076857,8.17417143 L54.5076857,4.78617143 C54.8684857,4.42537143 55.1236857,4.23177143 55.5284857,4.23177143 C56.0124857,4.23177143 56.2236857,4.49577143 56.2236857,5.26137143 L56.2236857,8.17417143 L57.5172857,8.17417143 L57.5172857,5.10297143 C57.5172857,3.86217143 57.0596857,3.12297143 55.9948857,3.12297143 C55.3260857,3.12297143 54.8244857,3.47497143 54.3932857,3.89737143 L54.3668857,3.89737143 L54.2700857,3.24617143 L53.2140857,3.24617143 L53.2140857,8.17417143 Z M59.9692857,8.29737143 C60.5324857,8.29737143 61.0252857,8.01577143 61.4564857,7.64617143 L61.4916857,7.64617143 L61.5796857,8.17417143 L62.6356857,8.17417143 L62.6356857,5.29657143 C62.6356857,3.87097143 61.9932857,3.12297143 60.7436857,3.12297143 C59.9692857,3.12297143 59.2652857,3.41337143 58.6844857,3.77417143 L59.1508857,4.62777143 C59.6084857,4.36377143 60.0484857,4.16137143 60.5060857,4.16137143 C61.1132857,4.16137143 61.3244857,4.53097143 61.3508857,5.01497143 C59.3620857,5.22617143 58.5084857,5.78057143 58.5084857,6.83657143 C58.5084857,7.67257143 59.0892857,8.29737143 59.9692857,8.29737143 Z M60.3916857,7.28537143 C60.0132857,7.28537143 59.7404857,7.11817143 59.7404857,6.73097143 C59.7404857,6.29097143 60.1452857,5.95657143 61.3508857,5.80697143 L61.3508857,6.80137143 C61.0340857,7.10937143 60.7612857,7.28537143 60.3916857,7.28537143 Z M65.0700857,8.29737143 C65.3780857,8.29737143 65.5892857,8.24457143 65.7388857,8.18297143 L65.5804857,7.22377143 C65.4924857,7.24137143 65.4572857,7.24137143 65.4044857,7.24137143 C65.2812857,7.24137143 65.1492857,7.14457143 65.1492857,6.84537143 L65.1492857,1.15177143 L63.8556857,1.15177143 L63.8556857,6.79257143 C63.8556857,7.70777143 64.1724857,8.29737143 65.0700857,8.29737143 Z M1.93148568,21.1741714 L3.26348568,21.1741714 L3.26348568,18.4741714 L5.63048568,18.4741714 L5.63048568,17.3581714 L3.26348568,17.3581714 L3.26348568,15.6211714 L6.03548568,15.6211714 L6.03548568,14.5051714 L1.93148568,14.5051714 L1.93148568,21.1741714 Z M9.12348568,21.3001714 C10.3834857,21.3001714 11.5444857,20.3281714 11.5444857,18.6541714 C11.5444857,16.9801714 10.3834857,16.0081714 9.12348568,16.0081714 C7.86348568,16.0081714 6.70248568,16.9801714 6.70248568,18.6541714 C6.70248568,20.3281714 7.86348568,21.3001714 9.12348568,21.3001714 Z M9.12348568,20.2201714 C8.43948568,20.2201714 8.05248568,19.6081714 8.05248568,18.6541714 C8.05248568,17.7091714 8.43948568,17.0881714 9.12348568,17.0881714 C9.80748568,17.0881714 10.1944857,17.7091714 10.1944857,18.6541714 C10.1944857,19.6081714 9.80748568,20.2201714 9.12348568,20.2201714 Z M12.7514857,21.1741714 L14.0744857,21.1741714 L14.0744857,18.1681714 C14.3534857,17.4391714 14.8304857,17.1781714 15.2264857,17.1781714 C15.4334857,17.1781714 15.5774857,17.2051714 15.7574857,17.2591714 L15.9824857,16.1161714 C15.8294857,16.0531714 15.6674857,16.0081714 15.3884857,16.0081714 C14.8664857,16.0081714 14.3264857,16.3681714 13.9574857,17.0251714 L13.9304857,17.0251714 L13.8314857,16.1341714 L12.7514857,16.1341714 L12.7514857,21.1741714 Z M19.0264857,21.1741714 L23.2114857,21.1741714 L23.2114857,20.0581714 L20.3584857,20.0581714 L20.3584857,18.2761714 L22.6984857,18.2761714 L22.6984857,17.1601714 L20.3584857,17.1601714 L20.3584857,15.6211714 L23.1124857,15.6211714 L23.1124857,14.5051714 L19.0264857,14.5051714 L19.0264857,21.1741714 Z M24.5534857,21.1741714 L25.8764857,21.1741714 L25.8764857,17.7091714 C26.2454857,17.3401714 26.5064857,17.1421714 26.9204857,17.1421714 C27.4154857,17.1421714 27.6314857,17.4121714 27.6314857,18.1951714 L27.6314857,21.1741714 L28.9544857,21.1741714 L28.9544857,18.0331714 C28.9544857,16.7641714 28.4864857,16.0081714 27.3974857,16.0081714 C26.7134857,16.0081714 26.2004857,16.3681714 25.7594857,16.8001714 L25.7324857,16.8001714 L25.6334857,16.1341714 L24.5534857,16.1341714 L24.5534857,21.1741714 Z M32.2674857,21.3001714 C32.7084857,21.3001714 33.0594857,21.2011714 33.3294857,21.1111714 L33.1134857,20.1481714 C32.9784857,20.2021714 32.7804857,20.2561714 32.6184857,20.2561714 C32.1684857,20.2561714 31.9344857,19.9861714 31.9344857,19.4101714 L31.9344857,17.1781714 L33.1764857,17.1781714 L33.1764857,16.1341714 L31.9344857,16.1341714 L31.9344857,14.7751714 L30.8364857,14.7751714 L30.6834857,16.1341714 L29.9004857,16.1971714 L29.9004857,17.1781714 L30.6114857,17.1781714 L30.6114857,19.4101714 C30.6114857,20.5351714 31.0704857,21.3001714 32.2674857,21.3001714 Z M36.3274857,21.3001714 C36.9484857,21.3001714 37.5874857,21.0841714 38.0824857,20.7421714 L37.6324857,19.9321714 C37.2724857,20.1571714 36.9124857,20.2831714 36.4984857,20.2831714 C35.7514857,20.2831714 35.2114857,19.8511714 35.1034857,19.0231714 L38.2084857,19.0231714 C38.2444857,18.9061714 38.2714857,18.6631714 38.2714857,18.4111714 C38.2714857,17.0251714 37.5514857,16.0081714 36.1654857,16.0081714 C34.9684857,16.0081714 33.8164857,17.0251714 33.8164857,18.6541714 C33.8164857,20.3191714 34.9144857,21.3001714 36.3274857,21.3001714 Z M35.0854857,18.1411714 C35.1844857,17.4121714 35.6524857,17.0341714 36.1834857,17.0341714 C36.8314857,17.0341714 37.1374857,17.4661714 37.1374857,18.1411714 L35.0854857,18.1411714 Z M39.4604857,21.1741714 L40.7834857,21.1741714 L40.7834857,18.1681714 C41.0624857,17.4391714 41.5394857,17.1781714 41.9354857,17.1781714 C42.1424857,17.1781714 42.2864857,17.2051714 42.4664857,17.2591714 L42.6914857,16.1161714 C42.5384857,16.0531714 42.3764857,16.0081714 42.0974857,16.0081714 C41.5754857,16.0081714 41.0354857,16.3681714 40.6664857,17.0251714 L40.6394857,17.0251714 L40.5404857,16.1341714 L39.4604857,16.1341714 L39.4604857,21.1741714 Z M43.4844857,23.1091714 L44.8074857,23.1091714 L44.8074857,21.5791714 L44.7624857,20.7511714 C45.1494857,21.1021714 45.5724857,21.3001714 46.0134857,21.3001714 C47.1204857,21.3001714 48.1554857,20.3011714 48.1554857,18.5731714 C48.1554857,17.0251714 47.4174857,16.0081714 46.1754857,16.0081714 C45.6354857,16.0081714 45.1134857,16.2961714 44.6904857,16.6561714 L44.6634857,16.6561714 L44.5644857,16.1341714 L43.4844857,16.1341714 L43.4844857,23.1091714 Z M45.7164857,20.2111714 C45.4464857,20.2111714 45.1224857,20.1121714 44.8074857,19.8331714 L44.8074857,17.6191714 C45.1494857,17.2681714 45.4554857,17.0971714 45.7974857,17.0971714 C46.4904857,17.0971714 46.7964857,17.6281714 46.7964857,18.5911714 C46.7964857,19.6891714 46.3284857,20.2111714 45.7164857,20.2111714 Z M49.3804857,21.1741714 L50.7034857,21.1741714 L50.7034857,18.1681714 C50.9824857,17.4391714 51.4594857,17.1781714 51.8554857,17.1781714 C52.0624857,17.1781714 52.2064857,17.2051714 52.3864857,17.2591714 L52.6114857,16.1161714 C52.4584857,16.0531714 52.2964857,16.0081714 52.0174857,16.0081714 C51.4954857,16.0081714 50.9554857,16.3681714 50.5864857,17.0251714 L50.5594857,17.0251714 L50.4604857,16.1341714 L49.3804857,16.1341714 L49.3804857,21.1741714 Z M53.4044857,21.1741714 L54.7274857,21.1741714 L54.7274857,16.1341714 L53.4044857,16.1341714 L53.4044857,21.1741714 Z M54.0704857,15.3241714 C54.5204857,15.3241714 54.8354857,15.0361714 54.8354857,14.5951714 C54.8354857,14.1631714 54.5204857,13.8751714 54.0704857,13.8751714 C53.6114857,13.8751714 53.2964857,14.1631714 53.2964857,14.5951714 C53.2964857,15.0361714 53.6114857,15.3241714 54.0704857,15.3241714 Z M57.6804857,21.3001714 C58.9944857,21.3001714 59.6874857,20.5891714 59.6874857,19.7071714 C59.6874857,18.7711714 58.9494857,18.4381714 58.2834857,18.1861714 C57.7524857,17.9881714 57.2844857,17.8531714 57.2844857,17.4841714 C57.2844857,17.1961714 57.5004857,16.9981714 57.9594857,16.9981714 C58.3284857,16.9981714 58.6794857,17.1691714 59.0394857,17.4301714 L59.6334857,16.6291714 C59.2194857,16.3141714 58.6524857,16.0081714 57.9234857,16.0081714 C56.7714857,16.0081714 56.0424857,16.6471714 56.0424857,17.5471714 C56.0424857,18.3931714 56.7534857,18.7801714 57.3924857,19.0231714 C57.9234857,19.2301714 58.4454857,19.4011714 58.4454857,19.7791714 C58.4454857,20.0941714 58.2204857,20.3101714 57.7164857,20.3101714 C57.2484857,20.3101714 56.8164857,20.1121714 56.3664857,19.7611714 L55.7634857,20.5891714 C56.2674857,21.0031714 57.0054857,21.3001714 57.6804857,21.3001714 Z M62.9914857,21.3001714 C63.6124857,21.3001714 64.2514857,21.0841714 64.7464857,20.7421714 L64.2964857,19.9321714 C63.9364857,20.1571714 63.5764857,20.2831714 63.1624857,20.2831714 C62.4154857,20.2831714 61.8754857,19.8511714 61.7674857,19.0231714 L64.8724857,19.0231714 C64.9084857,18.9061714 64.9354857,18.6631714 64.9354857,18.4111714 C64.9354857,17.0251714 64.2154857,16.0081714 62.8294857,16.0081714 C61.6324857,16.0081714 60.4804857,17.0251714 60.4804857,18.6541714 C60.4804857,20.3191714 61.5784857,21.3001714 62.9914857,21.3001714 Z M61.7494857,18.1411714 C61.8484857,17.4121714 62.3164857,17.0341714 62.8474857,17.0341714 C63.4954857,17.0341714 63.8014857,17.4661714 63.8014857,18.1411714 L61.7494857,18.1411714 Z" id="颜色" fill="url(#linearGradient-6)"></path>
            </g>
        </g>
    </g>
</svg>