<?xml version="1.0" encoding="UTF-8"?>
<svg width="232px" height="46px" viewBox="0 0 232 46" version="1.1" xmlns="http://www.w3.org/2000/svg" xmlns:xlink="http://www.w3.org/1999/xlink">
    <title>锁屏水印-政务版</title>
    <defs>
        <path d="M43.3790238,1.04285714 C44.1856765,1.04285714 44.8406509,1.69198823 44.8406509,2.49450051 L44.8406509,14.0912138 C44.8406509,14.8937261 45.4942464,15.5428571 46.302278,15.5428571 L57.9815058,15.5428571 C58.7881585,15.5428571 59.4445118,16.1933577 59.4445118,16.9945005 L59.4445118,28.5912138 C59.4445118,29.3923566 58.7881585,30.0428571 57.9815058,30.0428571 L2.50586313,30.0428571 C1.69783155,30.0428571 1.04285714,29.3923566 1.04285714,28.5912138 L1.04285714,2.49450051 C1.04285714,1.69198823 1.69783155,1.04285714 2.50586313,1.04285714 L43.3790238,1.04285714 Z M53.4319847,2.51024947 L53.4319847,4.88902734 C53.4319847,5.60663217 53.802907,5.88463557 54.4165146,5.88463557 C55.1487071,5.88463557 55.3913923,5.55322265 55.3913923,4.85342099 L55.3913923,2.51024947 L56.6778999,2.51024947 L56.6778999,5.08760119 C56.6778999,5.88052715 56.3910901,6.95967335 54.4068624,6.95967335 C52.961782,6.95967335 52.1427193,6.3680602 52.1427193,5.17524758 L52.1427193,2.51024947 L53.4319847,2.51024947 Z M59.0877921,2.51024947 L61.1202811,5.18483391 L61.1202811,2.51024947 L62.3323284,2.51024947 L62.3323284,6.85970168 L61.0871876,6.85970168 L59.0643509,4.19196462 L59.0643509,6.85970168 L57.8481668,6.85970168 L57.8481668,2.51024947 L59.0877921,2.51024947 Z M145.58123,1.04285714 C146.387883,1.04285714 147.042857,1.69198823 147.042857,2.49450051 L147.042857,2.49450051 L147.042857,28.5912138 C147.042857,29.3923566 146.387883,30.0428571 145.58123,30.0428571 L145.58123,30.0428571 L90.1053116,30.0428571 C89.29728,30.0428571 88.6423056,29.3923566 88.6423056,28.5912138 L88.6423056,28.5912138 L88.6423056,16.9972395 C88.6423056,16.1947272 89.29728,15.5455961 90.1053116,15.5455961 L90.1053116,15.5455961 L101.784539,15.5455961 C102.592571,15.5455961 103.246166,14.8950955 103.246166,14.0925832 L103.246166,14.0925832 L103.246166,2.49450051 C103.246166,1.69198823 103.901141,1.04285714 104.709172,1.04285714 L104.709172,1.04285714 Z M88.4717365,2.40370433 C89.8092631,2.40370433 90.5318033,3.24182295 90.5717912,4.06898578 L90.5717912,4.06898578 L89.4576453,4.06898578 C89.4397197,3.90738774 89.2452957,3.38424834 88.4758731,3.38424834 C87.8319299,3.38424834 87.3410438,3.88684562 87.3410438,4.74687584 C87.3410438,5.5014565 87.8346877,6.00405378 88.4896621,6.00405378 C89.1915189,6.00405378 89.4286885,5.60690607 89.4948754,5.08924456 L89.4948754,5.08924456 L90.6090214,5.08924456 C90.5345611,6.16839077 89.810642,6.96268619 88.4538108,6.96268619 C87.3589694,6.96268619 86.1841522,6.17523814 86.1841522,4.72770319 C86.1841522,3.28016825 87.1024952,2.40370433 88.4717365,2.40370433 Z M92.7492019,2.51024947 L92.7492019,4.11390456 L94.6631061,4.11390456 L94.6631061,2.51024947 L95.9523715,2.51024947 L95.9523715,6.85970168 L94.6575905,6.85970168 L94.6575905,5.0547338 L92.7492019,5.0547338 L92.7492019,6.85970168 L91.4613154,6.85970168 L91.4613154,2.51024947 L92.7492019,2.51024947 Z M70.9731645,2.51024947 L72.2127897,2.51024947 L74.2452787,5.18483391 L74.2452787,2.51024947 L75.458705,2.51024947 L75.458705,6.85970168 L74.2121853,6.85970168 L72.1893485,4.19196462 L72.1893485,6.85970168 L70.9731645,6.85970168 L70.9731645,2.51024947 Z M63.5289322,6.86011253 L64.8209554,6.86011253 L64.8209554,2.51066032 L63.5289322,2.51066032 L63.5289322,6.86011253 Z M67.9191912,5.84108627 C67.3152358,5.84108627 66.8243497,5.35903111 66.8243497,4.68524947 C66.8243497,4.01009836 67.3152358,3.53215163 67.9191912,3.53215163 C68.5217676,3.53215163 69.0126537,4.01009836 69.0126537,4.68524947 C69.0126537,5.35903111 68.5217676,5.84108627 67.9191912,5.84108627 M67.9191912,2.41876855 C66.4465329,2.41876855 65.5516311,3.43354944 65.5516311,4.68388 C65.5516311,5.93558004 66.6120002,6.95036092 67.9191912,6.95036092 C69.2250033,6.95036092 70.2867513,5.93558004 70.2867513,4.68388 C70.2867513,3.43354944 69.3270414,2.41876855 67.9191912,2.41876855 M76.2504656,2.51024947 L80.6091479,2.51024947 L80.6091479,3.43327554 L79.0771973,3.43327554 L79.0771973,6.85970168 L77.7879318,6.85970168 L77.7879318,3.43875344 L76.2504656,3.43875344 L76.2504656,2.51024947 Z M81.3970477,2.51024947 L85.3903232,2.51024947 L85.3903232,3.43327554 L82.6863131,3.43327554 L82.6863131,4.18511725 L85.1697002,4.18511725 L85.1697002,5.05747275 L82.6863131,5.05747275 L82.6863131,5.93804509 L85.4482367,5.93804509 L85.4482367,6.85970168 L81.3970477,6.85970168 L81.3970477,2.51024947 Z" id="path-1"></path>
        <filter x="-4.5%" y="-19.0%" width="108.9%" height="144.8%" filterUnits="objectBoundingBox" id="filter-2">
            <feOffset dx="0" dy="1" in="SourceAlpha" result="shadowOffsetOuter1"></feOffset>
            <feGaussianBlur stdDeviation="2" in="shadowOffsetOuter1" result="shadowBlurOuter1"></feGaussianBlur>
            <feComposite in="shadowBlurOuter1" in2="SourceAlpha" operator="out" result="shadowBlurOuter1"></feComposite>
            <feColorMatrix values="0 0 0 0 0   0 0 0 0 0   0 0 0 0 0  0 0 0 0.2 0" type="matrix" in="shadowBlurOuter1"></feColorMatrix>
        </filter>
        <linearGradient x1="-1.23547869%" y1="48.0273034%" x2="100%" y2="51.5162215%" id="linearGradient-3">
            <stop stop-color="#FFFFFF" stop-opacity="0.25" offset="0%"></stop>
            <stop stop-color="#FFFFFF" stop-opacity="0.35" offset="15.8878787%"></stop>
            <stop stop-color="#FFFFFF" stop-opacity="0.151570353" offset="35.1027096%"></stop>
            <stop stop-color="#FFFFFF" stop-opacity="0.4" offset="53.8811523%"></stop>
            <stop stop-color="#FFFFFF" stop-opacity="0.15" offset="70.9665078%"></stop>
            <stop stop-color="#FFFFFF" stop-opacity="0.3" offset="83.5911059%"></stop>
            <stop stop-color="#FFFFFF" stop-opacity="0.14" offset="100%"></stop>
        </linearGradient>
        <path d="M7.54728568,16.6141 L8.92728568,16.6141 C8.79728568,17.6341 8.58728568,18.5041 8.25728568,19.2641 C7.92728568,18.5041 7.66728568,17.6541 7.49728568,16.7441 L7.54728568,16.6141 Z M10.7472857,16.6141 L10.7472857,15.5141 L7.89728568,15.5141 C8.04728568,14.9841 8.17728568,14.4341 8.26728568,13.8741 L7.08728568,13.6941 C6.86728568,15.1041 6.46728568,16.4541 5.84728568,17.4241 L5.84728568,17.1741 L4.70728568,17.1741 L4.70728568,15.4241 L6.12728568,15.4241 L6.12728568,14.2841 L1.54728568,14.2841 L1.54728568,15.4241 L3.54728568,15.4241 L3.54728568,20.5741 L2.90728568,20.6941 L2.90728568,16.6241 L1.83728568,16.6241 L1.83728568,20.8841 L1.31728568,20.9741 L1.52728568,22.1841 C2.80728568,21.8941 4.57728568,21.5141 6.21728568,21.1341 L6.11728568,20.0441 C5.64728568,20.1441 5.17728568,20.2441 4.70728568,20.3441 L4.70728568,18.2941 L5.84728568,18.2941 L5.84728568,18.2041 C6.06728568,18.3941 6.27728568,18.6041 6.39728568,18.7441 C6.51728568,18.5941 6.63728568,18.4241 6.74728568,18.2541 C6.96728568,19.0641 7.22728568,19.7941 7.56728568,20.4541 C7.06728568,21.1041 6.39728568,21.6241 5.52728568,22.0041 C5.74728568,22.2541 6.09728568,22.7841 6.19728568,23.0541 C7.03728568,22.6441 7.69728568,22.1241 8.23728568,21.5041 C8.71728568,22.1241 9.29728568,22.6441 10.0272857,23.0241 C10.1972857,22.7041 10.5672857,22.2441 10.8372857,22.0041 C10.0772857,21.6541 9.45728568,21.1241 8.96728568,20.4641 C9.53728568,19.4241 9.89728568,18.1541 10.1272857,16.6141 L10.7472857,16.6141 Z M16.3272857,19.2341 C16.3972857,18.9941 16.4472857,18.7541 16.4972857,18.4841 L15.2672857,18.3841 C15.2272857,18.6941 15.1672857,18.9641 15.1072857,19.2341 L12.2772857,19.2341 L12.2772857,20.2441 L14.6672857,20.2441 C14.0872857,21.1941 13.0772857,21.7341 11.6172857,22.0341 C11.8372857,22.2641 12.1872857,22.7641 12.3072857,23.0141 C14.1172857,22.5141 15.2972857,21.7041 15.9772857,20.2441 L18.6472857,20.2441 C18.4972857,21.1841 18.3072857,21.6741 18.1072857,21.8341 C17.9772857,21.9341 17.8372857,21.9441 17.6272857,21.9441 C17.3272857,21.9441 16.6072857,21.9341 15.9572857,21.8741 C16.1572857,22.1541 16.3072857,22.5841 16.3272857,22.8941 C16.9872857,22.9241 17.6272857,22.9241 17.9972857,22.9041 C18.4472857,22.8841 18.7672857,22.8041 19.0572857,22.5341 C19.4272857,22.2141 19.6772857,21.4141 19.8972857,19.7141 C19.9272857,19.5541 19.9572857,19.2341 19.9572857,19.2341 L16.3272857,19.2341 Z M14.5072857,15.6341 L18.1372857,15.6341 C17.5872857,16.0741 16.8872857,16.4241 16.0872857,16.7241 C15.3972857,16.4541 14.8472857,16.1141 14.4372857,15.6941 L14.5072857,15.6341 Z M19.3272857,14.5941 L19.1572857,14.6441 L15.4172857,14.6441 C15.5972857,14.4141 15.7572857,14.1741 15.9072857,13.9341 L14.6972857,13.6841 C14.1872857,14.5341 13.2572857,15.4341 11.8472857,16.0741 C12.0672857,16.2641 12.3972857,16.7141 12.5372857,16.9941 C12.9572857,16.7841 13.3272857,16.5441 13.6672857,16.3041 C13.9872857,16.6241 14.3272857,16.9041 14.7172857,17.1341 C13.7172857,17.3941 12.6272857,17.5641 11.5372857,17.6541 C11.7172857,17.9241 11.9172857,18.3941 11.9972857,18.6941 C13.4072857,18.5241 14.8172857,18.2441 16.0972857,17.8041 C17.2272857,18.2241 18.5872857,18.4641 20.1172857,18.5741 C20.2672857,18.2641 20.5372857,17.7941 20.7772857,17.5341 C19.6172857,17.4841 18.5372857,17.3641 17.5872857,17.1541 C18.6172857,16.6241 19.4772857,15.9441 20.0772857,15.0741 L19.3272857,14.5941 Z M29.6872857,13.7541 C28.4572857,14.0341 26.4372857,14.2541 24.6872857,14.3441 C24.7972857,14.5841 24.9372857,14.9741 24.9572857,15.2341 C26.7472857,15.1541 28.8772857,14.9641 30.3872857,14.6241 L29.6872857,13.7541 Z M28.2472857,16.4241 C28.1772857,16.0841 28.0072857,15.5441 27.8372857,15.1241 L26.9172857,15.3341 C27.0672857,15.7641 27.2172857,16.3341 27.2772857,16.6841 L28.2472857,16.4241 Z M25.6372857,17.7541 L29.5372857,17.7541 L29.5372857,18.4141 L30.6372857,18.4141 L30.6372857,16.7841 L29.5972857,16.7841 C29.8672857,16.3441 30.1372857,15.8241 30.4072857,15.3141 L29.3072857,14.9941 C29.1372857,15.5341 28.8172857,16.2641 28.5272857,16.7841 L25.7272857,16.7841 L26.4772857,16.5141 C26.3772857,16.1741 26.1272857,15.6541 25.9072857,15.2541 L25.0072857,15.5541 C25.2072857,15.9341 25.4172857,16.4341 25.5072857,16.7841 L24.5872857,16.7841 L24.5872857,18.4041 L25.6372857,18.4041 L25.6372857,17.7541 Z M24.4172857,17.9041 L23.6172857,18.1341 L23.6172857,16.6841 L24.4772857,16.6841 L24.4772857,15.5841 L23.6172857,15.5841 L23.6172857,13.7041 L22.5172857,13.7041 L22.5172857,15.5841 L21.4472857,15.5841 L21.4472857,16.6841 L22.5172857,16.6841 L22.5172857,18.4241 C22.0672857,18.5441 21.6672857,18.6441 21.3272857,18.7241 L21.5872857,19.8541 L22.5172857,19.5941 L22.5172857,21.7741 C22.5172857,21.9041 22.4772857,21.9441 22.3572857,21.9441 C22.2372857,21.9541 21.8972857,21.9541 21.5272857,21.9341 C21.6772857,22.2541 21.8072857,22.7441 21.8372857,23.0341 C22.4772857,23.0441 22.9172857,23.0041 23.2072857,22.8141 C23.5172857,22.6241 23.6172857,22.3241 23.6172857,21.7741 L23.6172857,19.2741 C23.9372857,19.1841 24.2572857,19.0841 24.5772857,18.9841 L24.4172857,17.9041 Z M28.5972857,19.5741 C28.3172857,20.0541 27.9372857,20.4441 27.4672857,20.7841 C27.0372857,20.4441 26.6772857,20.0441 26.4172857,19.5741 L28.5972857,19.5741 Z M29.3772857,18.5641 L29.1872857,18.6041 L25.1072857,18.6041 L25.1072857,19.5741 L25.9072857,19.5741 L25.3572857,19.7341 C25.6572857,20.3541 26.0372857,20.8941 26.4972857,21.3341 C25.8172857,21.6441 25.0472857,21.8541 24.1972857,21.9841 C24.3972857,22.2241 24.6272857,22.7241 24.7172857,23.0241 C25.7172857,22.8241 26.6372857,22.5141 27.4272857,22.0641 C28.1372857,22.5241 28.9872857,22.8441 29.9872857,23.0441 C30.1272857,22.7241 30.4472857,22.2441 30.6972857,22.0141 C29.8372857,21.8941 29.0872857,21.6741 28.4372857,21.3641 C29.1672857,20.7341 29.7372857,19.9041 30.0772857,18.8341 L29.3772857,18.5641 Z M35.8472857,18.8241 C35.6172857,18.5841 34.5672857,17.5741 34.1772857,17.2541 L34.1772857,16.7641 L35.3372857,16.7641 L35.3372857,15.6641 L34.1772857,15.6641 L34.1772857,13.6941 L33.0072857,13.6941 L33.0072857,15.6641 L31.5172857,15.6641 L31.5172857,16.7641 L32.7872857,16.7641 C32.4772857,17.9941 31.8672857,19.3941 31.2072857,20.1841 C31.4172857,20.5041 31.7372857,21.0641 31.8672857,21.4141 C32.2972857,20.8441 32.6872857,19.9941 33.0072857,19.0641 L33.0072857,23.0341 L34.1772857,23.0341 L34.1772857,18.5641 C34.5472857,19.0341 34.9472857,19.5641 35.1672857,19.9141 L35.8472857,18.8241 Z M39.2172857,15.6841 C38.9472857,17.0741 38.5072857,18.2741 37.8872857,19.2641 C37.3772857,18.3041 37.0272857,17.1441 36.7572857,15.6841 L39.2172857,15.6841 Z M39.7472857,14.4841 L39.5572857,14.5341 L35.4372857,14.5341 L35.4372857,15.6841 L35.9472857,15.6841 L35.6472857,15.7441 C35.9772857,17.6541 36.4172857,19.1141 37.1272857,20.3041 C36.4672857,21.0641 35.6672857,21.6441 34.7772857,22.0241 C35.0372857,22.2441 35.3572857,22.7041 35.5272857,23.0141 C36.4072857,22.5741 37.1772857,22.0141 37.8372857,21.2941 C38.3972857,21.9541 39.0772857,22.5341 39.9272857,23.0841 C40.0972857,22.7341 40.4672857,22.3041 40.7772857,22.0741 C39.8772857,21.5641 39.1772857,21.0041 38.6172857,20.3241 C39.5772857,18.9341 40.2072857,17.0941 40.5072857,14.7241 L39.7472857,14.4841 Z M1.49578568,9.16409996 L6.20778568,9.16409996 L6.20778568,7.98609996 L4.68778568,7.98609996 C4.35528568,7.98609996 3.88978568,8.02409996 3.53828568,8.06209996 C4.82078568,6.80809996 5.87528568,5.44009996 5.87528568,4.16709996 C5.87528568,2.85609996 4.99178568,2.00109996 3.66178568,2.00109996 C2.70228568,2.00109996 2.07528568,2.37159996 1.42928568,3.06509996 L2.18928568,3.82509996 C2.55028568,3.43559996 2.96828568,3.10309996 3.48128568,3.10309996 C4.15578568,3.10309996 4.53578568,3.53059996 4.53578568,4.24309996 C4.53578568,5.32609996 3.40528568,6.64659996 1.49578568,8.35659996 L1.49578568,9.16409996 Z M9.48528568,9.29709996 C10.9197857,9.29709996 11.8602857,8.04309996 11.8602857,5.62059996 C11.8602857,3.19809996 10.9197857,2.00109996 9.48528568,2.00109996 C8.05078568,2.00109996 7.10078568,3.18859996 7.10078568,5.62059996 C7.10078568,8.04309996 8.05078568,9.29709996 9.48528568,9.29709996 Z M9.48528568,8.20459996 C8.87728568,8.20459996 8.42128568,7.59659996 8.42128568,5.62059996 C8.42128568,3.65409996 8.87728568,3.08409996 9.48528568,3.08409996 C10.0932857,3.08409996 10.5397857,3.65409996 10.5397857,5.62059996 C10.5397857,7.59659996 10.0932857,8.20459996 9.48528568,8.20459996 Z M21.2177857,4.95559996 L21.2177857,3.87259996 L16.5342857,3.87259996 L16.7527857,3.06509996 L20.5432857,3.06509996 L20.5432857,1.99159996 L17.0187857,1.99159996 C17.0947857,1.69709996 17.1707857,1.41209996 17.2372857,1.12709996 L16.0402857,1.12709996 C15.9737857,1.41209996 15.9072857,1.68759996 15.8407857,1.99159996 L13.5702857,1.99159996 L13.5702857,3.06509996 L15.5557857,3.06509996 C15.4892857,3.34059996 15.4132857,3.59709996 15.3372857,3.87259996 L12.7817857,3.87259996 L12.7817857,4.95559996 L15.0237857,4.95559996 C14.8147857,5.63959996 14.6057857,6.28559996 14.4157857,6.80809996 L18.6242857,6.80809996 C18.2157857,7.21659996 17.7692857,7.65359996 17.3227857,8.07159996 C16.6007857,7.83409996 15.8597857,7.62509996 15.2327857,7.47309996 L14.6342857,8.32809996 C16.1352857,8.72709996 18.1777857,9.48709996 19.1657857,10.0571 L19.8212857,9.06909996 C19.4792857,8.88859996 19.0137857,8.68909996 18.5007857,8.48959996 C19.2987857,7.71059996 20.1252857,6.88409996 20.7712857,6.20009996 L19.8972857,5.69659996 L19.7167857,5.75359996 L16.0022857,5.75359996 C16.0687857,5.49709996 16.1542857,5.23109996 16.2302857,4.95559996 L21.2177857,4.95559996 Z M24.6757857,6.61809996 C24.4382857,5.71559996 23.8872857,4.22409996 23.4407857,3.11259996 L22.4052857,3.41659996 C22.8422857,4.58509996 23.3457857,6.10509996 23.5452857,7.01709996 L24.6757857,6.61809996 Z M28.3237857,8.42309996 L28.3237857,6.63709996 L29.1882857,7.07409996 C29.6822857,6.16209996 30.2807857,4.82259996 30.6987857,3.62559996 L29.6822857,3.14109996 C29.3687857,4.22409996 28.7987857,5.57309996 28.3237857,6.47559996 L28.3237857,1.24109996 L27.1552857,1.24109996 L27.1552857,8.42309996 L25.9107857,8.42309996 L25.9107857,1.24109996 L24.7422857,1.24109996 L24.7422857,8.42309996 L22.2912857,8.42309996 L22.2912857,9.55359996 L30.7842857,9.55359996 L30.7842857,8.42309996 L28.3237857,8.42309996 Z M33.1782857,5.66809996 C33.1877857,5.44959996 33.1877857,5.23109996 33.1877857,5.03159996 L33.1877857,4.61359996 L35.5057857,4.61359996 L35.5057857,3.61609996 L34.8502857,3.61609996 L34.8502857,1.11759996 L33.8337857,1.11759996 L33.8337857,3.61609996 L33.1877857,3.61609996 L33.1877857,1.36459996 L32.1522857,1.36459996 L32.1522857,5.03159996 C32.1522857,6.37109996 32.0857857,8.18559996 31.5347857,9.33509996 C31.7627857,9.48709996 32.1427857,9.81959996 32.3232857,10.0381 C32.8457857,9.14509996 33.0642857,7.90059996 33.1402857,6.66559996 L34.0047857,6.66559996 L34.0047857,9.96209996 L35.0307857,9.96209996 L35.0307857,5.66809996 L33.1782857,5.66809996 Z M36.3892857,9.03109996 C36.7692857,7.85309996 36.8642857,6.42809996 36.8832857,5.23109996 C37.1207857,6.18109996 37.4152857,7.05509996 37.8142857,7.81509996 C37.4057857,8.32809996 36.9402857,8.74609996 36.3892857,9.03109996 Z M39.0777857,4.75609996 C38.9257857,5.52559996 38.6977857,6.22859996 38.4032857,6.83659996 C38.0897857,6.20009996 37.8332857,5.49709996 37.6527857,4.75609996 L39.0777857,4.75609996 Z M39.5717857,3.69209996 L39.3912857,3.73009996 L36.8832857,3.73009996 L36.8832857,2.59959996 C38.0897857,2.52359996 39.3722857,2.38109996 40.3982857,2.15309996 L39.7712857,1.16509996 C38.7357857,1.40259996 37.1967857,1.59259996 35.8097857,1.68759996 L35.8097857,4.87009996 C35.8097857,6.21909996 35.7242857,8.20459996 35.0307857,9.45859996 C35.2967857,9.59159996 35.7242857,9.89559996 35.9237857,10.0856 C36.0947857,9.81009996 36.2277857,9.51559996 36.3417857,9.18309996 C36.5507857,9.42059996 36.7977857,9.78159996 36.9307857,10.0286 C37.5007857,9.70559996 38.0042857,9.29709996 38.4222857,8.80309996 C38.7927857,9.28759996 39.2297857,9.70559996 39.7237857,10.0286 C39.9042857,9.73409996 40.2367857,9.32559996 40.4837857,9.12609996 C39.9422857,8.83159996 39.4672857,8.40409996 39.0682857,7.89109996 C39.6667857,6.85559996 40.0657857,5.52559996 40.2462857,3.86309996 L39.5717857,3.69209996 Z" id="path-4"></path>
        <filter x="-12.7%" y="-18.2%" width="125.3%" height="145.5%" filterUnits="objectBoundingBox" id="filter-5">
            <feOffset dx="0" dy="1" in="SourceAlpha" result="shadowOffsetOuter1"></feOffset>
            <feGaussianBlur stdDeviation="1.5" in="shadowOffsetOuter1" result="shadowBlurOuter1"></feGaussianBlur>
            <feComposite in="shadowBlurOuter1" in2="SourceAlpha" operator="out" result="shadowBlurOuter1"></feComposite>
            <feColorMatrix values="0 0 0 0 0   0 0 0 0 0   0 0 0 0 0  0 0 0 0.3 0" type="matrix" in="shadowBlurOuter1"></feColorMatrix>
        </filter>
        <linearGradient x1="-1.23547869%" y1="34.5054998%" x2="100%" y2="61.9091273%" id="linearGradient-6">
            <stop stop-color="#FFFFFF" stop-opacity="0.25" offset="0%"></stop>
            <stop stop-color="#FFFFFF" stop-opacity="0.35" offset="15.8878787%"></stop>
            <stop stop-color="#FFFFFF" stop-opacity="0.23958561" offset="35.1027096%"></stop>
            <stop stop-color="#FFFFFF" stop-opacity="0.4" offset="53.8811523%"></stop>
            <stop stop-color="#FFFFFF" stop-opacity="0.27107975" offset="70.9665078%"></stop>
            <stop stop-color="#FFFFFF" stop-opacity="0.3" offset="83.5911059%"></stop>
            <stop stop-color="#FFFFFF" stop-opacity="0.144360522" offset="100%"></stop>
        </linearGradient>
    </defs>
    <g id="锁屏水印-政务版" stroke="none" stroke-width="1" fill="none" fill-rule="evenodd">
        <g id="编组-2">
            <rect id="矩形" x="0" y="0" width="232" height="46"></rect>
            <g id="logo" transform="translate(3.957143, 6.957143)">
                <path d="M43.3790238,0 C44.7051086,0 45.7932433,1.02735133 45.8781723,2.33025657 L45.8835081,2.49450051 L45.8835081,14.0912138 C45.8835081,14.2880468 46.0252241,14.453399 46.2171947,14.4916615 L46.302278,14.5 L57.9815058,14.5 C59.307241,14.5 60.3969681,15.5282767 60.4820251,16.8303676 L60.487369,16.9945005 L60.487369,28.5912138 C60.487369,29.9148127 59.4506712,30.9960334 58.1459379,31.0804133 L57.9815058,31.0857143 L2.50586313,31.0857143 C1.1791167,31.0857143 0.0903199553,30.0577317 0.0053390097,28.755382 L0,28.5912138 L0,2.49450051 C0,1.1695873 1.03542653,0.0895757833 2.34127851,0.00529472298 L2.50586313,0 L43.3790238,0 Z M145.58123,0 C146.816737,0 147.857236,0.895186354 148.055999,2.13375026 L148.077825,2.30472189 L148.085714,2.49450051 L148.085714,28.5912138 C148.085714,29.8247059 147.182881,30.859255 145.942356,31.0562835 L145.771153,31.0778998 L145.58123,31.0857143 L90.1053116,31.0857143 C88.8691598,31.0857143 87.828117,30.1900093 87.6291876,28.9517776 L87.6073413,28.7808566 L87.5994484,28.5912138 L87.5994484,16.9972395 C87.5994484,15.7624072 88.5024299,14.7287647 89.7439885,14.5321017 L89.9153375,14.5105316 L90.1053116,14.5027389 L101.784539,14.5027389 C101.975234,14.5027389 102.136144,14.3781521 102.184314,14.2416691 L102.197813,14.1827766 L102.203309,14.0925832 L102.203309,2.49450051 C102.203309,1.25966821 103.106291,0.226025765 104.347849,0.0293627221 L104.519198,0.00779263297 L104.709172,0 L145.58123,0 Z M43.3790238,1.04285714 L2.50586313,1.04285714 C1.74536282,1.04285714 1.12044256,1.617866 1.04955402,2.3545738 L1.04285714,2.49450051 L1.04285714,28.5912138 C1.04285714,29.3452305 1.62304208,29.9658064 2.36496031,30.0362063 L2.50586313,30.0428571 L57.9815058,30.0428571 L58.1221931,30.0362063 C58.8167984,29.9702064 59.3712129,29.4206534 59.4378015,28.7309264 L59.4445118,28.5912138 L59.4445118,16.9945005 C59.4445118,16.2404838 58.8631054,15.6199079 58.1221931,15.549508 L57.9815058,15.5428571 L46.302278,15.5428571 C45.5417777,15.5428571 44.9180789,14.9678483 44.847334,14.2311405 L44.8406509,14.0912138 L44.8406509,2.49450051 C44.8406509,1.73919484 44.260466,1.11975624 43.5196973,1.04949462 L43.3790238,1.04285714 Z M145.58123,1.04285714 L104.709172,1.04285714 L104.56827,1.04949462 C103.872721,1.11536489 103.319321,1.66391024 103.252863,2.3545738 L103.246166,2.49450051 L103.246166,14.0925832 L103.239483,14.2325236 C103.17316,14.923321 102.620842,15.4729409 101.925428,15.538945 L101.784539,15.5455961 L90.1053116,15.5455961 L89.9644088,15.5522336 C89.2688604,15.6181038 88.7154605,16.1666492 88.6490025,16.8573127 L88.6423056,16.9972395 L88.6423056,28.5912138 L88.6490025,28.7309264 C88.7154605,29.4206534 89.2688604,29.9702064 89.9644088,30.0362063 L90.1053116,30.0428571 L145.58123,30.0428571 L145.721904,30.0362063 C146.416374,29.9702064 146.969707,29.4206534 147.036161,28.7309264 L147.042857,28.5912138 L147.042857,2.49450051 L147.036161,2.3545738 C146.969707,1.66391024 146.416374,1.11536489 145.721904,1.04949462 L145.58123,1.04285714 Z M88.4717365,1.36084719 C89.2241112,1.36084719 89.8930443,1.5691937 90.418995,1.93066312 L90.4184583,1.46739233 L96.9952287,1.46739233 L96.9952287,7.90255883 L90.4184583,7.90255883 L90.4194767,7.43775463 C90.0019627,7.72774416 89.491872,7.91651568 88.909406,7.98091858 L88.6554055,8.00083792 L88.4538108,8.00554334 C87.7295756,8.00554334 87.0467027,7.78347095 86.4912686,7.3899112 L86.4910939,7.90255883 L80.3541905,7.90255883 L80.3538571,4.47585714 L80.1198571,4.47585714 L80.1200544,7.90255883 L76.7450747,7.90255883 L76.7448571,4.48085714 L76.5008571,4.48085714 L76.5015621,7.90255883 L75.2878571,7.90185714 L75.0008571,7.90185714 L73.6941839,7.90255883 L73.2318571,7.29285714 L73.2322057,7.90255883 L69.9303073,7.90255883 L69.9305289,7.35612986 C69.365236,7.75718061 68.6690145,7.99321806 67.9191912,7.99321806 C67.1490547,7.99321806 66.4357389,7.74454254 65.8626871,7.32394905 L65.8638125,7.90296967 L62.1628571,7.90185714 L61.8758571,7.90185714 L60.5691863,7.90255883 L60.1068571,7.29285714 L60.107208,7.90255883 L56.8053097,7.90255883 L56.8064607,7.28441974 C56.2627223,7.73955452 55.4692445,8.00253049 54.4068624,8.00253049 C52.4820388,8.00253049 51.1943709,7.06317984 51.1048498,5.36683615 L51.0998621,5.17524758 L51.0998621,1.46739233 L58.0208571,1.46685714 L58.3068571,1.46685714 L59.6051058,1.46739233 L60.0768571,2.08785714 L60.0774239,1.46739233 L65.8638125,1.46780317 L65.8628397,1.99466407 C66.4212069,1.60263504 67.1244832,1.37591141 67.9191912,1.37591141 C68.6838328,1.37591141 69.3742097,1.59893464 69.9305926,1.98283134 L69.9303073,1.46739233 L71.1458571,1.46685714 L71.4318571,1.46685714 L72.7301035,1.46739233 L73.2018571,2.08785714 L73.2024216,1.46739233 L86.4331803,1.46739233 L86.4331759,1.98142557 C86.9809814,1.58361821 87.6773688,1.36084719 88.4717365,1.36084719 Z M88.4717365,2.40370433 C87.1024952,2.40370433 86.1841522,3.28016825 86.1841522,4.72770319 C86.1841522,5.14990089 86.2840932,5.51594535 86.4528415,5.82267652 L86.500877,5.9053979 C86.8915209,6.54362547 87.5891237,6.90447146 88.2811117,6.95620973 L88.4538108,6.96268619 L88.6433366,6.95733783 C89.5409619,6.90576433 90.134836,6.48508973 90.4194679,5.86437694 L90.4456066,5.80474306 C90.5139617,5.64141754 90.5617326,5.46514091 90.5888251,5.27881405 L90.6090214,5.08924456 L89.4948754,5.08924456 L89.4792713,5.19108805 C89.3950006,5.65809399 89.1447284,6.00405378 88.4896621,6.00405378 C87.8346877,6.00405378 87.3410438,5.5014565 87.3410438,4.74687584 C87.3410438,3.88684562 87.8319299,3.38424834 88.4758731,3.38424834 C89.1940009,3.38424834 89.4112409,3.83996089 89.4515888,4.03210775 L89.4576453,4.06898578 L90.5717912,4.06898578 L90.5606824,3.94493532 C90.4580118,3.16010639 89.7423868,2.40370433 88.4717365,2.40370433 Z M53.4319847,2.51024947 L52.1427193,2.51024947 L52.1427193,5.17524758 C52.1427193,6.31384145 52.889014,6.90464819 54.2137043,6.95600543 L54.4068624,6.95967335 L54.6130272,6.95560616 C56.2728889,6.88854499 56.6278087,6.00511579 56.6725901,5.26821617 L56.6778999,5.08760119 L56.6778999,2.51024947 L55.3913923,2.51024947 L55.3913923,4.85342099 C55.3913923,5.55322265 55.1487071,5.88463557 54.4165146,5.88463557 C53.8438142,5.88463557 53.4825196,5.64246372 53.4368923,5.02673483 L53.4319847,4.88902734 L53.4319847,2.51024947 Z M67.9191912,2.41876855 C66.9809654,2.41876855 66.2772464,2.8306603 65.8900458,3.45294031 C65.6694885,3.80740361 65.5516311,4.230131 65.5516311,4.68388 C65.5516311,5.88342587 66.525477,6.86538453 67.7571367,6.94513187 L67.9191912,6.95036092 L68.0810874,6.94513187 C68.8616161,6.89454879 69.5393749,6.48098265 69.930709,5.87914407 L69.9631199,5.82779729 C70.1687793,5.49202234 70.2867513,5.10111334 70.2867513,4.68388 C70.2867513,3.43354944 69.3270414,2.41876855 67.9191912,2.41876855 Z M64.8209554,2.51066032 L63.5289322,2.51066032 L63.5289322,6.86011253 L64.8209554,6.86011253 L64.8209554,2.51066032 Z M85.3903232,2.51024947 L81.3970477,2.51024947 L81.3970477,6.85970168 L85.4482367,6.85970168 L85.4482367,5.93804509 L82.6863131,5.93804509 L82.6863131,5.05747275 L85.1697002,5.05747275 L85.1697002,4.18511725 L82.6863131,4.18511725 L82.6863131,3.43327554 L85.3903232,3.43327554 L85.3903232,2.51024947 Z M92.7492019,2.51024947 L91.4613154,2.51024947 L91.4613154,6.85970168 L92.7492019,6.85970168 L92.7492019,5.0547338 L94.6575905,5.0547338 L94.6575905,6.85970168 L95.9523715,6.85970168 L95.9523715,2.51024947 L94.6631061,2.51024947 L94.6631061,4.11390456 L92.7492019,4.11390456 L92.7492019,2.51024947 Z M80.6091479,2.51024947 L76.2504656,2.51024947 L76.2504656,3.43875344 L77.7879318,3.43875344 L77.7879318,6.85970168 L79.0771973,6.85970168 L79.0771973,3.43327554 L80.6091479,3.43327554 L80.6091479,2.51024947 Z M72.2127897,2.51024947 L70.9731645,2.51024947 L70.9731645,6.85970168 L72.1893485,6.85970168 L72.1893485,4.19196462 L74.2121853,6.85970168 L75.458705,6.85970168 L75.458705,2.51024947 L74.2452787,2.51024947 L74.2452787,5.18483391 L72.2127897,2.51024947 Z M59.0877921,2.51024947 L57.8481668,2.51024947 L57.8481668,6.85970168 L59.0643509,6.85970168 L59.0643509,4.19196462 L61.0871876,6.85970168 L62.3323284,6.85970168 L62.3323284,2.51024947 L61.1202811,2.51024947 L61.1202811,5.18483391 L59.0877921,2.51024947 Z M67.9191912,3.53215163 C68.6122259,3.53215163 69.0185017,4.13357305 69.0185017,4.74108627 C69.0185017,5.34859949 68.526015,5.84108627 67.9185017,5.84108627 C67.3109885,5.84108627 66.8185017,5.34859949 66.8185017,4.74108627 C66.8185017,4.13357305 67.2261564,3.53215163 67.9191912,3.53215163 Z" id="形状结合" fill-opacity="0.05" fill="#000000"></path>
                <g id="形状结合" fill-rule="nonzero">
                    <use fill="black" fill-opacity="1" filter="url(#filter-2)" xlink:href="#path-1"></use>
                    <use fill-opacity="0" fill="#FFFFFF" xlink:href="#path-1"></use>
                </g>
                <path d="M43.3790238,1.04285714 C44.1856765,1.04285714 44.8406509,1.69198823 44.8406509,2.49450051 L44.8406509,14.0912138 C44.8406509,14.8937261 45.4942464,15.5428571 46.302278,15.5428571 L57.9815058,15.5428571 C58.7881585,15.5428571 59.4445118,16.1933577 59.4445118,16.9945005 L59.4445118,28.5912138 C59.4445118,29.3923566 58.7881585,30.0428571 57.9815058,30.0428571 L2.50586313,30.0428571 C1.69783155,30.0428571 1.04285714,29.3923566 1.04285714,28.5912138 L1.04285714,2.49450051 C1.04285714,1.69198823 1.69783155,1.04285714 2.50586313,1.04285714 L43.3790238,1.04285714 Z M53.4319847,2.51024947 L53.4319847,4.88902734 C53.4319847,5.60663217 53.802907,5.88463557 54.4165146,5.88463557 C55.1487071,5.88463557 55.3913923,5.55322265 55.3913923,4.85342099 L55.3913923,2.51024947 L56.6778999,2.51024947 L56.6778999,5.08760119 C56.6778999,5.88052715 56.3910901,6.95967335 54.4068624,6.95967335 C52.961782,6.95967335 52.1427193,6.3680602 52.1427193,5.17524758 L52.1427193,2.51024947 L53.4319847,2.51024947 Z M59.0877921,2.51024947 L61.1202811,5.18483391 L61.1202811,2.51024947 L62.3323284,2.51024947 L62.3323284,6.85970168 L61.0871876,6.85970168 L59.0643509,4.19196462 L59.0643509,6.85970168 L57.8481668,6.85970168 L57.8481668,2.51024947 L59.0877921,2.51024947 Z M145.58123,1.04285714 C146.387883,1.04285714 147.042857,1.69198823 147.042857,2.49450051 L147.042857,2.49450051 L147.042857,28.5912138 C147.042857,29.3923566 146.387883,30.0428571 145.58123,30.0428571 L145.58123,30.0428571 L90.1053116,30.0428571 C89.29728,30.0428571 88.6423056,29.3923566 88.6423056,28.5912138 L88.6423056,28.5912138 L88.6423056,16.9972395 C88.6423056,16.1947272 89.29728,15.5455961 90.1053116,15.5455961 L90.1053116,15.5455961 L101.784539,15.5455961 C102.592571,15.5455961 103.246166,14.8950955 103.246166,14.0925832 L103.246166,14.0925832 L103.246166,2.49450051 C103.246166,1.69198823 103.901141,1.04285714 104.709172,1.04285714 L104.709172,1.04285714 Z M88.4717365,2.40370433 C89.8092631,2.40370433 90.5318033,3.24182295 90.5717912,4.06898578 L90.5717912,4.06898578 L89.4576453,4.06898578 C89.4397197,3.90738774 89.2452957,3.38424834 88.4758731,3.38424834 C87.8319299,3.38424834 87.3410438,3.88684562 87.3410438,4.74687584 C87.3410438,5.5014565 87.8346877,6.00405378 88.4896621,6.00405378 C89.1915189,6.00405378 89.4286885,5.60690607 89.4948754,5.08924456 L89.4948754,5.08924456 L90.6090214,5.08924456 C90.5345611,6.16839077 89.810642,6.96268619 88.4538108,6.96268619 C87.3589694,6.96268619 86.1841522,6.17523814 86.1841522,4.72770319 C86.1841522,3.28016825 87.1024952,2.40370433 88.4717365,2.40370433 Z M92.7492019,2.51024947 L92.7492019,4.11390456 L94.6631061,4.11390456 L94.6631061,2.51024947 L95.9523715,2.51024947 L95.9523715,6.85970168 L94.6575905,6.85970168 L94.6575905,5.0547338 L92.7492019,5.0547338 L92.7492019,6.85970168 L91.4613154,6.85970168 L91.4613154,2.51024947 L92.7492019,2.51024947 Z M70.9731645,2.51024947 L72.2127897,2.51024947 L74.2452787,5.18483391 L74.2452787,2.51024947 L75.458705,2.51024947 L75.458705,6.85970168 L74.2121853,6.85970168 L72.1893485,4.19196462 L72.1893485,6.85970168 L70.9731645,6.85970168 L70.9731645,2.51024947 Z M63.5289322,6.86011253 L64.8209554,6.86011253 L64.8209554,2.51066032 L63.5289322,2.51066032 L63.5289322,6.86011253 Z M67.9191912,5.84108627 C67.3152358,5.84108627 66.8243497,5.35903111 66.8243497,4.68524947 C66.8243497,4.01009836 67.3152358,3.53215163 67.9191912,3.53215163 C68.5217676,3.53215163 69.0126537,4.01009836 69.0126537,4.68524947 C69.0126537,5.35903111 68.5217676,5.84108627 67.9191912,5.84108627 M67.9191912,2.41876855 C66.4465329,2.41876855 65.5516311,3.43354944 65.5516311,4.68388 C65.5516311,5.93558004 66.6120002,6.95036092 67.9191912,6.95036092 C69.2250033,6.95036092 70.2867513,5.93558004 70.2867513,4.68388 C70.2867513,3.43354944 69.3270414,2.41876855 67.9191912,2.41876855 M76.2504656,2.51024947 L80.6091479,2.51024947 L80.6091479,3.43327554 L79.0771973,3.43327554 L79.0771973,6.85970168 L77.7879318,6.85970168 L77.7879318,3.43875344 L76.2504656,3.43875344 L76.2504656,2.51024947 Z M81.3970477,2.51024947 L85.3903232,2.51024947 L85.3903232,3.43327554 L82.6863131,3.43327554 L82.6863131,4.18511725 L85.1697002,4.18511725 L85.1697002,5.05747275 L82.6863131,5.05747275 L82.6863131,5.93804509 L85.4482367,5.93804509 L85.4482367,6.85970168 L81.3970477,6.85970168 L81.3970477,2.51024947 Z" id="形状结合" fill="url(#linearGradient-3)" fill-rule="nonzero"></path>
            </g>
            <g id="编组" transform="translate(154.912714, 11.835900)" fill-rule="nonzero">
                <path d="M6.22903918,12.5227114 L9.44734428,13.0136393 L9.2465954,14.2513465 L9.20228568,14.4851 L11.7758571,14.4855285 L11.7772693,14.9642157 C12.6273075,14.5190888 13.2796454,13.9488072 13.6971302,13.3389599 L13.815293,13.1549043 L14.1907472,12.5291472 L17.5628716,13.2258672 L17.3182857,13.6151 L19.0092857,13.6151 L19.4868485,13.4750325 L21.1752857,14.5551 L21.4882857,14.5551 L21.4887143,12.6755285 L24.6458571,12.6755285 L24.6454175,13.3163209 L25.3676597,13.2725761 L26.0895124,13.2165294 C26.2090505,13.2062412 26.3280188,13.195499 26.4461405,13.184332 L27.1424959,13.1124679 C27.2561236,13.0997191 27.3683511,13.0866042 27.4789015,13.0731524 L28.119864,12.9886333 C28.530803,12.9299045 28.9060505,12.8667225 29.2278907,12.8009614 L29.4589801,12.7511863 L30.0857227,12.6085132 L31.7042857,14.6201 L31.7552857,14.6351 L31.9782857,14.6351 L31.9787143,12.6655285 L35.2058571,12.6655285 L35.2052857,13.5051 L39.4242857,13.5051 L39.7732783,13.4136692 L41.6355028,14.0017401 L41.5277144,14.8532681 C41.2897456,16.7332218 40.8490626,18.3286306 40.1925575,19.6619014 L40.0239273,19.9897709 L39.9082857,20.1941 L39.9971559,20.2772132 C40.2134147,20.469541 40.4520431,20.6529353 40.7172576,20.8305959 L40.9914904,21.0064637 L41.2843843,21.17922 L42.6594394,21.9584179 L41.3901568,22.9001436 C41.2337992,23.0161509 41.0286749,23.2468405 40.9112982,23.4303429 L40.8524941,23.5334869 L40.3445658,24.5792215 L39.3685129,23.9476578 C38.9008303,23.6450397 38.4783102,23.3322978 38.0945305,23.0030695 L37.8062857,22.7451 L37.5389388,22.9628467 C37.254634,23.1837572 36.9549868,23.3881748 36.6395037,23.5769903 L36.3187237,23.760638 L35.9872768,23.9340822 L35.1015675,24.3769369 L34.9292857,24.0621 L31.9787143,24.0626714 L31.9782857,22.9741 L31.5571308,23.5331492 L31.3090842,22.8624379 C31.2036452,22.9889382 31.0717246,23.1841865 30.9850349,23.3444006 L30.9296189,23.4563708 L30.5976673,24.2151174 L29.7855662,24.0526972 C29.0309487,23.9017737 28.3495464,23.6875884 27.7366241,23.4044546 L27.4358478,23.2571156 L27.3962857,23.2361 L27.26021,23.3017268 C26.791645,23.5138217 26.2877866,23.6919014 25.7502846,23.8377869 L25.3408757,23.9411931 L24.9190051,24.0326972 L24.0010803,24.2162822 L23.8262857,23.6371 L23.7709698,23.67446 C23.3175821,23.9715071 22.8220159,24.06202 22.0413702,24.0640864 L21.8212162,24.0625458 L20.9081403,24.048279 L20.8141741,23.1399391 C20.7983009,22.9864976 20.7284266,22.7147811 20.652903,22.5093867 L20.5959565,22.3706605 L20.4707653,22.103839 C20.2897413,22.6497818 20.0635165,23.0232778 19.7581733,23.2869052 C19.2835778,23.7287699 18.7589827,23.8998336 18.0528031,23.931172 L17.686533,23.9437165 C17.5515858,23.9462494 17.4052231,23.94713 17.2517705,23.9463476 L16.7744686,23.9390005 C16.6928152,23.9369409 16.6104707,23.9344628 16.5279758,23.9315649 L15.3601677,23.8797735 L15.3008482,22.9603217 C15.2986971,22.92698 15.2908778,22.885124 15.27896,22.8394171 L15.2582057,22.7685514 C14.6841392,23.1949841 14.0086326,23.5381428 13.2160589,23.8098759 L12.8691714,23.9219944 L12.5811637,24.0055383 L11.7521714,24.2345417 L11.3800048,23.4591948 C11.3635773,23.4249708 11.3363765,23.377843 11.3024317,23.3236125 L11.1843949,23.1454138 C11.1060755,23.2436047 11.0342686,23.3431937 10.9815387,23.4277385 L10.9356333,23.5066596 L10.4571023,24.4074239 L9.55235796,23.9364611 C9.18068145,23.7429856 8.8359364,23.5164923 8.51561257,23.2573956 L8.27990945,23.0569664 L8.19628568,22.9781 L8.06891142,23.0854871 C7.81244535,23.2903587 7.54008501,23.4792269 7.25060431,23.6525147 L6.95537142,23.8206247 L6.64845249,23.9784417 L5.62736991,24.4768273 L5.2327441,23.4113376 C5.19251564,23.3027207 4.97765552,22.9641104 4.81900291,22.7611935 L4.75512321,22.6836029 L4.63428568,22.5461 L1.75456129,23.1872475 L0.698946017,23.4264103 L0.127899007,20.1360918 L0.808285681,20.0171 L0.808285681,16.4521 L0.518714253,16.4526714 L0.518714253,13.2555285 L6.11428568,13.2551 L6.22903918,12.5227114 Z M39.7472857,14.4841 L39.5572857,14.5341 L35.4372857,14.5341 L35.4372857,15.6841 L35.9472857,15.6841 L35.6472857,15.7441 L35.7197419,16.1465635 C35.9425116,17.3336845 36.2154635,18.3401495 36.5811049,19.2137793 L36.6993006,19.4844231 C36.8302084,19.7717596 36.9723155,20.0443613 37.1272857,20.3041 C36.4672857,21.0641 35.6672857,21.6441 34.7772857,22.0241 C35.0001428,22.2126714 35.2670816,22.5775693 35.4458571,22.8731962 L35.5272857,23.0141 L35.8521294,22.8433968 C36.5980669,22.4316 37.2597857,21.9241 37.8372857,21.2941 C38.3272857,21.8716 38.9091607,22.38785 39.6164068,22.876346 L39.9272857,23.0841 L39.9999029,22.9496468 C40.1888482,22.629725 40.5060357,22.27535 40.7772857,22.0741 C39.8772857,21.5641 39.1772857,21.0041 38.6172857,20.3241 C39.5172857,19.020975 40.1272466,17.3223421 40.4471685,15.1622835 L40.5072857,14.7241 L39.7472857,14.4841 Z M7.08728568,13.6941 C6.88561901,14.9866 6.53270235,16.2286833 5.9977255,17.1738685 L5.84728568,17.4241 L5.84728568,17.1741 L4.70728568,17.1741 L4.70728568,15.4241 L6.12728568,15.4241 L6.12728568,14.2841 L1.54728568,14.2841 L1.54728568,15.4241 L3.54728568,15.4241 L3.54728568,20.5741 L2.90728568,20.6941 L2.90728568,16.6241 L1.83728568,16.6241 L1.83728568,20.8841 L1.31728568,20.9741 L1.52728568,22.1841 L2.34912568,22.00002 L5.22264568,21.36138 L6.21728568,21.1341 L6.11728568,20.0441 L4.70728568,20.3441 L4.70728568,18.2941 L5.84728568,18.2941 L5.84728568,18.2041 L5.97744568,18.31978 C6.10512568,18.43642 6.22344568,18.55378 6.31512568,18.65242 L6.39728568,18.7441 L6.51691531,18.588174 C6.59617457,18.4807666 6.67395235,18.3674333 6.74728568,18.2541 C6.96728568,19.0641 7.22728568,19.7941 7.56728568,20.4541 C7.06728568,21.1041 6.39728568,21.6241 5.52728568,22.0041 C5.71978568,22.22285 6.01181693,22.655975 6.14880912,22.9417171 L6.19728568,23.0541 L6.50396537,22.8952132 C7.00142631,22.6218734 7.43150443,22.3060531 7.80884818,21.9501937 L8.03428568,21.7251 L8.23728568,21.5041 L8.37723211,21.6785344 C8.7726634,22.1539831 9.23374977,22.5643737 9.78529737,22.8898613 L10.0272857,23.0241 L10.1115131,22.8794352 C10.2159189,22.7128486 10.3553902,22.5264979 10.4983043,22.3583302 C10.6147101,22.2213548 10.7334,22.0964428 10.8372857,22.0041 C10.0772857,21.6541 9.45728568,21.1241 8.96728568,20.4641 C9.4854675,19.5186454 9.8300956,18.3831082 10.0612752,17.0274358 L10.1272857,16.6141 L10.7472857,16.6141 L10.7472857,15.5141 L7.89728568,15.5141 L8.00572318,15.1130062 C8.07509818,14.8433187 8.13822318,14.5692562 8.19259818,14.2920687 L8.26728568,13.8741 L7.08728568,13.6941 Z M29.3772857,18.5641 L29.1872857,18.6041 L25.1072857,18.6041 L25.1072857,19.5741 L25.9072857,19.5741 L25.3572857,19.7341 L25.4907551,19.994858 C25.6291224,20.2506014 25.7821836,20.4911262 25.9499387,20.714858 L26.0324439,20.8211809 C26.1772223,21.0051883 26.3320956,21.1760921 26.4972857,21.3341 C26.0501502,21.5379411 25.564101,21.6985448 25.0419811,21.8215972 L24.6439988,21.9079852 L24.1972857,21.9841 C24.2934529,22.0995007 24.3965563,22.2750143 24.4876967,22.4595021 L24.5850496,22.6701401 C24.6221475,22.7561179 24.6550688,22.8398264 24.6818839,22.9160441 L24.7172857,23.0241 L25.088438,22.9438851 C25.8228521,22.7729085 26.5087505,22.5379476 27.1250396,22.226346 L27.4272857,22.0641 L27.5947893,22.1684775 C28.1854754,22.5223921 28.8678924,22.7860899 29.6473002,22.970091 L29.9872857,23.0441 L30.0575772,22.8983565 C30.2172857,22.5920591 30.483,22.2112428 30.6972857,22.0141 C29.8372857,21.8941 29.0872857,21.6741 28.4372857,21.3641 C28.9864321,20.8901791 29.4450364,20.3030805 29.7833002,19.5857767 L29.869442,19.3941751 L29.9789085,19.1199978 L30.0772857,18.8341 L29.3772857,18.5641 Z M23.6172857,13.7041 L22.5172857,13.7041 L22.5172857,15.5841 L21.4472857,15.5841 L21.4472857,16.6841 L22.5172857,16.6841 L22.5172857,18.4241 L22.0019257,18.5585 L21.5384057,18.6737 L21.3272857,18.7241 L21.5872857,19.8541 L22.5172857,19.5941 L22.5172857,21.7741 L22.5137672,21.8318314 C22.5041375,21.899424 22.4737672,21.9307203 22.4108042,21.9405351 L22.3023443,21.9473617 L22.0360357,21.95035 L21.7961919,21.9455062 L21.5272857,21.9341 C21.6772857,22.2541 21.8072857,22.7441 21.8372857,23.0341 L22.0432802,23.0354443 L22.2348714,23.0322618 C22.6654338,23.0189148 22.9817301,22.9618777 23.2072857,22.8141 C23.287233,22.7651 23.3532134,22.7087839 23.4071135,22.6427504 L23.4325557,22.60962 C23.5488957,22.44846 23.6015157,22.23258 23.6141757,21.93174 L23.6172857,21.7741 L23.6172857,19.2741 L24.0972857,19.13285 L24.5772857,18.9841 L24.4172857,17.9041 L23.6172857,18.1341 L23.6172857,16.6841 L24.4772857,16.6841 L24.4772857,15.5841 L23.6172857,15.5841 L23.6172857,13.7041 Z M34.1772857,13.6941 L33.0072857,13.6941 L33.0072857,15.6641 L31.5172857,15.6641 L31.5172857,16.7641 L32.7872857,16.7641 L32.7105356,17.0506088 C32.5696079,17.5478997 32.3843518,18.0625576 32.1704506,18.5456505 L32.0102365,18.8903651 C31.7650162,19.3929399 31.4907629,19.8447863 31.2072857,20.1841 C31.4172857,20.5041 31.7372857,21.0641 31.8672857,21.4141 L31.9385768,21.3165417 L32.0410321,21.1655831 C32.35726,20.6799691 32.6483143,20.0500855 32.9012542,19.3622051 L33.0072857,19.0641 L33.0072857,23.0341 L34.1772857,23.0341 L34.1772857,18.5641 L34.6089826,19.1239062 L34.862377,19.4674131 C34.9417011,19.5775825 35.0148563,19.682244 35.0787583,19.7778725 L35.1672857,19.9141 L35.8472857,18.8241 L35.5600296,18.5380174 L35.0855219,18.0816594 L34.7411237,17.7580603 L34.4241337,17.468155 C34.3759602,17.4249873 34.3307092,17.3849801 34.2892711,17.3490115 L34.1772857,17.2541 L34.1772857,16.7641 L35.3372857,16.7641 L35.3372857,15.6641 L34.1772857,15.6641 L34.1772857,13.6941 Z M15.2672857,18.3841 C15.240619,18.5907666 15.2050635,18.7796555 15.1665449,18.9626185 L15.1072857,19.2341 L12.2772857,19.2341 L12.2772857,20.2441 L14.6672857,20.2441 L14.5534917,20.4174618 C13.9592779,21.2606625 12.9860357,21.75285 11.6172857,22.0341 C11.8058571,22.2312428 12.0899387,22.626753 12.242825,22.893167 L12.3072857,23.0141 L12.5878587,22.9325268 C14.1483194,22.4551191 15.2099085,21.7152138 15.8657432,20.4692742 L15.9772857,20.2441 L18.6472857,20.2441 L18.6119739,20.4530895 C18.4679957,21.2575319 18.2919011,21.6864076 18.1072857,21.8341 C18.0032857,21.9141 17.8928857,21.9365 17.7453657,21.94226 L17.2571157,21.94032 L16.7395257,21.92466 L16.3517657,21.90442 C16.2200857,21.8961 16.0872857,21.8861 15.9572857,21.8741 C16.1572857,22.1541 16.3072857,22.5841 16.3272857,22.8941 C16.5472857,22.9041 16.7650635,22.9107666 16.9713598,22.9144703 L17.480313,22.9176351 L17.7909431,22.912387 L17.9972857,22.9041 C18.4472857,22.8841 18.7672857,22.8041 19.0572857,22.5341 C19.3245079,22.3029888 19.5291375,21.8215074 19.7050789,20.9314353 L19.784369,20.4910444 L19.8603258,19.989172 C19.8727486,19.9002111 19.8850635,19.8085444 19.8972857,19.7141 L19.9157644,19.5976069 L19.9572857,19.2341 L16.3272857,19.2341 L16.3913598,18.9929888 L16.4288632,18.8289559 L16.4972857,18.4841 L15.2672857,18.3841 Z M10.8117565,18.463942 L10.7437364,18.7277959 C10.6462453,19.0870757 10.5377922,19.4275276 10.4173549,19.7509796 L10.2928851,20.0688327 L10.1872857,20.3091 L10.2841716,20.4051528 C10.4601867,20.5706294 10.6485603,20.7167525 10.8493578,20.843216 L11.0542989,20.9631149 L11.2482857,21.0591 L11.2482857,19.8201 L11.2335965,19.8221963 L11.003444,18.9591244 C10.9676941,18.8250623 10.8906684,18.6297756 10.8117565,18.463942 Z M28.5972857,19.5741 C28.3172857,20.0541 27.9372857,20.4441 27.4672857,20.7841 C27.0372857,20.4441 26.6772857,20.0441 26.4172857,19.5741 L28.5972857,19.5741 Z M39.2172857,15.6841 C38.9472857,17.0741 38.5072857,18.2741 37.8872857,19.2641 C37.3772857,18.3041 37.0272857,17.1441 36.7572857,15.6841 L39.2172857,15.6841 Z M8.92728568,16.6141 C8.79728568,17.6341 8.58728568,18.5041 8.25728568,19.2641 C7.92728568,18.5041 7.66728568,17.6541 7.49728568,16.7441 L7.54728568,16.6141 L8.92728568,16.6141 Z M14.6972857,13.6841 C14.1872857,14.5341 13.2572857,15.4341 11.8472857,16.0741 C12.0358571,16.2369571 12.3052449,16.5908346 12.4665277,16.8649454 L12.5372857,16.9941 L12.8432232,16.8314437 C13.1404107,16.6641 13.4122857,16.4841 13.6672857,16.3041 C13.9232857,16.5601 14.1920857,16.7905 14.4890457,16.99018 L14.7172857,17.1341 L14.2939732,17.2376375 C13.4133159,17.4399527 12.4753008,17.5766492 11.5372857,17.6541 C11.7172857,17.9241 11.9172857,18.3941 11.9972857,18.6941 C13.4072857,18.5241 14.8172857,18.2441 16.0972857,17.8041 C17.2272857,18.2241 18.5872857,18.4641 20.1172857,18.5741 C20.2672857,18.2641 20.5372857,17.7941 20.7772857,17.5341 C19.6172857,17.4841 18.5372857,17.3641 17.5872857,17.1541 C18.5236493,16.6722818 19.3195171,16.0664966 19.9072707,15.306692 L20.0772857,15.0741 L19.3272857,14.5941 L19.1572857,14.6441 L15.4172857,14.6441 L15.5909894,14.411137 L15.753582,14.1737296 L15.9072857,13.9341 L14.6972857,13.6841 Z M29.3072857,14.9941 C29.1615714,15.4569571 28.905653,16.0594061 28.6528833,16.5495519 L28.5272857,16.7841 L25.7272857,16.7841 L26.2136321,16.6126403 L26.4772857,16.5141 L26.4257696,16.3582399 C26.3303294,16.09403 26.1764495,15.7653349 26.0221666,15.4688825 L25.9072857,15.2541 L25.0072857,15.5541 L25.1075172,15.75285 C25.2406653,16.02785 25.3686283,16.3361833 25.4528875,16.59785 L25.5072857,16.7841 L24.5872857,16.7841 L24.5872857,18.4041 L25.6372857,18.4041 L25.6372857,17.7541 L29.5372857,17.7541 L29.5372857,18.4141 L30.6372857,18.4141 L30.6372857,16.7841 L29.5972857,16.7841 L29.7997857,16.4405062 L29.9114545,16.2412675 L30.4072857,15.3141 L29.3072857,14.9941 Z M18.1372857,15.6341 C17.5872857,16.0741 16.8872857,16.4241 16.0872857,16.7241 C15.3972857,16.4541 14.8472857,16.1141 14.4372857,15.6941 L14.5072857,15.6341 L18.1372857,15.6341 Z M27.8372857,15.1241 L26.9172857,15.3341 L26.981309,15.5259075 C27.0871399,15.856374 27.186411,16.23203 27.2463236,16.5216801 L27.2772857,16.6841 L28.2472857,16.4241 L28.2044153,16.2389148 C28.1373783,15.9737296 28.0333042,15.6433592 27.9218227,15.3426185 L27.8372857,15.1241 Z M29.6872857,13.7541 L29.4829684,13.7985726 L29.0374352,13.8841601 C28.9594058,13.8980301 28.879598,13.9116956 28.7981749,13.9251459 L28.4642536,13.9777734 L27.8891011,14.0582303 L27.7539912,14.0755285 C26.7754489,14.1987938 25.6872857,14.2926714 24.6872857,14.3441 C24.7972857,14.5841 24.9372857,14.9741 24.9572857,15.2341 C26.598119,15.1607666 28.5246468,14.9950027 29.9974246,14.7059981 L30.3872857,14.6241 L29.6872857,13.7541 Z M40.2501064,0 L42.0519569,2.83927968 L41.1692857,3.03509996 L41.3653068,3.08568407 L41.2688479,3.974121 C41.1370194,5.18833082 40.8926355,6.26098471 40.5326903,7.19613149 L40.3922881,7.54037379 L40.3062857,7.72809996 L40.4017306,7.81804901 C40.4831646,7.88965869 40.5663085,7.95619961 40.6509717,8.01750357 L40.7790822,8.10551074 L40.9752083,8.22251651 L42.3283463,8.95843371 L41.1300753,9.92626803 C41.0170278,10.0175756 40.8178883,10.2491515 40.6770781,10.4503695 L40.600747,10.5660924 L40.0473144,11.4690612 L39.1609006,10.889483 C38.9935304,10.7800486 38.8312332,10.66147 38.6743654,10.5342961 L38.4431805,10.3371573 L38.3792857,10.2771 L38.2654884,10.3714938 C38.1502996,10.4613889 38.0317234,10.547715 37.9098797,10.6304193 L37.7246786,10.7517527 L37.4378843,10.9234799 L36.5234562,11.4416559 L36.4162857,11.2421 L36.1305339,11.7029112 L35.3822857,10.9901 L34.8382857,10.9901 L34.643717,11.0919976 L34.6762857,10.9901 L32.9762143,10.9906714 L32.9752857,10.9591 L32.4677268,11.8279621 L31.5302965,10.693178 C31.5052017,10.6628001 31.4696262,10.6250277 31.427833,10.5836306 L27.3232857,10.5821 L27.2952143,10.6383222 L27.2942857,10.5821 L21.2627143,10.5821714 L21.2622857,8.75609996 L19.4887044,11.4308716 L18.6517854,10.9480337 C17.8403089,10.4798742 16.0875824,9.80621187 14.652461,9.39974158 L12.9476015,8.9440324 L13.7222857,7.83609996 L12.9472943,7.83667138 L13.4989698,6.31790196 L13.6132857,5.98409996 L12.8818617,5.98572334 C12.7791247,8.62967374 11.5492023,10.3256714 9.48528568,10.3256714 C8.5608827,10.3256714 7.8021796,9.9851982 7.23683123,9.37199069 L7.23635711,10.1926714 L0.467214253,10.1926714 L0.467214253,7.89698407 L0.809605312,7.59036521 L1.25561372,7.18397978 C1.32636742,7.11830095 1.39534104,7.05364265 1.46255021,6.98999664 L1.84475699,6.62020188 L2.18536781,6.27430564 C2.23871165,6.21862579 2.29035362,6.16392521 2.34030934,6.11019564 L2.61993388,5.79940426 C3.18248695,5.150983 3.46535158,4.66387207 3.50289064,4.31993641 L3.50721425,4.24309996 C3.50721425,4.19454936 3.51158446,4.16464575 3.51597423,4.14669702 L3.52485161,4.12202337 L3.50774256,4.12892636 L3.48128568,4.13167138 C3.39356449,4.13167138 3.25130443,4.21263658 3.03899489,4.42505477 L2.94367113,4.52428647 L2.21742927,5.30786321 L0,3.09043394 L0.67665778,2.36402191 C1.55428222,1.42186626 2.44998194,0.972528527 3.66178568,0.972528527 C5.0519615,0.972528527 6.14655548,1.67852737 6.63160756,2.79690861 C7.19444735,1.63751824 8.17149083,0.972528527 9.48528568,0.972528527 C10.8137549,0.972528527 11.7954665,1.65560141 12.3545067,2.84253936 L12.5412857,2.84309996 L12.5417143,0.963028527 L15.0212857,0.962099956 L15.2240853,0.0985285271 L18.533486,0.0985285271 L18.3312857,0.962099956 L21.5718571,0.963028527 L21.5712857,2.58909996 L23.7132857,1.96009996 L23.7137143,0.212528527 L29.3523571,0.212528527 L29.3522857,1.84409996 L31.1232857,2.68809996 L31.1237143,0.336028527 L32.8042857,0.335099956 L32.8052143,0.0890285271 L35.8788571,0.0890285271 L35.8784472,0.651630832 L35.9274741,0.648037124 L36.7796257,0.574545338 L37.1298387,0.538290188 L37.80994,0.457195877 L38.4493953,0.366259831 C38.7562523,0.318652096 39.0417711,0.268075338 39.2968078,0.215611995 L39.5413453,0.16255988 L40.2501064,0 Z M39.7712857,1.16509996 C38.829922,1.38100905 37.4724427,1.55766194 36.1913345,1.65937118 L35.8097857,1.68759996 L35.8084909,5.14798129 L35.7953457,5.74493596 C35.7512657,6.98403996 35.5855857,8.45539996 35.0307857,9.45859996 C35.2967857,9.59159996 35.7242857,9.89559996 35.9237857,10.0856 C36.0947857,9.81009996 36.2277857,9.51559996 36.3417857,9.18309996 C36.5089857,9.37309996 36.7005057,9.64213996 36.8385217,9.86861996 L36.9307857,10.0286 L37.1709446,9.88493669 C37.5485073,9.64669996 37.8935251,9.36826077 38.199872,9.04961914 L38.4222857,8.80309996 L38.6130334,9.03967634 C38.8746352,9.34737079 39.1650889,9.62339857 39.4815797,9.85931523 L39.7237857,10.0286 L39.8097565,9.89634777 C39.9975408,9.62165098 40.2720714,9.29709996 40.4837857,9.12609996 C39.9422857,8.83159996 39.4672857,8.40409996 39.0682857,7.89109996 C39.5359327,7.08199638 39.8817787,6.0930913 40.0967598,4.90625688 L40.1475324,4.60693655 L40.2007618,4.24086873 L40.2462857,3.86309996 L39.5717857,3.69209996 L39.3912857,3.73009996 L36.8832857,3.73009996 L36.8832857,2.59959996 L37.3386363,2.56794566 C38.2538648,2.49825425 39.1884644,2.38982066 40.0021617,2.23462925 L40.3982857,2.15309996 L39.7712857,1.16509996 Z M17.2372857,1.12709996 L16.0402857,1.12709996 L15.9072857,1.69569255 L15.8407857,1.99159996 L13.5702857,1.99159996 L13.5702857,3.06509996 L15.5557857,3.06509996 L15.4500982,3.46884996 L15.3372857,3.87259996 L12.7817857,3.87259996 L12.7817857,4.95559996 L15.0237857,4.95559996 L14.8154894,5.62376662 L14.6114153,6.24759996 L14.4157857,6.80809996 L18.6242857,6.80809996 L18.2045264,7.2243407 C17.918119,7.50582218 17.6204523,7.79293329 17.3227857,8.07159996 C16.7451857,7.88159996 16.1554257,7.70983996 15.6216017,7.57091196 L15.2327857,7.47309996 L14.6342857,8.32809996 L14.9412328,8.41255003 C16.3054857,8.79991959 17.9999075,9.43335391 18.9694957,9.94862588 L19.1657857,10.0571 L19.8212857,9.06909996 L19.6403459,8.97735459 C19.4498181,8.88420181 19.231582,8.7870907 18.9951375,8.68839625 L18.5007857,8.48959996 L19.1868906,7.8146845 L19.857707,7.14309267 L20.4839868,6.50141337 L20.7712857,6.20009996 L19.8972857,5.69659996 L19.7167857,5.75359996 L16.0022857,5.75359996 L16.0740635,5.49393329 L16.2302857,4.95559996 L21.2177857,4.95559996 L21.2177857,3.87259996 L16.5342857,3.87259996 L16.7527857,3.06509996 L20.5432857,3.06509996 L20.5432857,1.99159996 L17.0187857,1.99159996 L17.1315982,1.55578746 L17.2372857,1.12709996 Z M34.8502857,1.11759996 L33.8337857,1.11759996 L33.8337857,3.61609996 L33.1877857,3.61609996 L33.1877857,1.36459996 L32.1522857,1.36459996 L32.1511155,5.32549063 C32.1403137,6.62692138 32.0464285,8.2677071 31.5347857,9.33509996 C31.7302143,9.46538567 32.0373163,9.72828363 32.234739,9.93833611 L32.3232857,10.0381 L32.4476708,9.80773595 C32.8378586,9.02474793 33.0302964,8.02299569 33.1156691,7.00518637 L33.1402857,6.66559996 L34.0047857,6.66559996 L34.0047857,9.96209996 L35.0307857,9.96209996 L35.0307857,5.66809996 L33.1782857,5.66809996 L33.1849709,5.45030366 L33.1874338,5.23672959 L33.1877857,4.61359996 L35.5057857,4.61359996 L35.5057857,3.61609996 L34.8502857,3.61609996 L34.8502857,1.11759996 Z M25.9107857,1.24109996 L24.7422857,1.24109996 L24.7422857,8.42309996 L22.2912857,8.42309996 L22.2912857,9.55359996 L30.7842857,9.55359996 L30.7842857,8.42309996 L28.3237857,8.42309996 L28.3237857,6.63709996 L29.1882857,7.07409996 L29.3393357,6.78824496 C29.7425751,6.00720246 30.1929463,4.99639207 30.5512631,4.03418642 L30.6987857,3.62559996 L29.6822857,3.14109996 L29.5808922,3.47326746 C29.2918642,4.37652746 28.8611722,5.40442746 28.4687842,6.19216746 L28.3237857,6.47559996 L28.3237857,1.24109996 L27.1552857,1.24109996 L27.1552857,8.42309996 L25.9107857,8.42309996 L25.9107857,1.24109996 Z M9.48528568,2.00109996 C8.05078568,2.00109996 7.10078568,3.18859996 7.10078568,5.62059996 C7.10078568,6.01634966 7.12613914,6.38091461 7.17481656,6.71392204 L7.21866062,6.97340634 C7.50053501,8.43522654 8.26946785,9.22028592 9.32485438,9.29173869 L9.48528568,9.29709996 L9.63190174,9.29263022 C10.9114238,9.21367707 11.7653891,8.08957855 11.8528611,5.98562037 L11.8569491,5.86703165 L11.8602857,5.62059996 C11.8602857,3.19809996 10.9197857,2.00109996 9.48528568,2.00109996 Z M3.66178568,2.00109996 C2.77609337,2.00109996 2.17371468,2.31679226 1.57818532,2.91081684 L1.42928568,3.06509996 L2.18928568,3.82509996 L2.29933368,3.71023546 C2.63483568,3.37242496 3.01958568,3.10309996 3.48128568,3.10309996 C4.15578568,3.10309996 4.53578568,3.53059996 4.53578568,4.24309996 C4.53578568,5.10047496 3.82726051,6.10669978 2.58461254,7.33719168 L2.17464603,7.73331089 C2.10342696,7.80060256 2.03077917,7.86853746 1.9567281,7.93712658 L1.49578568,8.35659996 L1.49578568,9.16409996 L6.20778568,9.16409996 L6.20778568,7.98609996 L4.68778568,7.98609996 L4.47430168,7.99035596 C4.32397368,7.99582796 4.16026968,8.00616396 3.99899768,8.01893196 L3.53828568,8.06209996 C4.82078568,6.80809996 5.87528568,5.44009996 5.87528568,4.16709996 C5.87528568,2.85609996 4.99178568,2.00109996 3.66178568,2.00109996 Z M36.8832857,5.23109996 C37.1207857,6.18109996 37.4152857,7.05509996 37.8142857,7.81509996 L37.7680148,7.87249872 L37.767,7.871 L37.6356414,8.02902998 C37.2710408,8.44481424 36.8615714,8.78681424 36.3892857,9.03109996 C36.7692857,7.85309996 36.8642857,6.42809996 36.8832857,5.23109996 Z M22.2445439,6.13895308 L21.309189,7.12702399 L20.8503754,7.60072684 L20.2982857,8.15809996 L21.2622857,8.66709996 L21.2627143,7.39452853 L22.5752857,7.39409996 L22.5404742,7.23690246 C22.515009,7.12048982 22.4832272,6.98994671 22.4459925,6.847839 L22.3187933,6.38938795 C22.2951548,6.30805243 22.270369,6.22446723 22.2445439,6.13895308 Z M9.48528568,3.08409996 C10.0932857,3.08409996 10.5397857,3.65409996 10.5397857,5.62059996 C10.5397857,7.59659996 10.0932857,8.20459996 9.48528568,8.20459996 C8.87728568,8.20459996 8.42128568,7.59659996 8.42128568,5.62059996 C8.42128568,3.65409996 8.87728568,3.08409996 9.48528568,3.08409996 Z M31.1217737,5.38405568 L31.018226,5.63021682 C30.778148,6.18920342 30.5229722,6.73490919 30.2760139,7.21604633 L30.1812857,7.39409996 L30.9983153,7.39627828 C31.0607927,6.92946352 31.0979957,6.39403806 31.1141544,5.78977398 L31.1217737,5.38405568 Z M23.4407857,3.11259996 L22.4052857,3.41659996 L22.5157067,3.71549261 L22.7397154,4.34388902 L22.9593699,4.9908896 C23.0307188,5.20669573 23.0996268,5.42116043 23.1643786,5.62984156 L23.3444497,6.23409214 C23.3991737,6.42676402 23.4480261,6.6092102 23.4892918,6.77698856 L23.5452857,7.01709996 L24.6757857,6.61809996 L24.6035543,6.35808831 C24.4565616,5.85223849 24.2392955,5.21861878 24.0056054,4.58206182 L23.72074,3.82477289 C23.6730973,3.70098619 23.6256592,3.57907932 23.5788566,3.46005094 L23.4407857,3.11259996 Z M39.0777857,4.75609996 C38.951119,5.39734996 38.7716746,5.9924194 38.54495,6.52481523 L38.4462481,6.74124756 L38.4462481,6.74124756 L38.4032857,6.83659996 L38.4032857,6.83659996 C38.0897857,6.20009996 37.8332857,5.49709996 37.6527857,4.75609996 L39.0777857,4.75609996 Z" id="描边" fill-opacity="0.05" fill="#000000"></path>
                <g id="投影">
                    <use fill="black" fill-opacity="1" filter="url(#filter-5)" xlink:href="#path-4"></use>
                    <use fill-opacity="0" fill="#FFFFFF" xlink:href="#path-4"></use>
                </g>
                <path d="M7.54728568,16.6141 L8.92728568,16.6141 C8.79728568,17.6341 8.58728568,18.5041 8.25728568,19.2641 C7.92728568,18.5041 7.66728568,17.6541 7.49728568,16.7441 L7.54728568,16.6141 Z M10.7472857,16.6141 L10.7472857,15.5141 L7.89728568,15.5141 C8.04728568,14.9841 8.17728568,14.4341 8.26728568,13.8741 L7.08728568,13.6941 C6.86728568,15.1041 6.46728568,16.4541 5.84728568,17.4241 L5.84728568,17.1741 L4.70728568,17.1741 L4.70728568,15.4241 L6.12728568,15.4241 L6.12728568,14.2841 L1.54728568,14.2841 L1.54728568,15.4241 L3.54728568,15.4241 L3.54728568,20.5741 L2.90728568,20.6941 L2.90728568,16.6241 L1.83728568,16.6241 L1.83728568,20.8841 L1.31728568,20.9741 L1.52728568,22.1841 C2.80728568,21.8941 4.57728568,21.5141 6.21728568,21.1341 L6.11728568,20.0441 C5.64728568,20.1441 5.17728568,20.2441 4.70728568,20.3441 L4.70728568,18.2941 L5.84728568,18.2941 L5.84728568,18.2041 C6.06728568,18.3941 6.27728568,18.6041 6.39728568,18.7441 C6.51728568,18.5941 6.63728568,18.4241 6.74728568,18.2541 C6.96728568,19.0641 7.22728568,19.7941 7.56728568,20.4541 C7.06728568,21.1041 6.39728568,21.6241 5.52728568,22.0041 C5.74728568,22.2541 6.09728568,22.7841 6.19728568,23.0541 C7.03728568,22.6441 7.69728568,22.1241 8.23728568,21.5041 C8.71728568,22.1241 9.29728568,22.6441 10.0272857,23.0241 C10.1972857,22.7041 10.5672857,22.2441 10.8372857,22.0041 C10.0772857,21.6541 9.45728568,21.1241 8.96728568,20.4641 C9.53728568,19.4241 9.89728568,18.1541 10.1272857,16.6141 L10.7472857,16.6141 Z M16.3272857,19.2341 C16.3972857,18.9941 16.4472857,18.7541 16.4972857,18.4841 L15.2672857,18.3841 C15.2272857,18.6941 15.1672857,18.9641 15.1072857,19.2341 L12.2772857,19.2341 L12.2772857,20.2441 L14.6672857,20.2441 C14.0872857,21.1941 13.0772857,21.7341 11.6172857,22.0341 C11.8372857,22.2641 12.1872857,22.7641 12.3072857,23.0141 C14.1172857,22.5141 15.2972857,21.7041 15.9772857,20.2441 L18.6472857,20.2441 C18.4972857,21.1841 18.3072857,21.6741 18.1072857,21.8341 C17.9772857,21.9341 17.8372857,21.9441 17.6272857,21.9441 C17.3272857,21.9441 16.6072857,21.9341 15.9572857,21.8741 C16.1572857,22.1541 16.3072857,22.5841 16.3272857,22.8941 C16.9872857,22.9241 17.6272857,22.9241 17.9972857,22.9041 C18.4472857,22.8841 18.7672857,22.8041 19.0572857,22.5341 C19.4272857,22.2141 19.6772857,21.4141 19.8972857,19.7141 C19.9272857,19.5541 19.9572857,19.2341 19.9572857,19.2341 L16.3272857,19.2341 Z M14.5072857,15.6341 L18.1372857,15.6341 C17.5872857,16.0741 16.8872857,16.4241 16.0872857,16.7241 C15.3972857,16.4541 14.8472857,16.1141 14.4372857,15.6941 L14.5072857,15.6341 Z M19.3272857,14.5941 L19.1572857,14.6441 L15.4172857,14.6441 C15.5972857,14.4141 15.7572857,14.1741 15.9072857,13.9341 L14.6972857,13.6841 C14.1872857,14.5341 13.2572857,15.4341 11.8472857,16.0741 C12.0672857,16.2641 12.3972857,16.7141 12.5372857,16.9941 C12.9572857,16.7841 13.3272857,16.5441 13.6672857,16.3041 C13.9872857,16.6241 14.3272857,16.9041 14.7172857,17.1341 C13.7172857,17.3941 12.6272857,17.5641 11.5372857,17.6541 C11.7172857,17.9241 11.9172857,18.3941 11.9972857,18.6941 C13.4072857,18.5241 14.8172857,18.2441 16.0972857,17.8041 C17.2272857,18.2241 18.5872857,18.4641 20.1172857,18.5741 C20.2672857,18.2641 20.5372857,17.7941 20.7772857,17.5341 C19.6172857,17.4841 18.5372857,17.3641 17.5872857,17.1541 C18.6172857,16.6241 19.4772857,15.9441 20.0772857,15.0741 L19.3272857,14.5941 Z M29.6872857,13.7541 C28.4572857,14.0341 26.4372857,14.2541 24.6872857,14.3441 C24.7972857,14.5841 24.9372857,14.9741 24.9572857,15.2341 C26.7472857,15.1541 28.8772857,14.9641 30.3872857,14.6241 L29.6872857,13.7541 Z M28.2472857,16.4241 C28.1772857,16.0841 28.0072857,15.5441 27.8372857,15.1241 L26.9172857,15.3341 C27.0672857,15.7641 27.2172857,16.3341 27.2772857,16.6841 L28.2472857,16.4241 Z M25.6372857,17.7541 L29.5372857,17.7541 L29.5372857,18.4141 L30.6372857,18.4141 L30.6372857,16.7841 L29.5972857,16.7841 C29.8672857,16.3441 30.1372857,15.8241 30.4072857,15.3141 L29.3072857,14.9941 C29.1372857,15.5341 28.8172857,16.2641 28.5272857,16.7841 L25.7272857,16.7841 L26.4772857,16.5141 C26.3772857,16.1741 26.1272857,15.6541 25.9072857,15.2541 L25.0072857,15.5541 C25.2072857,15.9341 25.4172857,16.4341 25.5072857,16.7841 L24.5872857,16.7841 L24.5872857,18.4041 L25.6372857,18.4041 L25.6372857,17.7541 Z M24.4172857,17.9041 L23.6172857,18.1341 L23.6172857,16.6841 L24.4772857,16.6841 L24.4772857,15.5841 L23.6172857,15.5841 L23.6172857,13.7041 L22.5172857,13.7041 L22.5172857,15.5841 L21.4472857,15.5841 L21.4472857,16.6841 L22.5172857,16.6841 L22.5172857,18.4241 C22.0672857,18.5441 21.6672857,18.6441 21.3272857,18.7241 L21.5872857,19.8541 L22.5172857,19.5941 L22.5172857,21.7741 C22.5172857,21.9041 22.4772857,21.9441 22.3572857,21.9441 C22.2372857,21.9541 21.8972857,21.9541 21.5272857,21.9341 C21.6772857,22.2541 21.8072857,22.7441 21.8372857,23.0341 C22.4772857,23.0441 22.9172857,23.0041 23.2072857,22.8141 C23.5172857,22.6241 23.6172857,22.3241 23.6172857,21.7741 L23.6172857,19.2741 C23.9372857,19.1841 24.2572857,19.0841 24.5772857,18.9841 L24.4172857,17.9041 Z M28.5972857,19.5741 C28.3172857,20.0541 27.9372857,20.4441 27.4672857,20.7841 C27.0372857,20.4441 26.6772857,20.0441 26.4172857,19.5741 L28.5972857,19.5741 Z M29.3772857,18.5641 L29.1872857,18.6041 L25.1072857,18.6041 L25.1072857,19.5741 L25.9072857,19.5741 L25.3572857,19.7341 C25.6572857,20.3541 26.0372857,20.8941 26.4972857,21.3341 C25.8172857,21.6441 25.0472857,21.8541 24.1972857,21.9841 C24.3972857,22.2241 24.6272857,22.7241 24.7172857,23.0241 C25.7172857,22.8241 26.6372857,22.5141 27.4272857,22.0641 C28.1372857,22.5241 28.9872857,22.8441 29.9872857,23.0441 C30.1272857,22.7241 30.4472857,22.2441 30.6972857,22.0141 C29.8372857,21.8941 29.0872857,21.6741 28.4372857,21.3641 C29.1672857,20.7341 29.7372857,19.9041 30.0772857,18.8341 L29.3772857,18.5641 Z M35.8472857,18.8241 C35.6172857,18.5841 34.5672857,17.5741 34.1772857,17.2541 L34.1772857,16.7641 L35.3372857,16.7641 L35.3372857,15.6641 L34.1772857,15.6641 L34.1772857,13.6941 L33.0072857,13.6941 L33.0072857,15.6641 L31.5172857,15.6641 L31.5172857,16.7641 L32.7872857,16.7641 C32.4772857,17.9941 31.8672857,19.3941 31.2072857,20.1841 C31.4172857,20.5041 31.7372857,21.0641 31.8672857,21.4141 C32.2972857,20.8441 32.6872857,19.9941 33.0072857,19.0641 L33.0072857,23.0341 L34.1772857,23.0341 L34.1772857,18.5641 C34.5472857,19.0341 34.9472857,19.5641 35.1672857,19.9141 L35.8472857,18.8241 Z M39.2172857,15.6841 C38.9472857,17.0741 38.5072857,18.2741 37.8872857,19.2641 C37.3772857,18.3041 37.0272857,17.1441 36.7572857,15.6841 L39.2172857,15.6841 Z M39.7472857,14.4841 L39.5572857,14.5341 L35.4372857,14.5341 L35.4372857,15.6841 L35.9472857,15.6841 L35.6472857,15.7441 C35.9772857,17.6541 36.4172857,19.1141 37.1272857,20.3041 C36.4672857,21.0641 35.6672857,21.6441 34.7772857,22.0241 C35.0372857,22.2441 35.3572857,22.7041 35.5272857,23.0141 C36.4072857,22.5741 37.1772857,22.0141 37.8372857,21.2941 C38.3972857,21.9541 39.0772857,22.5341 39.9272857,23.0841 C40.0972857,22.7341 40.4672857,22.3041 40.7772857,22.0741 C39.8772857,21.5641 39.1772857,21.0041 38.6172857,20.3241 C39.5772857,18.9341 40.2072857,17.0941 40.5072857,14.7241 L39.7472857,14.4841 Z M1.49578568,9.16409996 L6.20778568,9.16409996 L6.20778568,7.98609996 L4.68778568,7.98609996 C4.35528568,7.98609996 3.88978568,8.02409996 3.53828568,8.06209996 C4.82078568,6.80809996 5.87528568,5.44009996 5.87528568,4.16709996 C5.87528568,2.85609996 4.99178568,2.00109996 3.66178568,2.00109996 C2.70228568,2.00109996 2.07528568,2.37159996 1.42928568,3.06509996 L2.18928568,3.82509996 C2.55028568,3.43559996 2.96828568,3.10309996 3.48128568,3.10309996 C4.15578568,3.10309996 4.53578568,3.53059996 4.53578568,4.24309996 C4.53578568,5.32609996 3.40528568,6.64659996 1.49578568,8.35659996 L1.49578568,9.16409996 Z M9.48528568,9.29709996 C10.9197857,9.29709996 11.8602857,8.04309996 11.8602857,5.62059996 C11.8602857,3.19809996 10.9197857,2.00109996 9.48528568,2.00109996 C8.05078568,2.00109996 7.10078568,3.18859996 7.10078568,5.62059996 C7.10078568,8.04309996 8.05078568,9.29709996 9.48528568,9.29709996 Z M9.48528568,8.20459996 C8.87728568,8.20459996 8.42128568,7.59659996 8.42128568,5.62059996 C8.42128568,3.65409996 8.87728568,3.08409996 9.48528568,3.08409996 C10.0932857,3.08409996 10.5397857,3.65409996 10.5397857,5.62059996 C10.5397857,7.59659996 10.0932857,8.20459996 9.48528568,8.20459996 Z M21.2177857,4.95559996 L21.2177857,3.87259996 L16.5342857,3.87259996 L16.7527857,3.06509996 L20.5432857,3.06509996 L20.5432857,1.99159996 L17.0187857,1.99159996 C17.0947857,1.69709996 17.1707857,1.41209996 17.2372857,1.12709996 L16.0402857,1.12709996 C15.9737857,1.41209996 15.9072857,1.68759996 15.8407857,1.99159996 L13.5702857,1.99159996 L13.5702857,3.06509996 L15.5557857,3.06509996 C15.4892857,3.34059996 15.4132857,3.59709996 15.3372857,3.87259996 L12.7817857,3.87259996 L12.7817857,4.95559996 L15.0237857,4.95559996 C14.8147857,5.63959996 14.6057857,6.28559996 14.4157857,6.80809996 L18.6242857,6.80809996 C18.2157857,7.21659996 17.7692857,7.65359996 17.3227857,8.07159996 C16.6007857,7.83409996 15.8597857,7.62509996 15.2327857,7.47309996 L14.6342857,8.32809996 C16.1352857,8.72709996 18.1777857,9.48709996 19.1657857,10.0571 L19.8212857,9.06909996 C19.4792857,8.88859996 19.0137857,8.68909996 18.5007857,8.48959996 C19.2987857,7.71059996 20.1252857,6.88409996 20.7712857,6.20009996 L19.8972857,5.69659996 L19.7167857,5.75359996 L16.0022857,5.75359996 C16.0687857,5.49709996 16.1542857,5.23109996 16.2302857,4.95559996 L21.2177857,4.95559996 Z M24.6757857,6.61809996 C24.4382857,5.71559996 23.8872857,4.22409996 23.4407857,3.11259996 L22.4052857,3.41659996 C22.8422857,4.58509996 23.3457857,6.10509996 23.5452857,7.01709996 L24.6757857,6.61809996 Z M28.3237857,8.42309996 L28.3237857,6.63709996 L29.1882857,7.07409996 C29.6822857,6.16209996 30.2807857,4.82259996 30.6987857,3.62559996 L29.6822857,3.14109996 C29.3687857,4.22409996 28.7987857,5.57309996 28.3237857,6.47559996 L28.3237857,1.24109996 L27.1552857,1.24109996 L27.1552857,8.42309996 L25.9107857,8.42309996 L25.9107857,1.24109996 L24.7422857,1.24109996 L24.7422857,8.42309996 L22.2912857,8.42309996 L22.2912857,9.55359996 L30.7842857,9.55359996 L30.7842857,8.42309996 L28.3237857,8.42309996 Z M33.1782857,5.66809996 C33.1877857,5.44959996 33.1877857,5.23109996 33.1877857,5.03159996 L33.1877857,4.61359996 L35.5057857,4.61359996 L35.5057857,3.61609996 L34.8502857,3.61609996 L34.8502857,1.11759996 L33.8337857,1.11759996 L33.8337857,3.61609996 L33.1877857,3.61609996 L33.1877857,1.36459996 L32.1522857,1.36459996 L32.1522857,5.03159996 C32.1522857,6.37109996 32.0857857,8.18559996 31.5347857,9.33509996 C31.7627857,9.48709996 32.1427857,9.81959996 32.3232857,10.0381 C32.8457857,9.14509996 33.0642857,7.90059996 33.1402857,6.66559996 L34.0047857,6.66559996 L34.0047857,9.96209996 L35.0307857,9.96209996 L35.0307857,5.66809996 L33.1782857,5.66809996 Z M36.3892857,9.03109996 C36.7692857,7.85309996 36.8642857,6.42809996 36.8832857,5.23109996 C37.1207857,6.18109996 37.4152857,7.05509996 37.8142857,7.81509996 C37.4057857,8.32809996 36.9402857,8.74609996 36.3892857,9.03109996 Z M39.0777857,4.75609996 C38.9257857,5.52559996 38.6977857,6.22859996 38.4032857,6.83659996 C38.0897857,6.20009996 37.8332857,5.49709996 37.6527857,4.75609996 L39.0777857,4.75609996 Z M39.5717857,3.69209996 L39.3912857,3.73009996 L36.8832857,3.73009996 L36.8832857,2.59959996 C38.0897857,2.52359996 39.3722857,2.38109996 40.3982857,2.15309996 L39.7712857,1.16509996 C38.7357857,1.40259996 37.1967857,1.59259996 35.8097857,1.68759996 L35.8097857,4.87009996 C35.8097857,6.21909996 35.7242857,8.20459996 35.0307857,9.45859996 C35.2967857,9.59159996 35.7242857,9.89559996 35.9237857,10.0856 C36.0947857,9.81009996 36.2277857,9.51559996 36.3417857,9.18309996 C36.5507857,9.42059996 36.7977857,9.78159996 36.9307857,10.0286 C37.5007857,9.70559996 38.0042857,9.29709996 38.4222857,8.80309996 C38.7927857,9.28759996 39.2297857,9.70559996 39.7237857,10.0286 C39.9042857,9.73409996 40.2367857,9.32559996 40.4837857,9.12609996 C39.9422857,8.83159996 39.4672857,8.40409996 39.0682857,7.89109996 C39.6667857,6.85559996 40.0657857,5.52559996 40.2462857,3.86309996 L39.5717857,3.69209996 Z" id="颜色" fill="url(#linearGradient-6)"></path>
            </g>
        </g>
    </g>
</svg>