<?xml version="1.0" encoding="UTF-8"?>
<svg width="232px" height="46px" viewBox="0 0 232 46" version="1.1" xmlns="http://www.w3.org/2000/svg" xmlns:xlink="http://www.w3.org/1999/xlink">
    <title>锁屏水印-政务版</title>
    <defs>
        <linearGradient x1="-1.23547869%" y1="48.0273034%" x2="100%" y2="51.5162215%" id="linearGradient-1">
            <stop stop-color="#FFFFFF" stop-opacity="0.25" offset="0%"></stop>
            <stop stop-color="#FFFFFF" stop-opacity="0.35" offset="15.8878787%"></stop>
            <stop stop-color="#FFFFFF" stop-opacity="0.151570353" offset="35.1027096%"></stop>
            <stop stop-color="#FFFFFF" stop-opacity="0.4" offset="53.8811523%"></stop>
            <stop stop-color="#FFFFFF" stop-opacity="0.15" offset="70.9665078%"></stop>
            <stop stop-color="#FFFFFF" stop-opacity="0.3" offset="83.5911059%"></stop>
            <stop stop-color="#FFFFFF" stop-opacity="0.14" offset="100%"></stop>
        </linearGradient>
        <path d="M47.3361667,8 C48.1428194,8 48.7977938,8.64913109 48.7977938,9.45164337 L48.7977938,21.0483566 C48.7977938,21.8508689 49.4513893,22.5 50.2594209,22.5 L61.9386487,22.5 C62.7453014,22.5 63.4016547,23.1505006 63.4016547,23.9516434 L63.4016547,35.5483566 C63.4016547,36.3494994 62.7453014,37 61.9386487,37 L6.46300599,37 C5.65497441,37 5,36.3494994 5,35.5483566 L5,9.45164337 C5,8.64913109 5.65497441,8 6.46300599,8 L47.3361667,8 Z M57.3891275,9.46739233 L57.3891275,11.8461702 C57.3891275,12.563775 57.7600499,12.8417784 58.3736575,12.8417784 C59.1058499,12.8417784 59.3485352,12.5103655 59.3485352,11.8105638 L59.3485352,9.46739233 L60.6350428,9.46739233 L60.6350428,12.044744 C60.6350428,12.83767 60.3482329,13.9168162 58.3640052,13.9168162 C56.9189248,13.9168162 56.0998621,13.3252031 56.0998621,12.1323904 L56.0998621,9.46739233 L57.3891275,9.46739233 Z M63.0449349,9.46739233 L65.0774239,12.1419768 L65.0774239,9.46739233 L66.2894713,9.46739233 L66.2894713,13.8168445 L65.0443305,13.8168445 L63.0214937,11.1491075 L63.0214937,13.8168445 L61.8053097,13.8168445 L61.8053097,9.46739233 L63.0449349,9.46739233 Z M149.538373,8 C150.345026,8 151,8.64913109 151,9.45164337 L151,9.45164337 L151,35.5483566 C151,36.3494994 150.345026,37 149.538373,37 L149.538373,37 L94.0624544,37 C93.2544228,37 92.5994484,36.3494994 92.5994484,35.5483566 L92.5994484,35.5483566 L92.5994484,23.9543823 C92.5994484,23.15187 93.2544228,22.5027389 94.0624544,22.5027389 L94.0624544,22.5027389 L105.741682,22.5027389 C106.549714,22.5027389 107.203309,21.8522384 107.203309,21.0497261 L107.203309,21.0497261 L107.203309,9.45164337 C107.203309,8.64913109 107.858284,8 108.666315,8 L108.666315,8 Z M92.4288793,9.36084719 C93.766406,9.36084719 94.4889462,10.1989658 94.5289341,11.0261286 L94.5289341,11.0261286 L93.4147882,11.0261286 C93.3968625,10.8645306 93.2024386,10.3413912 92.433016,10.3413912 C91.7890727,10.3413912 91.2981867,10.8439885 91.2981867,11.7040187 C91.2981867,12.4585994 91.7918305,12.9611966 92.4468049,12.9611966 C93.1486617,12.9611966 93.3858314,12.5640489 93.4520183,12.0463874 L93.4520183,12.0463874 L94.5661642,12.0463874 C94.491704,13.1255336 93.7677849,13.9198291 92.4109537,13.9198291 C91.3161123,13.9198291 90.141295,13.132381 90.141295,11.6848461 C90.141295,10.2373111 91.0596381,9.36084719 92.4288793,9.36084719 Z M96.7063448,9.46739233 L96.7063448,11.0710474 L98.620249,11.0710474 L98.620249,9.46739233 L99.9095144,9.46739233 L99.9095144,13.8168445 L98.6147334,13.8168445 L98.6147334,12.0118767 L96.7063448,12.0118767 L96.7063448,13.8168445 L95.4184583,13.8168445 L95.4184583,9.46739233 L96.7063448,9.46739233 Z M74.9303073,9.46739233 L76.1699326,9.46739233 L78.2024216,12.1419768 L78.2024216,9.46739233 L79.4158478,9.46739233 L79.4158478,13.8168445 L78.1693281,13.8168445 L76.1464914,11.1491075 L76.1464914,13.8168445 L74.9303073,13.8168445 L74.9303073,9.46739233 Z M67.4860751,13.8172554 L68.7780983,13.8172554 L68.7780983,9.46780317 L67.4860751,9.46780317 L67.4860751,13.8172554 Z M71.876334,12.7982291 C71.2723787,12.7982291 70.7814926,12.316174 70.7814926,11.6423923 C70.7814926,10.9672412 71.2723787,10.4892945 71.876334,10.4892945 C72.4789105,10.4892945 72.9697966,10.9672412 72.9697966,11.6423923 C72.9697966,12.316174 72.4789105,12.7982291 71.876334,12.7982291 M71.876334,9.37591141 C70.4036758,9.37591141 69.5087739,10.3906923 69.5087739,11.6410229 C69.5087739,12.8927229 70.569143,13.9075038 71.876334,13.9075038 C73.1821462,13.9075038 74.2438941,12.8927229 74.2438941,11.6410229 C74.2438941,10.3906923 73.2841843,9.37591141 71.876334,9.37591141 M80.2076085,9.46739233 L84.5662908,9.46739233 L84.5662908,10.3904184 L83.0343401,10.3904184 L83.0343401,13.8168445 L81.7450747,13.8168445 L81.7450747,10.3958963 L80.2076085,10.3958963 L80.2076085,9.46739233 Z M85.3541905,9.46739233 L89.347466,9.46739233 L89.347466,10.3904184 L86.6434559,10.3904184 L86.6434559,11.1422601 L89.1268431,11.1422601 L89.1268431,12.0146156 L86.6434559,12.0146156 L86.6434559,12.8951879 L89.4053796,12.8951879 L89.4053796,13.8168445 L85.3541905,13.8168445 L85.3541905,9.46739233 Z" id="path-2"></path>
        <filter x="-7.2%" y="-32.9%" width="114.4%" height="172.7%" filterUnits="objectBoundingBox" id="filter-3">
            <feMorphology radius="1.04285714" operator="dilate" in="SourceAlpha" result="shadowSpreadOuter1"></feMorphology>
            <feOffset dx="0" dy="1" in="shadowSpreadOuter1" result="shadowOffsetOuter1"></feOffset>
            <feGaussianBlur stdDeviation="3" in="shadowOffsetOuter1" result="shadowBlurOuter1"></feGaussianBlur>
            <feComposite in="shadowBlurOuter1" in2="SourceAlpha" operator="out" result="shadowBlurOuter1"></feComposite>
            <feColorMatrix values="0 0 0 0 0   0 0 0 0 0   0 0 0 0 0  0 0 0 0.2 0" type="matrix" in="shadowBlurOuter1"></feColorMatrix>
        </filter>
        <linearGradient x1="-1.23547869%" y1="34.5867438%" x2="100%" y2="61.8466829%" id="linearGradient-4">
            <stop stop-color="#FFFFFF" stop-opacity="0.25" offset="0%"></stop>
            <stop stop-color="#FFFFFF" stop-opacity="0.35" offset="15.8878787%"></stop>
            <stop stop-color="#FFFFFF" stop-opacity="0.23958561" offset="35.1027096%"></stop>
            <stop stop-color="#FFFFFF" stop-opacity="0.4" offset="53.8811523%"></stop>
            <stop stop-color="#FFFFFF" stop-opacity="0.27107975" offset="70.9665078%"></stop>
            <stop stop-color="#FFFFFF" stop-opacity="0.3" offset="83.5911059%"></stop>
            <stop stop-color="#FFFFFF" stop-opacity="0.144360522" offset="100%"></stop>
        </linearGradient>
        <path d="M160.98,34.81 C161.86,34.35 162.57,33.79 163.13,33.1 C163.64,33.8 164.26,34.37 165.04,34.78 C165.17,34.53 165.46,34.18 165.67,33.99 C164.86,33.61 164.2,33.02 163.69,32.27 C164.3,31.21 164.68,29.9 164.93,28.31 L165.59,28.31 L165.59,27.44 L162.59,27.44 C162.74,26.9 162.88,26.34 162.99,25.76 L162.07,25.6 C161.81,27.06 161.39,28.46 160.74,29.45 L160.74,29.14 L159.49,29.14 L159.49,27.16 L161.08,27.16 L161.08,26.26 L156.54,26.26 L156.54,27.16 L158.58,27.16 L158.58,32.52 L157.74,32.7 L157.74,28.52 L156.9,28.52 L156.9,32.86 L156.34,32.97 L156.51,33.9 C157.419091,33.7036364 158.592645,33.4332231 159.796011,33.150308 L160.700458,32.9367393 C160.850909,32.9010744 161.000909,32.8654545 161.15,32.83 L161.06,31.99 L159.49,32.32 L159.49,30.02 L160.6,30.02 C160.8,30.18 161.05,30.39 161.16,30.53 C161.34,30.28 161.51,30.02 161.68,29.73 C161.91,30.66 162.21,31.51 162.61,32.25 C162.08,32.99 161.37,33.56 160.44,33.99 C160.62,34.18 160.89,34.6 160.98,34.81 Z M163.16,31.34 C162.74,30.49 162.45,29.52 162.24,28.47 L162.3,28.31 L164,28.31 C163.82,29.49 163.57,30.49 163.16,31.34 Z M166.86,30.47 C168.29,30.3 169.75,30.01 171.05,29.53 C172.19,29.98 173.56,30.23 175.08,30.35 C175.19,30.11 175.4,29.73 175.6,29.53 C174.35,29.46 173.18,29.31 172.18,29.05 C173.25,28.52 174.15,27.82 174.74,26.94 L174.17,26.56 L174.01,26.6 L170.13,26.6 C170.34,26.34 170.53,26.07 170.69,25.8 L169.74,25.61 C169.23,26.46 168.27,27.42 166.87,28.11 C167.06,28.25 167.32,28.6 167.43,28.81 C167.9,28.57 168.32,28.29 168.69,28 C169.07,28.4 169.5,28.74 170,29.03 C168.89,29.34 167.69,29.55 166.5,29.66 C166.64,29.87 166.79,30.24 166.86,30.47 Z M171.05,28.68 C170.31,28.37 169.71,27.98 169.3,27.5 L169.41,27.39 L173.25,27.39 C172.68,27.91 171.92,28.33 171.05,28.68 Z M167.12,34.78 C169,34.29 170.2,33.48 170.85,31.93 L173.72,31.93 C173.55,33.07 173.37,33.63 173.14,33.81 C173.03,33.9 172.91,33.91 172.69,33.91 C172.43,33.91 171.76,33.9 171.12,33.84 C171.28,34.07 171.41,34.41 171.42,34.65 C172.03,34.69 172.64,34.69 172.97,34.67 C173.38,34.65 173.63,34.59 173.88,34.37 C174.24,34.05 174.46,33.28 174.69,31.51 C174.71,31.39 174.74,31.13 174.74,31.13 L171.12,31.13 C171.2,30.87 171.26,30.58 171.31,30.28 L170.34,30.2 C170.3,30.54 170.24,30.85 170.16,31.13 L167.26,31.13 L167.26,31.93 L169.85,31.93 C169.27,33.06 168.21,33.68 166.59,34 C166.76,34.18 167.03,34.57 167.12,34.78 Z M176.78,34.79 C177.41,34.79 177.81,34.76 178.08,34.61 C178.34,34.47 178.44,34.22 178.44,33.76 L178.44,31.01 L179.49,30.68 L179.37,29.84 C179.06,29.94 178.74,30.03 178.44,30.11 L178.44,28.42 L179.42,28.42 L179.42,27.56 L178.44,27.56 L178.44,25.63 L177.58,25.63 L177.58,27.56 L176.41,27.56 L176.41,28.42 L177.58,28.42 L177.58,30.37 C177.1,30.51 176.66,30.62 176.31,30.72 L176.52,31.61 C176.84,31.51 177.21,31.41 177.58,31.29 L177.58,33.76 C177.58,33.9 177.53,33.93 177.41,33.93 C177.36875,33.93375 177.289531,33.9360937 177.185527,33.9370313 L176.948379,33.9370313 C176.817187,33.9360937 176.67,33.93375 176.52,33.93 C176.64,34.17 176.75,34.57 176.78,34.79 Z M179.85,27 C181.62,26.91 183.78,26.71 185.19,26.35 L184.62,25.66 C183.44,25.98 181.37,26.19 179.64,26.29 C179.73,26.48 179.82,26.79 179.85,27 Z M180.38,30.28 L180.38,29.44 L184.6,29.44 L184.6,30.28 L185.46,30.28 L185.46,28.67 L184.32,28.67 C184.61,28.22 184.94,27.63 185.23,27.11 L184.36,26.84 C184.16,27.4 183.77,28.16 183.45,28.67 L179.55,28.67 L179.55,30.28 L180.38,30.28 Z M182.26,28.51 L183.04,28.31 C182.98,27.96 182.8,27.39 182.62,26.97 L181.88,27.14 C182.05,27.58 182.22,28.15 182.26,28.51 Z M180.53,28.66 L181.27,28.39 C181.18,28.04 180.92,27.52 180.67,27.12 L179.97,27.35 C180.21,27.76 180.44,28.31 180.53,28.66 Z M185.03,34.8 C185.14,34.55 185.39,34.19 185.58,33.99 C184.65,33.84 183.83,33.57 183.14,33.19 C183.92,32.56 184.52,31.73 184.87,30.67 L184.32,30.44 L184.17,30.48 L180.06,30.48 L180.06,31.24 L180.87,31.24 L180.37,31.39 C180.69,32.08 181.12,32.68 181.65,33.17 C180.91,33.55 180.06,33.81 179.16,33.95 C179.32,34.15 179.51,34.54 179.57,34.77 C180.59,34.55 181.55,34.23 182.37,33.74 C183.1,34.24 183.99,34.58 185.03,34.8 Z M182.41,32.7 C181.9,32.3 181.49,31.81 181.2,31.24 L183.71,31.24 C183.4,31.83 182.96,32.31 182.41,32.7 Z M188.97,34.78 L188.97,29.99 C189.38,30.51 189.87,31.18 190.09,31.54 L190.64,30.69 C190.4,30.42 189.31,29.25 188.97,28.95 L188.97,28.51 L190.22,28.51 L190.22,27.65 L188.97,27.65 L188.97,25.62 L188.06,25.62 L188.06,27.65 L186.49,27.65 L186.49,28.51 L187.86,28.51 C187.53,29.81 186.87,31.31 186.21,32.12 C186.37,32.37 186.62,32.79 186.74,33.07 C187.23,32.41 187.71,31.36 188.06,30.25 L188.06,34.78 L188.97,34.78 Z M194.98,34.84 C195.1,34.56 195.39,34.24 195.64,34.06 C194.69,33.51 193.95,32.89 193.36,32.17 C194.33,30.8 195.03,28.98 195.34,26.64 L194.75,26.45 L194.6,26.49 L194.44,26.49 L194.44,26.5 L190.28,26.5 L190.28,27.39 L190.67,27.39 L190.57,27.41 C190.92,29.39 191.39,30.91 192.19,32.16 C191.48,32.99 190.63,33.61 189.69,34 C189.88,34.18 190.14,34.54 190.26,34.78 C191.19,34.33 192.04,33.72 192.75,32.93 C193.34,33.63 194.07,34.25 194.98,34.84 Z M192.79,31.37 C192.15,30.31 191.74,29.03 191.45,27.39 L194.32,27.39 C194.03,28.97 193.5,30.3 192.79,31.37 Z M160.9305,21 L160.9305,20.069 L159.1825,20.069 C158.8405,20.069 158.4035,20.0975 158.0425,20.1355 C159.5245,18.72 160.598,17.3235 160.598,15.9745 C160.598,14.711 159.7715,13.875 158.489,13.875 C157.577,13.875 156.9595,14.2645 156.361,14.92 L156.9785,15.528 C157.349,15.1005 157.805,14.749 158.356,14.749 C159.1445,14.749 159.5435,15.2715 159.5435,16.0315 C159.5435,17.181 158.4795,18.5395 156.418,20.3635 L156.418,21 L160.9305,21 Z M164.1225,21.1235 C165.4905,21.1235 166.3835,19.9075 166.3835,17.4755 C166.3835,15.0625 165.4905,13.875 164.1225,13.875 C162.7545,13.875 161.8615,15.053 161.8615,17.4755 C161.8615,19.9075 162.7545,21.1235 164.1225,21.1235 Z M164.1225,20.259 C163.41,20.259 162.9065,19.499 162.9065,17.4755 C162.9065,15.471 163.41,14.7395 164.1225,14.7395 C164.835,14.7395 165.3385,15.471 165.3385,17.4755 C165.3385,19.499 164.835,20.259 164.1225,20.259 Z M173.6035,21.7885 L174.126,21.019 C173.7555,20.81 173.2425,20.582 172.682,20.3635 C173.5275,19.556 174.4205,18.6725 175.076,17.9695 L174.411,17.5705 L174.259,17.618 L170.3545,17.618 C170.44,17.314 170.5445,17.0005 170.649,16.668 L175.665,16.668 L175.665,15.8225 L170.896,15.8225 C170.991,15.4995 171.086,15.167 171.1905,14.844 L174.981,14.844 L174.981,13.9985 L171.4185,13.9985 C171.5135,13.6755 171.599,13.343 171.6845,13.039 L170.744,13.039 C170.668,13.343 170.5825,13.666 170.497,13.9985 L168.1505,13.9985 L168.1505,14.844 L170.269,14.844 C170.174,15.167 170.0695,15.4995 169.9745,15.8225 L167.3905,15.8225 L167.3905,16.668 L169.7085,16.668 C169.49,17.333 169.281,17.941 169.091,18.4445 L173.404,18.4445 C172.9195,18.929 172.3305,19.499 171.7795,20.0215 C171.0765,19.765 170.364,19.5465 169.737,19.385 L169.2525,20.05 C170.725,20.4585 172.663,21.2185 173.6035,21.7885 Z M185.26,21.285 L185.26,20.411 L182.7045,20.411 L182.7045,13.1625 L181.802,13.1625 L181.802,20.411 L180.3675,20.411 L180.3675,13.153 L179.465,13.153 L179.465,20.411 L176.9095,20.411 L176.9095,21.285 L185.26,21.285 Z M178.306,18.796 L179.1895,18.473 C178.9425,17.618 178.3725,16.193 177.8975,15.11 L177.09,15.3665 C177.5555,16.459 178.0875,17.922 178.306,18.796 Z M183.55,18.8625 C184.063,17.9695 184.6805,16.6585 185.127,15.528 L184.3195,15.1385 C183.968,16.231 183.322,17.618 182.8185,18.4825 L183.55,18.8625 Z M186.7705,21.7885 C187.312,20.867 187.5115,19.6225 187.578,18.3875 L188.699,18.3875 L188.699,21.741 L189.497,21.741 L189.497,17.599 L187.6065,17.599 C187.616,17.371 187.616,17.1525 187.616,16.934 L187.616,16.364 L190.029,16.364 L190.029,15.585 L189.2785,15.585 L189.2785,13.02 L188.4805,13.02 L188.4805,15.585 L187.616,15.585 L187.616,13.248 L186.8085,13.248 L186.8085,16.9435 C186.8085,18.3305 186.7325,20.069 186.134,21.247 C186.3335,21.361 186.628,21.627 186.7705,21.7885 Z M190.3045,21.8265 C191.1215,20.4585 191.2355,18.4445 191.2355,16.8485 L191.2355,16.516 L191.2925,16.516 C191.5395,17.7225 191.9005,18.8055 192.404,19.708 C191.929,20.316 191.378,20.772 190.751,21.0665 C190.9315,21.228 191.1595,21.5605 191.2735,21.7885 C191.891,21.456 192.423,21.0285 192.898,20.4775 C193.3065,21.019 193.791,21.456 194.361,21.7885 C194.494,21.551 194.76,21.228 194.9595,21.076 C194.3515,20.7625 193.8385,20.3255 193.411,19.7745 C194.0475,18.7675 194.4845,17.466 194.6935,15.8225 L194.171,15.6895 L194.019,15.718 L191.2355,15.718 L191.2355,14.35 C192.48,14.255 193.829,14.0935 194.8455,13.8655 L194.3135,13.1055 C193.335,13.343 191.7675,13.5425 190.39,13.6375 L190.39,16.8485 C190.39,18.226 190.3045,20.088 189.6015,21.323 C189.8105,21.437 190.143,21.6745 190.3045,21.8265 Z M192.8885,18.986 C192.4895,18.2545 192.195,17.4185 191.986,16.516 L193.772,16.516 C193.582,17.4565 193.2875,18.283 192.8885,18.986 Z" id="path-5"></path>
        <filter x="-16.2%" y="-23.5%" width="133.7%" height="158.0%" filterUnits="objectBoundingBox" id="filter-6">
            <feMorphology radius="1.02857143" operator="dilate" in="SourceAlpha" result="shadowSpreadOuter1"></feMorphology>
            <feOffset dx="0" dy="1" in="shadowSpreadOuter1" result="shadowOffsetOuter1"></feOffset>
            <feGaussianBlur stdDeviation="1.5" in="shadowOffsetOuter1" result="shadowBlurOuter1"></feGaussianBlur>
            <feComposite in="shadowBlurOuter1" in2="SourceAlpha" operator="out" result="shadowBlurOuter1"></feComposite>
            <feColorMatrix values="0 0 0 0 0   0 0 0 0 0   0 0 0 0 0  0 0 0 0.2 0" type="matrix" in="shadowBlurOuter1"></feColorMatrix>
        </filter>
    </defs>
    <g id="锁屏水印-政务版" stroke="none" stroke-width="1" fill="none" fill-rule="evenodd">
        <g id="编组-2">
            <rect id="矩形" x="0" y="0" width="232" height="46"></rect>
            <g id="形状结合" fill-rule="nonzero">
                <use fill="black" fill-opacity="1" filter="url(#filter-3)" xlink:href="#path-2"></use>
                <path stroke-opacity="0.05" stroke="#000000" stroke-width="1.04285714" d="M47.3361667,7.47857143 C47.8831848,7.47857143 48.3785913,7.69903633 48.7372538,8.05524896 C49.0969221,8.4124605 49.3192223,8.90606663 49.3192223,9.45164337 L49.3192223,9.45164337 L49.3192223,21.0483566 C49.3192223,21.3050747 49.4239032,21.5371763 49.5930354,21.7051534 C49.7634648,21.8744186 49.999124,21.9785714 50.2594209,21.9785714 L50.2594209,21.9785714 L61.9386487,21.9785714 C62.4853778,21.9785714 62.9810794,22.1992072 63.3400993,22.5554387 C63.7004362,22.912977 63.9230832,23.4068456 63.9230832,23.9516434 L63.9230832,23.9516434 L63.9230832,35.5483566 C63.9230832,36.0931544 63.7004362,36.587023 63.3400993,36.9445613 C62.9810794,37.3007928 62.4853778,37.5214286 61.9386487,37.5214286 L61.9386487,37.5214286 L6.46300599,37.5214286 C5.91556072,37.5214286 5.42011127,37.3008454 5.06137755,36.9448979 C4.7010354,36.5873544 4.47857143,36.0933715 4.47857143,35.5483566 L4.47857143,35.5483566 L4.47857143,9.45164337 C4.47857143,8.90591357 4.7009839,8.41218318 5.06103843,8.05492506 C5.41977763,7.69897205 5.91534304,7.47857143 6.46300599,7.47857143 L6.46300599,7.47857143 Z M149.538373,7.47857143 C150.050777,7.47857143 150.517886,7.67205256 150.869752,7.98928338 C151.232318,8.31616032 151.472298,8.77446595 151.514726,9.28853199 L151.514726,9.28853199 L151.521429,35.5483566 C151.521429,36.0588865 151.326187,36.5245911 151.00552,36.8753688 C150.677251,37.2344625 150.217354,37.4726719 149.701938,37.514775 L149.701938,37.514775 L94.0624544,37.5214286 C93.5496335,37.5214286 93.0824476,37.3278308 92.7305122,37.0107862 C92.367345,36.6836234 92.1271878,36.224979 92.08473,35.7113703 L92.08473,35.7113703 L92.0780199,23.9543823 C92.0780199,23.443033 92.2733296,22.9773825 92.5940847,22.62681 C92.9224129,22.2679604 93.3824916,22.0300328 93.898608,21.9879607 L93.898608,21.9879607 L105.741682,21.9813104 C105.985407,21.9813104 106.207489,21.8897411 106.374632,21.738896 C106.537056,21.5923102 106.647803,21.3898579 106.675213,21.1617722 L106.675213,21.1617722 L106.681881,9.45164337 C106.681881,8.9402941 106.877191,8.47464352 107.197946,8.12407106 C107.526298,7.76519553 107.986419,7.52725948 108.502581,7.4852126 L108.502581,7.4852126 Z M92.4288793,8.83941861 C93.153336,8.83941861 93.7259149,9.04940877 94.1469475,9.36004802 C94.8361899,9.86857325 95.1326023,10.6557616 95.0334225,11.3688084 L95.0334225,11.3688084 L92.9541136,11.602653 L92.8965383,11.0836166 C91.8807531,11.2064079 91.8196152,11.4316365 91.8196152,11.7040187 C91.8196152,11.9281414 91.8815267,12.121335 92.0039864,12.2553687 L92.0039864,12.2553687 L95.073715,11.4770903 C95.1760475,12.4459423 94.8899244,13.2797048 94.2704208,13.8182155 C93.831753,14.1995325 93.2159186,14.4412576 92.4109537,14.4412576 C91.6922655,14.4412576 90.9467407,14.1619175 90.4088926,13.6322866 C89.9386634,13.1692415 89.6198665,12.5167686 89.6198665,11.6848461 C89.6198665,10.8084814 89.9097299,10.1122236 90.3881064,9.62623216 C90.8787261,9.12780256 91.5789147,8.83941861 92.4288793,8.83941861 Z M57.9105561,8.94596376 L57.9105561,11.8461702 L58.8271066,8.94596376 L61.1564714,8.94596376 L61.1564714,12.044744 C61.1564714,12.6440746 61.0045812,13.3525445 60.4018511,13.8493898 C59.9968988,14.1832019 59.3683102,14.4382448 58.3640052,14.4382448 C57.4863175,14.4382448 56.8133763,14.2331418 56.3539808,13.8710812 C55.8610616,13.4825997 55.5784335,12.9111351 55.5784335,12.1323904 L55.5784335,12.1323904 L55.5784335,8.94596376 L57.9105561,8.94596376 Z M71.876334,8.85448284 C72.7169203,8.85448284 73.4220712,9.15881919 73.9251608,9.6401392 C74.4552493,10.1472898 74.7653227,10.8555516 74.7653227,11.6410229 C74.7653227,12.4131234 74.4399225,13.1133664 73.910792,13.6199065 C73.3897477,14.1187057 72.6705998,14.4289323 71.876334,14.4289323 C71.0814311,14.4289323 70.3624905,14.1187891 69.8416982,13.6202312 C69.312555,13.1136789 68.9873453,12.4133184 68.9873453,11.6410229 C68.9873453,10.8470836 69.2863391,10.13409 69.8167175,9.62666211 C70.3091737,9.15551536 71.0069137,8.85448284 71.876334,8.85448284 Z M72.2796147,11.1807717 C72.1770891,11.0726545 72.0336796,11.0107231 71.4717635,11.1808514 C71.3631848,11.2952076 71.3029212,11.4572452 71.3029212,11.6423923 C71.3029212,11.8279039 71.3637818,11.9907536 71.4728342,12.1058815 C71.5754192,12.2141817 71.7187484,12.2768006 71.876334,12.2768006 C72.0333536,12.2768006 72.1762305,12.2141118 72.2785451,12.1059608 C72.3874941,11.9907971 72.448368,11.8279317 72.448368,11.6423923 C72.448368,11.4572171 72.3880908,11.2951638 72.2796147,11.1807717 Z M69.2995268,8.9463746 L69.2995268,14.338684 L66.9646465,14.338684 L66.9646465,8.9463746 L69.2995268,8.9463746 Z M63.3035918,8.94596376 L64.5559954,10.5940214 L64.5559954,8.94596376 L66.8108999,8.94596376 L66.8108999,14.3382731 L64.7853298,14.3382731 L63.5429223,12.6997738 L63.5429223,14.3382731 L61.2838811,14.3382731 L61.2838811,8.94596376 L63.3035918,8.94596376 Z M97.2277734,8.94596376 L97.2277734,10.5496188 L98.0988204,10.5496188 L98.0988204,8.94596376 L100.430943,8.94596376 L100.430943,14.3382731 L98.0933048,14.3382731 L98.0933048,12.5333052 L97.2277734,12.5333052 L97.2277734,14.3382731 L94.8970297,14.3382731 L94.8970297,8.94596376 L97.2277734,8.94596376 Z M76.4285894,8.94596376 L77.680993,10.5940214 L77.680993,8.94596376 L79.9372764,8.94596376 L79.9372764,14.3382731 L77.9103274,14.3382731 L76.6679199,12.6997738 L76.6679199,14.3382731 L74.4088788,14.3382731 L74.4088788,8.94596376 L76.4285894,8.94596376 Z M85.0877193,8.94596376 L85.0877193,10.911847 L83.5557687,10.911847 L83.5557687,14.3382731 L81.2236461,14.3382731 L81.2236461,10.9173249 L79.6861799,10.9173249 L79.6861799,8.94596376 L85.0877193,8.94596376 Z M89.8688946,8.94596376 L89.8688946,10.911847 L89.648,10.911 L89.648,12.337 L89.9268081,12.3737594 L89.9268081,14.3382731 L84.8327619,14.3382731 L84.8327619,8.94596376 L89.8688946,8.94596376 Z" fill="url(#linearGradient-1)" fill-rule="evenodd"></path>
            </g>
            <g id="形状结合" fill-rule="nonzero">
                <use fill="black" fill-opacity="1" filter="url(#filter-6)" xlink:href="#path-5"></use>
                <path stroke-opacity="0.05" stroke="#000000" stroke-width="1.02857143" d="M193.925714,25.8829061 L195.908797,26.2134199 C195.643981,28.7003042 194.964874,30.6472642 194.007153,32.1313354 C194.443857,32.6066542 194.961082,33.0330298 195.579776,33.422946 L195.897676,33.6149236 L196.585363,34.0130586 L195.9405,34.4773605 C195.758377,34.6084889 195.540597,34.8375014 195.452703,35.0425871 C195.378124,35.2166045 195.355563,35.4702193 195.369111,35.6788474 C195.148236,35.5532978 194.925549,35.4176163 194.700221,35.2715243 C193.930137,34.7722397 193.283649,34.251492 192.737128,33.6836616 C192.069271,34.329012 191.306287,34.8450595 190.484003,35.242939 C190.315016,35.3247067 190.14367,35.4014135 189.97014,35.4726311 C189.726562,34.874226 189.530073,34.5766442 189.37995,34.4171992 L189.336303,34.3733471 L188.761235,33.8285459 L189.492916,33.5249762 C190.253813,33.2092848 190.950045,32.7293964 191.551673,32.09935 C190.934469,31.0272988 190.517925,29.7686563 190.200729,28.2205323 L190.138,27.904 L189.765714,27.9042857 L189.765714,25.9857143 L193.925,25.985 L193.925714,25.8829061 Z M193.687599,27.9042857 L192.072287,27.9042857 L192.157084,28.2896535 C192.332851,29.0454869 192.546637,29.7129807 192.816095,30.3114712 C193.183152,29.6034503 193.477717,28.8000433 193.687599,27.9042857 L193.687599,27.9042857 Z M161.648265,25.0046496 L163.583961,25.3412922 C163.527868,25.704396 163.458746,26.0601694 163.380919,26.4085932 L163.258192,26.9257143 L166.104286,26.9257143 L166.104286,28.8242857 L165.36525,28.8242857 C165.128421,30.1519012 164.789434,31.2808357 164.297021,32.2314726 C164.67176,32.7162071 165.124159,33.1150417 165.65575,33.4062524 L165.888428,33.5244045 L166.58827,33.8527256 L166.015041,34.3713613 C165.842986,34.52703 165.602926,34.8121845 165.496283,35.0172671 C165.15242,35.4089491 164.975629,35.3271699 164.800714,35.2352273 C164.140237,34.8880536 163.583956,34.4366802 163.107675,33.8949076 C162.58228,34.4273238 161.956461,34.8798876 161.218245,35.2657731 C161.02927,35.3645554 160.840912,35.454796 160.652895,35.5364146 C160.615767,35.3426204 160.556454,35.1272878 160.507297,35.0125871 C160.44611,34.8698168 160.282871,34.6081282 160.145181,34.4351661 L160.066653,34.3436972 L159.57409,33.8237694 L159.986,33.633 L159.913712,33.6509439 C158.583496,33.9636817 157.289603,34.2611577 156.347246,34.4607567 L156.099192,34.5127041 L155.742829,32.563188 L156.385714,32.4369069 L156.385714,28.0057143 L158.033,28.005 L158.065714,27.6742857 L156.025714,27.6742857 L156.025714,25.7457143 L161.517,25.745 L161.564506,25.5006142 C161.57959,25.4180004 161.594025,25.3352626 161.607941,25.2525516 L161.648265,25.0046496 Z M160.755608,30.8477368 L160.004286,31.6863781 L161.510772,31.3697283 L161.64,32.583 L161.826148,32.3968331 L162.003527,32.1951103 C161.831532,31.8438174 161.678507,31.47137 161.542147,31.0802643 L161.496,30.942 L161.17794,31.3852505 L160.755608,30.8477368 Z M163.381228,28.8826585 L162.866334,28.929467 L162.950504,29.2665107 C163.009015,29.4888628 163.072432,29.7064431 163.14142,29.9187463 C163.233616,29.5923269 163.312254,29.2473075 163.381228,28.8826585 L163.381228,28.8826585 Z M160.854,27.674 L160.004286,27.6742857 L160.004286,28.6257143 C160.324795,28.4008541 160.579849,28.116357 160.785852,27.791069 L160.854,27.674 Z M184.238556,29.9657143 L185.507548,30.3101551 C185.234961,31.4247527 184.729339,32.3295072 184.048496,33.0495655 C184.535582,33.2430183 185.075496,33.3876962 185.661891,33.482276 L185.661891,33.482276 L186.624241,33.6374938 L185.952857,34.344214 C185.797201,34.5080625 185.590915,34.8021648 185.500733,35.0071227 C183.937185,35.0944942 183.078771,34.7813459 182.352624,34.3406912 C181.551942,34.770241 180.641152,35.0650794 179.678431,35.2727251 C179.492212,35.3128899 179.306419,35.3492815 179.121337,35.3813522 C179.02639,34.7235681 178.881039,34.4245577 178.75841,34.2712717 L178.75841,34.2712717 L178.203987,33.5782424 L179.080951,33.4418258 C179.676513,33.3491827 180.249039,33.2013008 180.778189,32.9969671 C180.513224,32.679007 180.278842,32.3302975 180.076879,31.9537344 L179.975,31.754 L179.545714,31.7542857 L179.545714,29.9657143 L184.238556,29.9657143 Z M178.954286,25.1157143 L178.954286,27.0457143 L179.934286,27.0457143 L179.934286,28.9342857 L178.954286,28.9342857 C179.406265,29.28792 179.60132,29.2196223 179.790973,29.1502589 L179.790973,29.1502589 L180.060888,31.0396652 L178.954286,31.3874545 L178.954286,33.76 C178.954286,34.0781983 178.909568,34.3202299 178.829775,34.5086283 C178.024239,35.2502405 177.545739,35.3042857 176.78,35.3042857 C176.246045,34.6806641 176.157593,34.3551639 176.060009,34.1599956 L176.060009,34.1599956 L176.771759,32.0704428 L175.406481,30.443283 L176.168715,30.225502 C176.319472,30.1824285 176.486655,30.1375044 176.666408,30.0892312 L176.666408,30.0892312 L177.065714,28.9342857 L175.895714,28.9342857 L175.895714,27.0457143 L177.065714,27.0457143 L177.065714,25.1157143 L178.954286,25.1157143 Z M189.484286,25.1057143 L189.484286,27.1357143 L190.734286,27.1357143 L190.734286,29.0242857 L189.898566,29.0242857 C190.265097,29.5131077 190.716026,30.006161 190.93186,30.2453798 L190.93186,30.2453798 L190.142375,32.6119653 L189.651169,31.8081743 L189.484286,35.2942857 L187.545714,35.2942857 L187.545714,32.7687066 C187.416646,32.9942083 187.284953,33.1987318 187.152925,33.3765657 C186.983287,33.6050577 186.771312,33.8457667 186.527207,34.0903729 C186.459166,33.8293419 186.360056,33.4890245 186.267297,33.2725871 C186.1566,33.0142936 185.924384,32.6277771 185.776832,32.3972276 C186.328264,31.1606927 186.839801,30.0757858 187.176965,29.0242857 L187.176965,29.0242857 L185.975714,29.0242857 L185.975714,27.1357143 L187.545714,27.1357143 L187.545714,25.1057143 L189.484286,25.1057143 Z M169.871322,29.6453143 L171.909149,29.8133825 L171.817288,30.3645481 L175.321821,30.6157143 C174.984326,33.4814485 174.648603,34.3748894 174.219751,34.7560812 C173.882983,35.0524379 173.554172,35.156401 173.001112,35.1833438 C172.657333,35.2041789 172.021852,35.2048559 171.386349,35.1631836 C171.187366,35.1501355 170.988928,35.1329715 170.799878,35.1135225 C170.899459,34.5105804 170.804111,34.2864832 170.69782,34.1336903 L170.69782,34.1336903 L170.354,33.639 L170.209214,33.7856946 C169.536746,34.4293282 168.656697,34.8764023 167.535148,35.199442 L167.249709,35.2776598 C167.083161,35.3210687 166.91981,35.3599124 166.759786,35.3939267 C166.574435,34.8125771 166.35355,34.4986483 166.216108,34.3531207 L166.216108,34.3531207 L165.576568,33.6759611 L166.490338,33.4954632 C167.505659,33.2949061 168.286826,32.975123 168.838235,32.4442857 L168.838235,32.4442857 L166.745714,32.4442857 L166.745714,30.6157143 L169.755019,30.6157143 C169.813366,30.3220643 169.851728,29.9985137 169.871322,29.6453143 L169.871322,29.6453143 Z M173.118452,32.4442857 L171.180861,32.4442857 C171.033583,32.7434962 170.86544,33.0161661 170.675174,33.2649814 L170.662,33.28 L171.168004,33.3279595 C171.643585,33.3725453 172.136255,33.388589 172.453904,33.393636 L172.578763,33.3951769 C172.912262,33.2210583 173.032188,32.9082741 173.118452,32.4442857 L173.118452,32.4442857 Z M169.467845,25.0310984 L171.502326,25.4379946 L171.118422,26.0857143 L174.123892,26.0857143 L175.469484,26.7124287 C175.04985,27.5354453 174.39748,28.2354435 173.587338,28.8112916 C174.229183,28.9103614 174.915607,28.9765825 175.628755,29.0165188 L175.628755,29.0165188 L176.776516,29.0807934 L175.963655,29.8936549 C175.800879,30.0564304 175.636731,30.3696359 175.547519,30.5642796 C173.543827,30.7446091 172.189222,30.5015966 171.044819,30.0785727 C169.755227,30.5329481 168.324151,30.8138471 166.920711,30.9806897 C166.30988,30.4287882 166.188484,30.119868 166.072088,29.9452744 L166.072088,29.9452744 L165.593452,29.2273203 L166.452663,29.1478975 L166.452663,29.1478975 L166.96,29.093 L166.95316,29.0796775 C166.814378,28.8005165 166.699942,28.642472 166.604622,28.5565698 L166.564926,28.5240287 L165.88425,28.0224782 L166.642644,27.6486984 C168.110599,26.9252066 169.062962,25.8870599 169.467845,25.0310984 L169.467845,25.0310984 Z M183.875676,26.667027 L185.989103,26.8071009 C185.771842,27.1903959 185.501621,27.6849708 185.23046,28.1557143 L185.23046,28.1557143 L185.974286,28.1557143 L185.974286,30.7942857 L184.085714,30.7942857 L184.085714,29.9542857 L180.894286,29.9542857 L180.894286,30.7942857 L179.035714,30.7942857 L179.035714,28.1557143 L183.159732,28.1557143 C183.427706,27.6953451 183.716045,27.1139933 183.875676,26.667027 L183.875676,26.667027 Z M180.876567,26.5107926 C181.209766,26.9501862 181.639875,27.7633382 181.768082,28.2619218 L181.768082,28.2619218 L180.126189,29.3547855 C180.103607,29.1395684 180.070676,28.9388053 180.031918,28.7880782 C179.950902,28.4730145 179.742118,27.9787283 179.526164,27.6098064 C179.42349,27.4344053 179.295313,27.2465436 179.163831,27.0735489 L179.163831,27.0735489 Z M182.899687,26.3780654 C183.143557,26.7799695 183.459846,27.7153412 183.546891,28.2231043 L183.546891,28.2231043 L181.752434,29.171068 C181.765822,28.9441097 181.766914,28.7292776 181.74886,28.5667934 C181.71257,28.2401852 181.55438,27.7242074 181.400275,27.3253482 C181.33288,27.1509135 181.251002,26.9593723 181.164078,26.7767864 L181.164078,26.7767864 Z M184.798398,25.0684488 L186.072606,26.6109117 C184.768617,27.1286183 182.037469,27.4037229 179.876116,27.5136222 C179.705032,27.5223214 179.530291,27.5303529 179.352938,27.5375401 C179.317125,26.9064263 179.24652,26.6606794 179.175221,26.5101587 L179.175221,26.5101587 L178.848588,25.8206022 L179.610322,25.7765713 C181.469261,25.6691182 183.730278,25.436382 184.798398,25.0684488 L184.798398,25.0684488 Z M194.528095,12.5152562 L195.688507,14.1729881 C194.744359,14.4762912 193.213974,14.6942657 191.749786,14.8236727 L191.749786,14.8236727 L194.058603,15.2037143 L195.259168,15.3897174 C195.086542,17.1812488 194.665597,18.6078989 194.03933,19.7243945 C194.371798,20.0920436 194.755284,20.3920739 195.195192,20.6189012 L195.195192,20.6189012 L195.91852,20.9918674 L195.271179,21.4850792 C195.116341,21.6030511 194.912739,21.8558148 194.809717,22.0397817 C194.445892,22.4210288 194.271916,22.3319248 194.101866,22.2327291 C193.64468,21.9660372 193.23702,21.6387347 192.875292,21.2502916 C192.465536,21.6462324 192.017043,21.9722334 191.517323,22.2413137 C191.344125,22.3345743 191.168605,22.4189334 190.990135,22.494442 C190.947808,22.3297123 190.876445,22.1443678 190.813509,22.0184956 L190.813509,22.0184956 L190.799,21.993 L190.746037,22.0901954 C190.667518,22.2216682 190.581187,22.3505535 190.487781,22.4769762 L190.342458,22.6647789 C190.227185,22.5027215 190.06312,22.3055612 189.952027,22.2010029 C189.815008,22.0720444 189.532505,21.8711827 189.355233,21.7744892 C189.221035,21.7012903 189.003997,21.6097079 188.827244,21.5497676 C188.950522,21.3938373 189.060748,21.233376 189.154552,21.0685837 C189.81758,19.9038048 189.875714,18.1440923 189.875714,16.8485 L189.875714,16.8485 L189.875714,13.1535997 C191.487162,13.0691068 193.532119,12.8162649 194.528095,12.5152562 L194.528095,12.5152562 Z M189.792786,12.5057143 L189.792786,15.0707143 L190.543286,15.0707143 L190.543286,16.8782857 L188.130286,16.8782857 L190.011286,17.0847143 L190.011286,22.2552857 L188.184714,22.2552857 L188.184714,18.9017857 C187.959125,20.0581434 187.721552,21.1851513 187.213898,22.0490534 L187.213898,22.0490534 L186.854376,22.6608708 L186.384869,22.1287626 C186.271172,21.9999056 186.038305,21.7846462 185.878843,21.693525 C185.754429,21.6224312 185.542225,21.5512052 185.374907,21.5076885 C185.489381,21.3457141 185.590672,21.1810095 185.675497,21.0140511 C186.241601,19.8998164 186.294214,18.2524985 186.294214,16.9435 L186.294214,16.9435 L186.294214,12.7337143 L187.935,12.733 L187.966214,12.5057143 L189.792786,12.5057143 Z M172.358277,12.5247143 L172.095937,13.4842143 L175.495286,13.4842143 L175.495,15.278 L176.179286,15.3274346 L176.179286,17.1822857 L174.548,17.182 L175.938409,17.780673 C175.451492,18.3459613 174.670995,19.1448156 173.851175,19.9483529 L173.604303,20.1893257 C173.897561,20.3194074 174.161458,20.4485329 174.378679,20.5710682 C174.524678,20.6534266 174.684131,20.7522913 174.852853,20.8640476 L174.852853,20.8640476 L173.733661,22.5123135 C173.040619,21.8714997 170.04729,20.714805 168.386415,20.3653827 L168.386415,20.3653827 L169.41,18.958 L168.336453,18.9587857 C168.403145,18.7943504 168.46617,18.6359463 168.524941,18.4845779 L168.609833,18.2629277 C168.731096,17.9415827 168.860149,17.577147 168.994518,17.1822857 L168.994518,17.1822857 L166.876214,17.1822857 L166.876214,15.3082143 L167.636,15.308 L167.636214,13.4842143 L170.099008,13.4842143 C170.228782,12.9831063 170.247012,12.9094906 170.340719,12.5247143 L170.340719,12.5247143 L172.358277,12.5247143 Z M170.19118,18.9738857 C170.655334,19.1017805 171.153944,19.256253 171.654344,19.4307767 C171.817809,19.2748304 171.982852,19.1163769 172.145862,18.9587857 L172.145862,18.9587857 L170.134,18.958 Z M180.881786,12.6387143 L180.881786,19.8967143 L181.287714,12.6482143 L183.218786,12.6482143 L183.218786,19.8967143 L185.774286,19.8967143 L185.774286,21.7992857 L176.395214,21.7992857 L176.395214,19.8967143 L178.950714,19.8967143 L178.950714,12.6387143 L180.881786,12.6387143 Z M164.1225,13.3607143 C165.004983,13.3607143 165.733127,13.7498495 166.231348,14.5432337 C166.645663,15.2030043 166.897786,16.1743477 166.897786,17.4755 C166.897786,18.7858326 166.645965,19.7689676 166.231439,20.437782 C165.732801,21.2423078 165.003832,21.6377857 164.1225,21.6377857 C163.241168,21.6377857 162.512199,21.2423078 162.013561,20.437782 C161.599035,19.7689676 161.347214,18.7858326 161.347214,17.4755 C161.347214,16.1705781 161.599013,15.1998681 162.012527,14.5413736 C162.510717,13.7480376 163.239075,13.3607143 164.1225,13.3607143 Z M164.340553,15.3223256 C164.275865,15.2732518 164.201738,15.2537857 163.904447,15.3223256 C163.815267,15.3899804 163.745155,15.4977878 163.682548,15.6386543 C163.508619,16.0299945 163.420786,16.6277085 163.420786,17.4755 C163.420786,18.3360773 163.509869,18.9463349 163.685016,19.3472591 C163.748765,19.4931837 163.820111,19.605073 163.910826,19.6755335 C163.973659,19.7243376 164.045455,19.7447143 164.1225,19.7447143 C164.199545,19.7447143 164.271341,19.7243376 164.334174,19.6755335 C164.424889,19.605073 164.496235,19.4931837 164.559984,19.3472591 C164.735131,18.9463349 164.824214,18.3360773 164.824214,17.4755 C164.824214,16.6277085 164.736381,16.0299945 164.562452,15.6386543 C164.499845,15.4977878 164.429733,15.3899804 164.340553,15.3223256 Z M158.489,13.3607143 C159.28428,13.3607143 159.930745,13.6319871 160.384402,14.0836008 C160.841175,14.538316 161.112286,15.1856913 161.112286,15.9745 C161.112286,17.0832597 160.473672,18.238688 159.45552,19.408047 L159.325,19.554 L161.444786,19.5547143 L161.444786,21.5142857 L155.903714,21.5142857 L155.903714,20.1311081 C157.889147,18.3908501 159.029214,17.1284007 159.029214,16.0315 C159.029214,15.7911557 158.983142,15.5784449 158.850974,15.4357039 C158.738559,15.3142953 158.567016,15.2632857 158.356,15.2632857 C157.752974,15.2632857 157.351191,15.9089574 157.013508,16.2842065 L157.013508,16.2842065 L155.65874,14.9502805 C156.47018,13.9455035 157.256673,13.3607143 158.489,13.3607143 Z M183.991347,14.4092265 L185.776297,15.2702027 C185.250131,16.6939637 184.364519,18.5659012 183.741028,19.5412738 L183.741028,19.5412738 L182.085933,18.6814844 C182.661995,17.8566482 183.688397,15.7021933 183.991347,14.4092265 L183.991347,14.4092265 Z M178.179988,14.4806605 C178.787206,15.8186257 179.670808,18.0160365 179.795698,18.7989565 L179.795698,18.7989565 L177.929851,19.481094 C177.889485,19.2748139 177.848293,19.0856247 177.80707,18.9207326 C177.556379,17.917972 176.881848,16.1228825 176.388008,15.0498776 L176.388008,15.0498776 Z" fill="url(#linearGradient-4)" fill-rule="evenodd"></path>
            </g>
        </g>
    </g>
</svg>