<?xml version="1.0" encoding="UTF-8"?>
<svg width="232px" height="46px" viewBox="0 0 232 46" version="1.1" xmlns="http://www.w3.org/2000/svg" xmlns:xlink="http://www.w3.org/1999/xlink">
    <title>锁屏水印-政务版-EN</title>
    <defs>
        <linearGradient x1="-1.23547869%" y1="48.0273034%" x2="100%" y2="51.5162215%" id="linearGradient-1">
            <stop stop-color="#FFFFFF" stop-opacity="0.25" offset="0%"></stop>
            <stop stop-color="#FFFFFF" stop-opacity="0.35" offset="15.8878787%"></stop>
            <stop stop-color="#FFFFFF" stop-opacity="0.151570353" offset="35.1027096%"></stop>
            <stop stop-color="#FFFFFF" stop-opacity="0.4" offset="53.8811523%"></stop>
            <stop stop-color="#FFFFFF" stop-opacity="0.15" offset="70.9665078%"></stop>
            <stop stop-color="#FFFFFF" stop-opacity="0.3" offset="83.5911059%"></stop>
            <stop stop-color="#FFFFFF" stop-opacity="0.14" offset="100%"></stop>
        </linearGradient>
        <path d="M47.3361667,8 C48.1428194,8 48.7977938,8.64913109 48.7977938,9.45164337 L48.7977938,21.0483566 C48.7977938,21.8508689 49.4513893,22.5 50.2594209,22.5 L61.9386487,22.5 C62.7453014,22.5 63.4016547,23.1505006 63.4016547,23.9516434 L63.4016547,35.5483566 C63.4016547,36.3494994 62.7453014,37 61.9386487,37 L6.46300599,37 C5.65497441,37 5,36.3494994 5,35.5483566 L5,9.45164337 C5,8.64913109 5.65497441,8 6.46300599,8 L47.3361667,8 Z M57.3891275,9.46739233 L57.3891275,11.8461702 C57.3891275,12.563775 57.7600499,12.8417784 58.3736575,12.8417784 C59.1058499,12.8417784 59.3485352,12.5103655 59.3485352,11.8105638 L59.3485352,9.46739233 L60.6350428,9.46739233 L60.6350428,12.044744 C60.6350428,12.83767 60.3482329,13.9168162 58.3640052,13.9168162 C56.9189248,13.9168162 56.0998621,13.3252031 56.0998621,12.1323904 L56.0998621,9.46739233 L57.3891275,9.46739233 Z M63.0449349,9.46739233 L65.0774239,12.1419768 L65.0774239,9.46739233 L66.2894713,9.46739233 L66.2894713,13.8168445 L65.0443305,13.8168445 L63.0214937,11.1491075 L63.0214937,13.8168445 L61.8053097,13.8168445 L61.8053097,9.46739233 L63.0449349,9.46739233 Z M149.538373,8 C150.345026,8 151,8.64913109 151,9.45164337 L151,9.45164337 L151,35.5483566 C151,36.3494994 150.345026,37 149.538373,37 L149.538373,37 L94.0624544,37 C93.2544228,37 92.5994484,36.3494994 92.5994484,35.5483566 L92.5994484,35.5483566 L92.5994484,23.9543823 C92.5994484,23.15187 93.2544228,22.5027389 94.0624544,22.5027389 L94.0624544,22.5027389 L105.741682,22.5027389 C106.549714,22.5027389 107.203309,21.8522384 107.203309,21.0497261 L107.203309,21.0497261 L107.203309,9.45164337 C107.203309,8.64913109 107.858284,8 108.666315,8 L108.666315,8 Z M92.4288793,9.36084719 C93.766406,9.36084719 94.4889462,10.1989658 94.5289341,11.0261286 L94.5289341,11.0261286 L93.4147882,11.0261286 C93.3968625,10.8645306 93.2024386,10.3413912 92.433016,10.3413912 C91.7890727,10.3413912 91.2981867,10.8439885 91.2981867,11.7040187 C91.2981867,12.4585994 91.7918305,12.9611966 92.4468049,12.9611966 C93.1486617,12.9611966 93.3858314,12.5640489 93.4520183,12.0463874 L93.4520183,12.0463874 L94.5661642,12.0463874 C94.491704,13.1255336 93.7677849,13.9198291 92.4109537,13.9198291 C91.3161123,13.9198291 90.141295,13.132381 90.141295,11.6848461 C90.141295,10.2373111 91.0596381,9.36084719 92.4288793,9.36084719 Z M96.7063448,9.46739233 L96.7063448,11.0710474 L98.620249,11.0710474 L98.620249,9.46739233 L99.9095144,9.46739233 L99.9095144,13.8168445 L98.6147334,13.8168445 L98.6147334,12.0118767 L96.7063448,12.0118767 L96.7063448,13.8168445 L95.4184583,13.8168445 L95.4184583,9.46739233 L96.7063448,9.46739233 Z M74.9303073,9.46739233 L76.1699326,9.46739233 L78.2024216,12.1419768 L78.2024216,9.46739233 L79.4158478,9.46739233 L79.4158478,13.8168445 L78.1693281,13.8168445 L76.1464914,11.1491075 L76.1464914,13.8168445 L74.9303073,13.8168445 L74.9303073,9.46739233 Z M67.4860751,13.8172554 L68.7780983,13.8172554 L68.7780983,9.46780317 L67.4860751,9.46780317 L67.4860751,13.8172554 Z M71.876334,12.7982291 C71.2723787,12.7982291 70.7814926,12.316174 70.7814926,11.6423923 C70.7814926,10.9672412 71.2723787,10.4892945 71.876334,10.4892945 C72.4789105,10.4892945 72.9697966,10.9672412 72.9697966,11.6423923 C72.9697966,12.316174 72.4789105,12.7982291 71.876334,12.7982291 M71.876334,9.37591141 C70.4036758,9.37591141 69.5087739,10.3906923 69.5087739,11.6410229 C69.5087739,12.8927229 70.569143,13.9075038 71.876334,13.9075038 C73.1821462,13.9075038 74.2438941,12.8927229 74.2438941,11.6410229 C74.2438941,10.3906923 73.2841843,9.37591141 71.876334,9.37591141 M80.2076085,9.46739233 L84.5662908,9.46739233 L84.5662908,10.3904184 L83.0343401,10.3904184 L83.0343401,13.8168445 L81.7450747,13.8168445 L81.7450747,10.3958963 L80.2076085,10.3958963 L80.2076085,9.46739233 Z M85.3541905,9.46739233 L89.347466,9.46739233 L89.347466,10.3904184 L86.6434559,10.3904184 L86.6434559,11.1422601 L89.1268431,11.1422601 L89.1268431,12.0146156 L86.6434559,12.0146156 L86.6434559,12.8951879 L89.4053796,12.8951879 L89.4053796,13.8168445 L85.3541905,13.8168445 L85.3541905,9.46739233 Z" id="path-2"></path>
        <filter x="-7.2%" y="-32.9%" width="114.4%" height="172.7%" filterUnits="objectBoundingBox" id="filter-3">
            <feMorphology radius="1.04285714" operator="dilate" in="SourceAlpha" result="shadowSpreadOuter1"></feMorphology>
            <feOffset dx="0" dy="1" in="shadowSpreadOuter1" result="shadowOffsetOuter1"></feOffset>
            <feGaussianBlur stdDeviation="3" in="shadowOffsetOuter1" result="shadowBlurOuter1"></feGaussianBlur>
            <feComposite in="shadowBlurOuter1" in2="SourceAlpha" operator="out" result="shadowBlurOuter1"></feComposite>
            <feColorMatrix values="0 0 0 0 0   0 0 0 0 0   0 0 0 0 0  0 0 0 0.2 0" type="matrix" in="shadowBlurOuter1"></feColorMatrix>
        </filter>
        <linearGradient x1="-1.23547869%" y1="45.7145102%" x2="100%" y2="53.2938426%" id="linearGradient-4">
            <stop stop-color="#FFFFFF" stop-opacity="0.25" offset="0%"></stop>
            <stop stop-color="#FFFFFF" stop-opacity="0.35" offset="15.8878787%"></stop>
            <stop stop-color="#FFFFFF" stop-opacity="0.23958561" offset="35.1027096%"></stop>
            <stop stop-color="#FFFFFF" stop-opacity="0.4" offset="53.8811523%"></stop>
            <stop stop-color="#FFFFFF" stop-opacity="0.27107975" offset="70.9665078%"></stop>
            <stop stop-color="#FFFFFF" stop-opacity="0.3" offset="83.5911059%"></stop>
            <stop stop-color="#FFFFFF" stop-opacity="0.144360522" offset="100%"></stop>
        </linearGradient>
        <path d="M160.671,20 L160.671,19.118 L158.988,19.118 C158.664,19.118 158.241,19.145 157.908,19.181 C159.285,17.741 160.356,16.553 160.356,15.374 C160.356,14.204 159.573,13.43 158.358,13.43 C157.494,13.43 156.909,13.808 156.342,14.42 L156.927,14.996 C157.278,14.591 157.71,14.258 158.232,14.258 C158.979,14.258 159.357,14.726 159.357,15.428 C159.357,16.436 158.241,17.588 156.396,19.397 L156.396,20 L160.671,20 Z M163.695,20.117 C165.018,20.117 165.837,18.92 165.837,16.751 C165.837,14.591 165.018,13.43 163.695,13.43 C162.381,13.43 161.553,14.582 161.553,16.751 C161.553,18.92 162.381,20.117 163.695,20.117 Z M163.695,19.298 C163.02,19.298 162.543,18.605 162.543,16.751 C162.543,14.897 163.02,14.249 163.695,14.249 C164.37,14.249 164.847,14.897 164.847,16.751 C164.847,18.605 164.37,19.298 163.695,19.298 Z M170.202,20 L170.202,17.489 L171.201,17.489 C172.641,17.489 173.694,16.823 173.694,15.374 C173.694,13.88 172.641,13.367 171.165,13.367 L169.158,13.367 L169.158,20 L170.202,20 Z M171.102,16.652 L170.202,16.652 L170.202,14.213 L171.066,14.213 C172.119,14.213 172.668,14.501 172.668,15.374 C172.668,16.247 172.164,16.652 171.102,16.652 Z M175.926,20 L175.926,16.913 C176.232,16.13 176.718,15.851 177.123,15.851 C177.321,15.851 177.447,15.878 177.618,15.932 L177.807,15.032 C177.654,14.96 177.492,14.924 177.249,14.924 C176.718,14.924 176.196,15.302 175.845,15.941 L175.818,15.941 L175.737,15.05 L174.891,15.05 L174.891,20 L175.926,20 Z M180.552,20.117 C181.776,20.117 182.883,19.172 182.883,17.525 C182.883,15.878 181.776,14.924 180.552,14.924 C179.328,14.924 178.221,15.878 178.221,17.525 C178.221,19.172 179.328,20.117 180.552,20.117 Z M180.552,19.271 C179.778,19.271 179.292,18.578 179.292,17.525 C179.292,16.481 179.778,15.779 180.552,15.779 C181.335,15.779 181.821,16.481 181.821,17.525 C181.821,18.578 181.335,19.271 180.552,19.271 Z M185.304,20 L185.304,15.878 L186.303,15.878 L186.303,15.05 L185.304,15.05 L185.304,14.42 C185.304,13.817 185.52,13.529 185.961,13.529 C186.132,13.529 186.321,13.574 186.501,13.655 L186.708,12.872 C186.483,12.782 186.168,12.71 185.835,12.71 C184.728,12.71 184.269,13.412 184.269,14.429 L184.269,15.05 L183.594,15.104 L183.594,15.878 L184.269,15.878 L184.269,20 L185.304,20 Z M189.264,20.117 C189.912,20.117 190.479,19.901 190.938,19.595 L190.578,18.938 C190.218,19.172 189.84,19.307 189.399,19.307 C188.544,19.307 187.95,18.74 187.869,17.795 L191.082,17.795 C191.109,17.669 191.136,17.471 191.136,17.264 C191.136,15.869 190.425,14.924 189.111,14.924 C187.959,14.924 186.852,15.923 186.852,17.525 C186.852,19.163 187.923,20.117 189.264,20.117 Z M190.236,17.075 L187.86,17.075 C187.959,16.211 188.508,15.734 189.129,15.734 C189.849,15.734 190.236,16.229 190.236,17.075 Z M193.629,20.117 C194.853,20.117 195.51,19.442 195.51,18.614 C195.51,17.678 194.745,17.372 194.052,17.111 C193.512,16.913 193.026,16.751 193.026,16.328 C193.026,15.986 193.278,15.716 193.827,15.716 C194.232,15.716 194.583,15.896 194.925,16.148 L195.411,15.509 C195.015,15.194 194.466,14.924 193.809,14.924 C192.711,14.924 192.045,15.545 192.045,16.373 C192.045,17.21 192.774,17.561 193.44,17.813 C193.971,18.02 194.529,18.218 194.529,18.668 C194.529,19.046 194.25,19.334 193.656,19.334 C193.125,19.334 192.693,19.109 192.252,18.767 L191.766,19.433 C192.252,19.829 192.945,20.117 193.629,20.117 Z M197.949,20.117 C199.173,20.117 199.83,19.442 199.83,18.614 C199.83,17.678 199.065,17.372 198.372,17.111 C197.832,16.913 197.346,16.751 197.346,16.328 C197.346,15.986 197.598,15.716 198.147,15.716 C198.552,15.716 198.903,15.896 199.245,16.148 L199.731,15.509 C199.335,15.194 198.786,14.924 198.129,14.924 C197.031,14.924 196.365,15.545 196.365,16.373 C196.365,17.21 197.094,17.561 197.76,17.813 C198.291,18.02 198.849,18.218 198.849,18.668 C198.849,19.046 198.57,19.334 197.976,19.334 C197.445,19.334 197.013,19.109 196.572,18.767 L196.086,19.433 C196.572,19.829 197.265,20.117 197.949,20.117 Z M201.441,14.123 C201.819,14.123 202.089,13.88 202.089,13.502 C202.089,13.133 201.819,12.89 201.441,12.89 C201.063,12.89 200.802,13.133 200.802,13.502 C200.802,13.88 201.063,14.123 201.441,14.123 Z M201.963,20 L201.963,15.05 L200.928,15.05 L200.928,20 L201.963,20 Z M205.491,20.117 C206.715,20.117 207.822,19.172 207.822,17.525 C207.822,15.878 206.715,14.924 205.491,14.924 C204.267,14.924 203.16,15.878 203.16,17.525 C203.16,19.172 204.267,20.117 205.491,20.117 Z M205.491,19.271 C204.717,19.271 204.231,18.578 204.231,17.525 C204.231,16.481 204.717,15.779 205.491,15.779 C206.274,15.779 206.76,16.481 206.76,17.525 C206.76,18.578 206.274,19.271 205.491,19.271 Z M210.072,20 L210.072,16.49 C210.504,16.049 210.819,15.815 211.278,15.815 C211.863,15.815 212.115,16.157 212.115,17.012 L212.115,20 L213.15,20 L213.15,16.886 C213.15,15.626 212.682,14.924 211.629,14.924 C210.954,14.924 210.45,15.293 209.991,15.734 L209.964,15.734 L209.883,15.05 L209.037,15.05 L209.037,20 L210.072,20 Z M215.823,20.117 C216.417,20.117 216.948,19.82 217.398,19.433 L217.434,19.433 L217.515,20 L218.361,20 L218.361,17.021 C218.361,15.707 217.794,14.924 216.561,14.924 C215.769,14.924 215.076,15.248 214.563,15.572 L214.95,16.274 C215.373,16.004 215.859,15.77 216.381,15.77 C217.11,15.77 217.317,16.274 217.326,16.85 C215.265,17.075 214.365,17.624 214.365,18.686 C214.365,19.559 214.968,20.117 215.823,20.117 Z M216.138,19.298 C215.697,19.298 215.364,19.1 215.364,18.614 C215.364,18.056 215.859,17.678 217.326,17.507 L217.326,18.722 C216.921,19.091 216.57,19.298 216.138,19.298 Z M220.854,20.117 C221.115,20.117 221.286,20.081 221.412,20.036 L221.277,19.253 C221.187,19.271 221.151,19.271 221.106,19.271 C220.98,19.271 220.863,19.172 220.863,18.893 L220.863,12.827 L219.828,12.827 L219.828,18.839 C219.828,19.64 220.107,20.117 220.854,20.117 Z M157.917,33 L157.917,30.147 L160.365,30.147 L160.365,29.274 L157.917,29.274 L157.917,27.249 L160.797,27.249 L160.797,26.367 L156.873,26.367 L156.873,33 L157.917,33 Z M163.857,33.117 C165.081,33.117 166.188,32.172 166.188,30.525 C166.188,28.878 165.081,27.924 163.857,27.924 C162.633,27.924 161.526,28.878 161.526,30.525 C161.526,32.172 162.633,33.117 163.857,33.117 Z M163.857,32.271 C163.083,32.271 162.597,31.578 162.597,30.525 C162.597,29.481 163.083,28.779 163.857,28.779 C164.64,28.779 165.126,29.481 165.126,30.525 C165.126,31.578 164.64,32.271 163.857,32.271 Z M168.438,33 L168.438,29.913 C168.744,29.13 169.23,28.851 169.635,28.851 C169.833,28.851 169.959,28.878 170.13,28.932 L170.319,28.032 C170.166,27.96 170.004,27.924 169.761,27.924 C169.23,27.924 168.708,28.302 168.357,28.941 L168.33,28.941 L168.249,28.05 L167.403,28.05 L167.403,33 L168.438,33 Z M175.899,33.117 C176.808,33.117 177.555,32.784 177.996,32.343 L177.996,29.472 L175.737,29.472 L175.737,30.327 L177.051,30.327 L177.051,31.884 C176.817,32.091 176.412,32.208 176.007,32.208 C174.639,32.208 173.91,31.245 173.91,29.67 C173.91,28.113 174.729,27.159 175.962,27.159 C176.601,27.159 177.006,27.42 177.339,27.753 L177.897,27.087 C177.492,26.664 176.862,26.25 175.926,26.25 C174.171,26.25 172.839,27.546 172.839,29.706 C172.839,31.875 174.135,33.117 175.899,33.117 Z M181.398,33.117 C182.622,33.117 183.729,32.172 183.729,30.525 C183.729,28.878 182.622,27.924 181.398,27.924 C180.174,27.924 179.067,28.878 179.067,30.525 C179.067,32.172 180.174,33.117 181.398,33.117 Z M181.398,32.271 C180.624,32.271 180.138,31.578 180.138,30.525 C180.138,29.481 180.624,28.779 181.398,28.779 C182.181,28.779 182.667,29.481 182.667,30.525 C182.667,31.578 182.181,32.271 181.398,32.271 Z M187.23,33 L188.94,28.05 L187.932,28.05 L187.086,30.714 C186.951,31.2 186.798,31.704 186.654,32.19 L186.618,32.19 C186.474,31.704 186.33,31.2 186.186,30.714 L185.34,28.05 L184.278,28.05 L186.033,33 L187.23,33 Z M191.91,33.117 C192.558,33.117 193.125,32.901 193.584,32.595 L193.224,31.938 C192.864,32.172 192.486,32.307 192.045,32.307 C191.19,32.307 190.596,31.74 190.515,30.795 L193.728,30.795 C193.755,30.669 193.782,30.471 193.782,30.264 C193.782,28.869 193.071,27.924 191.757,27.924 C190.605,27.924 189.498,28.923 189.498,30.525 C189.498,32.163 190.569,33.117 191.91,33.117 Z M192.882,30.075 L190.506,30.075 C190.605,29.211 191.154,28.734 191.775,28.734 C192.495,28.734 192.882,29.229 192.882,30.075 Z M195.969,33 L195.969,29.913 C196.275,29.13 196.761,28.851 197.166,28.851 C197.364,28.851 197.49,28.878 197.661,28.932 L197.85,28.032 C197.697,27.96 197.535,27.924 197.292,27.924 C196.761,27.924 196.239,28.302 195.888,28.941 L195.861,28.941 L195.78,28.05 L194.934,28.05 L194.934,33 L195.969,33 Z M199.65,33 L199.65,29.49 C200.082,29.049 200.397,28.815 200.856,28.815 C201.441,28.815 201.693,29.157 201.693,30.012 L201.693,33 L202.728,33 L202.728,29.886 C202.728,28.626 202.26,27.924 201.207,27.924 C200.532,27.924 200.028,28.293 199.569,28.734 L199.542,28.734 L199.461,28.05 L198.615,28.05 L198.615,33 L199.65,33 Z M205.266,33 L205.266,29.49 C205.671,29.04 206.04,28.815 206.373,28.815 C206.94,28.815 207.201,29.157 207.201,30.012 L207.201,33 L208.236,33 L208.236,29.49 C208.65,29.04 209.01,28.815 209.352,28.815 C209.91,28.815 210.18,29.157 210.18,30.012 L210.18,33 L211.215,33 L211.215,29.886 C211.215,28.626 210.729,27.924 209.694,27.924 C209.073,27.924 208.569,28.311 208.083,28.833 C207.867,28.266 207.453,27.924 206.715,27.924 C206.103,27.924 205.608,28.293 205.185,28.743 L205.158,28.743 L205.077,28.05 L204.231,28.05 L204.231,33 L205.266,33 Z M214.77,33.117 C215.418,33.117 215.985,32.901 216.444,32.595 L216.084,31.938 C215.724,32.172 215.346,32.307 214.905,32.307 C214.05,32.307 213.456,31.74 213.375,30.795 L216.588,30.795 C216.615,30.669 216.642,30.471 216.642,30.264 C216.642,28.869 215.931,27.924 214.617,27.924 C213.465,27.924 212.358,28.923 212.358,30.525 C212.358,32.163 213.429,33.117 214.77,33.117 Z M215.742,30.075 L213.366,30.075 C213.465,29.211 214.014,28.734 214.635,28.734 C215.355,28.734 215.742,29.229 215.742,30.075 Z M218.829,33 L218.829,29.49 C219.261,29.049 219.576,28.815 220.035,28.815 C220.62,28.815 220.872,29.157 220.872,30.012 L220.872,33 L221.907,33 L221.907,29.886 C221.907,28.626 221.439,27.924 220.386,27.924 C219.711,27.924 219.207,28.293 218.748,28.734 L218.721,28.734 L218.64,28.05 L217.794,28.05 L217.794,33 L218.829,33 Z M225.075,33.117 C225.435,33.117 225.768,33.027 226.047,32.937 L225.858,32.172 C225.714,32.235 225.498,32.289 225.327,32.289 C224.814,32.289 224.607,31.983 224.607,31.389 L224.607,28.878 L225.894,28.878 L225.894,28.05 L224.607,28.05 L224.607,26.682 L223.743,26.682 L223.626,28.05 L222.852,28.104 L222.852,28.878 L223.572,28.878 L223.572,31.38 C223.572,32.424 223.959,33.117 225.075,33.117 Z" id="path-5"></path>
        <filter x="-9.2%" y="-24.6%" width="118.1%" height="159.1%" filterUnits="objectBoundingBox" id="filter-6">
            <feMorphology radius="1.02857143" operator="dilate" in="SourceAlpha" result="shadowSpreadOuter1"></feMorphology>
            <feOffset dx="0" dy="1" in="shadowSpreadOuter1" result="shadowOffsetOuter1"></feOffset>
            <feGaussianBlur stdDeviation="1.5" in="shadowOffsetOuter1" result="shadowBlurOuter1"></feGaussianBlur>
            <feComposite in="shadowBlurOuter1" in2="SourceAlpha" operator="out" result="shadowBlurOuter1"></feComposite>
            <feColorMatrix values="0 0 0 0 0   0 0 0 0 0   0 0 0 0 0  0 0 0 0.2 0" type="matrix" in="shadowBlurOuter1"></feColorMatrix>
        </filter>
    </defs>
    <g id="锁屏水印-政务版-EN" stroke="none" stroke-width="1" fill="none" fill-rule="evenodd">
        <g id="编组-3">
            <rect id="矩形" x="0" y="0" width="232" height="46"></rect>
            <g id="形状结合" fill-rule="nonzero">
                <use fill="black" fill-opacity="1" filter="url(#filter-3)" xlink:href="#path-2"></use>
                <path stroke-opacity="0.05" stroke="#000000" stroke-width="1.04285714" d="M47.3361667,7.47857143 C47.8831848,7.47857143 48.3785913,7.69903633 48.7372538,8.05524896 C49.0969221,8.4124605 49.3192223,8.90606663 49.3192223,9.45164337 L49.3192223,9.45164337 L49.3192223,21.0483566 C49.3192223,21.3050747 49.4239032,21.5371763 49.5930354,21.7051534 C49.7634648,21.8744186 49.999124,21.9785714 50.2594209,21.9785714 L50.2594209,21.9785714 L61.9386487,21.9785714 C62.4853778,21.9785714 62.9810794,22.1992072 63.3400993,22.5554387 C63.7004362,22.912977 63.9230832,23.4068456 63.9230832,23.9516434 L63.9230832,23.9516434 L63.9230832,35.5483566 C63.9230832,36.0931544 63.7004362,36.587023 63.3400993,36.9445613 C62.9810794,37.3007928 62.4853778,37.5214286 61.9386487,37.5214286 L61.9386487,37.5214286 L6.46300599,37.5214286 C5.91556072,37.5214286 5.42011127,37.3008454 5.06137755,36.9448979 C4.7010354,36.5873544 4.47857143,36.0933715 4.47857143,35.5483566 L4.47857143,35.5483566 L4.47857143,9.45164337 C4.47857143,8.90591357 4.7009839,8.41218318 5.06103843,8.05492506 C5.41977763,7.69897205 5.91534304,7.47857143 6.46300599,7.47857143 L6.46300599,7.47857143 Z M149.538373,7.47857143 C150.050777,7.47857143 150.517886,7.67205256 150.869752,7.98928338 C151.232318,8.31616032 151.472298,8.77446595 151.514726,9.28853199 L151.514726,9.28853199 L151.521429,35.5483566 C151.521429,36.0588865 151.326187,36.5245911 151.00552,36.8753688 C150.677251,37.2344625 150.217354,37.4726719 149.701938,37.514775 L149.701938,37.514775 L94.0624544,37.5214286 C93.5496335,37.5214286 93.0824476,37.3278308 92.7305122,37.0107862 C92.367345,36.6836234 92.1271878,36.224979 92.08473,35.7113703 L92.08473,35.7113703 L92.0780199,23.9543823 C92.0780199,23.443033 92.2733296,22.9773825 92.5940847,22.62681 C92.9224129,22.2679604 93.3824916,22.0300328 93.898608,21.9879607 L93.898608,21.9879607 L105.741682,21.9813104 C105.985407,21.9813104 106.207489,21.8897411 106.374632,21.738896 C106.537056,21.5923102 106.647803,21.3898579 106.675213,21.1617722 L106.675213,21.1617722 L106.681881,9.45164337 C106.681881,8.9402941 106.877191,8.47464352 107.197946,8.12407106 C107.526298,7.76519553 107.986419,7.52725948 108.502581,7.4852126 L108.502581,7.4852126 Z M92.4288793,8.83941861 C93.153336,8.83941861 93.7259149,9.04940877 94.1469475,9.36004802 C94.8361899,9.86857325 95.1326023,10.6557616 95.0334225,11.3688084 L95.0334225,11.3688084 L92.9541136,11.602653 L92.8965383,11.0836166 C91.8807531,11.2064079 91.8196152,11.4316365 91.8196152,11.7040187 C91.8196152,11.9281414 91.8815267,12.121335 92.0039864,12.2553687 L92.0039864,12.2553687 L95.073715,11.4770903 C95.1760475,12.4459423 94.8899244,13.2797048 94.2704208,13.8182155 C93.831753,14.1995325 93.2159186,14.4412576 92.4109537,14.4412576 C91.6922655,14.4412576 90.9467407,14.1619175 90.4088926,13.6322866 C89.9386634,13.1692415 89.6198665,12.5167686 89.6198665,11.6848461 C89.6198665,10.8084814 89.9097299,10.1122236 90.3881064,9.62623216 C90.8787261,9.12780256 91.5789147,8.83941861 92.4288793,8.83941861 Z M57.9105561,8.94596376 L57.9105561,11.8461702 L58.8271066,8.94596376 L61.1564714,8.94596376 L61.1564714,12.044744 C61.1564714,12.6440746 61.0045812,13.3525445 60.4018511,13.8493898 C59.9968988,14.1832019 59.3683102,14.4382448 58.3640052,14.4382448 C57.4863175,14.4382448 56.8133763,14.2331418 56.3539808,13.8710812 C55.8610616,13.4825997 55.5784335,12.9111351 55.5784335,12.1323904 L55.5784335,12.1323904 L55.5784335,8.94596376 L57.9105561,8.94596376 Z M71.876334,8.85448284 C72.7169203,8.85448284 73.4220712,9.15881919 73.9251608,9.6401392 C74.4552493,10.1472898 74.7653227,10.8555516 74.7653227,11.6410229 C74.7653227,12.4131234 74.4399225,13.1133664 73.910792,13.6199065 C73.3897477,14.1187057 72.6705998,14.4289323 71.876334,14.4289323 C71.0814311,14.4289323 70.3624905,14.1187891 69.8416982,13.6202312 C69.312555,13.1136789 68.9873453,12.4133184 68.9873453,11.6410229 C68.9873453,10.8470836 69.2863391,10.13409 69.8167175,9.62666211 C70.3091737,9.15551536 71.0069137,8.85448284 71.876334,8.85448284 Z M72.2796147,11.1807717 C72.1770891,11.0726545 72.0336796,11.0107231 71.4717635,11.1808514 C71.3631848,11.2952076 71.3029212,11.4572452 71.3029212,11.6423923 C71.3029212,11.8279039 71.3637818,11.9907536 71.4728342,12.1058815 C71.5754192,12.2141817 71.7187484,12.2768006 71.876334,12.2768006 C72.0333536,12.2768006 72.1762305,12.2141118 72.2785451,12.1059608 C72.3874941,11.9907971 72.448368,11.8279317 72.448368,11.6423923 C72.448368,11.4572171 72.3880908,11.2951638 72.2796147,11.1807717 Z M69.2995268,8.9463746 L69.2995268,14.338684 L66.9646465,14.338684 L66.9646465,8.9463746 L69.2995268,8.9463746 Z M63.3035918,8.94596376 L64.5559954,10.5940214 L64.5559954,8.94596376 L66.8108999,8.94596376 L66.8108999,14.3382731 L64.7853298,14.3382731 L63.5429223,12.6997738 L63.5429223,14.3382731 L61.2838811,14.3382731 L61.2838811,8.94596376 L63.3035918,8.94596376 Z M97.2277734,8.94596376 L97.2277734,10.5496188 L98.0988204,10.5496188 L98.0988204,8.94596376 L100.430943,8.94596376 L100.430943,14.3382731 L98.0933048,14.3382731 L98.0933048,12.5333052 L97.2277734,12.5333052 L97.2277734,14.3382731 L94.8970297,14.3382731 L94.8970297,8.94596376 L97.2277734,8.94596376 Z M76.4285894,8.94596376 L77.680993,10.5940214 L77.680993,8.94596376 L79.9372764,8.94596376 L79.9372764,14.3382731 L77.9103274,14.3382731 L76.6679199,12.6997738 L76.6679199,14.3382731 L74.4088788,14.3382731 L74.4088788,8.94596376 L76.4285894,8.94596376 Z M85.0877193,8.94596376 L85.0877193,10.911847 L83.5557687,10.911847 L83.5557687,14.3382731 L81.2236461,14.3382731 L81.2236461,10.9173249 L79.6861799,10.9173249 L79.6861799,8.94596376 L85.0877193,8.94596376 Z M89.8688946,8.94596376 L89.8688946,10.911847 L89.648,10.911 L89.648,12.337 L89.9268081,12.3737594 L89.9268081,14.3382731 L84.8327619,14.3382731 L84.8327619,8.94596376 L89.8688946,8.94596376 Z" fill="url(#linearGradient-1)" fill-rule="evenodd"></path>
            </g>
            <g id="形状结合" fill-rule="nonzero">
                <use fill="black" fill-opacity="1" filter="url(#filter-6)" xlink:href="#path-5"></use>
                <path stroke-opacity="0.05" stroke="#000000" stroke-width="1.02857143" d="M225.121286,26.1677143 L225.121286,27.5357143 L226.408286,27.5357143 L226.408286,29.3922857 L225.121286,29.3922857 L225.121286,31.389 L226.210916,31.4562484 L226.659422,33.2716314 C226.279958,33.3978906 225.71287,33.6312857 225.075,33.6312857 C224.353221,33.6312857 223.873805,33.3923294 223.554253,33.0230265 C223.222205,32.6392824 223.057714,32.079426 223.057714,31.38 L223.057714,31.38 L223.057714,29.3922857 L222.337714,29.3922857 L222.337714,27.6243446 L223.151095,27.5675971 L223.270822,26.1677143 L225.121286,26.1677143 Z M163.857,27.4097143 C164.643455,27.4097143 165.38985,27.731575 165.923274,28.326785 C166.392591,28.8504628 166.702286,29.5910694 166.702286,30.525 C166.702286,31.4588838 166.392684,32.1970603 165.923731,32.7185217 C165.390436,33.3115289 164.643924,33.6312857 163.857,33.6312857 C163.070076,33.6312857 162.323564,33.3115289 161.790269,32.7185217 C161.321316,32.1970603 161.011714,31.4588838 161.011714,30.525 C161.011714,29.5910694 161.321409,28.8504628 161.790726,28.326785 C162.32415,27.731575 163.070545,27.4097143 163.857,27.4097143 Z M163.857,29.2932857 C163.646594,29.2932857 163.476982,29.3906997 163.358212,29.5552812 C163.189529,29.7890275 163.111286,30.1278758 163.111286,30.525 C163.111286,30.9247267 163.188737,31.2632312 163.3568,31.4961186 C163.475755,31.660956 163.646198,31.7567143 163.857,31.7567143 C164.071385,31.7567143 164.244779,31.6616062 164.365345,31.4957214 C164.534429,31.2630815 164.611714,30.9245987 164.611714,30.525 C164.611714,30.1280028 164.533633,29.789176 164.363925,29.5556769 C164.243543,29.3900441 164.070978,29.2932857 163.857,29.2932857 Z M175.926,25.7357143 C177.304107,25.7357143 178.12345,26.4917837 178.568621,27.0861815 L178.568621,27.0861815 L177.353131,28.5369279 C177.001918,28.1486875 176.693214,27.6732857 175.962,27.6732857 C175.508391,27.6732857 175.12709,27.8436535 174.863418,28.1663048 C174.57269,28.5220642 174.424286,29.0398161 174.424286,29.67 C174.424286,30.3218807 174.556502,30.8567432 174.855273,31.2183453 C175.117916,31.5362229 175.510484,31.6937143 176.007,31.6937143 C176.192557,31.6937143 176.384205,31.6668256 176.536714,31.6034357 L176.536714,31.6034357 L176.536714,30.8412857 L175.222714,30.8412857 L175.222714,28.9577143 L178.510286,28.9577143 L178.510286,32.5409437 C178.022319,33.134475 177.082974,33.6312857 175.899,33.6312857 C174.837193,33.6312857 173.925636,33.2391165 173.285125,32.5251353 C172.69231,31.8643209 172.324714,30.9155918 172.324714,29.706 C172.324714,28.5025428 172.700251,27.541672 173.302041,26.8679484 C173.951763,26.140563 174.871798,25.7357143 175.926,25.7357143 Z M181.398,27.4097143 C182.184455,27.4097143 182.93085,27.731575 183.464274,28.326785 C183.933591,28.8504628 184.243286,29.5910694 184.243286,30.525 C184.243286,31.4588838 183.933684,32.1970603 183.464731,32.7185217 C182.931436,33.3115289 182.184924,33.6312857 181.398,33.6312857 C180.611076,33.6312857 179.864564,33.3115289 179.331269,32.7185217 C178.862316,32.1970603 178.552714,31.4588838 178.552714,30.525 C178.552714,29.5910694 178.862409,28.8504628 179.331726,28.326785 C179.86515,27.731575 180.611545,27.4097143 181.398,27.4097143 Z M181.398,29.2932857 C181.187594,29.2932857 181.017982,29.3906997 180.899212,29.5552812 C180.730529,29.7890275 180.652286,30.1278758 180.652286,30.525 C180.652286,30.9247267 180.729737,31.2632312 180.8978,31.4961186 C181.016755,31.660956 181.187198,31.7567143 181.398,31.7567143 C181.612385,31.7567143 181.785779,31.6616062 181.906345,31.4957214 C182.075429,31.2630815 182.152714,30.9245987 182.152714,30.525 C182.152714,30.1280028 182.074633,29.789176 181.904925,29.5556769 C181.784543,29.3900441 181.611978,29.2932857 181.398,29.2932857 Z M191.757,27.4097143 C192.573748,27.4097143 193.198108,27.7103486 193.629217,28.2085193 C194.0553,28.7008814 194.296286,29.4068509 194.296286,30.264 C194.296286,30.5130447 194.263349,30.7511882 194.23087,30.9027578 L194.23087,30.9027578 L191.179888,31.3092857 C191.521816,31.7081588 191.76455,31.7927143 192.045,31.7927143 C192.564714,31.7927143 192.96583,31.5370957 193.384344,31.1603913 L193.384344,31.1603913 L194.247855,32.7362991 C193.658277,33.2403104 192.857341,33.6312857 191.91,33.6312857 C191.066919,33.6312857 190.315885,33.3146887 189.783507,32.7425809 C189.295333,32.2179759 188.983714,31.4706948 188.983714,30.525 C188.983714,29.6188759 189.289966,28.8796557 189.749166,28.3509354 C190.277327,27.7428136 191.011232,27.4097143 191.757,27.4097143 Z M214.617,27.4097143 C215.433748,27.4097143 216.058108,27.7103486 216.489217,28.2085193 C216.9153,28.7008814 217.156286,29.4068509 217.156286,30.264 C217.156286,30.5130447 217.123349,30.7511882 217.09087,30.9027578 L217.09087,30.9027578 L214.039888,31.3092857 C214.381816,31.7081588 214.62455,31.7927143 214.905,31.7927143 C215.424714,31.7927143 215.82583,31.5370957 216.244344,31.1603913 L216.244344,31.1603913 L217.107855,32.7362991 C216.518277,33.2403104 215.717341,33.6312857 214.77,33.6312857 C213.926919,33.6312857 213.175885,33.3146887 212.643507,32.7425809 C212.155333,32.2179759 211.843714,31.4706948 211.843714,30.525 C211.843714,29.6188759 212.149966,28.8796557 212.609166,28.3509354 C213.137327,27.7428136 213.871232,27.4097143 214.617,27.4097143 Z M161.311286,25.8527143 L161.311286,27.7632857 L158.431286,27.7632857 L158.431286,28.7597143 L160.879286,28.7597143 L160.879286,30.6612857 L158.431286,30.6612857 L158.431286,33.5142857 L156.358714,33.5142857 L156.358714,25.8527143 L161.311286,25.8527143 Z M209.694,27.4097143 C210.394625,27.4097143 210.897527,27.6637204 211.238116,28.1030598 C211.551863,28.5077748 211.729286,29.1025269 211.729286,29.886 L211.729286,29.886 L211.729286,33.5142857 L209.665714,33.5142857 L209.665714,30.012 C209.665714,29.7336933 209.64868,29.5246547 209.558233,29.3939008 C209.153976,29.3292857 208.96515,29.4749352 208.750286,29.6944324 L208.750286,29.6944324 L208.750286,33.5142857 L206.686714,33.5142857 L206.686714,30.012 C206.686714,29.7324088 206.671474,29.5224323 206.58095,29.3915649 C206.181581,29.3292857 205.991178,29.4741743 205.780286,29.6919983 L205.780286,29.6919983 L205.780286,33.5142857 L203.716714,33.5142857 L203.716714,27.5357143 L205.534675,27.5357143 L205.56,27.758 L205.683661,27.6863662 C205.948425,27.542183 206.229628,27.4461857 206.53142,27.4181918 L206.715,27.4097143 C207.191482,27.4097143 207.562544,27.526547 207.854747,27.7207088 C208.652093,27.6407425 209.140912,27.4097143 209.694,27.4097143 Z M201.207,27.4097143 C201.916906,27.4097143 202.417277,27.6635775 202.754702,28.0988366 C203.068318,28.5033825 203.242286,29.0993283 203.242286,29.886 L203.242286,29.886 L203.242286,33.5142857 L201.178714,33.5142857 L201.178714,30.012 C201.178714,29.7319343 201.16591,29.521286 201.07462,29.3907315 C200.580883,29.3292857 200.392004,29.4763391 200.164286,29.7013631 L200.164286,29.7013631 L200.164286,33.5142857 L198.100714,33.5142857 L198.100714,27.5357143 L199.917977,27.5357143 L199.946,27.778 L199.957377,27.771751 C200.277294,27.5812768 200.621336,27.4513436 201.009279,27.4181071 Z M197.292,27.4097143 C197.81971,27.4097143 198.069114,27.5466154 198.430285,27.7711358 L198.430285,27.7711358 L198.049105,29.5862789 C197.513096,29.447036 197.441266,29.3652857 197.166,29.3652857 C196.692397,29.6296898 196.579462,29.7937356 196.483286,30.0146589 L196.483286,30.0146589 L196.483286,33.5142857 L194.419714,33.5142857 L194.419714,27.5357143 L196.249653,27.5357143 L196.268,27.743 L196.286698,27.73069 C196.562571,27.5483081 196.855214,27.442762 197.146534,27.416328 Z M220.386,27.409 L220.574451,27.415954 C221.185536,27.4573704 221.626952,27.7031465 221.933702,28.0988366 C222.247318,28.5033825 222.421286,29.0993283 222.421286,29.886 L222.421286,29.886 L222.421286,33.5142857 L220.357714,33.5142857 L220.357714,30.012 C220.357714,29.7319343 220.34491,29.521286 220.25362,29.3907315 C219.759883,29.3292857 219.571004,29.4763391 219.343286,29.7013631 L219.343286,29.7013631 L219.343286,33.5142857 L217.279714,33.5142857 L217.279714,27.5357143 L219.096977,27.5357143 L219.125,27.778 L219.136377,27.771751 C219.456294,27.5812768 219.800336,27.4513436 220.188279,27.4181071 L220.386,27.409 Z M185.716289,27.5357143 L186.636,30.43 L187.555725,27.5357143 L189.661771,27.5357143 L187.596446,33.5142857 L185.669685,33.5142857 L183.55001,27.5357143 L185.716289,27.5357143 Z M169.761,27.4097143 C170.28871,27.4097143 170.538114,27.5466154 170.899285,27.7711358 L170.899285,27.7711358 L170.518105,29.5862789 C169.982096,29.447036 169.910266,29.3652857 169.635,29.3652857 C169.161397,29.6296898 169.048462,29.7937356 168.952286,30.0146589 L168.952286,30.0146589 L168.952286,33.5142857 L166.888714,33.5142857 L166.888714,27.5357143 L168.718653,27.5357143 L168.737,27.743 L168.755698,27.73069 C169.031571,27.5483081 169.324214,27.442762 169.615534,27.416328 Z M221.377286,12.3127143 L221.377286,18.7758944 L222.084635,20.248573 C221.883678,20.3949282 221.72061,20.4718826 221.584973,20.5203244 C221.419915,20.5792738 221.196677,20.6312857 220.854,20.6312857 C220.296898,20.6312857 219.927027,20.4340562 219.678447,20.1244215 C219.44304,19.831195 219.313714,19.4015889 219.313714,18.839 L219.313714,18.839 L219.313714,12.3127143 L221.377286,12.3127143 Z M216.561,14.4097143 C217.347859,14.4097143 217.911605,14.6759311 218.293656,15.1210211 C218.631783,15.514939 218.832402,16.0721272 218.869144,16.77962 L218.875286,17.021 L218.875286,20.5142857 L217.068962,20.5142857 L217.039,20.308 L217.026391,20.3159271 C216.710918,20.4791224 216.380064,20.5893246 216.03311,20.6215254 L215.823,20.6312857 C215.240514,20.6312857 214.751487,20.4280624 214.405532,20.0885133 C214.062872,19.7521992 213.850714,19.2750389 213.850714,18.686 C213.850714,17.9704053 214.147273,17.4227684 214.798512,17.01896 C215.237418,16.7468121 215.868148,16.5432942 216.718562,16.4110812 C215.821395,16.2933425 215.282267,16.6738415 214.862869,16.9481594 L214.768102,17.0093035 L213.88774,15.4123671 C214.480008,14.9726262 215.435332,14.4097143 216.561,14.4097143 Z M216.811714,18.1356183 C216.483815,18.2497725 216.170476,18.4700458 216.138,18.7837143 C216.388924,18.7837143 216.593227,18.6683417 216.811714,18.1356183 Z M163.695,12.9157143 C164.547143,12.9157143 165.236717,13.2920174 165.708565,14.02358 C166.1108,14.6472134 166.351286,15.5591123 166.351286,16.751 C166.351286,17.947817 166.110861,18.8717491 165.707711,19.505271 C165.235392,20.2474864 164.545167,20.6312857 163.695,20.6312857 C162.849386,20.6312857 162.157717,20.2471302 161.68375,19.5023243 C161.280601,18.8688047 161.038714,17.9458443 161.038714,16.751 C161.038714,15.5574204 161.28034,14.6471805 161.681754,14.0248194 C162.155222,13.2907448 162.846465,12.9157143 163.695,12.9157143 Z M163.896502,14.8219657 C163.836777,14.7786441 163.767977,14.7632857 163.493498,14.8219657 C163.414848,14.8790149 163.353608,14.9709064 163.29854,15.090508 C163.136934,15.4414969 163.057286,15.9805962 163.057286,16.751 C163.057286,17.5279726 163.138916,18.0791174 163.302469,18.4407242 C163.359361,18.5665092 163.422669,18.6636422 163.503739,18.7243977 C163.560507,18.7669407 163.625569,18.7837143 163.695,18.7837143 C163.764431,18.7837143 163.829493,18.7669407 163.886261,18.7243977 C163.967331,18.6636422 164.030639,18.5665092 164.087531,18.4407242 C164.251084,18.0791174 164.332714,17.5279726 164.332714,16.751 C164.332714,15.9805962 164.253066,15.4414969 164.09146,15.090508 C164.036392,14.9709064 163.975152,14.8790149 163.896502,14.8219657 Z M205.491,14.4097143 C206.277455,14.4097143 207.02385,14.731575 207.557274,15.326785 C208.026591,15.8504628 208.336286,16.5910694 208.336286,17.525 C208.336286,18.4588838 208.026684,19.1970603 207.557731,19.7185217 C207.024436,20.3115289 206.277924,20.6312857 205.491,20.6312857 C204.704076,20.6312857 203.957564,20.3115289 203.424269,19.7185217 C202.955316,19.1970603 202.645714,18.4588838 202.645714,17.525 C202.645714,16.5910694 202.955409,15.8504628 203.424726,15.326785 C203.95815,14.731575 204.704545,14.4097143 205.491,14.4097143 Z M205.491,16.2932857 C205.280594,16.2932857 205.110982,16.3906997 204.992212,16.5552812 C204.823529,16.7890275 204.745286,17.1278758 204.745286,17.525 C204.745286,17.9247267 204.822737,18.2632312 204.9908,18.4961186 C205.109755,18.660956 205.280198,18.7567143 205.491,18.7567143 C205.705385,18.7567143 205.878779,18.6616062 205.999345,18.4957214 C206.168429,18.2630815 206.245714,17.9245987 206.245714,17.525 C206.245714,17.1280028 206.167633,16.789176 205.997925,16.5556769 C205.877543,16.3900441 205.704978,16.2932857 205.491,16.2932857 Z M198.129,14.4097143 C199.148287,14.4097143 199.954542,14.9445556 200.422056,15.4499322 L200.422056,15.4499322 L199.344798,16.8663274 C198.948244,16.5852922 198.603718,16.2302857 198.147,16.2302857 L198.176,16.232 L198.182865,16.252244 C198.254816,16.4515305 198.337387,16.5372769 198.446564,16.588387 L198.49503,16.6084008 C199.034135,16.8107185 199.521704,17.0216713 199.856528,17.3668299 C200.147963,17.6672594 200.344286,18.0605041 200.344286,18.614 C200.344286,19.2038437 200.098947,19.7358247 199.629425,20.1109927 C199.238496,20.4233621 198.678778,20.6312857 197.949,20.6312857 C196.960945,20.6312857 195.954295,20.1240582 195.407373,19.490514 L195.407373,19.490514 L196.476546,18.025351 C196.984457,18.44532 197.397736,18.8197143 197.976,18.8197143 C198.094801,18.5022699 197.867858,18.4066278 197.641044,18.3185262 C197.11637,18.1192156 196.652638,17.8975758 196.331655,17.5662385 C196.040878,17.2660817 195.850714,16.8828943 195.850714,16.373 C195.850714,15.7895087 196.092731,15.2820833 196.528444,14.9241759 C196.90906,14.6115276 197.449917,14.4097143 198.129,14.4097143 Z M193.809,14.4097143 C194.828287,14.4097143 195.634542,14.9445556 196.102056,15.4499322 L196.102056,15.4499322 L195.024798,16.8663274 C194.628244,16.5852922 194.283718,16.2302857 193.827,16.2302857 L193.856,16.232 L193.862865,16.252244 C193.934816,16.4515305 194.017387,16.5372769 194.126564,16.588387 L194.17503,16.6084008 C194.714135,16.8107185 195.201704,17.0216713 195.536528,17.3668299 C195.827963,17.6672594 196.024286,18.0605041 196.024286,18.614 C196.024286,19.2038437 195.778947,19.7358247 195.309425,20.1109927 C194.918496,20.4233621 194.358778,20.6312857 193.629,20.6312857 C192.640945,20.6312857 191.634295,20.1240582 191.087373,19.490514 L191.087373,19.490514 L192.156546,18.025351 C192.664457,18.44532 193.077736,18.8197143 193.656,18.8197143 C193.774801,18.5022699 193.547858,18.4066278 193.321044,18.3185262 C192.79637,18.1192156 192.332638,17.8975758 192.011655,17.5662385 C191.720878,17.2660817 191.530714,16.8828943 191.530714,16.373 C191.530714,15.7895087 191.772731,15.2820833 192.208444,14.9241759 C192.58906,14.6115276 193.129917,14.4097143 193.809,14.4097143 Z M180.552,14.4097143 C181.338455,14.4097143 182.08485,14.731575 182.618274,15.326785 C183.087591,15.8504628 183.397286,16.5910694 183.397286,17.525 C183.397286,18.4588838 183.087684,19.1970603 182.618731,19.7185217 C182.085436,20.3115289 181.338924,20.6312857 180.552,20.6312857 C179.765076,20.6312857 179.018564,20.3115289 178.485269,19.7185217 C178.016316,19.1970603 177.706714,18.4588838 177.706714,17.525 C177.706714,16.5910694 178.016409,15.8504628 178.485726,15.326785 C179.01915,14.731575 179.765545,14.4097143 180.552,14.4097143 Z M180.552,16.2932857 C180.341594,16.2932857 180.171982,16.3906997 180.053212,16.5552812 C179.884529,16.7890275 179.806286,17.1278758 179.806286,17.525 C179.806286,17.9247267 179.883737,18.2632312 180.0518,18.4961186 C180.170755,18.660956 180.341198,18.7567143 180.552,18.7567143 C180.766385,18.7567143 180.939779,18.6616062 181.060345,18.4957214 C181.229429,18.2630815 181.306714,17.9245987 181.306714,17.525 C181.306714,17.1280028 181.228633,16.789176 181.058925,16.5556769 C180.938543,16.3900441 180.765978,16.2932857 180.552,16.2932857 Z M189.111,14.4097143 C189.927748,14.4097143 190.552108,14.7103486 190.983217,15.2085193 C191.4093,15.7008814 191.650286,16.4068509 191.650286,17.264 C191.650286,17.5130447 191.617349,17.7511882 191.58487,17.9027578 L191.58487,17.9027578 L188.533888,18.3092857 C188.875816,18.7081588 189.11855,18.7927143 189.399,18.7927143 C189.918714,18.7927143 190.31983,18.5370957 190.738344,18.1603913 L190.738344,18.1603913 L191.601855,19.7362991 C191.012277,20.2403104 190.211341,20.6312857 189.264,20.6312857 C188.420919,20.6312857 187.669885,20.3146887 187.137507,19.7425809 C186.649333,19.2179759 186.337714,18.4706948 186.337714,17.525 C186.337714,16.6188759 186.643966,15.8796557 187.103166,15.3509354 C187.631327,14.7428136 188.365232,14.4097143 189.111,14.4097143 Z M158.358,12.9157143 C159.117978,12.9157143 159.735218,13.1703807 160.168566,13.592016 C160.608974,14.020522 160.870286,14.6304889 160.870286,15.374 C160.870286,16.3441418 160.240427,17.3382978 159.274608,18.4530609 L159.142,18.603 L161.185286,18.6037143 L161.185286,20.5142857 L155.881714,20.5142857 L155.881714,19.1812617 C157.640319,17.450751 158.842714,16.3887019 158.842714,15.428 C158.842714,15.2230134 158.805448,15.0414491 158.68949,14.9208536 C157.654956,14.7722857 157.279888,15.4145919 156.958596,15.7488471 L156.958596,15.7488471 L155.637364,14.4479416 C156.418435,13.4945248 157.172761,12.9157143 158.358,12.9157143 Z M211.629,14.4097143 C212.338906,14.4097143 212.839277,14.6635775 213.176702,15.0988366 C213.490318,15.5033825 213.664286,16.0993283 213.664286,16.886 L213.664286,16.886 L213.664286,20.5142857 L211.600714,20.5142857 L211.600714,17.012 C211.600714,16.7319343 211.58791,16.521286 211.49662,16.3907315 C211.002883,16.3292857 210.814004,16.4763391 210.586286,16.7013631 L210.586286,16.7013631 L210.586286,20.5142857 L208.522714,20.5142857 L208.522714,14.5357143 L210.339977,14.5357143 L210.368,14.778 L210.379377,14.771751 C210.699294,14.5812768 211.043336,14.4513436 211.431279,14.4181071 Z M202.477286,14.5357143 L202.477286,20.5142857 L200.413714,20.5142857 L200.413714,14.5357143 L202.477286,14.5357143 Z M171.165,12.8527143 C172.086309,12.8527143 172.854279,13.0479079 173.381124,13.4660093 C173.888059,13.8683104 174.208286,14.4740491 174.208286,15.374 C174.208286,16.2488638 173.888561,16.8866733 173.375525,17.3219202 C172.896858,17.72801 172.228429,17.9588667 171.440796,17.9974845 L171.201,18.0032857 L170.716286,20.5142857 L168.643714,20.5142857 L168.643714,12.8527143 L171.165,12.8527143 Z M170.895167,14.7279044 L170.716286,14.7272857 L170.716286,16.1377143 L171.102,16.1377143 L171.258263,16.13484 C171.560307,16.1229614 171.798692,16.0720128 171.95949,15.9407863 C172.110872,15.8172453 172.153714,15.6183614 172.153714,15.374 C172.153714,15.1639776 172.120292,14.997968 171.986633,14.901103 C171.784223,14.7544126 171.467233,14.7272857 170.716286,14.7272857 Z M177.249,14.4097143 C177.77671,14.4097143 178.026114,14.5466154 178.387285,14.7711358 L178.387285,14.7711358 L178.006105,16.5862789 C177.470096,16.447036 177.398266,16.3652857 177.123,16.3652857 C176.649397,16.6296898 176.536462,16.7937356 176.440286,17.0146589 L176.440286,17.0146589 L176.440286,20.5142857 L174.376714,20.5142857 L174.376714,14.5357143 L176.206653,14.5357143 L176.225,14.743 L176.243698,14.73069 C176.519571,14.5483081 176.812214,14.442762 177.103534,14.416328 Z M185.835,12.1957143 C186.241046,12.1957143 186.624774,12.2848069 186.899001,12.3944977 L186.899001,12.3944977 L186.843157,14.3729288 L186.289955,14.1239882 L186.817286,14.5357143 L186.817286,16.3922857 L185.818286,16.3922857 L185.818286,20.5142857 L183.754714,20.5142857 L183.754714,16.3922857 L183.079714,16.3922857 L183.079714,14.6292141 L183.754714,14.5752141 C183.754714,13.7469907 183.938956,13.1889229 184.291014,12.8024677 C184.627554,12.4330476 185.12441,12.1957143 185.835,12.1957143 Z M200.622421,12.6877399 C201.922471,12.2834497 202.092274,12.525428 202.262705,12.6863912 C202.471403,12.8834944 202.603286,13.1612923 202.603286,13.502 C202.603286,13.846978 202.47187,14.1250266 202.266232,14.3220966 C202.064137,14.5157709 201.780396,14.6372857 201.441,14.6372857 C201.099617,14.6372857 200.818609,14.5148012 200.618924,14.3207412 C200.416889,14.1243977 200.287714,13.8471846 200.287714,13.502 C200.287714,13.1610631 200.417377,12.8841193 200.622421,12.6877399 Z" fill="url(#linearGradient-4)" fill-rule="evenodd"></path>
            </g>
        </g>
    </g>
</svg>