<?xml version="1.0" encoding="UTF-8"?>
<svg width="232px" height="46px" viewBox="0 0 232 46" version="1.1" xmlns="http://www.w3.org/2000/svg" xmlns:xlink="http://www.w3.org/1999/xlink">
    <title>锁屏水印-政务版-EN</title>
    <defs>
        <path d="M43.3790238,1.04285714 C44.1856765,1.04285714 44.8406509,1.69198823 44.8406509,2.49450051 L44.8406509,14.0912138 C44.8406509,14.8937261 45.4942464,15.5428571 46.302278,15.5428571 L57.9815058,15.5428571 C58.7881585,15.5428571 59.4445118,16.1933577 59.4445118,16.9945005 L59.4445118,28.5912138 C59.4445118,29.3923566 58.7881585,30.0428571 57.9815058,30.0428571 L2.50586313,30.0428571 C1.69783155,30.0428571 1.04285714,29.3923566 1.04285714,28.5912138 L1.04285714,2.49450051 C1.04285714,1.69198823 1.69783155,1.04285714 2.50586313,1.04285714 L43.3790238,1.04285714 Z M53.4319847,2.51024947 L53.4319847,4.88902734 C53.4319847,5.60663217 53.802907,5.88463557 54.4165146,5.88463557 C55.1487071,5.88463557 55.3913923,5.55322265 55.3913923,4.85342099 L55.3913923,2.51024947 L56.6778999,2.51024947 L56.6778999,5.08760119 C56.6778999,5.88052715 56.3910901,6.95967335 54.4068624,6.95967335 C52.961782,6.95967335 52.1427193,6.3680602 52.1427193,5.17524758 L52.1427193,2.51024947 L53.4319847,2.51024947 Z M59.0877921,2.51024947 L61.1202811,5.18483391 L61.1202811,2.51024947 L62.3323284,2.51024947 L62.3323284,6.85970168 L61.0871876,6.85970168 L59.0643509,4.19196462 L59.0643509,6.85970168 L57.8481668,6.85970168 L57.8481668,2.51024947 L59.0877921,2.51024947 Z M145.58123,1.04285714 C146.387883,1.04285714 147.042857,1.69198823 147.042857,2.49450051 L147.042857,2.49450051 L147.042857,28.5912138 C147.042857,29.3923566 146.387883,30.0428571 145.58123,30.0428571 L145.58123,30.0428571 L90.1053116,30.0428571 C89.29728,30.0428571 88.6423056,29.3923566 88.6423056,28.5912138 L88.6423056,28.5912138 L88.6423056,16.9972395 C88.6423056,16.1947272 89.29728,15.5455961 90.1053116,15.5455961 L90.1053116,15.5455961 L101.784539,15.5455961 C102.592571,15.5455961 103.246166,14.8950955 103.246166,14.0925832 L103.246166,14.0925832 L103.246166,2.49450051 C103.246166,1.69198823 103.901141,1.04285714 104.709172,1.04285714 L104.709172,1.04285714 Z M88.4717365,2.40370433 C89.8092631,2.40370433 90.5318033,3.24182295 90.5717912,4.06898578 L90.5717912,4.06898578 L89.4576453,4.06898578 C89.4397197,3.90738774 89.2452957,3.38424834 88.4758731,3.38424834 C87.8319299,3.38424834 87.3410438,3.88684562 87.3410438,4.74687584 C87.3410438,5.5014565 87.8346877,6.00405378 88.4896621,6.00405378 C89.1915189,6.00405378 89.4286885,5.60690607 89.4948754,5.08924456 L89.4948754,5.08924456 L90.6090214,5.08924456 C90.5345611,6.16839077 89.810642,6.96268619 88.4538108,6.96268619 C87.3589694,6.96268619 86.1841522,6.17523814 86.1841522,4.72770319 C86.1841522,3.28016825 87.1024952,2.40370433 88.4717365,2.40370433 Z M92.7492019,2.51024947 L92.7492019,4.11390456 L94.6631061,4.11390456 L94.6631061,2.51024947 L95.9523715,2.51024947 L95.9523715,6.85970168 L94.6575905,6.85970168 L94.6575905,5.0547338 L92.7492019,5.0547338 L92.7492019,6.85970168 L91.4613154,6.85970168 L91.4613154,2.51024947 L92.7492019,2.51024947 Z M70.9731645,2.51024947 L72.2127897,2.51024947 L74.2452787,5.18483391 L74.2452787,2.51024947 L75.458705,2.51024947 L75.458705,6.85970168 L74.2121853,6.85970168 L72.1893485,4.19196462 L72.1893485,6.85970168 L70.9731645,6.85970168 L70.9731645,2.51024947 Z M63.5289322,6.86011253 L64.8209554,6.86011253 L64.8209554,2.51066032 L63.5289322,2.51066032 L63.5289322,6.86011253 Z M67.9191912,5.84108627 C67.3152358,5.84108627 66.8243497,5.35903111 66.8243497,4.68524947 C66.8243497,4.01009836 67.3152358,3.53215163 67.9191912,3.53215163 C68.5217676,3.53215163 69.0126537,4.01009836 69.0126537,4.68524947 C69.0126537,5.35903111 68.5217676,5.84108627 67.9191912,5.84108627 M67.9191912,2.41876855 C66.4465329,2.41876855 65.5516311,3.43354944 65.5516311,4.68388 C65.5516311,5.93558004 66.6120002,6.95036092 67.9191912,6.95036092 C69.2250033,6.95036092 70.2867513,5.93558004 70.2867513,4.68388 C70.2867513,3.43354944 69.3270414,2.41876855 67.9191912,2.41876855 M76.2504656,2.51024947 L80.6091479,2.51024947 L80.6091479,3.43327554 L79.0771973,3.43327554 L79.0771973,6.85970168 L77.7879318,6.85970168 L77.7879318,3.43875344 L76.2504656,3.43875344 L76.2504656,2.51024947 Z M81.3970477,2.51024947 L85.3903232,2.51024947 L85.3903232,3.43327554 L82.6863131,3.43327554 L82.6863131,4.18511725 L85.1697002,4.18511725 L85.1697002,5.05747275 L82.6863131,5.05747275 L82.6863131,5.93804509 L85.4482367,5.93804509 L85.4482367,6.85970168 L81.3970477,6.85970168 L81.3970477,2.51024947 Z" id="path-1"></path>
        <filter x="-4.5%" y="-19.0%" width="108.9%" height="144.8%" filterUnits="objectBoundingBox" id="filter-2">
            <feOffset dx="0" dy="1" in="SourceAlpha" result="shadowOffsetOuter1"></feOffset>
            <feGaussianBlur stdDeviation="2" in="shadowOffsetOuter1" result="shadowBlurOuter1"></feGaussianBlur>
            <feComposite in="shadowBlurOuter1" in2="SourceAlpha" operator="out" result="shadowBlurOuter1"></feComposite>
            <feColorMatrix values="0 0 0 0 0   0 0 0 0 0   0 0 0 0 0  0 0 0 0.2 0" type="matrix" in="shadowBlurOuter1"></feColorMatrix>
        </filter>
        <linearGradient x1="-1.23547869%" y1="48.0273034%" x2="100%" y2="51.5162215%" id="linearGradient-3">
            <stop stop-color="#FFFFFF" stop-opacity="0.25" offset="0%"></stop>
            <stop stop-color="#FFFFFF" stop-opacity="0.35" offset="15.8878787%"></stop>
            <stop stop-color="#FFFFFF" stop-opacity="0.151570353" offset="35.1027096%"></stop>
            <stop stop-color="#FFFFFF" stop-opacity="0.4" offset="53.8811523%"></stop>
            <stop stop-color="#FFFFFF" stop-opacity="0.15" offset="70.9665078%"></stop>
            <stop stop-color="#FFFFFF" stop-opacity="0.3" offset="83.5911059%"></stop>
            <stop stop-color="#FFFFFF" stop-opacity="0.14" offset="100%"></stop>
        </linearGradient>
        <path d="M1.49228568,8.33657143 L5.95628568,8.33657143 L5.95628568,7.22057143 L4.49828568,7.22057143 C4.18328568,7.22057143 3.74228568,7.25657143 3.40928568,7.29257143 C4.59728568,6.05057143 5.64128568,4.88057143 5.64128568,3.74657143 C5.64128568,2.52257143 4.80428568,1.72157143 3.54428568,1.72157143 C2.63528568,1.72157143 2.04128568,2.08157143 1.42928568,2.73857143 L2.14928568,3.45857143 C2.49128568,3.08957143 2.88728568,2.76557143 3.37328568,2.76557143 C4.01228568,2.76557143 4.37228568,3.16157143 4.37228568,3.81857143 C4.37228568,4.78157143 3.22928568,5.91557143 1.49228568,7.57157143 L1.49228568,8.33657143 Z M8.96128568,8.46257143 C10.3292857,8.46257143 11.2112857,7.26557143 11.2112857,5.06057143 C11.2112857,2.87357143 10.3292857,1.72157143 8.96128568,1.72157143 C7.59328568,1.72157143 6.70228568,2.86457143 6.70228568,5.06057143 C6.70228568,7.26557143 7.59328568,8.46257143 8.96128568,8.46257143 Z M8.96128568,7.42757143 C8.38528568,7.42757143 7.95328568,6.86957143 7.95328568,5.06057143 C7.95328568,3.26057143 8.38528568,2.75657143 8.96128568,2.75657143 C9.53728568,2.75657143 9.96028568,3.26057143 9.96028568,5.06057143 C9.96028568,6.86957143 9.53728568,7.42757143 8.96128568,7.42757143 Z M14.2692857,8.33657143 L15.6012857,8.33657143 L15.6012857,5.96957143 L16.4922857,5.96957143 C17.9232857,5.96957143 19.0662857,5.28557143 19.0662857,3.76457143 C19.0662857,2.18957143 17.9322857,1.66757143 16.4562857,1.66757143 L14.2692857,1.66757143 L14.2692857,8.33657143 Z M15.6012857,4.91657143 L15.6012857,2.72957143 L16.3572857,2.72957143 C17.2752857,2.72957143 17.7612857,2.99057143 17.7612857,3.76457143 C17.7612857,4.52957143 17.3202857,4.91657143 16.4022857,4.91657143 L15.6012857,4.91657143 Z M20.0642857,8.33657143 L21.3872857,8.33657143 L21.3872857,5.33057143 C21.6662857,4.60157143 22.1432857,4.34057143 22.5392857,4.34057143 C22.7462857,4.34057143 22.8902857,4.36757143 23.0702857,4.42157143 L23.2952857,3.27857143 C23.1422857,3.21557143 22.9802857,3.17057143 22.7012857,3.17057143 C22.1792857,3.17057143 21.6392857,3.53057143 21.2702857,4.18757143 L21.2432857,4.18757143 L21.1442857,3.29657143 L20.0642857,3.29657143 L20.0642857,8.33657143 Z M25.8862857,8.46257143 C27.1462857,8.46257143 28.3072857,7.49057143 28.3072857,5.81657143 C28.3072857,4.14257143 27.1462857,3.17057143 25.8862857,3.17057143 C24.6262857,3.17057143 23.4652857,4.14257143 23.4652857,5.81657143 C23.4652857,7.49057143 24.6262857,8.46257143 25.8862857,8.46257143 Z M25.8862857,7.38257143 C25.2022857,7.38257143 24.8152857,6.77057143 24.8152857,5.81657143 C24.8152857,4.87157143 25.2022857,4.25057143 25.8862857,4.25057143 C26.5702857,4.25057143 26.9572857,4.87157143 26.9572857,5.81657143 C26.9572857,6.77057143 26.5702857,7.38257143 25.8862857,7.38257143 Z M34.4432857,3.17057143 C35.8292857,3.17057143 36.5492857,4.18757143 36.5492857,5.57357143 C36.5492857,5.82557143 36.5222857,6.06857143 36.4862857,6.18557143 L36.4862857,6.18557143 L33.3812857,6.18557143 C33.4892857,7.01357143 34.0292857,7.44557143 34.7762857,7.44557143 C35.1902857,7.44557143 35.5502857,7.31957143 35.9102857,7.09457143 L35.9102857,7.09457143 L36.3602857,7.90457143 C35.8652857,8.24657143 35.2262857,8.46257143 34.6052857,8.46257143 C33.1922857,8.46257143 32.0942857,7.48157143 32.0942857,5.81657143 C32.0942857,4.18757143 33.2462857,3.17057143 34.4432857,3.17057143 Z M31.2492857,1.02857143 C31.6362857,1.02857143 31.9782857,1.11857143 32.2032857,1.19957143 L32.2032857,1.19957143 L31.9602857,2.18057143 C31.7892857,2.10857143 31.5912857,2.07257143 31.4292857,2.07257143 C31.0332857,2.07257143 30.8172857,2.30657143 30.8172857,2.86457143 L30.8172857,2.86457143 L30.8172857,3.29657143 L31.7622857,3.29657143 L31.7622857,4.34057143 L30.8172857,4.34057143 L30.8172857,8.33657143 L29.4942857,8.33657143 L29.4942857,4.34057143 L28.8192857,4.34057143 L28.8192857,3.35957143 L29.4942857,3.30557143 L29.4942857,2.89157143 C29.4942857,1.83857143 29.9802857,1.02857143 31.2492857,1.02857143 Z M34.4612857,4.19657143 C33.9302857,4.19657143 33.4622857,4.57457143 33.3632857,5.30357143 L33.3632857,5.30357143 L35.4152857,5.30357143 C35.4152857,4.62857143 35.1092857,4.19657143 34.4612857,4.19657143 Z M38.9782857,8.46257143 C40.2922857,8.46257143 40.9852857,7.75157143 40.9852857,6.86957143 C40.9852857,5.93357143 40.2472857,5.60057143 39.5812857,5.34857143 C39.0502857,5.15057143 38.5822857,5.01557143 38.5822857,4.64657143 C38.5822857,4.35857143 38.7982857,4.16057143 39.2572857,4.16057143 C39.6262857,4.16057143 39.9772857,4.33157143 40.3372857,4.59257143 L40.9312857,3.79157143 C40.5172857,3.47657143 39.9502857,3.17057143 39.2212857,3.17057143 C38.0692857,3.17057143 37.3402857,3.80957143 37.3402857,4.70957143 C37.3402857,5.55557143 38.0512857,5.94257143 38.6902857,6.18557143 C39.2212857,6.39257143 39.7432857,6.56357143 39.7432857,6.94157143 C39.7432857,7.25657143 39.5182857,7.47257143 39.0142857,7.47257143 C38.5462857,7.47257143 38.1142857,7.27457143 37.6642857,6.92357143 L37.0612857,7.75157143 C37.5652857,8.16557143 38.3032857,8.46257143 38.9782857,8.46257143 Z M43.3332857,8.46257143 C44.6472857,8.46257143 45.3402857,7.75157143 45.3402857,6.86957143 C45.3402857,5.93357143 44.6022857,5.60057143 43.9362857,5.34857143 C43.4052857,5.15057143 42.9372857,5.01557143 42.9372857,4.64657143 C42.9372857,4.35857143 43.1532857,4.16057143 43.6122857,4.16057143 C43.9812857,4.16057143 44.3322857,4.33157143 44.6922857,4.59257143 L45.2862857,3.79157143 C44.8722857,3.47657143 44.3052857,3.17057143 43.5762857,3.17057143 C42.4242857,3.17057143 41.6952857,3.80957143 41.6952857,4.70957143 C41.6952857,5.55557143 42.4062857,5.94257143 43.0452857,6.18557143 C43.5762857,6.39257143 44.0982857,6.56357143 44.0982857,6.94157143 C44.0982857,7.25657143 43.8732857,7.47257143 43.3692857,7.47257143 C42.9012857,7.47257143 42.4692857,7.27457143 42.0192857,6.92357143 L41.4162857,7.75157143 C41.9202857,8.16557143 42.6582857,8.46257143 43.3332857,8.46257143 Z M46.2482857,8.33657143 L47.5712857,8.33657143 L47.5712857,3.29657143 L46.2482857,3.29657143 L46.2482857,8.33657143 Z M46.9142857,2.48657143 C47.3642857,2.48657143 47.6792857,2.19857143 47.6792857,1.75757143 C47.6792857,1.32557143 47.3642857,1.03757143 46.9142857,1.03757143 C46.4552857,1.03757143 46.1402857,1.32557143 46.1402857,1.75757143 C46.1402857,2.19857143 46.4552857,2.48657143 46.9142857,2.48657143 Z M50.9902857,8.46257143 C52.2502857,8.46257143 53.4112857,7.49057143 53.4112857,5.81657143 C53.4112857,4.14257143 52.2502857,3.17057143 50.9902857,3.17057143 C49.7302857,3.17057143 48.5692857,4.14257143 48.5692857,5.81657143 C48.5692857,7.49057143 49.7302857,8.46257143 50.9902857,8.46257143 Z M50.9902857,7.38257143 C50.3062857,7.38257143 49.9192857,6.77057143 49.9192857,5.81657143 C49.9192857,4.87157143 50.3062857,4.25057143 50.9902857,4.25057143 C51.6742857,4.25057143 52.0612857,4.87157143 52.0612857,5.81657143 C52.0612857,6.77057143 51.6742857,7.38257143 50.9902857,7.38257143 Z M54.4182857,8.33657143 L55.7412857,8.33657143 L55.7412857,4.87157143 C56.1102857,4.50257143 56.3712857,4.30457143 56.7852857,4.30457143 C57.2802857,4.30457143 57.4962857,4.57457143 57.4962857,5.35757143 L57.4962857,8.33657143 L58.8192857,8.33657143 L58.8192857,5.19557143 C58.8192857,3.92657143 58.3512857,3.17057143 57.2622857,3.17057143 C56.5782857,3.17057143 56.0652857,3.53057143 55.6242857,3.96257143 L55.5972857,3.96257143 L55.4982857,3.29657143 L54.4182857,3.29657143 L54.4182857,8.33657143 Z M61.3292857,8.46257143 C61.9052857,8.46257143 62.4092857,8.17457143 62.8502857,7.79657143 L62.8862857,7.79657143 L62.9762857,8.33657143 L64.0562857,8.33657143 L64.0562857,5.39357143 C64.0562857,3.93557143 63.3992857,3.17057143 62.1212857,3.17057143 C61.3292857,3.17057143 60.6092857,3.46757143 60.0152857,3.83657143 L60.4922857,4.70957143 C60.9602857,4.43957143 61.4102857,4.23257143 61.8782857,4.23257143 C62.4992857,4.23257143 62.7152857,4.61057143 62.7422857,5.10557143 C60.7082857,5.32157143 59.8352857,5.88857143 59.8352857,6.96857143 C59.8352857,7.82357143 60.4292857,8.46257143 61.3292857,8.46257143 Z M61.7612857,7.42757143 C61.3742857,7.42757143 61.0952857,7.25657143 61.0952857,6.86057143 C61.0952857,6.41057143 61.5092857,6.06857143 62.7422857,5.91557143 L62.7422857,6.93257143 C62.4182857,7.24757143 62.1392857,7.42757143 61.7612857,7.42757143 Z M66.5482857,8.46257143 C66.8632857,8.46257143 67.0792857,8.40857143 67.2322857,8.34557143 L67.0702857,7.36457143 C66.9802857,7.38257143 66.9442857,7.38257143 66.8902857,7.38257143 C66.7642857,7.38257143 66.6292857,7.28357143 66.6292857,6.97757143 L66.6292857,1.15457143 L65.3062857,1.15457143 L65.3062857,6.92357143 C65.3062857,7.85957143 65.6302857,8.46257143 66.5482857,8.46257143 Z M1.92428568,21.3365714 L3.25628568,21.3365714 L3.25628568,18.6365714 L5.62328568,18.6365714 L5.62328568,17.5205714 L3.25628568,17.5205714 L3.25628568,15.7835714 L6.02828568,15.7835714 L6.02828568,14.6675714 L1.92428568,14.6675714 L1.92428568,21.3365714 Z M8.81628568,21.4625714 C10.0762857,21.4625714 11.2372857,20.4905714 11.2372857,18.8165714 C11.2372857,17.1425714 10.0762857,16.1705714 8.81628568,16.1705714 C7.55628568,16.1705714 6.39528568,17.1425714 6.39528568,18.8165714 C6.39528568,20.4905714 7.55628568,21.4625714 8.81628568,21.4625714 Z M8.81628568,20.3825714 C8.13228568,20.3825714 7.74528568,19.7705714 7.74528568,18.8165714 C7.74528568,17.8715714 8.13228568,17.2505714 8.81628568,17.2505714 C9.50028568,17.2505714 9.88728568,17.8715714 9.88728568,18.8165714 C9.88728568,19.7705714 9.50028568,20.3825714 8.81628568,20.3825714 Z M12.1442857,21.3365714 L13.4672857,21.3365714 L13.4672857,18.3305714 C13.7462857,17.6015714 14.2232857,17.3405714 14.6192857,17.3405714 C14.8262857,17.3405714 14.9702857,17.3675714 15.1502857,17.4215714 L15.3752857,16.2785714 C15.2222857,16.2155714 15.0602857,16.1705714 14.7812857,16.1705714 C14.2592857,16.1705714 13.7192857,16.5305714 13.3502857,17.1875714 L13.3232857,17.1875714 L13.2242857,16.2965714 L12.1442857,16.2965714 L12.1442857,21.3365714 Z M20.6812857,21.4625714 C21.6082857,21.4625714 22.3912857,21.1025714 22.8412857,20.6615714 L22.8412857,17.6555714 L20.4742857,17.6555714 L20.4742857,18.7445714 L21.6532857,18.7445714 L21.6532857,20.0585714 C21.4642857,20.2205714 21.1402857,20.3105714 20.8252857,20.3105714 C19.5112857,20.3105714 18.8452857,19.4375714 18.8452857,17.9885714 C18.8452857,16.5575714 19.6192857,15.6935714 20.7262857,15.6935714 C21.3292857,15.6935714 21.7072857,15.9365714 22.0402857,16.2515714 L22.7422857,15.4055714 C22.3102857,14.9645714 21.6442857,14.5505714 20.6812857,14.5505714 C18.9082857,14.5505714 17.4862857,15.8375714 17.4862857,18.0335714 C17.4862857,20.2565714 18.8722857,21.4625714 20.6812857,21.4625714 Z M26.0702857,21.4625714 C27.3302857,21.4625714 28.4912857,20.4905714 28.4912857,18.8165714 C28.4912857,17.1425714 27.3302857,16.1705714 26.0702857,16.1705714 C24.8102857,16.1705714 23.6492857,17.1425714 23.6492857,18.8165714 C23.6492857,20.4905714 24.8102857,21.4625714 26.0702857,21.4625714 Z M26.0702857,20.3825714 C25.3862857,20.3825714 24.9992857,19.7705714 24.9992857,18.8165714 C24.9992857,17.8715714 25.3862857,17.2505714 26.0702857,17.2505714 C26.7542857,17.2505714 27.1412857,17.8715714 27.1412857,18.8165714 C27.1412857,19.7705714 26.7542857,20.3825714 26.0702857,20.3825714 Z M30.4602857,21.3365714 L31.9902857,21.3365714 L33.6732857,16.2965714 L32.4042857,16.2965714 L31.6662857,18.8075714 C31.5312857,19.3025714 31.3962857,19.8245714 31.2612857,20.3375714 L31.2162857,20.3375714 C31.0812857,19.8245714 30.9462857,19.3025714 30.8112857,18.8075714 L30.0732857,16.2965714 L28.7412857,16.2965714 L30.4602857,21.3365714 Z M36.4342857,21.4625714 C37.0552857,21.4625714 37.6942857,21.2465714 38.1892857,20.9045714 L37.7392857,20.0945714 C37.3792857,20.3195714 37.0192857,20.4455714 36.6052857,20.4455714 C35.8582857,20.4455714 35.3182857,20.0135714 35.2102857,19.1855714 L38.3152857,19.1855714 C38.3512857,19.0685714 38.3782857,18.8255714 38.3782857,18.5735714 C38.3782857,17.1875714 37.6582857,16.1705714 36.2722857,16.1705714 C35.0752857,16.1705714 33.9232857,17.1875714 33.9232857,18.8165714 C33.9232857,20.4815714 35.0212857,21.4625714 36.4342857,21.4625714 Z M35.1922857,18.3035714 C35.2912857,17.5745714 35.7592857,17.1965714 36.2902857,17.1965714 C36.9382857,17.1965714 37.2442857,17.6285714 37.2442857,18.3035714 L35.1922857,18.3035714 Z M39.2672857,21.3365714 L40.5902857,21.3365714 L40.5902857,18.3305714 C40.8692857,17.6015714 41.3462857,17.3405714 41.7422857,17.3405714 C41.9492857,17.3405714 42.0932857,17.3675714 42.2732857,17.4215714 L42.4982857,16.2785714 C42.3452857,16.2155714 42.1832857,16.1705714 41.9042857,16.1705714 C41.3822857,16.1705714 40.8422857,16.5305714 40.4732857,17.1875714 L40.4462857,17.1875714 L40.3472857,16.2965714 L39.2672857,16.2965714 L39.2672857,21.3365714 Z M42.9912857,21.3365714 L44.3142857,21.3365714 L44.3142857,17.8715714 C44.6832857,17.5025714 44.9442857,17.3045714 45.3582857,17.3045714 C45.8532857,17.3045714 46.0692857,17.5745714 46.0692857,18.3575714 L46.0692857,21.3365714 L47.3922857,21.3365714 L47.3922857,18.1955714 C47.3922857,16.9265714 46.9242857,16.1705714 45.8352857,16.1705714 C45.1512857,16.1705714 44.6382857,16.5305714 44.1972857,16.9625714 L44.1702857,16.9625714 L44.0712857,16.2965714 L42.9912857,16.2965714 L42.9912857,21.3365714 Z M48.5602857,21.3365714 L49.8832857,21.3365714 L49.8832857,17.8715714 C50.2342857,17.4935714 50.5582857,17.3045714 50.8462857,17.3045714 C51.3232857,17.3045714 51.5572857,17.5745714 51.5572857,18.3575714 L51.5572857,21.3365714 L52.8712857,21.3365714 L52.8712857,17.8715714 C53.2312857,17.4935714 53.5552857,17.3045714 53.8432857,17.3045714 C54.3202857,17.3045714 54.5452857,17.5745714 54.5452857,18.3575714 L54.5452857,21.3365714 L55.8682857,21.3365714 L55.8682857,18.1955714 C55.8682857,16.9265714 55.3732857,16.1705714 54.3022857,16.1705714 C53.6452857,16.1705714 53.1592857,16.5665714 52.7002857,17.0525714 C52.4572857,16.4945714 52.0342857,16.1705714 51.3142857,16.1705714 C50.6572857,16.1705714 50.1892857,16.5305714 49.7662857,16.9715714 L49.7392857,16.9715714 L49.6402857,16.2965714 L48.5602857,16.2965714 L48.5602857,21.3365714 Z M59.2322857,21.4625714 C59.8532857,21.4625714 60.4922857,21.2465714 60.9872857,20.9045714 L60.5372857,20.0945714 C60.1772857,20.3195714 59.8172857,20.4455714 59.4032857,20.4455714 C58.6562857,20.4455714 58.1162857,20.0135714 58.0082857,19.1855714 L61.1132857,19.1855714 C61.1492857,19.0685714 61.1762857,18.8255714 61.1762857,18.5735714 C61.1762857,17.1875714 60.4562857,16.1705714 59.0702857,16.1705714 C57.8732857,16.1705714 56.7212857,17.1875714 56.7212857,18.8165714 C56.7212857,20.4815714 57.8192857,21.4625714 59.2322857,21.4625714 Z M57.9902857,18.3035714 C58.0892857,17.5745714 58.5572857,17.1965714 59.0882857,17.1965714 C59.7362857,17.1965714 60.0422857,17.6285714 60.0422857,18.3035714 L57.9902857,18.3035714 Z M62.0652857,21.3365714 L63.3882857,21.3365714 L63.3882857,17.8715714 C63.7572857,17.5025714 64.0182857,17.3045714 64.4322857,17.3045714 C64.9272857,17.3045714 65.1432857,17.5745714 65.1432857,18.3575714 L65.1432857,21.3365714 L66.4662857,21.3365714 L66.4662857,18.1955714 C66.4662857,16.9265714 65.9982857,16.1705714 64.9092857,16.1705714 C64.2252857,16.1705714 63.7122857,16.5305714 63.2712857,16.9625714 L63.2442857,16.9625714 L63.1452857,16.2965714 L62.0652857,16.2965714 L62.0652857,21.3365714 Z M69.4792857,21.4625714 C69.9202857,21.4625714 70.2712857,21.3635714 70.5412857,21.2735714 L70.3252857,20.3105714 C70.1902857,20.3645714 69.9922857,20.4185714 69.8302857,20.4185714 C69.3802857,20.4185714 69.1462857,20.1485714 69.1462857,19.5725714 L69.1462857,17.3405714 L70.3882857,17.3405714 L70.3882857,16.2965714 L69.1462857,16.2965714 L69.1462857,14.9375714 L68.0482857,14.9375714 L67.8952857,16.2965714 L67.1122857,16.3595714 L67.1122857,17.3405714 L67.8232857,17.3405714 L67.8232857,19.5725714 C67.8232857,20.6975714 68.2822857,21.4625714 69.4792857,21.4625714 Z" id="path-4"></path>
        <filter x="-7.2%" y="-19.6%" width="114.5%" height="148.9%" filterUnits="objectBoundingBox" id="filter-5">
            <feOffset dx="0" dy="1" in="SourceAlpha" result="shadowOffsetOuter1"></feOffset>
            <feGaussianBlur stdDeviation="1.5" in="shadowOffsetOuter1" result="shadowBlurOuter1"></feGaussianBlur>
            <feComposite in="shadowBlurOuter1" in2="SourceAlpha" operator="out" result="shadowBlurOuter1"></feComposite>
            <feColorMatrix values="0 0 0 0 0   0 0 0 0 0   0 0 0 0 0  0 0 0 0.3 0" type="matrix" in="shadowBlurOuter1"></feColorMatrix>
        </filter>
        <linearGradient x1="-1.23547869%" y1="45.6291102%" x2="100%" y2="53.3594813%" id="linearGradient-6">
            <stop stop-color="#FFFFFF" stop-opacity="0.25" offset="0%"></stop>
            <stop stop-color="#FFFFFF" stop-opacity="0.35" offset="15.8878787%"></stop>
            <stop stop-color="#FFFFFF" stop-opacity="0.23958561" offset="35.1027096%"></stop>
            <stop stop-color="#FFFFFF" stop-opacity="0.4" offset="53.8811523%"></stop>
            <stop stop-color="#FFFFFF" stop-opacity="0.27107975" offset="70.9665078%"></stop>
            <stop stop-color="#FFFFFF" stop-opacity="0.3" offset="83.5911059%"></stop>
            <stop stop-color="#FFFFFF" stop-opacity="0.144360522" offset="100%"></stop>
        </linearGradient>
    </defs>
    <g id="锁屏水印-政务版-EN" stroke="none" stroke-width="1" fill="none" fill-rule="evenodd">
        <g id="编组-3">
            <rect id="矩形" x="0" y="0" width="232" height="46"></rect>
            <g id="logo" transform="translate(3.957143, 6.957143)">
                <path d="M43.3790238,0 C44.7051086,0 45.7932433,1.02735133 45.8781723,2.33025657 L45.8835081,2.49450051 L45.8835081,14.0912138 C45.8835081,14.2880468 46.0252241,14.453399 46.2171947,14.4916615 L46.302278,14.5 L57.9815058,14.5 C59.307241,14.5 60.3969681,15.5282767 60.4820251,16.8303676 L60.487369,16.9945005 L60.487369,28.5912138 C60.487369,29.9148127 59.4506712,30.9960334 58.1459379,31.0804133 L57.9815058,31.0857143 L2.50586313,31.0857143 C1.1791167,31.0857143 0.0903199553,30.0577317 0.0053390097,28.755382 L0,28.5912138 L0,2.49450051 C0,1.1695873 1.03542653,0.0895757833 2.34127851,0.00529472298 L2.50586313,0 L43.3790238,0 Z M145.58123,0 C146.816737,0 147.857236,0.895186354 148.055999,2.13375026 L148.077825,2.30472189 L148.085714,2.49450051 L148.085714,28.5912138 C148.085714,29.8247059 147.182881,30.859255 145.942356,31.0562835 L145.771153,31.0778998 L145.58123,31.0857143 L90.1053116,31.0857143 C88.8691598,31.0857143 87.828117,30.1900093 87.6291876,28.9517776 L87.6073413,28.7808566 L87.5994484,28.5912138 L87.5994484,16.9972395 C87.5994484,15.7624072 88.5024299,14.7287647 89.7439885,14.5321017 L89.9153375,14.5105316 L90.1053116,14.5027389 L101.784539,14.5027389 C101.975234,14.5027389 102.136144,14.3781521 102.184314,14.2416691 L102.197813,14.1827766 L102.203309,14.0925832 L102.203309,2.49450051 C102.203309,1.25966821 103.106291,0.226025765 104.347849,0.0293627221 L104.519198,0.00779263297 L104.709172,0 L145.58123,0 Z M43.3790238,1.04285714 L2.50586313,1.04285714 C1.74536282,1.04285714 1.12044256,1.617866 1.04955402,2.3545738 L1.04285714,2.49450051 L1.04285714,28.5912138 C1.04285714,29.3452305 1.62304208,29.9658064 2.36496031,30.0362063 L2.50586313,30.0428571 L57.9815058,30.0428571 L58.1221931,30.0362063 C58.8167984,29.9702064 59.3712129,29.4206534 59.4378015,28.7309264 L59.4445118,28.5912138 L59.4445118,16.9945005 C59.4445118,16.2404838 58.8631054,15.6199079 58.1221931,15.549508 L57.9815058,15.5428571 L46.302278,15.5428571 C45.5417777,15.5428571 44.9180789,14.9678483 44.847334,14.2311405 L44.8406509,14.0912138 L44.8406509,2.49450051 C44.8406509,1.73919484 44.260466,1.11975624 43.5196973,1.04949462 L43.3790238,1.04285714 Z M145.58123,1.04285714 L104.709172,1.04285714 L104.56827,1.04949462 C103.872721,1.11536489 103.319321,1.66391024 103.252863,2.3545738 L103.246166,2.49450051 L103.246166,14.0925832 L103.239483,14.2325236 C103.17316,14.923321 102.620842,15.4729409 101.925428,15.538945 L101.784539,15.5455961 L90.1053116,15.5455961 L89.9644088,15.5522336 C89.2688604,15.6181038 88.7154605,16.1666492 88.6490025,16.8573127 L88.6423056,16.9972395 L88.6423056,28.5912138 L88.6490025,28.7309264 C88.7154605,29.4206534 89.2688604,29.9702064 89.9644088,30.0362063 L90.1053116,30.0428571 L145.58123,30.0428571 L145.721904,30.0362063 C146.416374,29.9702064 146.969707,29.4206534 147.036161,28.7309264 L147.042857,28.5912138 L147.042857,2.49450051 L147.036161,2.3545738 C146.969707,1.66391024 146.416374,1.11536489 145.721904,1.04949462 L145.58123,1.04285714 Z M88.4717365,1.36084719 C89.2241112,1.36084719 89.8930443,1.5691937 90.418995,1.93066312 L90.4184583,1.46739233 L96.9952287,1.46739233 L96.9952287,7.90255883 L90.4184583,7.90255883 L90.4194767,7.43775463 C90.0019627,7.72774416 89.491872,7.91651568 88.909406,7.98091858 L88.6554055,8.00083792 L88.4538108,8.00554334 C87.7295756,8.00554334 87.0467027,7.78347095 86.4912686,7.3899112 L86.4910939,7.90255883 L80.3541905,7.90255883 L80.3538571,4.47585714 L80.1198571,4.47585714 L80.1200544,7.90255883 L76.7450747,7.90255883 L76.7448571,4.48085714 L76.5008571,4.48085714 L76.5015621,7.90255883 L75.2878571,7.90185714 L75.0008571,7.90185714 L73.6941839,7.90255883 L73.2318571,7.29285714 L73.2322057,7.90255883 L69.9303073,7.90255883 L69.9305289,7.35612986 C69.365236,7.75718061 68.6690145,7.99321806 67.9191912,7.99321806 C67.1490547,7.99321806 66.4357389,7.74454254 65.8626871,7.32394905 L65.8638125,7.90296967 L62.1628571,7.90185714 L61.8758571,7.90185714 L60.5691863,7.90255883 L60.1068571,7.29285714 L60.107208,7.90255883 L56.8053097,7.90255883 L56.8064607,7.28441974 C56.2627223,7.73955452 55.4692445,8.00253049 54.4068624,8.00253049 C52.4820388,8.00253049 51.1943709,7.06317984 51.1048498,5.36683615 L51.0998621,5.17524758 L51.0998621,1.46739233 L58.0208571,1.46685714 L58.3068571,1.46685714 L59.6051058,1.46739233 L60.0768571,2.08785714 L60.0774239,1.46739233 L65.8638125,1.46780317 L65.8628397,1.99466407 C66.4212069,1.60263504 67.1244832,1.37591141 67.9191912,1.37591141 C68.6838328,1.37591141 69.3742097,1.59893464 69.9305926,1.98283134 L69.9303073,1.46739233 L71.1458571,1.46685714 L71.4318571,1.46685714 L72.7301035,1.46739233 L73.2018571,2.08785714 L73.2024216,1.46739233 L86.4331803,1.46739233 L86.4331759,1.98142557 C86.9809814,1.58361821 87.6773688,1.36084719 88.4717365,1.36084719 Z M88.4717365,2.40370433 C87.1024952,2.40370433 86.1841522,3.28016825 86.1841522,4.72770319 C86.1841522,5.14990089 86.2840932,5.51594535 86.4528415,5.82267652 L86.500877,5.9053979 C86.8915209,6.54362547 87.5891237,6.90447146 88.2811117,6.95620973 L88.4538108,6.96268619 L88.6433366,6.95733783 C89.5409619,6.90576433 90.134836,6.48508973 90.4194679,5.86437694 L90.4456066,5.80474306 C90.5139617,5.64141754 90.5617326,5.46514091 90.5888251,5.27881405 L90.6090214,5.08924456 L89.4948754,5.08924456 L89.4792713,5.19108805 C89.3950006,5.65809399 89.1447284,6.00405378 88.4896621,6.00405378 C87.8346877,6.00405378 87.3410438,5.5014565 87.3410438,4.74687584 C87.3410438,3.88684562 87.8319299,3.38424834 88.4758731,3.38424834 C89.1940009,3.38424834 89.4112409,3.83996089 89.4515888,4.03210775 L89.4576453,4.06898578 L90.5717912,4.06898578 L90.5606824,3.94493532 C90.4580118,3.16010639 89.7423868,2.40370433 88.4717365,2.40370433 Z M53.4319847,2.51024947 L52.1427193,2.51024947 L52.1427193,5.17524758 C52.1427193,6.31384145 52.889014,6.90464819 54.2137043,6.95600543 L54.4068624,6.95967335 L54.6130272,6.95560616 C56.2728889,6.88854499 56.6278087,6.00511579 56.6725901,5.26821617 L56.6778999,5.08760119 L56.6778999,2.51024947 L55.3913923,2.51024947 L55.3913923,4.85342099 C55.3913923,5.55322265 55.1487071,5.88463557 54.4165146,5.88463557 C53.8438142,5.88463557 53.4825196,5.64246372 53.4368923,5.02673483 L53.4319847,4.88902734 L53.4319847,2.51024947 Z M67.9191912,2.41876855 C66.9809654,2.41876855 66.2772464,2.8306603 65.8900458,3.45294031 C65.6694885,3.80740361 65.5516311,4.230131 65.5516311,4.68388 C65.5516311,5.88342587 66.525477,6.86538453 67.7571367,6.94513187 L67.9191912,6.95036092 L68.0810874,6.94513187 C68.8616161,6.89454879 69.5393749,6.48098265 69.930709,5.87914407 L69.9631199,5.82779729 C70.1687793,5.49202234 70.2867513,5.10111334 70.2867513,4.68388 C70.2867513,3.43354944 69.3270414,2.41876855 67.9191912,2.41876855 Z M64.8209554,2.51066032 L63.5289322,2.51066032 L63.5289322,6.86011253 L64.8209554,6.86011253 L64.8209554,2.51066032 Z M85.3903232,2.51024947 L81.3970477,2.51024947 L81.3970477,6.85970168 L85.4482367,6.85970168 L85.4482367,5.93804509 L82.6863131,5.93804509 L82.6863131,5.05747275 L85.1697002,5.05747275 L85.1697002,4.18511725 L82.6863131,4.18511725 L82.6863131,3.43327554 L85.3903232,3.43327554 L85.3903232,2.51024947 Z M92.7492019,2.51024947 L91.4613154,2.51024947 L91.4613154,6.85970168 L92.7492019,6.85970168 L92.7492019,5.0547338 L94.6575905,5.0547338 L94.6575905,6.85970168 L95.9523715,6.85970168 L95.9523715,2.51024947 L94.6631061,2.51024947 L94.6631061,4.11390456 L92.7492019,4.11390456 L92.7492019,2.51024947 Z M80.6091479,2.51024947 L76.2504656,2.51024947 L76.2504656,3.43875344 L77.7879318,3.43875344 L77.7879318,6.85970168 L79.0771973,6.85970168 L79.0771973,3.43327554 L80.6091479,3.43327554 L80.6091479,2.51024947 Z M72.2127897,2.51024947 L70.9731645,2.51024947 L70.9731645,6.85970168 L72.1893485,6.85970168 L72.1893485,4.19196462 L74.2121853,6.85970168 L75.458705,6.85970168 L75.458705,2.51024947 L74.2452787,2.51024947 L74.2452787,5.18483391 L72.2127897,2.51024947 Z M59.0877921,2.51024947 L57.8481668,2.51024947 L57.8481668,6.85970168 L59.0643509,6.85970168 L59.0643509,4.19196462 L61.0871876,6.85970168 L62.3323284,6.85970168 L62.3323284,2.51024947 L61.1202811,2.51024947 L61.1202811,5.18483391 L59.0877921,2.51024947 Z M67.9191912,3.53215163 C68.6122259,3.53215163 69.0185017,4.13357305 69.0185017,4.74108627 C69.0185017,5.34859949 68.526015,5.84108627 67.9185017,5.84108627 C67.3109885,5.84108627 66.8185017,5.34859949 66.8185017,4.74108627 C66.8185017,4.13357305 67.2261564,3.53215163 67.9191912,3.53215163 Z" id="形状结合" fill-opacity="0.05" fill="#000000"></path>
                <g id="形状结合" fill-rule="nonzero">
                    <use fill="black" fill-opacity="1" filter="url(#filter-2)" xlink:href="#path-1"></use>
                    <use fill-opacity="0" fill="#FFFFFF" xlink:href="#path-1"></use>
                </g>
                <path d="M43.3790238,1.04285714 C44.1856765,1.04285714 44.8406509,1.69198823 44.8406509,2.49450051 L44.8406509,14.0912138 C44.8406509,14.8937261 45.4942464,15.5428571 46.302278,15.5428571 L57.9815058,15.5428571 C58.7881585,15.5428571 59.4445118,16.1933577 59.4445118,16.9945005 L59.4445118,28.5912138 C59.4445118,29.3923566 58.7881585,30.0428571 57.9815058,30.0428571 L2.50586313,30.0428571 C1.69783155,30.0428571 1.04285714,29.3923566 1.04285714,28.5912138 L1.04285714,2.49450051 C1.04285714,1.69198823 1.69783155,1.04285714 2.50586313,1.04285714 L43.3790238,1.04285714 Z M53.4319847,2.51024947 L53.4319847,4.88902734 C53.4319847,5.60663217 53.802907,5.88463557 54.4165146,5.88463557 C55.1487071,5.88463557 55.3913923,5.55322265 55.3913923,4.85342099 L55.3913923,2.51024947 L56.6778999,2.51024947 L56.6778999,5.08760119 C56.6778999,5.88052715 56.3910901,6.95967335 54.4068624,6.95967335 C52.961782,6.95967335 52.1427193,6.3680602 52.1427193,5.17524758 L52.1427193,2.51024947 L53.4319847,2.51024947 Z M59.0877921,2.51024947 L61.1202811,5.18483391 L61.1202811,2.51024947 L62.3323284,2.51024947 L62.3323284,6.85970168 L61.0871876,6.85970168 L59.0643509,4.19196462 L59.0643509,6.85970168 L57.8481668,6.85970168 L57.8481668,2.51024947 L59.0877921,2.51024947 Z M145.58123,1.04285714 C146.387883,1.04285714 147.042857,1.69198823 147.042857,2.49450051 L147.042857,2.49450051 L147.042857,28.5912138 C147.042857,29.3923566 146.387883,30.0428571 145.58123,30.0428571 L145.58123,30.0428571 L90.1053116,30.0428571 C89.29728,30.0428571 88.6423056,29.3923566 88.6423056,28.5912138 L88.6423056,28.5912138 L88.6423056,16.9972395 C88.6423056,16.1947272 89.29728,15.5455961 90.1053116,15.5455961 L90.1053116,15.5455961 L101.784539,15.5455961 C102.592571,15.5455961 103.246166,14.8950955 103.246166,14.0925832 L103.246166,14.0925832 L103.246166,2.49450051 C103.246166,1.69198823 103.901141,1.04285714 104.709172,1.04285714 L104.709172,1.04285714 Z M88.4717365,2.40370433 C89.8092631,2.40370433 90.5318033,3.24182295 90.5717912,4.06898578 L90.5717912,4.06898578 L89.4576453,4.06898578 C89.4397197,3.90738774 89.2452957,3.38424834 88.4758731,3.38424834 C87.8319299,3.38424834 87.3410438,3.88684562 87.3410438,4.74687584 C87.3410438,5.5014565 87.8346877,6.00405378 88.4896621,6.00405378 C89.1915189,6.00405378 89.4286885,5.60690607 89.4948754,5.08924456 L89.4948754,5.08924456 L90.6090214,5.08924456 C90.5345611,6.16839077 89.810642,6.96268619 88.4538108,6.96268619 C87.3589694,6.96268619 86.1841522,6.17523814 86.1841522,4.72770319 C86.1841522,3.28016825 87.1024952,2.40370433 88.4717365,2.40370433 Z M92.7492019,2.51024947 L92.7492019,4.11390456 L94.6631061,4.11390456 L94.6631061,2.51024947 L95.9523715,2.51024947 L95.9523715,6.85970168 L94.6575905,6.85970168 L94.6575905,5.0547338 L92.7492019,5.0547338 L92.7492019,6.85970168 L91.4613154,6.85970168 L91.4613154,2.51024947 L92.7492019,2.51024947 Z M70.9731645,2.51024947 L72.2127897,2.51024947 L74.2452787,5.18483391 L74.2452787,2.51024947 L75.458705,2.51024947 L75.458705,6.85970168 L74.2121853,6.85970168 L72.1893485,4.19196462 L72.1893485,6.85970168 L70.9731645,6.85970168 L70.9731645,2.51024947 Z M63.5289322,6.86011253 L64.8209554,6.86011253 L64.8209554,2.51066032 L63.5289322,2.51066032 L63.5289322,6.86011253 Z M67.9191912,5.84108627 C67.3152358,5.84108627 66.8243497,5.35903111 66.8243497,4.68524947 C66.8243497,4.01009836 67.3152358,3.53215163 67.9191912,3.53215163 C68.5217676,3.53215163 69.0126537,4.01009836 69.0126537,4.68524947 C69.0126537,5.35903111 68.5217676,5.84108627 67.9191912,5.84108627 M67.9191912,2.41876855 C66.4465329,2.41876855 65.5516311,3.43354944 65.5516311,4.68388 C65.5516311,5.93558004 66.6120002,6.95036092 67.9191912,6.95036092 C69.2250033,6.95036092 70.2867513,5.93558004 70.2867513,4.68388 C70.2867513,3.43354944 69.3270414,2.41876855 67.9191912,2.41876855 M76.2504656,2.51024947 L80.6091479,2.51024947 L80.6091479,3.43327554 L79.0771973,3.43327554 L79.0771973,6.85970168 L77.7879318,6.85970168 L77.7879318,3.43875344 L76.2504656,3.43875344 L76.2504656,2.51024947 Z M81.3970477,2.51024947 L85.3903232,2.51024947 L85.3903232,3.43327554 L82.6863131,3.43327554 L82.6863131,4.18511725 L85.1697002,4.18511725 L85.1697002,5.05747275 L82.6863131,5.05747275 L82.6863131,5.93804509 L85.4482367,5.93804509 L85.4482367,6.85970168 L81.3970477,6.85970168 L81.3970477,2.51024947 Z" id="形状结合" fill="url(#linearGradient-3)" fill-rule="nonzero"></path>
            </g>
            <g id="编组" transform="translate(154.894714, 11.663429)" fill-rule="nonzero">
                <path d="M20.6812857,13.522 C21.7424356,13.522 22.63103,13.9002327 23.321295,14.5348516 L23.4770545,14.6857979 L24.1262205,15.3484882 L23.0642857,16.6265714 L23.2604669,16.6263621 C23.8818045,15.7058557 24.9007742,15.142 26.0702857,15.142 C26.5217822,15.142 26.9508421,15.2260365 27.3432485,15.3821874 L27.3037167,15.268 L30.8430575,15.268 L31.2382857,16.6145714 L31.6345138,15.268 L35.1011583,15.268 L35.0644894,15.3762185 C35.439511,15.2243098 35.8466914,15.142 36.2722857,15.142 C37.0616122,15.142 37.7271591,15.380486 38.2391376,15.7971051 L38.2387143,15.268 L41.1672857,15.2675714 L41.2178292,15.2501861 C41.3283085,15.2147806 41.4410654,15.1877341 41.5556311,15.169539 L41.7287777,15.1489463 L41.9042857,15.142 C42.2120754,15.142 42.4629947,15.1803231 42.707218,15.2599565 L42.7282857,15.2675714 L44.9582631,15.268 L45.0358019,15.2501481 C45.1616225,15.2144951 45.2907245,15.187458 45.4237558,15.1693343 L45.6263307,15.1488707 L45.8352857,15.142 C46.5440697,15.142 47.1114572,15.353889 47.5320702,15.7341781 L47.5317143,15.268 L50.4822857,15.2675714 L50.5299738,15.2518007 C50.6521319,15.2154964 50.7779782,15.1880462 50.9084008,15.1696721 L51.107578,15.1489458 L51.3142857,15.142 C51.7959897,15.142 52.2219799,15.2453545 52.5838107,15.4420124 L52.7349283,15.5319775 L52.8192857,15.5915714 L52.9725857,15.4967681 C53.2612796,15.329382 53.5615666,15.2201147 53.8913104,15.1713405 L54.0928345,15.1493541 L54.3022857,15.142 C55.3434932,15.142 56.0887783,15.6110576 56.5061889,16.4004221 C57.1242537,15.6209052 58.043701,15.142 59.0702857,15.142 C59.8596122,15.142 60.5251591,15.380486 61.0371376,15.7971051 L61.0367143,15.268 L64.0322631,15.268 L64.1098019,15.2501481 C64.2356225,15.2144951 64.3647245,15.187458 64.4977558,15.1693343 L64.7003307,15.1488707 L64.9092857,15.142 C65.3766764,15.142 65.7825819,15.2341384 66.1254599,15.405945 L66.9672857,15.3385714 L67.1290157,13.909 L70.1748571,13.909 L70.1742857,15.2675714 L71.4168571,15.268 L71.4168571,18.3691429 L70.1742857,18.3685714 L70.1742857,19.2615714 L71.0646024,18.9070394 L71.7483526,21.9554253 L70.8665485,22.24936 C70.3945482,22.4066934 69.9802181,22.4911429 69.4792857,22.4911429 C68.6131089,22.4911429 67.9461269,22.2023428 67.4936361,21.6988878 L67.4948571,22.3651429 L61.0367143,22.3651429 L61.0376031,22.062993 C60.4760296,22.3374161 59.8472245,22.4911429 59.2322857,22.4911429 C58.3149443,22.4911429 57.5078152,22.1879786 56.8968553,21.6574147 L56.8968571,22.3651429 L41.9627143,22.3651429 L41.9606782,18.4017126 C41.8704253,18.3753442 41.8268094,18.3691429 41.7422857,18.3691429 C41.7330493,18.3691429 41.7038412,18.3887362 41.6592482,18.4637349 L41.6182857,18.5395714 L41.6188571,22.3651429 L38.2387143,22.3651429 L38.2396031,22.062993 C37.6780296,22.3374161 37.0492245,22.4911429 36.4342857,22.4911429 C35.0324271,22.4911429 33.8879495,21.7831572 33.3076142,20.6375733 L32.7312195,22.3651429 L29.7243494,22.3651429 L29.1204032,20.592916 C28.5456075,21.7554671 27.4061543,22.4911429 26.0702857,22.4911429 C25.0747976,22.4911429 24.1883833,22.0826062 23.5634306,21.3933222 C22.8720758,22.0715441 21.8084416,22.4911429 20.6812857,22.4911429 C18.2044805,22.4911429 16.4577143,20.7237861 16.4577143,18.0335714 C16.4577143,15.3679369 18.2444418,13.522 20.6812857,13.522 Z M7.05685711,13.639 L7.05623382,15.6240921 C7.56905426,15.3143715 8.16965954,15.142 8.81628568,15.142 C9.7065435,15.142 10.5095685,15.4687312 11.11637,16.030796 L11.1157143,15.268 L14.0442857,15.2675714 L14.0948292,15.2501861 C14.2053085,15.2147806 14.3180654,15.1877341 14.4326311,15.169539 L14.6057777,15.1489463 L14.7812857,15.142 C15.0890754,15.142 15.3399947,15.1803231 15.584218,15.2599565 L15.7669141,15.327474 L16.5475453,15.6489104 L15.9405381,18.7325072 L14.8547279,18.4067642 C14.7525923,18.3761235 14.7089632,18.3691429 14.6192857,18.3691429 C14.6100493,18.3691429 14.5808412,18.3887362 14.5362482,18.4637349 L14.4952857,18.5395714 L14.4958571,22.3651429 L11.1157143,22.3651429 L11.11637,21.6023469 C10.5095685,22.1644117 9.7065435,22.4911429 8.81628568,22.4911429 C7.15302191,22.4911429 5.79424635,21.3506798 5.45072296,19.6657865 L4.28428568,19.6645714 L4.28485711,22.3651429 L0.895714253,22.3651429 L0.895714253,13.639 L7.05685711,13.639 Z M26.0702857,16.1705714 C24.8102857,16.1705714 23.6492857,17.1425714 23.6492857,18.8165714 C23.6492857,20.4236114 24.7192633,21.3836882 25.9196288,21.4579231 L26.0702857,21.4625714 L26.2209425,21.4579231 C27.4213081,21.3836882 28.4912857,20.4236114 28.4912857,18.8165714 L28.4905399,18.7433745 C28.4573185,17.1143593 27.3118654,16.1705714 26.0702857,16.1705714 Z M20.6812857,14.5505714 C18.9082857,14.5505714 17.4862857,15.8375714 17.4862857,18.0335714 C17.4862857,20.1799163 18.7783475,21.3781897 20.4956962,21.4582772 L20.6812857,21.4625714 L20.8925665,21.4563079 C21.6509395,21.4112166 22.2976712,21.1277297 22.7210758,20.7707164 L22.8412857,20.6615714 L22.8412857,17.6555714 L20.4742857,17.6555714 L20.4742857,18.7445714 L21.6532857,18.7445714 L21.6532857,20.0585714 L21.5644402,20.1235394 C21.3718979,20.244449 21.0952857,20.3105714 20.8252857,20.3105714 C19.5112857,20.3105714 18.8452857,19.4375714 18.8452857,17.9885714 C18.8452857,16.5575714 19.6192857,15.6935714 20.7262857,15.6935714 C21.2622857,15.6935714 21.6205079,15.8855714 21.9273721,16.1494727 L22.0402857,16.2515714 L22.7422857,15.4055714 L22.6384109,15.3044576 C22.2060667,14.9033288 21.5702088,14.5505714 20.6812857,14.5505714 Z M8.81628568,16.1705714 C7.55628568,16.1705714 6.39528568,17.1425714 6.39528568,18.8165714 C6.39528568,20.4236114 7.46526328,21.3836882 8.66562885,21.4579231 L8.81628568,21.4625714 L8.96694251,21.4579231 C9.92699821,21.3985498 10.8036467,20.7725173 11.116174,19.7020409 L11.1524708,19.5650719 C11.2075641,19.3342802 11.2372857,19.0844114 11.2372857,18.8165714 C11.2372857,17.1425714 10.0762857,16.1705714 8.81628568,16.1705714 Z M69.1462857,14.9375714 L68.0482857,14.9375714 L67.8952857,16.2965714 L67.1122857,16.3595714 L67.1122857,17.3405714 L67.8232857,17.3405714 L67.8232857,19.5725714 L67.8264383,19.730793 C67.8665617,20.7167988 68.2932954,21.3923236 69.313276,21.4574111 L69.4792857,21.4625714 L69.6923273,21.4548214 C69.966494,21.4348214 70.2013273,21.3788214 70.399494,21.3188214 L70.5412857,21.2735714 L70.3252857,20.3105714 L70.2137701,20.3502277 C70.0935357,20.3881964 69.9517857,20.4185714 69.8302857,20.4185714 C69.4177857,20.4185714 69.1867857,20.1916964 69.1511503,19.7102173 L69.1462857,19.5725714 L69.1462857,17.3405714 L70.3882857,17.3405714 L70.3882857,16.2965714 L69.1462857,16.2965714 L69.1462857,14.9375714 Z M59.0702857,16.1705714 C58.9266457,16.1705714 58.7836537,16.1852162 58.6432226,16.213806 L58.503716,16.2470181 C57.8111595,16.4360613 57.1985662,16.9678965 56.9050481,17.7550437 L56.8823892,17.8181607 C56.7791397,18.1171906 56.7212857,18.4515135 56.7212857,18.8165714 C56.7212857,20.417533 57.7364484,21.3860981 59.0706897,21.4582348 L59.2322857,21.4625714 L59.4397301,21.4546949 C59.9242857,21.4182257 60.4088412,21.2571393 60.8171746,21.0137813 L60.9872857,20.9045714 L60.5372857,20.0945714 L60.3828425,20.1848601 C60.0733265,20.353 59.7581428,20.4455714 59.4032857,20.4455714 C58.7060857,20.4455714 58.1892057,20.0692514 58.035579,19.3458808 L58.0082857,19.1855714 L61.1132857,19.1855714 L61.1304523,19.1171131 C61.1575357,18.9873214 61.1762857,18.7835714 61.1762857,18.5735714 C61.1762857,18.2083637 61.1262954,17.868776 61.0273026,17.5666634 C60.8329825,16.9736245 60.4498432,16.5249873 59.8853573,16.3104219 L59.7075357,16.2523214 C59.5137857,16.1988214 59.3012857,16.1705714 59.0702857,16.1705714 Z M36.2722857,16.1705714 C35.0752857,16.1705714 33.9232857,17.1875714 33.9232857,18.8165714 C33.9232857,20.417533 34.9384484,21.3860981 36.2726897,21.4582348 L36.4342857,21.4625714 L36.6417301,21.4546949 C37.1262857,21.4182257 37.6108412,21.2571393 38.0191746,21.0137813 L38.1892857,20.9045714 L37.7392857,20.0945714 L37.5848425,20.1848601 C37.2753265,20.353 36.9601428,20.4455714 36.6052857,20.4455714 C35.9080857,20.4455714 35.3912057,20.0692514 35.237579,19.3458808 L35.2102857,19.1855714 L38.3152857,19.1855714 L38.3324523,19.1171131 C38.3595357,18.9873214 38.3782857,18.7835714 38.3782857,18.5735714 C38.3782857,18.2083637 38.3282954,17.868776 38.2293026,17.5666634 C38.0349825,16.9736245 37.6518432,16.5249873 37.0873573,16.3104219 L36.9095357,16.2523214 C36.7157857,16.1988214 36.5032857,16.1705714 36.2722857,16.1705714 Z M6.02828568,14.6675714 L1.92428568,14.6675714 L1.92428568,21.3365714 L3.25628568,21.3365714 L3.25628568,18.6365714 L5.62328568,18.6365714 L5.62328568,17.5205714 L3.25628568,17.5205714 L3.25628568,15.7835714 L6.02828568,15.7835714 L6.02828568,14.6675714 Z M54.3022857,16.1705714 C53.6452857,16.1705714 53.1592857,16.5665714 52.7002857,17.0525714 C52.4572857,16.4945714 52.0342857,16.1705714 51.3142857,16.1705714 C50.717013,16.1705714 50.2759386,16.4680921 49.8828732,16.8535166 L49.7662857,16.9715714 L49.7392857,16.9715714 L49.6402857,16.2965714 L48.5602857,16.2965714 L48.5602857,21.3365714 L49.8832857,21.3365714 L49.8832857,17.8715714 L50.0136275,17.7386808 C50.2717095,17.4906183 50.5139712,17.3488683 50.7366158,17.3134308 L50.8462857,17.3045714 L50.9384483,17.3082434 C51.323803,17.3403794 51.5270883,17.5874834 51.554163,18.2077394 L51.5572857,18.3575714 L51.5572857,21.3365714 L52.8712857,21.3365714 L52.8712857,17.8715714 L53.0045982,17.7386808 C53.2678482,17.4906183 53.5108482,17.3488683 53.7335982,17.3134308 L53.8432857,17.3045714 L53.9353337,17.3082434 C54.3197177,17.3403794 54.5161737,17.5874834 54.5422777,18.2077394 L54.5452857,18.3575714 L54.5452857,21.3365714 L55.8682857,21.3365714 L55.8682857,18.1955714 L55.8645631,18.0090993 C55.8173457,16.8528614 55.3197357,16.1705714 54.3022857,16.1705714 Z M30.0732857,16.2965714 L28.7412857,16.2965714 L30.4602857,21.3365714 L31.9902857,21.3365714 L33.6732857,16.2965714 L32.4042857,16.2965714 L31.6662857,18.8075714 L31.2612857,20.3375714 L31.2162857,20.3375714 L30.9462857,19.3102381 L30.8112857,18.8075714 L30.0732857,16.2965714 Z M14.7812857,16.1705714 C14.3027857,16.1705714 13.8091607,16.4730714 13.4459888,17.0295454 L13.3502857,17.1875714 L13.3232857,17.1875714 L13.2242857,16.2965714 L12.1442857,16.2965714 L12.1442857,21.3365714 L13.4672857,21.3365714 L13.4672857,18.3305714 L13.5350581,18.1705541 C13.819191,17.562962 14.2537472,17.3405714 14.6192857,17.3405714 C14.7745357,17.3405714 14.8943482,17.3557589 15.0204888,17.3861339 L15.1502857,17.4215714 L15.3752857,16.2785714 L15.2975357,16.2486964 C15.1650357,16.2018214 15.0137857,16.1705714 14.7812857,16.1705714 Z M41.9042857,16.1705714 C41.4257857,16.1705714 40.9321607,16.4730714 40.5689888,17.0295454 L40.4732857,17.1875714 L40.4462857,17.1875714 L40.3472857,16.2965714 L39.2672857,16.2965714 L39.2672857,21.3365714 L40.5902857,21.3365714 L40.5902857,18.3305714 L40.6580581,18.1705541 C40.942191,17.562962 41.3767472,17.3405714 41.7422857,17.3405714 C41.8240586,17.3405714 41.896,17.3447849 41.9642131,17.3532119 L42.0179107,17.3608214 L42.1434888,17.3861339 L42.2732857,17.4215714 L42.4982857,16.2785714 L42.4205357,16.2486964 C42.2880357,16.2018214 42.1367857,16.1705714 41.9042857,16.1705714 Z M45.8352857,16.1705714 C45.2134675,16.1705714 44.7329716,16.4680921 44.3194179,16.8467547 L44.1972857,16.9625714 L44.1702857,16.9625714 L44.0712857,16.2965714 L42.9912857,16.2965714 L42.9912857,21.3365714 L44.3142857,21.3365714 L44.3142857,17.8715714 L44.4336437,17.7549418 C44.7044832,17.4977566 44.9275326,17.3458307 45.2255943,17.3118677 L45.3582857,17.3045714 L45.4535843,17.3082434 C45.850587,17.3403794 46.0411843,17.5874834 46.066387,18.2077394 L46.0692857,18.3575714 L46.0692857,21.3365714 L47.3922857,21.3365714 L47.3922857,18.1955714 L47.3890855,18.0178017 C47.3463061,16.8562857 46.8724285,16.1705714 45.8352857,16.1705714 Z M64.9092857,16.1705714 C64.2874675,16.1705714 63.8069716,16.4680921 63.3934179,16.8467547 L63.2712857,16.9625714 L63.2442857,16.9625714 L63.1452857,16.2965714 L62.0652857,16.2965714 L62.0652857,21.3365714 L63.3882857,21.3365714 L63.3882857,17.8715714 L63.5076437,17.7549418 C63.7784832,17.4977566 64.0015326,17.3458307 64.2995943,17.3118677 L64.4322857,17.3045714 L64.5275843,17.3082434 C64.924587,17.3403794 65.1151843,17.5874834 65.140387,18.2077394 L65.1432857,18.3575714 L65.1432857,21.3365714 L66.4662857,21.3365714 L66.4662857,18.1955714 L66.4630855,18.0178017 C66.4203061,16.8562857 65.9464285,16.1705714 64.9092857,16.1705714 Z M8.81628568,17.2505714 C9.50028568,17.2505714 9.88728568,17.8715714 9.88728568,18.8165714 C9.88728568,19.7705714 9.50028568,20.3825714 8.81628568,20.3825714 C8.13228568,20.3825714 7.74528568,19.7705714 7.74528568,18.8165714 C7.74528568,17.8715714 8.13228568,17.2505714 8.81628568,17.2505714 Z M26.0702857,17.2505714 C26.7542857,17.2505714 27.1412857,17.8715714 27.1412857,18.8165714 C27.1412857,19.7705714 26.7542857,20.3825714 26.0702857,20.3825714 C25.3862857,20.3825714 24.9992857,19.7705714 24.9992857,18.8165714 C24.9992857,17.8715714 25.3862857,17.2505714 26.0702857,17.2505714 Z M36.2902857,17.1965714 C36.9382857,17.1965714 37.2442857,17.6285714 37.2442857,18.3035714 L35.1922857,18.3035714 C35.2912857,17.5745714 35.7592857,17.1965714 36.2902857,17.1965714 Z M59.0882857,17.1965714 C59.7362857,17.1965714 60.0422857,17.6285714 60.0422857,18.3035714 L57.9902857,18.3035714 C58.0892857,17.5745714 58.5572857,17.1965714 59.0882857,17.1965714 Z M31.2492857,0 C31.5667331,0 31.875484,0.0420747078 32.1800354,0.119124401 L32.4077318,0.183358547 L33.4299453,0.525377379 L32.9365367,2.5155529 C33.3901044,2.27524434 33.9017908,2.142 34.4432857,2.142 C35.4602852,2.142 36.2718012,2.53790498 36.8141179,3.20062592 C37.3257862,2.53797278 38.19353,2.142 39.2212857,2.142 C40.0279403,2.142 40.7293255,2.39768956 41.3652536,2.8360797 L41.4472319,2.89710642 C41.9693413,2.41888026 42.7168702,2.142 43.5762857,2.142 C44.1772833,2.142 44.719846,2.28393296 45.2204392,2.53761238 L45.2186086,2.3818006 C45.1492899,2.19053816 45.1117143,1.98090391 45.1117143,1.75757143 C45.1117143,0.740773393 45.9022909,0.009 46.9142857,0.009 C47.9203115,0.009 48.7078571,0.744042557 48.7078571,1.75757143 C48.7078571,1.98058284 48.6702947,2.19016037 48.6010319,2.38150309 L48.5997872,3.11773656 C49.2161207,2.50256386 50.0550703,2.142 50.9902857,2.142 C51.9304414,2.142 52.7733117,2.50638337 53.3905331,3.12750703 L53.3897143,2.268 L56.3852631,2.268 L56.4628019,2.25014811 C56.5886225,2.21449505 56.7177245,2.18745802 56.8507558,2.16933426 L57.0533307,2.14887072 L57.2622857,2.142 C58.1665481,2.142 58.8406664,2.48688122 59.2734729,3.08633674 L59.4725258,2.96286043 C60.3095502,2.44289076 61.192538,2.142 62.1212857,2.142 C63.0427659,2.142 63.7735107,2.44339347 64.2788193,2.98670841 L64.2777143,0.126 L67.6578571,0.126 L67.6572857,6.19757143 L67.9117756,6.14733229 L68.3804095,8.98517078 L67.6239141,9.2966689 C67.3149373,9.42389464 66.9609993,9.49114286 66.5482857,9.49114286 C65.9375081,9.49114286 65.4492942,9.32079568 65.0844433,9.01683093 L65.0848571,9.36514286 L62.1652857,9.36457143 L61.9679102,9.41841565 L61.7593361,9.45855455 L61.5465572,9.4829295 L61.3292857,9.49114286 C60.7629005,9.49114286 60.2557256,9.32675297 59.8472923,9.04154829 L59.8478571,9.36514286 L53.3897143,9.36514286 L53.3905331,8.50563583 C52.7733117,9.12675949 51.9304414,9.49114286 50.9902857,9.49114286 C50.0550703,9.49114286 49.2161207,9.13057899 48.5997872,8.5154063 L48.5998571,9.36514286 L45.2197143,9.36514286 L45.2203647,8.98312152 C44.7152852,9.307769 44.0689511,9.49114286 43.3332857,9.49114286 C42.576472,9.49114286 41.7689806,9.22981215 41.1135917,8.80262829 C40.5807241,9.23901038 39.8409186,9.49114286 38.9782857,9.49114286 C38.2417219,9.49114286 37.4571562,9.24360986 36.811523,8.83656059 C36.1604654,9.25210848 35.372095,9.49114286 34.6052857,9.49114286 C33.4557169,9.49114286 32.4792245,9.0150562 31.8449667,8.2119833 L31.8458571,9.36514286 L28.4657143,9.36514286 L28.4665352,8.30966353 C27.8386003,9.04942674 26.9214091,9.49114286 25.8862857,9.49114286 C23.9565703,9.49114286 22.4367143,7.95601183 22.4367143,5.81657143 C22.4367143,5.69983098 22.4412395,5.58488982 22.4501097,5.47189919 L22.4152857,5.53957143 L22.4158571,9.36514286 L19.0357143,9.36514286 L19.0368411,6.18245809 C18.4521481,6.6696864 17.6590327,6.94906459 16.7446145,6.99224409 L16.6292857,6.99457143 L16.6298571,9.36514286 L13.2407143,9.36514286 L13.2407143,0.639 L16.4562857,0.639 C18.0304429,0.639 19.2315306,1.17477628 19.7752992,2.26731907 L21.9642857,2.26757143 L22.0148292,2.2501861 C22.1253085,2.21478064 22.2380654,2.18773411 22.3526311,2.16953895 L22.5257777,2.14894629 L22.7012857,2.142 C23.0090754,2.142 23.2599947,2.18032313 23.504218,2.25995654 L23.6869141,2.32747396 L24.2442008,2.55612304 C24.7302607,2.28925932 25.288615,2.142 25.8862857,2.142 C26.5949653,2.142 27.2483674,2.34904216 27.7915137,2.7170227 L27.7907143,2.40999954 L28.5012857,2.35257143 C28.6807359,1.06141073 29.5039784,0.163846448 30.8573127,0.0202191841 L31.0542399,0.00486873621 L31.2492857,0 Z M8.96128568,0.693 C11.0322795,0.693 12.2398571,2.4245552 12.2398571,5.06057143 C12.2398571,7.71944105 11.033297,9.49114286 8.96128568,9.49114286 C8.17083929,9.49114286 7.50511787,9.2330887 6.98396341,8.7664374 L6.98485711,9.36514286 L0.463714253,9.36514286 L0.463714253,7.13106995 L1.17761034,6.44793568 L1.85334191,5.78298267 L2.26594111,5.35969919 L2.60342353,4.99507924 L2.78918054,4.78192709 L2.94530274,4.59085307 L3.07329029,4.42025934 L3.17464337,4.2685481 C3.27793524,4.10194505 3.32991123,3.9706315 3.34129129,3.86318968 L3.34528568,3.79857143 C3.28739482,3.8143066 3.19812499,3.870833 3.07238385,3.98755557 L2.99252188,4.06496789 L2.90367113,4.15775794 L2.17742927,4.94133468 L0,2.76390541 L0.67665778,2.03749338 C1.52181489,1.13019237 2.38191229,0.693 3.54428568,0.693 C4.79703783,0.693 5.80449447,1.28624246 6.31187229,2.2413095 C6.86800201,1.25984564 7.77372748,0.693 8.96128568,0.693 Z M62.1212857,3.17057143 C61.4172857,3.17057143 60.7701746,3.4052381 60.2178783,3.71654674 L60.0152857,3.83657143 L60.4922857,4.70957143 L60.6670122,4.6115558 C61.0150591,4.4225558 61.3555122,4.2791183 61.7035591,4.2419933 L61.8782857,4.23257143 L62.0052368,4.23826203 C62.5291785,4.28716837 62.7172143,4.64592857 62.7422857,5.10557143 C61.782722,5.20747199 61.0815497,5.38749085 60.6085301,5.6626372 L60.4705538,5.75004112 C60.0986975,6.00694453 59.8977835,6.3374219 59.8477955,6.75273246 L59.8394945,6.84142346 L59.8352857,6.96857143 C59.8352857,7.77327731 60.3614587,8.38664755 61.1736972,8.45602431 L61.3292857,8.46257143 L61.5388942,8.44983004 L61.5564805,8.44650376 C61.9789335,8.39158249 62.3602861,8.18577804 62.7048535,7.91590216 L62.8502857,7.79657143 L62.8862857,7.79657143 L62.9762857,8.33657143 L64.0562857,8.33657143 L64.0562857,5.39357143 L64.0525627,5.20733349 C63.9979813,3.87049581 63.3437205,3.17057143 62.1212857,3.17057143 Z M8.96128568,1.72157143 C7.59328568,1.72157143 6.70228568,2.86457143 6.70228568,5.06057143 C6.70228568,5.66807143 6.76991781,6.19905831 6.89652416,6.64957954 L6.98920232,6.9369613 C7.3330447,7.87321683 7.9677194,8.39486152 8.79359149,8.45640986 L8.96128568,8.46257143 L9.10597938,8.45799968 C10.3911607,8.37578571 11.2112857,7.18682143 11.2112857,5.06057143 C11.2112857,2.87357143 10.3292857,1.72157143 8.96128568,1.72157143 Z M50.9902857,3.17057143 C49.7302857,3.17057143 48.5692857,4.14257143 48.5692857,5.81657143 C48.5692857,5.95049143 48.5767161,6.07991863 48.5910331,6.20471479 L48.6176057,6.38841847 C48.8383158,7.6469291 49.7850021,8.3895945 50.8324854,8.45747077 L50.9902857,8.46257143 L51.1409425,8.45792311 C52.3413081,8.38368823 53.4112857,7.42361143 53.4112857,5.81657143 C53.4112857,5.6760652 53.4031065,5.54050455 53.387376,5.41004914 C53.2156925,3.98625063 52.1445283,3.17057143 50.9902857,3.17057143 Z M39.2212857,3.17057143 C38.311812,3.17057143 37.665981,3.56884013 37.4343612,4.17938102 L37.4137314,4.23764083 C37.3654206,4.38433877 37.3402857,4.54245564 37.3402857,4.70957143 C37.3402857,5.50269643 37.965188,5.89240346 38.5698206,6.13824452 L39.0788326,6.3378683 C39.4496607,6.49100893 39.7432857,6.65807143 39.7432857,6.94157143 C39.7432857,7.25657143 39.5182857,7.47257143 39.0142857,7.47257143 C38.6047857,7.47257143 38.2228482,7.32097768 37.8322974,7.04793666 L37.6642857,6.92357143 L37.0612857,7.75157143 L37.2192087,7.87208143 C37.6574727,8.18312143 38.2264887,8.40776143 38.7741927,8.45384143 L38.9782857,8.46257143 L39.1707192,8.45730643 C39.6196119,8.43229264 39.9881755,8.31931042 40.2730893,8.14326555 L40.3683672,8.07984643 C40.7756532,7.78804393 40.9852857,7.35467143 40.9852857,6.86957143 C40.9852857,6.0987479 40.4847736,5.73687939 39.9361491,5.49241938 L39.6993976,5.3939891 C39.6598878,5.37849876 39.6204622,5.36339496 39.5812857,5.34857143 L39.2011763,5.2072433 C38.8455357,5.06844643 38.5822857,4.92332143 38.5822857,4.64657143 C38.5822857,4.38737143 38.7572457,4.20107143 39.1268487,4.16640343 L39.2572857,4.16057143 L39.4144052,4.17080466 C39.6746968,4.20452187 39.9277726,4.31958017 40.1834723,4.48646064 L40.3372857,4.59257143 L40.9312857,3.79157143 L40.8024867,3.69763843 C40.4467347,3.44945443 39.9924867,3.22603843 39.4351347,3.17945443 L39.2212857,3.17057143 Z M43.5762857,3.17057143 C42.5455488,3.17057143 41.8534463,3.68212545 41.7191615,4.43447768 L41.7012992,4.56969025 L41.6952857,4.70957143 C41.6952857,5.50269643 42.320188,5.89240346 42.9248206,6.13824452 L43.4338326,6.3378683 C43.8046607,6.49100893 44.0982857,6.65807143 44.0982857,6.94157143 C44.0982857,7.25657143 43.8732857,7.47257143 43.3692857,7.47257143 C42.9597857,7.47257143 42.5778482,7.32097768 42.1872974,7.04793666 L42.0192857,6.92357143 L41.4162857,7.75157143 L41.5742087,7.87208143 L41.6578783,7.92936643 L41.7590689,7.99345945 C42.1668035,8.24105938 42.6571314,8.41452329 43.131332,8.45402052 L43.3332857,8.46257143 L43.5257192,8.45730643 C44.7148532,8.39104393 45.3402857,7.70747143 45.3402857,6.86957143 C45.3402857,6.0987479 44.8397736,5.73687939 44.2911491,5.49241938 L44.0543976,5.3939891 C44.0148878,5.37849876 43.9754622,5.36339496 43.9362857,5.34857143 L43.5561763,5.2072433 C43.2005357,5.06844643 42.9372857,4.92332143 42.9372857,4.64657143 C42.9372857,4.35857143 43.1532857,4.16057143 43.6122857,4.16057143 C43.9285714,4.16057143 44.2316326,4.28620408 44.5384723,4.48646064 L44.6922857,4.59257143 L45.2862857,3.79157143 L45.1574867,3.69763843 C44.7572657,3.41843143 44.2323857,3.17057143 43.5762857,3.17057143 Z M66.6292857,1.15457143 L65.3062857,1.15457143 L65.3062857,6.92357143 L65.309332,7.0764418 C65.3420727,7.87481217 65.6426653,8.39821958 66.4007394,8.45703439 L66.5482857,8.46257143 L66.6977023,8.45827976 C66.886369,8.4471131 67.0337023,8.41527976 67.150369,8.3761131 L67.2322857,8.34557143 L67.0702857,7.36457143 L67.0117857,7.37497768 L66.9285357,7.38229018 L66.8902857,7.38257143 L66.8902857,7.38257143 C66.7800357,7.38257143 66.6628951,7.30677455 66.6353326,7.08282924 L66.6292857,6.97757143 L66.6292857,1.15457143 Z M25.8862857,3.17057143 C24.7270857,3.17057143 23.6516793,3.99327223 23.4870331,5.42842807 L23.471022,5.61501512 C23.4672219,5.68101756 23.4652857,5.74820912 23.4652857,5.81657143 C23.4652857,7.42361143 24.5352633,8.38368823 25.7356288,8.45792311 L25.8862857,8.46257143 L26.0369425,8.45792311 C27.2373081,8.38368823 28.3072857,7.42361143 28.3072857,5.81657143 C28.3072857,5.09459143 28.0913265,4.50319139 27.744607,4.06403204 C27.2874144,3.48494607 26.6028599,3.17057143 25.8862857,3.17057143 Z M34.4432857,3.17057143 C33.2462857,3.17057143 32.0942857,4.18757143 32.0942857,5.81657143 C32.0942857,7.41753297 33.1094484,8.38609806 34.4436897,8.45823478 L34.6052857,8.46257143 L34.8127301,8.45469489 C35.1977093,8.42572017 35.5826885,8.31808333 35.9294414,8.15302122 L36.0107301,8.11291711 L36.1901746,8.01378131 L36.3602857,7.90457143 L35.9102857,7.09457143 L35.7558425,7.18486006 C35.4463265,7.353 35.1311428,7.44557143 34.7762857,7.44557143 C34.1288857,7.44557143 33.6369657,7.12109143 33.4469923,6.4955661 L33.4062857,6.33157143 L33.3812857,6.18557143 L36.4862857,6.18557143 L36.5034523,6.1171131 C36.5197023,6.0392381 36.5329523,5.9347381 36.5409523,5.8182381 L36.547119,5.69827976 L36.5492857,5.57357143 C36.5492857,5.13096194 36.4758601,4.72598307 36.3307675,4.37973797 C36.1228702,3.88361752 35.7678345,3.50808252 35.2708337,3.31521388 L35.0805357,3.25232143 C34.8867857,3.19882143 34.6742857,3.17057143 34.4432857,3.17057143 Z M3.54428568,1.72157143 C2.70520876,1.72157143 2.1345342,2.02831699 1.57034849,2.59225691 L1.42928568,2.73857143 L2.14928568,3.45857143 L2.26533506,3.33762081 C2.58039679,3.02157143 2.94128568,2.76557143 3.37328568,2.76557143 C4.01228568,2.76557143 4.37228568,3.16157143 4.37228568,3.81857143 C4.37228568,4.40474534 3.9487923,5.05427653 3.22562044,5.84632535 L2.89770296,6.19473121 C2.84011243,6.25433004 2.78108317,6.3147137 2.7206603,6.37591104 L2.34176082,6.75308996 L1.49228568,7.57157143 L1.49228568,8.33657143 L5.95628568,8.33657143 L5.95628568,7.22057143 L4.49828568,7.22057143 L4.29603768,7.22460343 L4.07478168,7.23554743 L3.62017368,7.27125943 C3.54680568,7.27817143 3.47588568,7.28537143 3.40928568,7.29257143 L3.79871778,6.88118871 L4.1700758,6.47484303 C5.00973013,5.53234921 5.64128568,4.62857143 5.64128568,3.74657143 C5.64128568,2.52257143 4.80428568,1.72157143 3.54428568,1.72157143 Z M31.2492857,1.02857143 C30.0379675,1.02857143 29.5400853,1.76660862 29.497326,2.74953997 L29.4942857,2.89157143 L29.4942857,3.30557143 L28.8192857,3.35957143 L28.8192857,4.34057143 L29.4942857,4.34057143 L29.4942857,8.33657143 L30.8172857,8.33657143 L30.8172857,4.34057143 L31.7622857,4.34057143 L31.7622857,3.29657143 L30.8172857,3.29657143 L30.8172857,2.86457143 L30.8217648,2.73176935 C30.8515565,2.31124851 31.0292648,2.11051935 31.3340565,2.07749851 L31.4292857,2.07257143 L31.5565513,2.07932143 C31.6445826,2.08832143 31.7376763,2.10632143 31.8279576,2.13332143 L31.9602857,2.18057143 L32.2032857,1.19957143 L32.081369,1.15877976 C31.8630357,1.09107143 31.5717857,1.02857143 31.2492857,1.02857143 Z M57.2622857,3.17057143 C56.6404675,3.17057143 56.1599716,3.46809209 55.7464179,3.84675475 L55.6242857,3.96257143 L55.5972857,3.96257143 L55.4982857,3.29657143 L54.4182857,3.29657143 L54.4182857,8.33657143 L55.7412857,8.33657143 L55.7412857,4.87157143 L55.8606437,4.7549418 C56.1314832,4.49775661 56.3545326,4.34583069 56.6525943,4.31186772 L56.7852857,4.30457143 L56.8805843,4.30824343 C57.277587,4.34037943 57.4681843,4.58748343 57.493387,5.20773943 L57.4962857,5.35757143 L57.4962857,8.33657143 L58.8192857,8.33657143 L58.8192857,5.19557143 L58.8160855,5.01780175 C58.7733061,3.85628571 58.2994285,3.17057143 57.2622857,3.17057143 Z M16.4562857,1.66757143 L14.2692857,1.66757143 L14.2692857,8.33657143 L15.6012857,8.33657143 L15.6012857,5.96957143 L16.4922857,5.96957143 L16.6625686,5.96627844 C17.8809203,5.91866942 18.8575398,5.35329415 19.0368046,4.17072546 L19.0447778,4.11361936 C19.0589705,4.00257463 19.0662857,3.88625143 19.0662857,3.76457143 C19.0662857,2.25014835 18.0178389,1.70928297 16.6250306,1.66991821 L16.4562857,1.66757143 Z M22.7012857,3.17057143 C22.2227857,3.17057143 21.7291607,3.47307143 21.3659888,4.02954539 L21.2702857,4.18757143 L21.2432857,4.18757143 L21.1442857,3.29657143 L20.0642857,3.29657143 L20.0642857,8.33657143 L21.3872857,8.33657143 L21.3872857,5.33057143 L21.4550581,5.17055413 C21.739191,4.56296196 22.1737472,4.34057143 22.5392857,4.34057143 C22.6945357,4.34057143 22.8143482,4.35575893 22.9404888,4.38613393 L23.0702857,4.42157143 L23.2952857,3.27857143 L23.2175357,3.24869643 C23.0850357,3.20182143 22.9337857,3.17057143 22.7012857,3.17057143 Z M47.5712857,3.29657143 L46.2482857,3.29657143 L46.2482857,8.33657143 L47.5712857,8.33657143 L47.5712857,3.29657143 Z M8.96128568,2.75657143 C9.53728568,2.75657143 9.96028568,3.26057143 9.96028568,5.06057143 C9.96028568,6.86957143 9.53728568,7.42757143 8.96128568,7.42757143 C8.38528568,7.42757143 7.95328568,6.86957143 7.95328568,5.06057143 C7.95328568,3.26057143 8.38528568,2.75657143 8.96128568,2.75657143 Z M62.7422857,5.91557143 L62.7422857,6.93257143 C62.4182857,7.24757143 62.1392857,7.42757143 61.7612857,7.42757143 C61.3742857,7.42757143 61.0952857,7.25657143 61.0952857,6.86057143 C61.0952857,6.41057143 61.5092857,6.06857143 62.7422857,5.91557143 Z M25.8862857,4.25057143 C26.5702857,4.25057143 26.9572857,4.87157143 26.9572857,5.81657143 C26.9572857,6.77057143 26.5702857,7.38257143 25.8862857,7.38257143 C25.2022857,7.38257143 24.8152857,6.77057143 24.8152857,5.81657143 C24.8152857,4.87157143 25.2022857,4.25057143 25.8862857,4.25057143 Z M50.9902857,4.25057143 C51.6742857,4.25057143 52.0612857,4.87157143 52.0612857,5.81657143 C52.0612857,6.71445378 51.718476,7.30938804 51.1078902,7.37627344 L50.9902857,7.38257143 C50.3062857,7.38257143 49.9192857,6.77057143 49.9192857,5.81657143 C49.9192857,4.87157143 50.3062857,4.25057143 50.9902857,4.25057143 Z M34.4612857,4.19657143 C35.1092857,4.19657143 35.4152857,4.62857143 35.4152857,5.30357143 L33.3632857,5.30357143 C33.4622857,4.57457143 33.9302857,4.19657143 34.4612857,4.19657143 Z M16.3572857,2.72957143 C17.2752857,2.72957143 17.7612857,2.99057143 17.7612857,3.76457143 C17.7612857,4.52957143 17.3202857,4.91657143 16.4022857,4.91657143 L15.6012857,4.91657143 L15.6012857,2.72957143 L16.3572857,2.72957143 Z M46.9142857,1.03757143 C46.4552857,1.03757143 46.1402857,1.32557143 46.1402857,1.75757143 C46.1402857,1.96672216 46.2111377,2.14145907 46.3346003,2.26738102 C46.4714619,2.40696892 46.6729732,2.48657143 46.9142857,2.48657143 C47.1392857,2.48657143 47.3305357,2.41457143 47.4655357,2.28744643 L47.4915916,2.26148904 C47.6106136,2.1360326 47.6792857,1.96347952 47.6792857,1.75757143 C47.6792857,1.32557143 47.3642857,1.03757143 46.9142857,1.03757143 Z" id="描边" fill-opacity="0.05" fill="#000000"></path>
                <g id="投影">
                    <use fill="black" fill-opacity="1" filter="url(#filter-5)" xlink:href="#path-4"></use>
                    <use fill-opacity="0" fill="#FFFFFF" xlink:href="#path-4"></use>
                </g>
                <path d="M1.49228568,8.33657143 L5.95628568,8.33657143 L5.95628568,7.22057143 L4.49828568,7.22057143 C4.18328568,7.22057143 3.74228568,7.25657143 3.40928568,7.29257143 C4.59728568,6.05057143 5.64128568,4.88057143 5.64128568,3.74657143 C5.64128568,2.52257143 4.80428568,1.72157143 3.54428568,1.72157143 C2.63528568,1.72157143 2.04128568,2.08157143 1.42928568,2.73857143 L2.14928568,3.45857143 C2.49128568,3.08957143 2.88728568,2.76557143 3.37328568,2.76557143 C4.01228568,2.76557143 4.37228568,3.16157143 4.37228568,3.81857143 C4.37228568,4.78157143 3.22928568,5.91557143 1.49228568,7.57157143 L1.49228568,8.33657143 Z M8.96128568,8.46257143 C10.3292857,8.46257143 11.2112857,7.26557143 11.2112857,5.06057143 C11.2112857,2.87357143 10.3292857,1.72157143 8.96128568,1.72157143 C7.59328568,1.72157143 6.70228568,2.86457143 6.70228568,5.06057143 C6.70228568,7.26557143 7.59328568,8.46257143 8.96128568,8.46257143 Z M8.96128568,7.42757143 C8.38528568,7.42757143 7.95328568,6.86957143 7.95328568,5.06057143 C7.95328568,3.26057143 8.38528568,2.75657143 8.96128568,2.75657143 C9.53728568,2.75657143 9.96028568,3.26057143 9.96028568,5.06057143 C9.96028568,6.86957143 9.53728568,7.42757143 8.96128568,7.42757143 Z M14.2692857,8.33657143 L15.6012857,8.33657143 L15.6012857,5.96957143 L16.4922857,5.96957143 C17.9232857,5.96957143 19.0662857,5.28557143 19.0662857,3.76457143 C19.0662857,2.18957143 17.9322857,1.66757143 16.4562857,1.66757143 L14.2692857,1.66757143 L14.2692857,8.33657143 Z M15.6012857,4.91657143 L15.6012857,2.72957143 L16.3572857,2.72957143 C17.2752857,2.72957143 17.7612857,2.99057143 17.7612857,3.76457143 C17.7612857,4.52957143 17.3202857,4.91657143 16.4022857,4.91657143 L15.6012857,4.91657143 Z M20.0642857,8.33657143 L21.3872857,8.33657143 L21.3872857,5.33057143 C21.6662857,4.60157143 22.1432857,4.34057143 22.5392857,4.34057143 C22.7462857,4.34057143 22.8902857,4.36757143 23.0702857,4.42157143 L23.2952857,3.27857143 C23.1422857,3.21557143 22.9802857,3.17057143 22.7012857,3.17057143 C22.1792857,3.17057143 21.6392857,3.53057143 21.2702857,4.18757143 L21.2432857,4.18757143 L21.1442857,3.29657143 L20.0642857,3.29657143 L20.0642857,8.33657143 Z M25.8862857,8.46257143 C27.1462857,8.46257143 28.3072857,7.49057143 28.3072857,5.81657143 C28.3072857,4.14257143 27.1462857,3.17057143 25.8862857,3.17057143 C24.6262857,3.17057143 23.4652857,4.14257143 23.4652857,5.81657143 C23.4652857,7.49057143 24.6262857,8.46257143 25.8862857,8.46257143 Z M25.8862857,7.38257143 C25.2022857,7.38257143 24.8152857,6.77057143 24.8152857,5.81657143 C24.8152857,4.87157143 25.2022857,4.25057143 25.8862857,4.25057143 C26.5702857,4.25057143 26.9572857,4.87157143 26.9572857,5.81657143 C26.9572857,6.77057143 26.5702857,7.38257143 25.8862857,7.38257143 Z M34.4432857,3.17057143 C35.8292857,3.17057143 36.5492857,4.18757143 36.5492857,5.57357143 C36.5492857,5.82557143 36.5222857,6.06857143 36.4862857,6.18557143 L36.4862857,6.18557143 L33.3812857,6.18557143 C33.4892857,7.01357143 34.0292857,7.44557143 34.7762857,7.44557143 C35.1902857,7.44557143 35.5502857,7.31957143 35.9102857,7.09457143 L35.9102857,7.09457143 L36.3602857,7.90457143 C35.8652857,8.24657143 35.2262857,8.46257143 34.6052857,8.46257143 C33.1922857,8.46257143 32.0942857,7.48157143 32.0942857,5.81657143 C32.0942857,4.18757143 33.2462857,3.17057143 34.4432857,3.17057143 Z M31.2492857,1.02857143 C31.6362857,1.02857143 31.9782857,1.11857143 32.2032857,1.19957143 L32.2032857,1.19957143 L31.9602857,2.18057143 C31.7892857,2.10857143 31.5912857,2.07257143 31.4292857,2.07257143 C31.0332857,2.07257143 30.8172857,2.30657143 30.8172857,2.86457143 L30.8172857,2.86457143 L30.8172857,3.29657143 L31.7622857,3.29657143 L31.7622857,4.34057143 L30.8172857,4.34057143 L30.8172857,8.33657143 L29.4942857,8.33657143 L29.4942857,4.34057143 L28.8192857,4.34057143 L28.8192857,3.35957143 L29.4942857,3.30557143 L29.4942857,2.89157143 C29.4942857,1.83857143 29.9802857,1.02857143 31.2492857,1.02857143 Z M34.4612857,4.19657143 C33.9302857,4.19657143 33.4622857,4.57457143 33.3632857,5.30357143 L33.3632857,5.30357143 L35.4152857,5.30357143 C35.4152857,4.62857143 35.1092857,4.19657143 34.4612857,4.19657143 Z M38.9782857,8.46257143 C40.2922857,8.46257143 40.9852857,7.75157143 40.9852857,6.86957143 C40.9852857,5.93357143 40.2472857,5.60057143 39.5812857,5.34857143 C39.0502857,5.15057143 38.5822857,5.01557143 38.5822857,4.64657143 C38.5822857,4.35857143 38.7982857,4.16057143 39.2572857,4.16057143 C39.6262857,4.16057143 39.9772857,4.33157143 40.3372857,4.59257143 L40.9312857,3.79157143 C40.5172857,3.47657143 39.9502857,3.17057143 39.2212857,3.17057143 C38.0692857,3.17057143 37.3402857,3.80957143 37.3402857,4.70957143 C37.3402857,5.55557143 38.0512857,5.94257143 38.6902857,6.18557143 C39.2212857,6.39257143 39.7432857,6.56357143 39.7432857,6.94157143 C39.7432857,7.25657143 39.5182857,7.47257143 39.0142857,7.47257143 C38.5462857,7.47257143 38.1142857,7.27457143 37.6642857,6.92357143 L37.0612857,7.75157143 C37.5652857,8.16557143 38.3032857,8.46257143 38.9782857,8.46257143 Z M43.3332857,8.46257143 C44.6472857,8.46257143 45.3402857,7.75157143 45.3402857,6.86957143 C45.3402857,5.93357143 44.6022857,5.60057143 43.9362857,5.34857143 C43.4052857,5.15057143 42.9372857,5.01557143 42.9372857,4.64657143 C42.9372857,4.35857143 43.1532857,4.16057143 43.6122857,4.16057143 C43.9812857,4.16057143 44.3322857,4.33157143 44.6922857,4.59257143 L45.2862857,3.79157143 C44.8722857,3.47657143 44.3052857,3.17057143 43.5762857,3.17057143 C42.4242857,3.17057143 41.6952857,3.80957143 41.6952857,4.70957143 C41.6952857,5.55557143 42.4062857,5.94257143 43.0452857,6.18557143 C43.5762857,6.39257143 44.0982857,6.56357143 44.0982857,6.94157143 C44.0982857,7.25657143 43.8732857,7.47257143 43.3692857,7.47257143 C42.9012857,7.47257143 42.4692857,7.27457143 42.0192857,6.92357143 L41.4162857,7.75157143 C41.9202857,8.16557143 42.6582857,8.46257143 43.3332857,8.46257143 Z M46.2482857,8.33657143 L47.5712857,8.33657143 L47.5712857,3.29657143 L46.2482857,3.29657143 L46.2482857,8.33657143 Z M46.9142857,2.48657143 C47.3642857,2.48657143 47.6792857,2.19857143 47.6792857,1.75757143 C47.6792857,1.32557143 47.3642857,1.03757143 46.9142857,1.03757143 C46.4552857,1.03757143 46.1402857,1.32557143 46.1402857,1.75757143 C46.1402857,2.19857143 46.4552857,2.48657143 46.9142857,2.48657143 Z M50.9902857,8.46257143 C52.2502857,8.46257143 53.4112857,7.49057143 53.4112857,5.81657143 C53.4112857,4.14257143 52.2502857,3.17057143 50.9902857,3.17057143 C49.7302857,3.17057143 48.5692857,4.14257143 48.5692857,5.81657143 C48.5692857,7.49057143 49.7302857,8.46257143 50.9902857,8.46257143 Z M50.9902857,7.38257143 C50.3062857,7.38257143 49.9192857,6.77057143 49.9192857,5.81657143 C49.9192857,4.87157143 50.3062857,4.25057143 50.9902857,4.25057143 C51.6742857,4.25057143 52.0612857,4.87157143 52.0612857,5.81657143 C52.0612857,6.77057143 51.6742857,7.38257143 50.9902857,7.38257143 Z M54.4182857,8.33657143 L55.7412857,8.33657143 L55.7412857,4.87157143 C56.1102857,4.50257143 56.3712857,4.30457143 56.7852857,4.30457143 C57.2802857,4.30457143 57.4962857,4.57457143 57.4962857,5.35757143 L57.4962857,8.33657143 L58.8192857,8.33657143 L58.8192857,5.19557143 C58.8192857,3.92657143 58.3512857,3.17057143 57.2622857,3.17057143 C56.5782857,3.17057143 56.0652857,3.53057143 55.6242857,3.96257143 L55.5972857,3.96257143 L55.4982857,3.29657143 L54.4182857,3.29657143 L54.4182857,8.33657143 Z M61.3292857,8.46257143 C61.9052857,8.46257143 62.4092857,8.17457143 62.8502857,7.79657143 L62.8862857,7.79657143 L62.9762857,8.33657143 L64.0562857,8.33657143 L64.0562857,5.39357143 C64.0562857,3.93557143 63.3992857,3.17057143 62.1212857,3.17057143 C61.3292857,3.17057143 60.6092857,3.46757143 60.0152857,3.83657143 L60.4922857,4.70957143 C60.9602857,4.43957143 61.4102857,4.23257143 61.8782857,4.23257143 C62.4992857,4.23257143 62.7152857,4.61057143 62.7422857,5.10557143 C60.7082857,5.32157143 59.8352857,5.88857143 59.8352857,6.96857143 C59.8352857,7.82357143 60.4292857,8.46257143 61.3292857,8.46257143 Z M61.7612857,7.42757143 C61.3742857,7.42757143 61.0952857,7.25657143 61.0952857,6.86057143 C61.0952857,6.41057143 61.5092857,6.06857143 62.7422857,5.91557143 L62.7422857,6.93257143 C62.4182857,7.24757143 62.1392857,7.42757143 61.7612857,7.42757143 Z M66.5482857,8.46257143 C66.8632857,8.46257143 67.0792857,8.40857143 67.2322857,8.34557143 L67.0702857,7.36457143 C66.9802857,7.38257143 66.9442857,7.38257143 66.8902857,7.38257143 C66.7642857,7.38257143 66.6292857,7.28357143 66.6292857,6.97757143 L66.6292857,1.15457143 L65.3062857,1.15457143 L65.3062857,6.92357143 C65.3062857,7.85957143 65.6302857,8.46257143 66.5482857,8.46257143 Z M1.92428568,21.3365714 L3.25628568,21.3365714 L3.25628568,18.6365714 L5.62328568,18.6365714 L5.62328568,17.5205714 L3.25628568,17.5205714 L3.25628568,15.7835714 L6.02828568,15.7835714 L6.02828568,14.6675714 L1.92428568,14.6675714 L1.92428568,21.3365714 Z M8.81628568,21.4625714 C10.0762857,21.4625714 11.2372857,20.4905714 11.2372857,18.8165714 C11.2372857,17.1425714 10.0762857,16.1705714 8.81628568,16.1705714 C7.55628568,16.1705714 6.39528568,17.1425714 6.39528568,18.8165714 C6.39528568,20.4905714 7.55628568,21.4625714 8.81628568,21.4625714 Z M8.81628568,20.3825714 C8.13228568,20.3825714 7.74528568,19.7705714 7.74528568,18.8165714 C7.74528568,17.8715714 8.13228568,17.2505714 8.81628568,17.2505714 C9.50028568,17.2505714 9.88728568,17.8715714 9.88728568,18.8165714 C9.88728568,19.7705714 9.50028568,20.3825714 8.81628568,20.3825714 Z M12.1442857,21.3365714 L13.4672857,21.3365714 L13.4672857,18.3305714 C13.7462857,17.6015714 14.2232857,17.3405714 14.6192857,17.3405714 C14.8262857,17.3405714 14.9702857,17.3675714 15.1502857,17.4215714 L15.3752857,16.2785714 C15.2222857,16.2155714 15.0602857,16.1705714 14.7812857,16.1705714 C14.2592857,16.1705714 13.7192857,16.5305714 13.3502857,17.1875714 L13.3232857,17.1875714 L13.2242857,16.2965714 L12.1442857,16.2965714 L12.1442857,21.3365714 Z M20.6812857,21.4625714 C21.6082857,21.4625714 22.3912857,21.1025714 22.8412857,20.6615714 L22.8412857,17.6555714 L20.4742857,17.6555714 L20.4742857,18.7445714 L21.6532857,18.7445714 L21.6532857,20.0585714 C21.4642857,20.2205714 21.1402857,20.3105714 20.8252857,20.3105714 C19.5112857,20.3105714 18.8452857,19.4375714 18.8452857,17.9885714 C18.8452857,16.5575714 19.6192857,15.6935714 20.7262857,15.6935714 C21.3292857,15.6935714 21.7072857,15.9365714 22.0402857,16.2515714 L22.7422857,15.4055714 C22.3102857,14.9645714 21.6442857,14.5505714 20.6812857,14.5505714 C18.9082857,14.5505714 17.4862857,15.8375714 17.4862857,18.0335714 C17.4862857,20.2565714 18.8722857,21.4625714 20.6812857,21.4625714 Z M26.0702857,21.4625714 C27.3302857,21.4625714 28.4912857,20.4905714 28.4912857,18.8165714 C28.4912857,17.1425714 27.3302857,16.1705714 26.0702857,16.1705714 C24.8102857,16.1705714 23.6492857,17.1425714 23.6492857,18.8165714 C23.6492857,20.4905714 24.8102857,21.4625714 26.0702857,21.4625714 Z M26.0702857,20.3825714 C25.3862857,20.3825714 24.9992857,19.7705714 24.9992857,18.8165714 C24.9992857,17.8715714 25.3862857,17.2505714 26.0702857,17.2505714 C26.7542857,17.2505714 27.1412857,17.8715714 27.1412857,18.8165714 C27.1412857,19.7705714 26.7542857,20.3825714 26.0702857,20.3825714 Z M30.4602857,21.3365714 L31.9902857,21.3365714 L33.6732857,16.2965714 L32.4042857,16.2965714 L31.6662857,18.8075714 C31.5312857,19.3025714 31.3962857,19.8245714 31.2612857,20.3375714 L31.2162857,20.3375714 C31.0812857,19.8245714 30.9462857,19.3025714 30.8112857,18.8075714 L30.0732857,16.2965714 L28.7412857,16.2965714 L30.4602857,21.3365714 Z M36.4342857,21.4625714 C37.0552857,21.4625714 37.6942857,21.2465714 38.1892857,20.9045714 L37.7392857,20.0945714 C37.3792857,20.3195714 37.0192857,20.4455714 36.6052857,20.4455714 C35.8582857,20.4455714 35.3182857,20.0135714 35.2102857,19.1855714 L38.3152857,19.1855714 C38.3512857,19.0685714 38.3782857,18.8255714 38.3782857,18.5735714 C38.3782857,17.1875714 37.6582857,16.1705714 36.2722857,16.1705714 C35.0752857,16.1705714 33.9232857,17.1875714 33.9232857,18.8165714 C33.9232857,20.4815714 35.0212857,21.4625714 36.4342857,21.4625714 Z M35.1922857,18.3035714 C35.2912857,17.5745714 35.7592857,17.1965714 36.2902857,17.1965714 C36.9382857,17.1965714 37.2442857,17.6285714 37.2442857,18.3035714 L35.1922857,18.3035714 Z M39.2672857,21.3365714 L40.5902857,21.3365714 L40.5902857,18.3305714 C40.8692857,17.6015714 41.3462857,17.3405714 41.7422857,17.3405714 C41.9492857,17.3405714 42.0932857,17.3675714 42.2732857,17.4215714 L42.4982857,16.2785714 C42.3452857,16.2155714 42.1832857,16.1705714 41.9042857,16.1705714 C41.3822857,16.1705714 40.8422857,16.5305714 40.4732857,17.1875714 L40.4462857,17.1875714 L40.3472857,16.2965714 L39.2672857,16.2965714 L39.2672857,21.3365714 Z M42.9912857,21.3365714 L44.3142857,21.3365714 L44.3142857,17.8715714 C44.6832857,17.5025714 44.9442857,17.3045714 45.3582857,17.3045714 C45.8532857,17.3045714 46.0692857,17.5745714 46.0692857,18.3575714 L46.0692857,21.3365714 L47.3922857,21.3365714 L47.3922857,18.1955714 C47.3922857,16.9265714 46.9242857,16.1705714 45.8352857,16.1705714 C45.1512857,16.1705714 44.6382857,16.5305714 44.1972857,16.9625714 L44.1702857,16.9625714 L44.0712857,16.2965714 L42.9912857,16.2965714 L42.9912857,21.3365714 Z M48.5602857,21.3365714 L49.8832857,21.3365714 L49.8832857,17.8715714 C50.2342857,17.4935714 50.5582857,17.3045714 50.8462857,17.3045714 C51.3232857,17.3045714 51.5572857,17.5745714 51.5572857,18.3575714 L51.5572857,21.3365714 L52.8712857,21.3365714 L52.8712857,17.8715714 C53.2312857,17.4935714 53.5552857,17.3045714 53.8432857,17.3045714 C54.3202857,17.3045714 54.5452857,17.5745714 54.5452857,18.3575714 L54.5452857,21.3365714 L55.8682857,21.3365714 L55.8682857,18.1955714 C55.8682857,16.9265714 55.3732857,16.1705714 54.3022857,16.1705714 C53.6452857,16.1705714 53.1592857,16.5665714 52.7002857,17.0525714 C52.4572857,16.4945714 52.0342857,16.1705714 51.3142857,16.1705714 C50.6572857,16.1705714 50.1892857,16.5305714 49.7662857,16.9715714 L49.7392857,16.9715714 L49.6402857,16.2965714 L48.5602857,16.2965714 L48.5602857,21.3365714 Z M59.2322857,21.4625714 C59.8532857,21.4625714 60.4922857,21.2465714 60.9872857,20.9045714 L60.5372857,20.0945714 C60.1772857,20.3195714 59.8172857,20.4455714 59.4032857,20.4455714 C58.6562857,20.4455714 58.1162857,20.0135714 58.0082857,19.1855714 L61.1132857,19.1855714 C61.1492857,19.0685714 61.1762857,18.8255714 61.1762857,18.5735714 C61.1762857,17.1875714 60.4562857,16.1705714 59.0702857,16.1705714 C57.8732857,16.1705714 56.7212857,17.1875714 56.7212857,18.8165714 C56.7212857,20.4815714 57.8192857,21.4625714 59.2322857,21.4625714 Z M57.9902857,18.3035714 C58.0892857,17.5745714 58.5572857,17.1965714 59.0882857,17.1965714 C59.7362857,17.1965714 60.0422857,17.6285714 60.0422857,18.3035714 L57.9902857,18.3035714 Z M62.0652857,21.3365714 L63.3882857,21.3365714 L63.3882857,17.8715714 C63.7572857,17.5025714 64.0182857,17.3045714 64.4322857,17.3045714 C64.9272857,17.3045714 65.1432857,17.5745714 65.1432857,18.3575714 L65.1432857,21.3365714 L66.4662857,21.3365714 L66.4662857,18.1955714 C66.4662857,16.9265714 65.9982857,16.1705714 64.9092857,16.1705714 C64.2252857,16.1705714 63.7122857,16.5305714 63.2712857,16.9625714 L63.2442857,16.9625714 L63.1452857,16.2965714 L62.0652857,16.2965714 L62.0652857,21.3365714 Z M69.4792857,21.4625714 C69.9202857,21.4625714 70.2712857,21.3635714 70.5412857,21.2735714 L70.3252857,20.3105714 C70.1902857,20.3645714 69.9922857,20.4185714 69.8302857,20.4185714 C69.3802857,20.4185714 69.1462857,20.1485714 69.1462857,19.5725714 L69.1462857,17.3405714 L70.3882857,17.3405714 L70.3882857,16.2965714 L69.1462857,16.2965714 L69.1462857,14.9375714 L68.0482857,14.9375714 L67.8952857,16.2965714 L67.1122857,16.3595714 L67.1122857,17.3405714 L67.8232857,17.3405714 L67.8232857,19.5725714 C67.8232857,20.6975714 68.2822857,21.4625714 69.4792857,21.4625714 Z" id="颜色" fill="url(#linearGradient-6)"></path>
            </g>
        </g>
    </g>
</svg>