<?xml version="1.0" encoding="UTF-8"?>
<svg width="30px" height="30px" viewBox="0 0 30 30" version="1.1" xmlns="http://www.w3.org/2000/svg" xmlns:xlink="http://www.w3.org/1999/xlink">
    <title>screen_keyboard_press</title>
    <g id="登录" stroke="none" stroke-width="1" fill="none" fill-rule="evenodd">
        <g id="screen_keyboard_press">
            <rect id="矩形" x="0" y="0" width="30" height="30"></rect>
            <path d="M26,5 C28.209139,5 30,6.790861 30,9 L30,21 C30,23.209139 28.209139,25 26,25 L4,25 C1.790861,25 0,23.209139 0,21 L0,9 C0,6.790861 1.790861,5 4,5 L26,5 Z M26,7 L4,7 C2.8954305,7 2,7.8954305 2,9 L2,21 C2,22.1045695 2.8954305,23 4,23 L26,23 C27.1045695,23 28,22.1045695 28,21 L28,9 C28,7.8954305 27.1045695,7 26,7 Z M5.5,18 C5.77614237,18 6,18.2238576 6,18.5 L6,19.5 C6,19.7761424 5.77614237,20 5.5,20 L4.5,20 C4.22385763,20 4,19.7761424 4,19.5 L4,18.5 C4,18.2238576 4.22385763,18 4.5,18 L5.5,18 Z M25.5,18 C25.7761424,18 26,18.2238576 26,18.5 L26,19.5 C26,19.7761424 25.7761424,20 25.5,20 L8.5,20 C8.22385763,20 8,19.7761424 8,19.5 L8,18.5 C8,18.2238576 8.22385763,18 8.5,18 L25.5,18 Z M12.5,14 C12.7761424,14 13,14.2238576 13,14.5 L13,15.5 C13,15.7761424 12.7761424,16 12.5,16 L11.5,16 C11.2238576,16 11,15.7761424 11,15.5 L11,14.5 C11,14.2238576 11.2238576,14 11.5,14 L12.5,14 Z M16.5,14 C16.7761424,14 17,14.2238576 17,14.5 L17,15.5 C17,15.7761424 16.7761424,16 16.5,16 L15.5,16 C15.2238576,16 15,15.7761424 15,15.5 L15,14.5 C15,14.2238576 15.2238576,14 15.5,14 L16.5,14 Z M20.5,14 C20.7761424,14 21,14.2238576 21,14.5 L21,15.5 C21,15.7761424 20.7761424,16 20.5,16 L19.5,16 C19.2238576,16 19,15.7761424 19,15.5 L19,14.5 C19,14.2238576 19.2238576,14 19.5,14 L20.5,14 Z M25.5,14 C25.7761424,14 26,14.2238576 26,14.5 L26,15.5 C26,15.7761424 25.7761424,16 25.5,16 L23.5,16 C23.2238576,16 23,15.7761424 23,15.5 L23,14.5 C23,14.2238576 23.2238576,14 23.5,14 L25.5,14 Z M8.5,14 C8.77614237,14 9,14.2238576 9,14.5 L9,15.5 C9,15.7761424 8.77614237,16 8.5,16 L4.5,16 C4.22385763,16 4,15.7761424 4,15.5 L4,14.5 C4,14.2238576 4.22385763,14 4.5,14 L8.5,14 Z M6.5,10 C6.77614237,10 7,10.2238576 7,10.5 L7,11.5 C7,11.7761424 6.77614237,12 6.5,12 L4.5,12 C4.22385763,12 4,11.7761424 4,11.5 L4,10.5 C4,10.2238576 4.22385763,10 4.5,10 L6.5,10 Z M10.5,10 C10.7761424,10 11,10.2238576 11,10.5 L11,11.5 C11,11.7761424 10.7761424,12 10.5,12 L9.5,12 C9.22385763,12 9,11.7761424 9,11.5 L9,10.5 C9,10.2238576 9.22385763,10 9.5,10 L10.5,10 Z M14.5,10 C14.7761424,10 15,10.2238576 15,10.5 L15,11.5 C15,11.7761424 14.7761424,12 14.5,12 L13.5,12 C13.2238576,12 13,11.7761424 13,11.5 L13,10.5 C13,10.2238576 13.2238576,10 13.5,10 L14.5,10 Z M18.5,10 C18.7761424,10 19,10.2238576 19,10.5 L19,11.5 C19,11.7761424 18.7761424,12 18.5,12 L17.5,12 C17.2238576,12 17,11.7761424 17,11.5 L17,10.5 C17,10.2238576 17.2238576,10 17.5,10 L18.5,10 Z M25.5,10 C25.7761424,10 26,10.2238576 26,10.5 L26,11.5 C26,11.7761424 25.7761424,12 25.5,12 L21.5,12 C21.2238576,12 21,11.7761424 21,11.5 L21,10.5 C21,10.2238576 21.2238576,10 21.5,10 L25.5,10 Z" id="形状结合" fill-opacity="0.4" fill="#FFFFFF" fill-rule="nonzero"></path>
        </g>
    </g>
</svg>