<?xml version="1.0" encoding="UTF-8"?>
<svg width="16px" height="16px" viewBox="0 0 16 16" version="1.1" xmlns="http://www.w3.org/2000/svg" xmlns:xlink="http://www.w3.org/1999/xlink">
    <title>小图</title>
    <g id="定制" stroke="none" stroke-width="1" fill="none" fill-rule="evenodd">
        <g id="登录-帐户名+全名" transform="translate(-908.000000, -531.000000)">
            <g id="编组" transform="translate(908.000000, 530.000000)">
                <g id="Page-1" transform="translate(0.000000, 1.000000)">
                    <polygon id="Stroke-1" stroke-opacity="0.00784313771" stroke="#000000" stroke-width="1.33333335e-11" points="0 0 16 0 16 16 0 16"></polygon>
                    <path d="M2,14 C2,13.9249996 2.00416663,13.8260422 2.0125,13.703125 C2.02083338,13.5802077 2.06666626,13.382293 2.15,13.109375 C2.23333376,12.836457 2.3499992,12.6250008 2.5,12.475 C2.64583408,12.3291664 2.93541456,12.1687504 3.36875008,11.9937504 C3.8020848,11.8187488 4.291664,11.634376 4.8375008,11.4406256 C5.383336,11.2468736 5.7833328,11.0854176 6.0375008,10.9562496 C6.3583344,10.7937488 6.6072912,10.5562512 6.7843744,10.2437504 C6.9614592,9.931248 7.05,9.6062512 7.05,9.2687504 C7.05,9.0395824 6.9125008,8.768752 6.6375008,8.4562496 C6.3583312,8.1354144 6.1322928,7.6989616 5.9593744,7.1468752 C5.7864576,6.5947888 5.7,5.9583376 5.7,5.2375008 C5.7,4.6958304 5.7770832,4.213544 5.9312496,3.7906256 C6.0854176,3.3677056 6.295832,3.029168 6.5624992,2.775 C6.829168,2.520832 7.1322896,2.3281264 7.4718752,2.1968752 C7.8114608,2.065624 8.1749984,2 8.5624992,2 C8.9500016,2 9.311456,2.065624 9.6468752,2.1968752 C9.9822928,2.3281264 10.2843744,2.520832 10.5531248,2.775 C10.8218768,3.029168 11.0333328,3.3677056 11.1875008,3.7906256 C11.3416672,4.213544 11.4187504,4.6958304 11.4187504,5.2375008 C11.4187504,5.9583376 11.3333344,6.5947888 11.1624992,7.1468752 C10.9916656,7.6989616 10.7666688,8.1354144 10.4875008,8.4562496 C10.2083312,8.7729184 10.0687504,9.0437488 10.0687504,9.2687504 C10.0687504,9.6020848 10.1583328,9.92604 10.3375008,10.2406256 C10.5166672,10.5552096 10.7666656,10.7937488 11.0875008,10.9562496 C11.3416672,11.0854176 11.741664,11.2468736 12.2875008,11.4406256 C12.833336,11.634376 13.3208304,11.8187488 13.75,11.9937504 C14.1791696,12.1687504 14.4666656,12.3291664 14.6124992,12.475 C14.7625008,12.6250008 14.8791664,12.8270821 14.9624992,13.0812499 C15.0458336,13.3354179 15.0916672,13.5520824 15.1,13.7312499 L15.1187504,14 L2,14 Z" fill-opacity="0.7" fill="#FFFFFF" fill-rule="nonzero"></path>
                </g>
            </g>
        </g>
    </g>
</svg>