<?xml version="1.0" encoding="UTF-8"?>
<svg width="28px" height="28px" viewBox="0 0 28 28" version="1.1" xmlns="http://www.w3.org/2000/svg" xmlns:xlink="http://www.w3.org/1999/xlink">
    <title>画板</title>
    <g id="画板" stroke="none" stroke-width="1" fill="none" fill-rule="evenodd">
        <g id="编组" transform="translate(2.000000, 2.000000)" fill="#000000" fill-rule="nonzero">
            <path d="M12,-1 C4.82029825,-1 -1,4.82029825 -1,12 C-1,19.1797017 4.82029825,25 12,25 C19.1797017,25 25,19.1797017 25,12 C25,4.82029825 19.1797017,-1 12,-1 Z M12,1 C18.0751322,1 23,5.92486775 23,12 C23,18.0751322 18.0751322,23 12,23 C5.92486775,23 1,18.0751322 1,12 C1,5.92486775 5.92486775,1 12,1 Z" id="Oval-6"></path>
            <g id="Group-3" transform="translate(8.000000, 8.000000)">
                <path d="M7.29289322,-0.707106781 C7.68341751,-1.09763107 8.31658249,-1.09763107 8.70710678,-0.707106781 C9.09763107,-0.316582489 9.09763107,0.316582489 8.70710678,0.707106781 L0.707106781,8.70710678 C0.316582489,9.09763107 -0.316582489,9.09763107 -0.707106781,8.70710678 C-1.09763107,8.31658249 -1.09763107,7.68341751 -0.707106781,7.29289322 L7.29289322,-0.707106781 Z" id="Line"></path>
                <path d="M-0.707106781,-0.707106781 C-0.316582489,-1.09763107 0.316582489,-1.09763107 0.707106781,-0.707106781 L8.70710678,7.29289322 C9.09763107,7.68341751 9.09763107,8.31658249 8.70710678,8.70710678 C8.31658249,9.09763107 7.68341751,9.09763107 7.29289322,8.70710678 L-0.707106781,0.707106781 C-1.09763107,0.316582489 -1.09763107,-0.316582489 -0.707106781,-0.707106781 Z" id="Line"></path>
            </g>
        </g>
    </g>
</svg>