<?xml version="1.0" encoding="UTF-8"?>
<svg width="28px" height="28px" viewBox="0 0 28 28" version="1.1" xmlns="http://www.w3.org/2000/svg" xmlns:xlink="http://www.w3.org/1999/xlink">
    <title>画板</title>
    <g id="画板" stroke="none" stroke-width="1" fill="none" fill-rule="evenodd">
        <g id="编组-5" transform="translate(1.000000, 1.000000)" fill="#FFFFFF" fill-rule="nonzero">
            <g id="编组">
                <path d="M13,0 C5.82029825,0 0,5.82029825 0,13 C0,20.1797017 5.82029825,26 13,26 C20.1797017,26 26,20.1797017 26,13 C26,5.82029825 20.1797017,0 13,0 Z M13,2 C19.0751322,2 24,6.92486775 24,13 C24,19.0751322 19.0751322,24 13,24 C6.92486775,24 2,19.0751322 2,13 C2,6.92486775 6.92486775,2 13,2 Z" id="Oval-6"></path>
                <g id="Group-3" transform="translate(8.000000, 8.000000)">
                    <path d="M8.29289322,0.292893219 C8.68341751,-0.0976310729 9.31658249,-0.0976310729 9.70710678,0.292893219 C10.0976311,0.683417511 10.0976311,1.31658249 9.70710678,1.70710678 L1.70710678,9.70710678 C1.31658249,10.0976311 0.683417511,10.0976311 0.292893219,9.70710678 C-0.0976310729,9.31658249 -0.0976310729,8.68341751 0.292893219,8.29289322 L8.29289322,0.292893219 Z" id="Line"></path>
                    <path d="M0.292893219,0.292893219 C0.683417511,-0.0976310729 1.31658249,-0.0976310729 1.70710678,0.292893219 L9.70710678,8.29289322 C10.0976311,8.68341751 10.0976311,9.31658249 9.70710678,9.70710678 C9.31658249,10.0976311 8.68341751,10.0976311 8.29289322,9.70710678 L0.292893219,1.70710678 C-0.0976310729,1.31658249 -0.0976310729,0.683417511 0.292893219,0.292893219 Z" id="Line"></path>
                </g>
            </g>
        </g>
    </g>
</svg>