<?xml version="1.0" encoding="UTF-8"?>
<svg width="27px" height="26px" viewBox="0 0 27 26" version="1.1" xmlns="http://www.w3.org/2000/svg" xmlns:xlink="http://www.w3.org/1999/xlink">
    <title>Fill 4</title>
    <g id="关机" stroke="none" stroke-width="1" fill="none" fill-rule="evenodd">
        <g id="画板" transform="translate(-201, -81)" fill="#FF4B4B">
            <g id="编组-5" transform="translate(170, 62)">
                <path d="M48.6961071,22.2786462 C48.9146302,21.8112644 49.4832704,21.6029191 49.9673831,21.8154499 C54.4295762,23.7747328 57.3131202,28.1025483 57.3131202,32.8424039 C57.3131202,39.5164292 51.705482,44.9464286 44.8131202,44.9464286 C37.9207584,44.9464286 32.3131202,39.5164292 32.3131202,32.8424039 C32.3131202,28.1025483 35.1966642,23.7747328 39.6588573,21.8154499 C40.1434502,21.6029191 40.7120905,21.8112644 40.9306136,22.2786462 C41.1496169,22.746493 40.9354163,23.2975849 40.4527444,23.5096506 C36.6749368,25.167577 34.2342021,28.8308268 34.2342021,32.8424039 C34.2342021,38.4905147 38.9797548,43.0862027 44.8131202,43.0862027 C50.6460053,43.0862027 55.3920382,38.4905147 55.3920382,32.8424039 C55.3920382,28.8308268 52.9513036,25.167577 49.1739762,23.5096506 C48.6908241,23.2975849 48.4771037,22.746493 48.6961071,22.2786462 Z M44.8131202,19.0535714 C45.3059773,19.0535714 45.7059773,19.4664747 45.7059773,19.9752304 L45.7059773,32.4176267 C45.7059773,32.9263825 45.3059773,33.3392857 44.8131202,33.3392857 C44.320263,33.3392857 43.920263,32.9263825 43.920263,32.4176267 L43.920263,19.9752304 C43.920263,19.4664747 44.320263,19.0535714 44.8131202,19.0535714 Z" id="Fill-4" transform="translate(44.8131, 32) rotate(90) translate(-44.8131, -32)"></path>
            </g>
        </g>
    </g>
</svg>