<?xml version="1.0" encoding="UTF-8"?>
<svg width="26px" height="26px" viewBox="0 0 26 26" version="1.1" xmlns="http://www.w3.org/2000/svg" xmlns:xlink="http://www.w3.org/1999/xlink">
    <title>Fill 6</title>
    <g id="关机" stroke="none" stroke-width="1" fill="none" fill-rule="evenodd">
        <g id="画板" transform="translate(-201, -189)" fill="#FF4B4B">
            <g id="编组-5" transform="translate(170, 170)">
                <path d="M55.8770167,21.6220481 C55.3651136,21.5140058 54.865949,21.8404915 54.7583786,22.3500357 L54.1469256,25.2383962 C51.8969107,21.8371889 48.0583447,19.7206935 43.905088,19.7206935 C37.1342841,19.7206935 31.6255456,25.229432 31.6255456,31.9997641 C31.6255456,38.770568 37.1342841,44.2793065 43.905088,44.2793065 C48.7132033,44.2793065 53.1042473,41.4466184 55.0914695,37.0631233 C55.3066103,36.5880205 55.0961875,36.0289374 54.6220283,35.8137965 C54.145982,35.5967684 53.5873706,35.8090785 53.3727015,36.2832376 C51.690734,39.9944176 47.9743643,42.3921059 43.905088,42.3921059 C38.1746034,42.3921059 33.5127462,37.7302487 33.5127462,31.9997641 C33.5127462,26.2697513 38.1746034,21.6078941 43.905088,21.6078941 C47.4289633,21.6078941 50.6853279,23.4082834 52.5880979,26.2999465 L49.6454804,25.6771703 C49.1335772,25.5686563 48.6344127,25.895142 48.5268422,26.405158 C48.4188,26.9151739 48.7448139,27.4157539 49.2548299,27.5237961 L54.3979233,28.612239 C54.4639753,28.6259213 54.5295555,28.6325265 54.5941921,28.6325265 C55.0306073,28.6325265 55.4226732,28.3282154 55.5165614,27.8842514 L56.6050044,22.7406862 C56.7125748,22.2306703 56.3870327,21.7305621 55.8770167,21.6220481" id="Fill-6"></path>
            </g>
        </g>
    </g>
</svg>