<?xml version="1.0" encoding="UTF-8"?>
<svg width="28px" height="28px" viewBox="0 0 28 28" version="1.1" xmlns="http://www.w3.org/2000/svg" xmlns:xlink="http://www.w3.org/1999/xlink">
    <title>画板</title>
    <g id="画板" stroke="none" stroke-width="1" fill="none" fill-rule="evenodd">
        <g id="编组-5" transform="translate(1.500000, 1.000000)" fill="#FF4B4B">
            <path d="M16.3829869,3.22507474 C16.60151,2.75769299 17.1701502,2.54934769 17.6542629,2.76187849 C22.116456,4.7211614 25,9.0489769 25,13.7888324 C25,20.4628578 19.3923618,25.8928571 12.5,25.8928571 C5.60763822,25.8928571 0,20.4628578 0,13.7888324 C0,9.0489769 2.88354401,4.7211614 7.34573712,2.76187849 C7.83033004,2.54934769 8.3989703,2.75769299 8.61749337,3.22507474 C8.83649671,3.69292154 8.62229608,4.24401346 8.13962424,4.45607921 C4.36181658,6.11400552 1.92108195,9.77725533 1.92108195,13.7888324 C1.92108195,19.4369432 6.66663465,24.0326313 12.5,24.0326313 C18.3328851,24.0326313 23.078918,19.4369432 23.078918,13.7888324 C23.078918,9.77725533 20.6381834,6.11400552 16.860856,4.45607921 C16.3777039,4.24401346 16.1639836,3.69292154 16.3829869,3.22507474 Z M12.5,0 C12.9928571,0 13.3928571,0.412903226 13.3928571,0.921658986 L13.3928571,13.3640553 C13.3928571,13.8728111 12.9928571,14.2857143 12.5,14.2857143 C12.0071429,14.2857143 11.6071429,13.8728111 11.6071429,13.3640553 L11.6071429,0.921658986 C11.6071429,0.412903226 12.0071429,0 12.5,0 Z" id="Fill-4"></path>
        </g>
    </g>
</svg>