<?xml version="1.0" encoding="UTF-8"?>
<svg width="16px" height="16px" viewBox="0 0 16 16" version="1.1" xmlns="http://www.w3.org/2000/svg" xmlns:xlink="http://www.w3.org/1999/xlink">
    <title>icon/login/password-hide</title>
    <g id="icon/login/password-hide" stroke="none" stroke-width="1" fill="none" fill-rule="evenodd">
        <rect id="矩形" x="0" y="0" width="16" height="16"></rect>
        <path d="M3.11777967,2.26368975 L13.4624693,12.7222548 C13.7377623,13.0005809 13.7385082,13.4483986 13.464144,13.7276402 C13.1947923,14.0017802 12.7542052,14.005662 12.4800652,13.7363102 L10.701,11.9371882 L10.4368609,12.0248918 C9.69674391,12.2520371 8.88694694,12.3888889 8.01,12.3888889 C3.22333333,12.3888889 0,7.65936508 0,7.65936508 L0.148858387,7.46553258 C0.541955789,6.97489188 1.70343936,5.65292771 3.51209864,4.6693816 L2.1353755,3.27774522 C1.86008256,2.99941914 1.85933663,2.55160143 2.13370083,2.27235978 C2.40305254,1.99821976 2.84363964,1.99433805 3.11777967,2.26368975 Z M4.246,5.41118819 L4.29679272,5.38539573 C3.74582719,5.65979975 3.21750468,5.99258525 2.71254244,6.37606568 C2.27408475,6.70904096 1.87945246,7.06138709 1.53139559,7.41669451 L1.281,7.68 L1.34029606,7.75060976 C1.69000972,8.16193365 2.08479724,8.57393684 2.52010478,8.96764309 L2.85411178,9.25919561 C4.44429531,10.5982124 6.18351296,11.3888889 8.01,11.3888889 C8.66863716,11.3888889 9.30215491,11.3024907 9.91025828,11.138582 L9.049,10.2681882 L8.92792752,10.3222125 C8.64103729,10.4369135 8.32790411,10.5 8,10.5 C6.6195,10.5 5.5,9.381 5.5,8 C5.5,7.61520506 5.58697811,7.25068819 5.74234263,6.92504107 L4.246,5.41118819 Z M8,3.5 C13.1293333,3.5 16,7.65936508 16,7.65936508 L15.8564601,7.87976781 C15.5394869,8.34514661 14.7017577,9.46828278 13.3852249,10.4771391 L12.6765957,9.76032087 C12.8817777,9.60672081 13.0829981,9.44347601 13.2802394,9.27111829 C13.8216419,8.79801814 14.2925482,8.28968054 14.6884219,7.78281795 L14.749,7.702 L14.7264289,7.67665872 C14.4089849,7.32225107 14.0436209,6.96661646 13.6325849,6.62611577 L13.3157795,6.37383349 C11.7804288,5.1989131 10.0052098,4.5 8,4.5 C7.83224141,4.5 7.66592955,4.50507878 7.50107724,4.51509891 L6.60402798,3.60784486 C7.04952385,3.5384089 7.51510283,3.5 8,3.5 Z M6.5285,7.72333333 C6.51,7.81285714 6.5,7.9052381 6.5,8 C6.5,8.78904762 7.1715,9.42857143 8,9.42857143 C8.06947372,9.42857143 8.13784347,9.42407453 8.20480589,9.41536966 L6.53551934,7.72575882 Z M8.52769457,5.55578614 C9.49577041,5.76376743 10.2554785,6.53223133 10.4509336,7.50466972 L8.52769457,5.55578614 Z" id="形状结合" fill="#FFFFFF" fill-rule="nonzero"></path>
    </g>
</svg>