<?xml version="1.0" encoding="UTF-8"?>
<svg width="16px" height="16px" viewBox="0 0 16 16" version="1.1" xmlns="http://www.w3.org/2000/svg" xmlns:xlink="http://www.w3.org/1999/xlink">
    <title>icon/login/password-shown</title>
    <g id="icon/login/password-shown" stroke="none" stroke-width="1" fill="none" fill-rule="evenodd">
        <rect id="矩形" x="0" y="0" width="16" height="16"></rect>
        <g id="iconmonstr-eye-3" transform="translate(0.000000, 3.500000)" fill="#FFFFFF" fill-rule="nonzero">
            <path d="M8,0 C13.1293333,0 16,4.15936508 16,4.15936508 L15.8564601,4.37976781 C15.2210397,5.31268941 12.4928986,8.88888889 8.01,8.88888889 C3.22333333,8.88888889 0,4.15936508 0,4.15936508 L0.148858387,3.96553258 C0.806200378,3.14507756 3.61217391,0 8,0 Z M8,1 C6.0313835,1 4.26199048,1.6993777 2.71254244,2.87606568 C2.27408475,3.20904096 1.87945246,3.56138709 1.53139559,3.91669451 L1.281,4.18 L1.34029606,4.25060976 C1.69000972,4.66193365 2.08479724,5.07393684 2.52010478,5.46764309 L2.85411178,5.75919561 C4.44429531,7.09821238 6.18351296,7.88888889 8.01,7.88888889 C9.99839124,7.88888889 11.7578429,7.10145217 13.2802394,5.77111829 C13.8216419,5.29801814 14.2925482,4.78968054 14.6884219,4.28281795 L14.749,4.202 L14.7264289,4.17665872 C14.4089849,3.82225107 14.0436209,3.46661646 13.6325849,3.12611577 L13.3157795,2.87383349 C11.7804288,1.6989131 10.0052098,1 8,1 Z M8,2 C9.381,2 10.5,3.1195 10.5,4.5 C10.5,5.881 9.381,7 8,7 C6.6195,7 5.5,5.881 5.5,4.5 C5.5,3.1195 6.6195,2 8,2 Z M8,3.07142857 C7.908,3.07142857 7.818,3.08 7.731,3.09428571 C8.04971821,3.82556577 7.40426976,4.54661965 6.5285,4.22333333 C6.51,4.31285714 6.5,4.4052381 6.5,4.5 C6.5,5.28904762 7.1715,5.92857143 8,5.92857143 C8.8285,5.92857143 9.5,5.28904762 9.5,4.5 C9.5,3.71142857 8.8285,3.07142857 8,3.07142857 Z" id="形状结合"></path>
        </g>
    </g>
</svg>