<?xml version="1.0" encoding="UTF-8"?>
<svg width="120px" height="120px" viewBox="0 0 120 120" version="1.1" xmlns="http://www.w3.org/2000/svg" xmlns:xlink="http://www.w3.org/1999/xlink">
    <title>icon/手势密码@2x</title>
    <g id="定制" stroke="none" stroke-width="1" fill="none" fill-rule="evenodd">
        <g id="工行-手势登录1" transform="translate(-900, -439)">
            <g id="icon/手势密码" transform="translate(900, 439)">
                <rect id="矩形" x="0" y="0" width="120" height="120"></rect>
                <g id="编组-8" transform="translate(9, 11)" fill="#FFFFFF">
                    <g id="编组">
                        <circle id="椭圆形" fill-opacity="0.5" cx="9" cy="9" r="9"></circle>
                        <path d="M9,0 C13.9705627,0 18,4.02943725 18,9 C18,13.9705627 13.9705627,18 9,18 C4.02943725,18 0,13.9705627 0,9 C0,4.02943725 4.02943725,0 9,0 Z M9,1.8 C5.0235498,1.8 1.8,5.0235498 1.8,9 C1.8,12.9764502 5.0235498,16.2 9,16.2 C12.9764502,16.2 16.2,12.9764502 16.2,9 C16.2,5.0235498 12.9764502,1.8 9,1.8 Z" id="椭圆形" fill-opacity="0.48" fill-rule="nonzero"></path>
                        <circle id="椭圆形" fill-opacity="0.5" cx="9" cy="42" r="9"></circle>
                        <path d="M9,33 C13.9705627,33 18,37.0294373 18,42 C18,46.9705627 13.9705627,51 9,51 C4.02943725,51 0,46.9705627 0,42 C0,37.0294373 4.02943725,33 9,33 Z M9,34.8 C5.0235498,34.8 1.8,38.0235498 1.8,42 C1.8,45.9764502 5.0235498,49.2 9,49.2 C12.9764502,49.2 16.2,45.9764502 16.2,42 C16.2,38.0235498 12.9764502,34.8 9,34.8 Z" id="椭圆形" fill-opacity="0.48" fill-rule="nonzero"></path>
                        <circle id="椭圆形" fill-opacity="0.5" cx="42" cy="9" r="9"></circle>
                        <path d="M42,0 C46.9705627,0 51,4.02943725 51,9 C51,13.9705627 46.9705627,18 42,18 C37.0294373,18 33,13.9705627 33,9 C33,4.02943725 37.0294373,0 42,0 Z M42,1.8 C38.0235498,1.8 34.8,5.0235498 34.8,9 C34.8,12.9764502 38.0235498,16.2 42,16.2 C45.9764502,16.2 49.2,12.9764502 49.2,9 C49.2,5.0235498 45.9764502,1.8 42,1.8 Z" id="椭圆形" fill-opacity="0.48" fill-rule="nonzero"></path>
                        <circle id="椭圆形" fill-opacity="0.5" cx="42" cy="42" r="9"></circle>
                        <path d="M42,33 C46.9705627,33 51,37.0294373 51,42 C51,46.9705627 46.9705627,51 42,51 C37.0294373,51 33,46.9705627 33,42 C33,37.0294373 37.0294373,33 42,33 Z M42,34.8 C38.0235498,34.8 34.8,38.0235498 34.8,42 C34.8,45.9764502 38.0235498,49.2 42,49.2 C45.9764502,49.2 49.2,45.9764502 49.2,42 C49.2,38.0235498 45.9764502,34.8 42,34.8 Z" id="椭圆形" fill-opacity="0.48" fill-rule="nonzero"></path>
                        <circle id="椭圆形" fill-opacity="0.5" cx="75" cy="9" r="9"></circle>
                        <path d="M75,0 C79.9705627,0 84,4.02943725 84,9 C84,13.9705627 79.9705627,18 75,18 C70.0294373,18 66,13.9705627 66,9 C66,4.02943725 70.0294373,0 75,0 Z M75,1.8 C71.0235498,1.8 67.8,5.0235498 67.8,9 C67.8,12.9764502 71.0235498,16.2 75,16.2 C78.9764502,16.2 82.2,12.9764502 82.2,9 C82.2,5.0235498 78.9764502,1.8 75,1.8 Z" id="椭圆形" fill-opacity="0.48" fill-rule="nonzero"></path>
                        <circle id="椭圆形" fill-opacity="0.5" cx="9" cy="75" r="9"></circle>
                        <path d="M9,66 C13.9705627,66 18,70.0294373 18,75 C18,79.9705627 13.9705627,84 9,84 C4.02943725,84 0,79.9705627 0,75 C0,70.0294373 4.02943725,66 9,66 Z M9,67.8 C5.0235498,67.8 1.8,71.0235498 1.8,75 C1.8,78.9764502 5.0235498,82.2 9,82.2 C12.9764502,82.2 16.2,78.9764502 16.2,75 C16.2,71.0235498 12.9764502,67.8 9,67.8 Z" id="椭圆形" fill-opacity="0.48" fill-rule="nonzero"></path>
                        <circle id="椭圆形" fill-opacity="0.5" cx="42" cy="75" r="9"></circle>
                        <path d="M42,66 C46.9705627,66 51,70.0294373 51,75 C51,79.9705627 46.9705627,84 42,84 C37.0294373,84 33,79.9705627 33,75 C33,70.0294373 37.0294373,66 42,66 Z M42,67.8 C38.0235498,67.8 34.8,71.0235498 34.8,75 C34.8,78.9764502 38.0235498,82.2 42,82.2 C45.9764502,82.2 49.2,78.9764502 49.2,75 C49.2,71.0235498 45.9764502,67.8 42,67.8 Z" id="椭圆形" fill-opacity="0.48" fill-rule="nonzero"></path>
                    </g>
                    <g id="NavICON" transform="translate(54, 49)" fill-rule="nonzero">
                        <g id="CarbonTouch1Filled">
                            <path d="M19.7815816,0 C22.6432118,0 24.9556415,2.35450047 24.9556415,5.25 L24.9550007,15.979 L25.0067549,15.9386372 C25.819922,15.3129961 26.8213401,14.9255947 27.9106889,14.8796134 L28.1297013,14.875 C30.3309554,14.875 32.2072386,16.2681955 32.955989,18.2291422 L33.0030007,18.36 L33.0398857,18.3263552 C33.9025602,17.5473729 35.0242133,17.0567255 36.2588086,17.0046134 L36.4778211,17 C38.6790751,17 40.5553584,18.3931955 41.3041087,20.3541422 L41.3510007,20.485 L41.3880054,20.4513552 C42.2506799,19.6723729 43.3723331,19.1817255 44.6069284,19.1296134 L44.8259408,19.125 C47.6875711,19.125 50,21.4795005 50,24.375 L50,39.25 C50,46.8399199 43.9499906,53 36.4778211,53 L27.2111503,53 C24.8627546,52.9993944 22.6013047,52.1006348 20.876,50.4836091 L1.67772004,32.4955962 C0.556834324,31.45225 -0.054608364,29.9623044 0.00383790176,28.4216109 C0.0623009151,26.880476 0.785221821,25.4421437 2.00739293,24.4702034 C4.09382886,22.9137782 6.98044238,23.1050761 8.83359597,24.9070406 L14.6070007,30.275 L14.6075217,5.25 C14.6075217,2.42874405 16.8028855,0.1210993 19.5625691,0.00461341313 L19.7815816,0 Z M39.651881,22.25 C39.651881,20.4510792 38.2267301,19 36.4778211,19 C34.7289121,19 33.3037612,20.4510792 33.3037612,22.25 C33.3037612,23.5833333 31.3037612,23.5833333 31.3037612,22.25 L31.3037612,20.125 C31.3037612,18.3260792 29.8786103,16.875 28.1297013,16.875 C26.3807923,16.875 24.9556415,18.3260792 24.9556415,20.125 C24.9556415,21.4583333 22.9556415,21.4583333 22.9556415,20.125 L22.9556415,5.25 C22.9556415,3.45107916 21.5304906,2 19.7815816,2 C18.0326726,2 16.6075217,3.45107916 16.6075217,5.25 L16.6075217,32.571125 C16.6075217,33.4446109 15.5662602,33.8982554 14.9265765,33.3034594 L7.45558382,26.3563811 C6.29027708,25.2234802 4.5013841,25.104929 3.22799861,26.0542318 C2.4880933,26.6430243 2.0388393,27.5368655 2.00240039,28.4974265 C1.96594472,29.4584289 2.34650599,30.3857695 3.04278672,31.0338909 L22.2435715,49.0242434 C23.5993021,50.2948892 25.3723013,51 27.2114082,51 L36.4778211,51 C42.8372693,51 48.0000016,45.7433412 48.0000016,39.25 L48.0000016,24.375 C48.0000016,22.5760792 46.5748498,21.125 44.8259408,21.125 C43.0770319,21.125 41.651881,22.5760792 41.651881,24.375 C41.651881,25.7083333 39.651881,25.7083333 39.651881,24.375 L39.651881,22.25 Z" id="路径"></path>
                        </g>
                    </g>
                    <path d="M74,34.5 C80.0751322,34.5 85,39.4248678 85,45.5 C85,46.0522847 84.5522847,46.5 84,46.5 C83.4477153,46.5 83,46.0522847 83,45.5 C83,40.5294373 78.9705627,36.5 74,36.5 C69.0294373,36.5 65,40.5294373 65,45.5 C65,46.0522847 64.5522847,46.5 64,46.5 C63.4477153,46.5 63,46.0522847 63,45.5 C63,39.4248678 67.9248678,34.5 74,34.5 Z" id="路径" fill-rule="nonzero"></path>
                </g>
            </g>
        </g>
    </g>
</svg>