<?xml version="1.0" encoding="UTF-8"?>
<svg width="24px" height="24px" viewBox="0 0 24 24" version="1.1" xmlns="http://www.w3.org/2000/svg" xmlns:xlink="http://www.w3.org/1999/xlink">
    <title>icon/login/fido</title>
    <g id="icon/login/fido" stroke="none" stroke-width="1" fill="none" fill-rule="evenodd">
        <rect id="矩形" fill-rule="nonzero" x="0" y="0" width="24" height="24"></rect>
        <g id="FIDO" transform="translate(12, 12) rotate(-300) translate(-12, -12)translate(3, 8)" fill="#FFFFFF" fill-rule="nonzero">
            <path d="M5,1 C5,0.44771525 5.44771525,0 6,0 L17,8.8817842e-16 C17.5522847,8.8817842e-16 18,0.44771525 18,1 L18,7 C18,7.55228475 17.5522847,8 17,8 L6,8 C5.44771525,8 5,7.55228475 5,7 L5,1 Z M15,1.5 L15,6.5 C15,6.77614237 15.2238576,7 15.5,7 L16.5,7 C16.7761424,7 17,6.77614237 17,6.5 L17,1.5 C17,1.22385763 16.7761424,1 16.5,1 L15.5,1 C15.2238576,1 15,1.22385763 15,1.5 Z M0.5,1 L4,1 L4,1 L4,7 L0.5,7 C0.223857625,7 3.38176876e-17,6.77614237 0,6.5 L0,1.5 C-3.38176876e-17,1.22385763 0.223857625,1 0.5,1 Z" id="形状结合"></path>
        </g>
    </g>
</svg>